<svg width="84" height="68" viewBox="0 0 84 68" fill="none" xmlns="http://www.w3.org/2000/svg">
<path d="M78.1018 18.4219H75.8013V43.7088C75.8013 47.6459 73.5089 51.206 68.9133 51.206H23.8887V52.4082C23.8887 55.8891 27.8477 59.4028 31.9133 59.4028H66.3368L79.5062 67.1459L77.5963 59.4028H78.1018C82.1646 59.4028 83.998 55.8973 83.998 52.4082V24.4246C83.998 20.9437 82.1646 18.4219 78.1018 18.4219Z" fill="#B1A7E4"/>
<path d="M62.1912 0.853516H9.89617C5.29508 0.853516 0 4.94095 0 8.88084V40.5748C0 44.2032 4.48634 46.8235 8.78962 47.2278L5.98907 57.859L23.9344 47.3016H62.1912C66.7923 47.3016 71.0382 44.512 71.0382 40.5748V14.9328V8.88084C71.0382 4.94095 66.7896 0.853516 62.1912 0.853516ZM17.8743 27.6076C15.265 27.6076 13.1503 25.4929 13.1503 22.8836C13.1503 20.2743 15.265 18.1595 17.8743 18.1595C20.4809 18.1595 22.5984 20.2743 22.5984 22.8836C22.5984 25.4929 20.4809 27.6076 17.8743 27.6076ZM35.5191 27.6076C32.9098 27.6076 30.7951 25.4929 30.7951 22.8836C30.7951 20.2743 32.9098 18.1595 35.5191 18.1595C38.1284 18.1595 40.2432 20.2743 40.2432 22.8836C40.2432 25.4929 38.1284 27.6076 35.5191 27.6076ZM53.1667 27.6076C50.5574 27.6076 48.4399 25.4929 48.4399 22.8836C48.4399 20.2743 50.5574 18.1595 53.1667 18.1595C55.7705 18.1595 57.8907 20.2743 57.8907 22.8836C57.8907 25.4929 55.7705 27.6076 53.1667 27.6076Z" fill="#B1A7E4"/>
</svg>
