<svg width="20" height="18" viewBox="0 0 20 18" fill="none" xmlns="http://www.w3.org/2000/svg">
<path d="M18.1667 7.83349H4.33008L8.56508 2.74683C8.76311 2.50857 8.85838 2.20141 8.82994 1.89291C8.80149 1.58442 8.65167 1.29985 8.41341 1.10183C8.17516 0.903797 7.868 0.808525 7.5595 0.836968C7.25101 0.865411 6.96644 1.01524 6.76841 1.25349L0.935081 8.25349C0.895836 8.30917 0.860741 8.36766 0.830081 8.42849C0.830081 8.48683 0.830082 8.52183 0.748415 8.58016C0.695534 8.71393 0.667846 8.85632 0.666748 9.00016C0.667846 9.144 0.695534 9.28639 0.748415 9.42016C0.748415 9.47849 0.748415 9.51349 0.830081 9.57183C0.860741 9.63266 0.895836 9.69115 0.935081 9.74683L6.76841 16.7468C6.87811 16.8785 7.01547 16.9844 7.17073 17.057C7.326 17.1296 7.49535 17.1671 7.66675 17.1668C7.93934 17.1674 8.20352 17.0724 8.41341 16.8985C8.53155 16.8006 8.6292 16.6803 8.70078 16.5445C8.77236 16.4088 8.81645 16.2603 8.83054 16.1075C8.84463 15.9547 8.82843 15.8006 8.78288 15.654C8.73733 15.5075 8.66332 15.3714 8.56508 15.2535L4.33008 10.1668H18.1667C18.4762 10.1668 18.7729 10.0439 18.9917 9.82512C19.2105 9.60632 19.3334 9.30958 19.3334 9.00016C19.3334 8.69074 19.2105 8.39399 18.9917 8.1752C18.7729 7.95641 18.4762 7.83349 18.1667 7.83349Z" fill="#545454"/>
</svg>
