<svg width="151" height="38" viewBox="0 0 151 38" fill="none" xmlns="http://www.w3.org/2000/svg">
<path d="M29.8999 4.38759L21.5344 32.5353L20.9574 34.4548L17.0742 33.3009L17.9951 30.1832L25.9279 3.5H26.9265L29.8999 4.38759Z" fill="#2C2C2C"/>
<path opacity="0.2" d="M21.5344 32.5396L20.9574 34.459L17.0742 33.3052L17.9951 30.1875L21.5344 32.5396Z" fill="#2C2C2C"/>
<path d="M26.0586 34.1879V34.4986H30.7628L35.8221 27.6864L36.1106 27.3092L41.2475 20.375V20.3972L42.5345 18.6775L37.0093 10.9556L31.6726 3.5H27.0017V3.67752L37.7859 18.4667L26.0586 34.1879Z" fill="#2C2C2C"/>
<path d="M20.9993 34.1879V34.4986H16.284L11.2358 27.6864L10.9474 27.3092L5.79935 20.375V20.3972L4.52344 18.6775L10.0376 10.9556L15.3853 3.5H20.0563V3.67752L9.27205 18.4667L20.9993 34.1879Z" fill="#2C2C2C"/>
<path d="M4.95941 3.53516H0V34.5343H4.95941V3.53516Z" fill="#2C2C2C"/>
<path d="M47.1442 0H45.957V38H47.1442V0Z" fill="#2C2C2C"/>
<path d="M70.4528 3.85189L60.0347 14.6916L71.3626 26.2192V26.4522H66.8137L56.684 16.1006V26.4522H53.0449V3.71875H56.684V13.5155L65.9372 3.71875H70.4528V3.85189Z" fill="#2C2C2C"/>
<path d="M88.036 18.4566C88.036 23.1942 84.7519 26.7667 79.7259 26.7667C74.7221 26.7667 71.4824 23.1942 71.4824 18.4566C71.4824 13.7524 74.7554 10.1133 79.7259 10.1133C84.6631 10.1133 88.036 13.7524 88.036 18.4566ZM74.8331 18.4566C74.8331 21.3191 76.6859 23.6491 79.737 23.6491C82.8214 23.6491 84.6743 21.308 84.6743 18.4566C84.6743 15.6274 82.6661 13.1977 79.737 13.1977C76.6748 13.1977 74.8331 15.6385 74.8331 18.4566Z" fill="#2C2C2C"/>
<path d="M107.671 3.75781V26.4469H104.52L104.32 23.9172C103.055 25.9587 100.914 26.7797 98.7726 26.7797C94.135 26.7797 90.5957 23.7286 90.5957 18.4364C90.5957 12.9777 94.0684 10.093 98.7061 10.093C100.659 10.093 103.288 11.0693 104.32 12.9444V3.75781H107.671ZM93.9464 18.4253C93.9464 21.6428 96.1875 23.651 99.0056 23.651C101.802 23.651 104.098 21.5762 104.098 18.4253C104.098 15.3409 101.79 13.2329 99.0056 13.2329C96.1875 13.2329 93.9464 15.1523 93.9464 18.4253Z" fill="#2C2C2C"/>
<path d="M114.729 19.6787C115.017 22.1084 117.036 23.7061 119.954 23.7061C121.574 23.7061 123.627 23.0848 124.592 21.9864L126.767 24.0944C125.114 25.914 122.351 26.8238 119.888 26.8238C114.629 26.8238 111.256 23.4842 111.256 18.3473C111.256 13.4766 114.662 10.0039 119.666 10.0039C124.825 10.0039 128.331 13.1549 127.721 19.6787H114.729ZM124.503 16.8605C124.304 14.3309 122.462 12.9995 119.766 12.9995C117.336 12.9995 115.317 14.3309 114.795 16.8605H124.503Z" fill="#2C2C2C"/>
<path d="M142.993 10.4375V11.9908L134.938 23.1522H143.048V26.4363H129.801V25.0717L138.078 13.4886H130.356V10.4375H142.993Z" fill="#2C2C2C"/>
<path d="M150.357 5.72228C150.357 8.48491 146.207 8.48491 146.207 5.72228C146.207 3.00403 150.357 3.00403 150.357 5.72228ZM146.595 10.371V26.4364H149.935V10.371H146.595Z" fill="#2C2C2C"/>
<path d="M53.0645 33.1135V33.0581C53.0645 31.86 53.8078 31.0391 54.8618 31.0391C55.4499 31.0391 55.8271 31.2498 56.1377 31.5605L55.6496 32.1928C55.4166 31.9487 55.1614 31.7934 54.8396 31.7934C54.3071 31.7934 53.9188 32.2815 53.9188 33.0581V33.0802C53.9188 33.8679 54.3293 34.3449 54.8507 34.3449C55.1725 34.3449 55.4055 34.2007 55.6607 33.9344L56.1488 34.5224C55.7938 34.8885 55.4166 35.1214 54.8063 35.1214C53.7634 35.1214 53.0645 34.3227 53.0645 33.1135Z" fill="#2C2C2C"/>
<path d="M59.502 33.1246V33.0581C59.502 31.8711 60.2453 31.0391 61.2993 31.0391C62.3533 31.0391 63.0856 31.86 63.0856 33.047V33.1135C63.0856 34.3005 62.3422 35.1325 61.2882 35.1325C60.2453 35.1325 59.502 34.3005 59.502 33.1246ZM62.2424 33.1024V33.0581C62.2424 32.2815 61.843 31.7823 61.2993 31.7823C60.7446 31.7823 60.3563 32.2704 60.3563 33.047V33.0802C60.3563 33.8568 60.7557 34.356 61.3104 34.356C61.8541 34.3782 62.2424 33.8901 62.2424 33.1024Z" fill="#2C2C2C"/>
<path d="M66.7891 31.1133H68.065C69.2188 31.1133 69.9511 31.9121 69.9511 33.066V33.1215C69.9511 34.2753 69.2077 35.0852 68.065 35.0852H66.7891V31.1133ZM67.6101 31.8566V34.3308H68.065C68.6863 34.3308 69.1079 33.8981 69.1079 33.1104V33.0771C69.1079 32.2893 68.6863 31.8455 68.065 31.8455L67.6101 31.8566Z" fill="#2C2C2C"/>
<path d="M73.6875 31.1133H74.5091V35.0742H73.6875V31.1133Z" fill="#2C2C2C"/>
<path d="M78.4004 31.1133H79.1548L80.6748 33.421V31.1133H81.4737V35.0742H80.7747L79.2103 32.6777V35.0742H78.4115L78.4004 31.1133Z" fill="#2C2C2C"/>
<path d="M85.1719 33.114V33.0585C85.1719 31.8823 85.9485 31.0391 87.0247 31.0391C87.5795 31.0391 87.9567 31.1944 88.3228 31.5051L87.8346 32.1486C87.6238 31.96 87.3909 31.8047 87.0136 31.8047C86.4478 31.8047 86.0151 32.3151 86.0151 33.0474V33.0918C86.0151 33.9018 86.4589 34.3678 87.0469 34.3678C87.2799 34.3678 87.4907 34.3123 87.6349 34.2013V33.5023H86.9138V32.7922H88.4116V34.623C88.0455 34.8893 87.5906 35.1112 87.0025 35.1112C85.9374 35.1223 85.1719 34.3567 85.1719 33.114Z" fill="#2C2C2C"/>
<path d="M96.502 31.1133H97.3673L98.2549 32.722L99.1203 31.1133H99.9857V35.0742H99.1869V32.5445L98.2549 34.1755H98.2328L97.3008 32.5556V35.0742H96.502V31.1133Z" fill="#2C2C2C"/>
<path d="M104.959 31.0742H105.735L107.155 35.0567H106.301L106.002 34.1914H104.637L104.348 35.0567H103.527L104.959 31.0742ZM105.769 33.4704L105.336 32.1836L104.903 33.4704H105.769Z" fill="#2C2C2C"/>
<path d="M110.705 31.1133H111.981C113.135 31.1133 113.867 31.9121 113.867 33.066V33.1215C113.867 34.2753 113.124 35.0852 111.981 35.0852H110.705V31.1133ZM111.526 31.8566V34.3308H111.981C112.602 34.3308 113.024 33.8981 113.024 33.1104V33.0771C113.024 32.2893 112.602 31.8455 111.981 31.8455L111.526 31.8566Z" fill="#2C2C2C"/>
<path d="M117.568 31.1133H120.12V31.8566H118.378V32.7109H119.909V33.4543H118.378V34.3419H120.142V35.0852H117.568V31.1133Z" fill="#2C2C2C"/>
<path d="M128.176 31.1133H130.728V31.8566H128.986V32.7109H130.517V33.4543H128.986V34.3419H130.75V35.0852H128.176V31.1133Z" fill="#2C2C2C"/>
<path d="M135.576 31.0742H136.352L137.773 35.0567H136.918L136.619 34.1914H135.254L134.966 35.0567H134.145L135.576 31.0742ZM136.386 33.4704L135.953 32.1836L135.52 33.4704H136.386Z" fill="#2C2C2C"/>
<path d="M140.99 34.5424L141.478 33.9433C141.745 34.1762 142.066 34.3871 142.466 34.3871C142.788 34.3871 142.976 34.2317 142.976 33.9987V33.9876C142.976 33.7879 142.865 33.6659 142.299 33.4551C141.6 33.1888 141.157 32.9225 141.157 32.2346V32.2236C141.157 31.5357 141.689 31.0586 142.455 31.0586C142.921 31.0586 143.376 31.2139 143.731 31.5468L143.276 32.1681C143.021 31.9684 142.743 31.8019 142.433 31.8019C142.144 31.8019 141.978 31.9462 141.978 32.1459V32.157C141.978 32.3789 142.111 32.4898 142.732 32.745C143.42 33.0113 143.797 33.3108 143.797 33.9322V33.9433C143.797 34.6755 143.231 35.1304 142.466 35.1304C141.955 35.1193 141.434 34.9529 140.99 34.5424Z" fill="#2C2C2C"/>
<path d="M148.254 33.5098L146.967 31.1133H147.899L148.675 32.6666L149.463 31.1133H150.373L149.086 33.4987V35.0742H148.265L148.254 33.5098Z" fill="#2C2C2C"/>
</svg>
