<svg width="42" height="42" viewBox="0 0 42 42" fill="none" xmlns="http://www.w3.org/2000/svg">
<g clip-path="url(#clip0)">
<path d="M37.418 15.3955C37.3327 15.2569 37.2901 15.0969 37.3008 14.937C37.5353 11.5993 36.9489 9.14677 35.5626 7.6539C34.4003 6.40629 33.0247 6.22501 32.6729 6.20369C32.3956 6.29966 32.1504 6.40629 31.9158 6.52359C34.0698 7.60059 35.552 9.81857 35.552 12.3884C35.552 15.0649 33.9418 17.3682 31.6385 18.3812C33.1101 18.6158 34.4963 18.136 34.5923 18.104C34.9655 17.9654 35.392 18.168 35.52 18.5412C35.6586 18.9144 35.4667 19.3303 35.0828 19.4689C34.9868 19.5009 33.8672 19.8954 32.4596 19.8954C31.4146 19.8954 30.199 19.6715 29.1326 18.9251C29.09 18.9251 29.0367 18.9251 28.994 18.9251C26.7654 18.9251 24.8033 17.8161 23.6197 16.1206C23.4917 16.2166 23.3424 16.2592 23.1931 16.2592C23.0332 16.2592 22.8732 16.2059 22.7453 16.0993C22.4254 15.854 22.3721 15.3955 22.628 15.0756C22.7133 14.9583 22.7986 14.841 22.8839 14.7237C22.596 13.9879 22.4467 13.1989 22.4467 12.3671C22.4467 10.2558 23.4384 8.38968 24.9846 7.18472C25.0806 7.04609 25.2192 6.95012 25.3791 6.90747C26.4135 6.22501 27.6611 5.8198 28.994 5.8198C29.3672 5.8198 29.7298 5.8518 30.0817 5.91578C30.4975 5.59587 30.9987 5.30796 31.5745 5.05204C30.4762 3.10065 28.8554 3.39922 28.6634 3.44188C28.5461 3.4632 28.4395 3.4632 28.3222 3.44188L27.0106 5.22266C26.872 5.4146 26.6481 5.52123 26.4241 5.52123C26.2748 5.52123 26.1256 5.47858 25.9869 5.37194C25.667 5.13735 25.5924 4.67883 25.8377 4.35892L27.1812 2.55682C24.4941 0.488124 22.3401 1.90635 21.7109 2.41819V37.8845C22.692 39.6333 23.7476 40.5397 24.8566 40.5504C24.8673 40.5504 24.878 40.5504 24.8886 40.5504C26.776 40.5504 28.6528 38.0445 29.2179 37.0741C29.3246 36.8928 29.5165 36.7542 29.7298 36.7222C30.6788 36.5623 31.3506 36.1784 31.7132 35.5919C32.3849 34.4829 31.8838 32.9261 31.8838 32.9154C31.7665 32.5529 31.9371 32.169 32.289 32.0197C35.2641 30.7401 35.52 27.9569 35.4133 26.4321C34.5816 26.9013 33.7605 27.1359 32.9821 27.1359C32.6195 27.1359 32.257 27.0825 31.9051 26.9866C29.5485 26.3041 28.5035 23.5423 28.4608 23.425C28.3222 23.0518 28.5142 22.6253 28.8874 22.4866C29.2606 22.348 29.6765 22.54 29.8257 22.9132C29.8364 22.9452 30.6681 25.1098 32.321 25.5897C33.2487 25.8563 34.3257 25.5364 35.5093 24.63C35.5626 24.5873 35.6159 24.5553 35.6693 24.534C40.9903 20.8871 37.5673 15.6194 37.418 15.3955ZM28.5142 30.6334C28.5142 31.0387 28.1836 31.3586 27.789 31.3586C25.6564 31.3586 24.4088 34.9095 24.3981 34.9414C24.2915 35.2507 24.0142 35.4426 23.705 35.4426C23.6303 35.4426 23.5557 35.432 23.4704 35.4C23.0865 35.272 22.8839 34.8561 23.0119 34.4829C23.0545 34.3656 23.705 32.4569 25.0379 31.1453C25.0379 31.1453 25.0379 31.1453 25.0379 31.1346C25.0592 31.028 25.5497 28.746 23.1931 26.3788C22.9052 26.0909 22.9052 25.6323 23.1931 25.3444C23.4811 25.0565 23.9396 25.0565 24.2275 25.3444C26.0189 27.1359 26.4775 28.938 26.5414 30.1323C26.9253 29.983 27.3412 29.8977 27.789 29.8977C28.1943 29.9083 28.5142 30.2282 28.5142 30.6334Z" fill="white"/>
<path d="M20.2595 2.38556C19.545 1.79907 17.2844 0.391509 14.4799 2.82276C15.1837 3.7398 16.3034 5.19002 16.7406 5.62722C17.0285 5.91513 17.0285 6.37366 16.7406 6.66157C16.6019 6.80019 16.41 6.87483 16.2287 6.87483C16.0475 6.87483 15.8555 6.80019 15.7169 6.66157C15.1197 6.06442 13.6269 4.10236 13.1044 3.4199C12.5819 3.37725 11.3236 3.46256 10.4172 5.07273C14.192 6.72555 14.2347 10.0845 14.2347 10.2338C14.2347 10.639 13.9041 10.9589 13.5096 10.9589C13.1044 10.9589 12.7845 10.639 12.7845 10.2338C12.7845 10.1058 12.6992 7.39734 9.31887 6.20304C8.93499 6.23503 7.58074 6.42697 6.4291 7.67459C5.05352 9.17812 4.46704 11.62 4.7123 14.9363C4.72296 15.0963 4.68031 15.2562 4.595 15.3949C4.44571 15.6188 1.00145 20.9718 6.4291 24.5867L6.43976 24.5973C6.45042 24.608 6.46109 24.608 6.46109 24.6187C7.3888 25.3224 8.24187 25.6743 9.02029 25.6637C9.58545 24.3521 10.6731 23.3284 12.0274 22.8592C11.7288 21.377 11.9634 19.8415 12.3579 18.6259C11.9527 18.7218 11.5582 18.7645 11.1743 18.7645C8.28452 18.7645 6.23716 16.2479 6.14119 16.12C5.88527 15.8107 5.93858 15.3522 6.25848 15.0963C6.56772 14.8404 7.02625 14.8937 7.28217 15.2136C7.37814 15.3309 9.71341 18.1673 12.5712 17.037C14.0534 16.4505 14.9705 15.7254 15.7062 15.1496C16.6126 14.4458 17.4657 13.774 18.6067 14.3392C18.9692 14.5205 19.1078 14.9577 18.9372 15.3202C18.7559 15.6828 18.3187 15.8214 17.9562 15.6508C17.6789 15.5122 17.487 15.6081 16.6019 16.3012C16.0261 16.7598 15.2797 17.3356 14.224 17.8794C14.2134 17.9327 14.192 17.9861 14.1707 18.0394C14.1067 18.178 13.0084 20.428 13.4563 22.582C13.5416 22.582 13.6375 22.5713 13.7228 22.5713C14.9171 22.5713 16.0261 22.9872 16.8899 23.6803C16.9325 23.499 17.0285 23.3391 17.1991 23.2324C17.4337 23.0725 18.5747 22.1874 17.6789 20.8438C17.455 20.5133 17.551 20.0547 17.8815 19.8308C18.2121 19.6069 18.6706 19.7029 18.8946 20.0334C20.1848 21.9742 19.0758 23.7336 18.0095 24.4481C17.9242 24.5014 17.8389 24.5334 17.7536 24.5547C18.4254 25.4184 18.8306 26.5061 18.8306 27.6791C18.8306 29.9397 17.359 31.8484 15.3223 32.5202C14.6506 34.0131 14.8958 35.1647 14.9171 35.2287C15.0024 35.6233 14.7678 36.0071 14.384 36.1031C14.3307 36.1138 14.2667 36.1244 14.2134 36.1244C13.8828 36.1244 13.5949 35.9112 13.5096 35.5806C13.4882 35.506 13.2217 34.3437 13.6908 32.7761C10.897 32.7442 8.64708 30.4835 8.64708 27.6791C8.64708 27.4871 8.65774 27.2952 8.67907 27.1139C8.00728 27.0606 7.32482 26.826 6.62104 26.4421C6.51441 27.9776 6.78099 30.7501 9.75607 32.019C10.108 32.1683 10.2786 32.5629 10.1613 32.9148C10.1613 32.9254 9.6601 34.4929 10.3319 35.5913C10.6944 36.1884 11.3556 36.5616 12.3153 36.7216C12.5285 36.7536 12.7098 36.8815 12.8271 37.0735C13.3923 38.0438 15.2797 40.5497 17.1564 40.5497C17.1671 40.5497 17.1778 40.5497 17.1884 40.5497C18.2868 40.5284 19.3318 39.654 20.3128 37.9265V2.38556H20.2595ZM8.97764 14.5631C7.17553 14.5631 5.70399 13.0916 5.70399 11.2895C5.70399 9.48736 7.17553 8.01581 8.97764 8.01581C10.7798 8.01581 12.2513 9.48736 12.2513 11.2895C12.2513 13.0916 10.7798 14.5631 8.97764 14.5631Z" fill="white"/>
<path d="M38.7614 14.8084C38.9854 11.1722 38.2603 8.42103 36.6181 6.66158C35.3385 5.286 33.835 4.89146 33.0779 4.78482C31.9155 2.33225 29.9428 1.86306 28.7485 1.9697C25.2509 -1.28263 22.1692 0.306212 20.9963 1.13795C19.8233 0.295548 16.7416 -1.29329 13.2547 1.95903C12.0497 1.84174 10.077 2.32159 8.92534 4.77416C8.16824 4.88079 6.6647 5.27534 5.3851 6.65091C3.74294 8.42103 3.01783 11.1615 3.24176 14.7977C2.93253 15.3202 2.20742 16.7171 1.98349 18.4659C1.73823 20.4493 2.11145 23.2431 5.21449 25.5144C4.85193 27.6364 5.19316 31.2833 8.58411 33.0747C8.44548 33.8425 8.34951 35.1861 9.04263 36.327C9.58647 37.2228 10.4822 37.8199 11.7085 38.0865C12.327 39.0462 14.4596 42 17.1255 42C17.1468 42 17.1575 42 17.1788 42C18.6077 41.9786 19.8979 41.1362 21.0176 39.4941C22.1479 41.1362 23.4382 41.9893 24.8564 42C24.8777 42 24.8884 42 24.9097 42C27.5756 42 29.7082 39.0462 30.3267 38.0865C31.553 37.8199 32.4487 37.2228 32.9925 36.327C33.6857 35.1861 33.5897 33.8425 33.4511 33.0747C36.8314 31.2833 37.1726 27.6257 36.8207 25.5144C42.2164 21.5476 39.4439 15.992 38.7614 14.8084ZM35.6691 24.5227C35.6157 24.544 35.5624 24.576 35.5091 24.6187C34.3255 25.5251 33.2485 25.845 32.3208 25.5784C30.6786 25.0985 29.8362 22.9339 29.8255 22.9019C29.6869 22.5287 29.271 22.3367 28.8872 22.4753C28.5139 22.614 28.322 23.0298 28.4606 23.4137C28.5033 23.531 29.5483 26.2928 31.9049 26.9753C32.2568 27.0819 32.6193 27.1246 32.9819 27.1246C33.771 27.1246 34.5814 26.89 35.4131 26.4208C35.5198 27.9456 35.2638 30.7394 32.2888 32.0084C31.9475 32.1577 31.7663 32.5522 31.8836 32.9041C31.8836 32.9148 32.3847 34.4823 31.7129 35.5806C31.3504 36.1778 30.6893 36.551 29.7296 36.7109C29.5163 36.7429 29.335 36.8709 29.2177 37.0628C28.6526 38.0332 26.7651 40.5391 24.8884 40.5391C24.8777 40.5391 24.8671 40.5391 24.8564 40.5391C23.7474 40.5177 22.6917 39.622 21.7107 37.8732V2.41756C22.3398 1.89505 24.4832 0.487489 27.181 2.55618L25.8481 4.35829C25.6028 4.67819 25.6775 5.13671 25.9974 5.37131C26.1253 5.46728 26.2853 5.5206 26.4346 5.5206C26.6585 5.5206 26.8718 5.41396 27.0211 5.22202L28.3433 3.4519C28.45 3.47323 28.5673 3.48389 28.6845 3.4519C28.8765 3.40925 30.4973 3.11068 31.5956 5.06207C31.0092 5.31799 30.5186 5.6059 30.1028 5.9258C27.7888 7.67459 27.7568 10.1058 27.7568 10.2338C27.7568 10.639 28.0874 10.9589 28.4819 10.9589C28.8765 10.9589 29.2071 10.6283 29.2071 10.2338C29.2071 10.2125 29.239 7.83455 31.9155 6.52295C32.1501 6.40565 32.4061 6.29902 32.6726 6.20305C33.0245 6.22438 34.4001 6.40565 35.5624 7.65327C36.9593 9.14614 37.5458 11.5987 37.3005 14.9363C37.2899 15.0963 37.3325 15.2562 37.4178 15.3949C37.5671 15.6188 40.9901 20.8865 35.6691 24.5227ZM17.1361 40.5497C17.1255 40.5497 17.1148 40.5497 17.1041 40.5497C15.2167 40.5497 13.34 38.0438 12.7748 37.0735C12.6682 36.8922 12.4762 36.7536 12.263 36.7216C11.3139 36.5616 10.6421 36.1778 10.2796 35.5913C9.60779 34.4823 10.109 32.9254 10.109 32.9148C10.2263 32.5522 10.0557 32.1683 9.70376 32.0191C6.73935 30.7501 6.47276 27.9776 6.56873 26.4421C7.27251 26.8367 7.96563 27.0606 8.62676 27.1139C8.74406 27.1246 8.86136 27.1352 8.96799 27.1352C9.33054 27.1352 9.6931 27.0819 10.045 26.9859C11.3246 26.6127 12.2097 25.6424 12.7641 24.8C13.1587 25.4291 13.7025 26.0049 14.4383 26.4954C14.5663 26.5807 14.7049 26.6127 14.8435 26.6127C15.0781 26.6127 15.3127 26.4954 15.4513 26.2928C15.6752 25.9623 15.5793 25.5037 15.2487 25.2798C14.1504 24.544 13.6279 23.5843 13.4253 22.5926C12.9774 20.4386 14.0757 18.178 14.1397 18.05C14.161 17.9967 14.1824 17.9434 14.193 17.8901C15.2487 17.3463 15.9845 16.7598 16.571 16.3119C17.456 15.6188 17.648 15.5228 17.9252 15.6615C18.2878 15.8427 18.725 15.6934 18.9062 15.3309C19.0875 14.9683 18.9382 14.5311 18.5757 14.3499C17.4347 13.7847 16.5816 14.4458 15.6752 15.1603C14.9395 15.7361 14.0224 16.4612 12.5402 17.0477C9.6931 18.1887 7.35782 15.3522 7.25119 15.2243C6.99527 14.915 6.53674 14.8617 6.22751 15.107C5.91827 15.3629 5.86495 15.8214 6.11021 16.1306C6.21684 16.2586 8.26421 18.7752 11.1433 18.7752C11.5272 18.7752 11.9217 18.7325 12.3269 18.6365C11.9324 19.8522 11.6978 21.3877 11.9964 22.8699C12.007 22.9339 12.0284 23.0085 12.039 23.0725C11.8044 23.595 10.994 25.1838 9.61846 25.5784C9.41585 25.6424 9.20258 25.6637 8.98932 25.6637C8.21089 25.6743 7.35782 25.3225 6.43011 24.6187C6.41945 24.608 6.40878 24.608 6.40878 24.5973L6.39812 24.5867C0.970467 20.9718 4.41473 15.6188 4.56402 15.3949C4.64933 15.2562 4.69198 15.0963 4.68132 14.9363C4.44672 11.62 5.02255 9.17813 6.39812 7.67459C7.5391 6.42698 8.89335 6.23504 9.28789 6.20305C12.6575 7.39735 12.7428 10.1058 12.7535 10.2338C12.7535 10.639 13.084 10.9589 13.4786 10.9589C13.8838 10.9589 14.2037 10.6283 14.2037 10.2338C14.2037 10.0845 14.161 6.72555 10.3862 5.07273C11.2926 3.46257 12.5509 3.37726 13.0734 3.41991C13.5959 4.10237 15.0888 6.06443 15.6859 6.66158C15.8245 6.8002 16.0165 6.87484 16.1978 6.87484C16.379 6.87484 16.571 6.8002 16.7096 6.66158C16.9975 6.37366 16.9975 5.91514 16.7096 5.62723C16.2831 5.19003 15.1527 3.75048 14.449 2.82277C17.2534 0.391519 19.5141 1.79908 20.2285 2.38557V37.9266C19.2901 39.6434 18.2345 40.5284 17.1361 40.5497Z" fill="#602F75"/>
<path d="M13.6484 32.7666C13.947 31.7643 14.5441 30.6019 15.7064 29.4396C15.9943 29.1517 16.4528 29.1517 16.7408 29.4396C17.0287 29.7276 17.0287 30.1861 16.7408 30.474C16.037 31.1778 15.5891 31.8816 15.3012 32.5214C17.3379 31.8496 18.8094 29.9408 18.8094 27.6802C18.8094 26.4965 18.4042 25.4195 17.7324 24.5558C17.6898 24.5665 17.6365 24.5771 17.5938 24.5771C17.3592 24.5771 17.1246 24.4598 16.986 24.2572C16.8687 24.0866 16.8367 23.884 16.8794 23.7027C16.005 23.0096 14.9067 22.5938 13.7124 22.5938C13.6271 22.5938 13.5311 22.5938 13.4458 22.6044C13.6484 23.5961 14.1815 24.5558 15.2692 25.2916C15.5998 25.5155 15.6957 25.9634 15.4718 26.3046C15.3332 26.5179 15.0986 26.6245 14.864 26.6245C14.7254 26.6245 14.5868 26.5819 14.4588 26.5072C13.723 26.0167 13.1792 25.4409 12.7846 24.8117C12.2302 25.6541 11.3344 26.6245 10.0655 26.9977C9.7136 27.1044 9.35104 27.147 8.98849 27.147C8.87119 27.147 8.76456 27.1363 8.64726 27.1257C8.62593 27.307 8.61527 27.4989 8.61527 27.6908C8.60461 30.4633 10.8652 32.7346 13.6484 32.7666Z" fill="#FFE600"/>
<path d="M9.01953 25.6649C9.2328 25.6649 9.44607 25.6329 9.64867 25.5796C11.0242 25.185 11.8347 23.5962 12.0693 23.0737C12.0479 23.0097 12.0373 22.9351 12.0266 22.8711C10.6724 23.3296 9.58469 24.3533 9.01953 25.6649Z" fill="#FFE600"/>
<path d="M27.9581 17.7817C26.8704 16.3421 26.4012 15.0945 26.06 14.1775C25.7294 13.3137 25.6015 13.0365 25.3882 12.9512C25.015 13.9962 24.4925 15.0625 23.7567 15.9902C23.7141 16.0435 23.6607 16.0862 23.6074 16.1289C24.7911 17.8243 26.7531 18.9333 28.9818 18.9333C29.0244 18.9333 29.0777 18.9333 29.1204 18.9333C28.7152 18.6347 28.31 18.2615 27.9581 17.7817Z" fill="#00E7FF"/>
<path d="M25.377 6.91668C25.4409 6.89536 25.5049 6.88469 25.5689 6.88469C25.9741 6.87403 26.3047 7.2046 26.3047 7.59914C26.3047 7.71644 26.326 9.46523 25.8035 11.5446C26.7205 11.8325 27.0618 12.7175 27.4137 13.6559C27.7442 14.5303 28.1601 15.6286 29.1091 16.8976C29.8023 17.8253 30.73 18.2198 31.615 18.3691C33.9183 17.3561 35.5285 15.0528 35.5285 12.3763C35.5285 9.80645 34.0463 7.57781 31.8923 6.51148C29.2158 7.83373 29.1838 10.201 29.1838 10.2223C29.1838 10.6275 28.8532 10.9474 28.4587 10.9474C28.0641 10.9474 27.7336 10.6169 27.7336 10.2223C27.7336 10.0944 27.7655 7.66312 30.0795 5.91433C29.7276 5.85035 29.3651 5.81836 28.9918 5.81836C27.6589 5.82902 26.4113 6.23423 25.377 6.91668Z" fill="#00E7FF"/>
<path d="M24.8553 7.63161C24.8553 7.47166 24.8979 7.32237 24.9832 7.20508C23.437 8.39937 22.4453 10.2761 22.4453 12.3875C22.4453 13.2192 22.6053 14.019 22.8825 14.7441C24.8872 11.865 24.8553 7.67427 24.8553 7.63161Z" fill="#00E7FF"/>
<path d="M8.97677 14.561C10.7848 14.561 12.2504 13.0953 12.2504 11.2873C12.2504 9.47933 10.7848 8.01367 8.97677 8.01367C7.16879 8.01367 5.70312 9.47933 5.70312 11.2873C5.70312 13.0953 7.16879 14.561 8.97677 14.561Z" fill="#EA3457"/>
<path d="M16.7397 29.4386C16.4517 29.1507 15.9932 29.1507 15.7053 29.4386C14.543 30.6009 13.9458 31.7632 13.6473 32.7656C13.1781 34.3331 13.4553 35.4954 13.466 35.57C13.5513 35.9006 13.8392 36.1139 14.1698 36.1139C14.2231 36.1139 14.2871 36.1032 14.3404 36.0925C14.7243 35.9966 14.9695 35.602 14.8736 35.2181C14.8629 35.1542 14.607 34.0025 15.2788 32.5096C15.5667 31.8698 16.0145 31.1767 16.7183 30.4623C17.0169 30.185 17.0169 29.7265 16.7397 29.4386Z" fill="#602F75"/>
<path d="M29.1199 16.9104C28.1602 15.6308 27.755 14.5431 27.4245 13.6687C27.0726 12.7303 26.7313 11.8453 25.8143 11.5574C26.3261 9.478 26.3155 7.72921 26.3155 7.61191C26.3048 7.2067 25.9849 6.87613 25.5797 6.89746C25.5157 6.89746 25.4517 6.90813 25.3878 6.92945C25.2278 6.97211 25.0892 7.07874 24.9932 7.2067C24.9079 7.324 24.8546 7.47328 24.8652 7.63323C24.8652 7.67589 24.8972 11.8666 22.8925 14.7457C22.8072 14.863 22.7219 14.9803 22.6366 15.0976C22.3914 15.4175 22.4447 15.876 22.7539 16.1213C22.8925 16.2279 23.0418 16.2812 23.2018 16.2812C23.3511 16.2812 23.5003 16.2279 23.6283 16.1426C23.6816 16.1 23.7349 16.0573 23.7776 16.004C24.5134 15.0763 25.0359 14.0099 25.4091 12.9649C25.6117 13.0502 25.7503 13.3275 26.0809 14.1912C26.4221 15.1083 26.8913 16.3559 27.9789 17.7954C28.3415 18.2753 28.736 18.6485 29.1519 18.9364C30.2182 19.6828 31.4232 19.9068 32.4789 19.9068C33.8864 19.9068 35.0167 19.5122 35.1021 19.4802C35.4753 19.3416 35.6779 18.9257 35.5393 18.5525C35.4006 18.1793 34.9848 17.9767 34.6115 18.1153C34.5156 18.1473 33.1293 18.6378 31.6578 18.3926C30.7408 18.2326 29.813 17.8381 29.1199 16.9104Z" fill="#602F75"/>
<path d="M16.9751 24.2382C17.1137 24.4515 17.3483 24.5581 17.5829 24.5581C17.6256 24.5581 17.6789 24.5474 17.7215 24.5368C17.8068 24.5155 17.9028 24.4835 17.9774 24.4302C19.0438 23.7157 20.1528 21.9562 18.8625 20.0155C18.6386 19.6849 18.1907 19.589 17.8495 19.8129C17.5189 20.0368 17.423 20.4847 17.6469 20.8259C18.5426 22.1695 17.4016 23.0546 17.167 23.2145C17.0071 23.3212 16.9005 23.4918 16.8578 23.6624C16.8365 23.865 16.8685 24.0676 16.9751 24.2382Z" fill="#602F75"/>
<path d="M27.7862 29.9098C27.3384 29.9098 26.9225 29.9951 26.5386 30.1444C26.464 28.9608 26.0161 27.148 24.2246 25.3566C23.9367 25.0686 23.4782 25.0686 23.1903 25.3566C22.9024 25.6445 22.9024 26.103 23.1903 26.3909C25.5576 28.7582 25.0671 31.0401 25.0351 31.1468C25.0351 31.1468 25.0351 31.1468 25.0351 31.1574C23.7021 32.469 23.0517 34.3778 23.009 34.4951C22.8811 34.8789 23.0837 35.2842 23.4675 35.4121C23.5422 35.4334 23.6168 35.4548 23.7021 35.4548C24.0114 35.4548 24.2886 35.2628 24.3953 34.9536C24.4059 34.9216 25.6535 31.3707 27.7862 31.3707C28.1914 31.3707 28.5113 31.0401 28.5113 30.6456C28.5113 30.251 28.1914 29.9098 27.7862 29.9098Z" fill="#602F75"/>
</g>
<defs>
<clipPath id="clip0">
<rect width="42" height="42" fill="white"/>
</clipPath>
</defs>
</svg>
