<svg width="72" height="84" viewBox="0 0 72 84" fill="none" xmlns="http://www.w3.org/2000/svg">
<path d="M32.5122 7.78009H70.2819C70.9606 7.78009 71.5107 7.22998 71.5107 6.55126C71.5107 5.87253 70.9606 5.32227 70.2819 5.32227H32.5122C31.8335 5.32227 31.2832 5.87237 31.2832 6.55126C31.2832 7.22998 31.8335 7.78009 32.5122 7.78009Z" fill="#B1A7E4"/>
<path d="M70.2819 11.416H32.5122C31.8335 11.416 31.2832 11.9661 31.2832 12.645C31.2832 13.3237 31.8335 13.8738 32.5122 13.8738H70.2819C70.9606 13.8738 71.5107 13.3237 71.5107 12.645C71.5107 11.9663 70.9606 11.416 70.2819 11.416Z" fill="#B1A7E4"/>
<path d="M32.5122 19.9695H58.1416C58.8203 19.9695 59.3705 19.4194 59.3705 18.7407C59.3705 18.062 58.8204 17.5117 58.1416 17.5117H32.5122C31.8335 17.5117 31.2832 18.0618 31.2832 18.7407C31.2832 19.4194 31.8335 19.9695 32.5122 19.9695Z" fill="#B1A7E4"/>
<path d="M70.2819 34.6777H32.5122C31.8335 34.6777 31.2832 35.2278 31.2832 35.9066C31.2832 36.5853 31.8335 37.1354 32.5122 37.1354H70.2819C70.9606 37.1354 71.5107 36.5853 71.5107 35.9066C71.5107 35.2278 70.9606 34.6777 70.2819 34.6777Z" fill="#B1A7E4"/>
<path d="M70.2819 40.7695H32.5122C31.8335 40.7695 31.2832 41.3196 31.2832 41.9985C31.2832 42.6774 31.8335 43.2275 32.5122 43.2275H70.2819C70.9606 43.2275 71.5107 42.6774 71.5107 41.9985C71.5107 41.3196 70.9606 40.7695 70.2819 40.7695Z" fill="#B1A7E4"/>
<path d="M32.5122 49.3229H58.1416C58.8203 49.3229 59.3705 48.7728 59.3705 48.0941C59.3705 47.4153 58.8204 46.8652 58.1416 46.8652H32.5122C31.8335 46.8652 31.2832 47.4153 31.2832 48.0941C31.2832 48.7728 31.8335 49.3229 32.5122 49.3229Z" fill="#B1A7E4"/>
<path d="M26.608 60.5329C25.9153 59.9237 25.0271 59.6215 24.1062 59.6796C23.1855 59.7386 22.343 60.1526 21.7337 60.8452L21.1098 61.5546C18.9322 59.7782 16.1566 58.709 13.1337 58.709C6.16107 58.709 0.488281 64.3816 0.488281 71.3543C0.488281 78.3269 6.16091 83.9995 13.1337 83.9995C20.1065 83.9995 25.7792 78.3269 25.7792 71.3543C25.7792 69.9814 25.5544 68.6613 25.1472 67.4232L26.9204 65.4073C27.5297 64.7147 27.8327 63.8263 27.7738 62.9055C27.7146 61.9848 27.3007 61.1422 26.608 60.5329ZM13.1337 81.5417C7.51623 81.5417 2.94627 76.9716 2.94627 71.3543C2.94627 65.7369 7.51639 61.1668 13.1337 61.1668C15.5353 61.1668 17.7434 62.0043 19.4867 63.3999L14.2815 69.3174L12.4138 67.1385C11.8135 66.4381 10.9763 66.0135 10.0566 65.9425C9.13799 65.8711 8.2445 66.1632 7.54395 66.7636C6.09807 68.0031 5.93007 70.1876 7.1694 71.6337L11.6255 76.8323C12.2765 77.5921 13.2235 78.0316 14.2239 78.0385C14.2331 78.0387 14.242 78.0387 14.2479 78.0387C15.2405 78.0387 16.1855 77.6113 16.841 76.8659L23.1788 69.661C23.272 70.2119 23.3215 70.7773 23.3215 71.3543C23.3212 76.9716 18.7511 81.5417 13.1337 81.5417ZM25.0747 63.7839L14.9953 75.2427C14.8073 75.4563 14.5368 75.5794 14.2525 75.5808C14.2487 75.5808 14.2448 75.5807 14.241 75.5807C13.9526 75.5789 13.6794 75.4522 13.4915 75.233L9.03528 70.0342C8.67795 69.6173 8.72652 68.9873 9.1434 68.6298C9.32551 68.4738 9.55241 68.3902 9.78964 68.3902C9.81556 68.3902 9.84149 68.3911 9.86757 68.3933C10.1329 68.4136 10.3742 68.5362 10.5474 68.7381L13.3362 71.9916C13.5678 72.2619 13.9053 72.4185 14.2613 72.4208C14.6216 72.4259 14.9568 72.2711 15.1919 72.0035L23.5789 62.4685C23.7546 62.2688 23.9976 62.1494 24.2631 62.1325C24.528 62.1148 24.7848 62.2029 24.9845 62.3784C25.1843 62.5543 25.3036 62.7971 25.3206 63.0625C25.3378 63.328 25.2504 63.5841 25.0747 63.7839Z" fill="#B1A7E4"/>
<path d="M70.2819 64.0332H32.5122C31.8335 64.0332 31.2832 64.5833 31.2832 65.262C31.2832 65.9408 31.8335 66.4909 32.5122 66.4909H70.2819C70.9606 66.4909 71.5107 65.9408 71.5107 65.262C71.5107 64.5833 70.9606 64.0332 70.2819 64.0332Z" fill="#B1A7E4"/>
<path d="M70.2819 70.125H32.5122C31.8335 70.125 31.2832 70.6751 31.2832 71.3538C31.2832 72.0326 31.8335 72.5828 32.5122 72.5828H70.2819C70.9606 72.5828 71.5107 72.0327 71.5107 71.3538C71.5107 70.6753 70.9606 70.125 70.2819 70.125Z" fill="#B1A7E4"/>
<path d="M58.1416 76.2207H32.5122C31.8335 76.2207 31.2832 76.7708 31.2832 77.4495C31.2832 78.1283 31.8335 78.6785 32.5122 78.6785H58.1416C58.8203 78.6785 59.3705 78.1284 59.3705 77.4495C59.3705 76.7706 58.8203 76.2207 58.1416 76.2207Z" fill="#B1A7E4"/>
<path d="M26.608 1.82388C25.9153 1.21472 25.0271 0.912188 24.1062 0.97043C23.1855 1.02949 22.343 1.44342 21.7337 2.13609L21.1114 2.8437C18.9338 1.06739 16.1566 0 13.1337 0C10.0026 0 6.99779 1.15303 4.67302 3.24696C4.1687 3.70125 4.12817 4.47825 4.58246 4.98274C5.03659 5.48707 5.81375 5.52759 6.31808 5.07347C8.19052 3.38691 10.6111 2.45798 13.1337 2.45798C15.5353 2.45798 17.7434 3.29552 19.4866 4.6912L14.2815 10.6086L12.4137 8.42953C11.8134 7.72915 10.9761 7.30439 10.0564 7.23352C9.13782 7.16215 8.24434 7.45434 7.54379 8.05465C6.09791 9.29414 5.92991 11.4786 7.16924 12.9245L11.6253 18.1232C12.2763 18.8829 13.2233 19.3225 14.2238 19.3294C14.2329 19.3295 14.2418 19.3295 14.2477 19.3295C15.2403 19.3295 16.1853 18.9021 16.8409 18.1568L23.1785 10.9518C23.2715 11.5027 23.3212 12.0681 23.3212 12.6451C23.3212 18.2625 18.7511 22.8326 13.1337 22.8326C7.51639 22.8326 2.94627 18.2625 2.94627 12.6451C2.94627 11.4402 3.15413 10.2615 3.56429 9.14173C3.79775 8.50434 3.47028 7.79855 2.8329 7.56509C2.19584 7.33179 1.48972 7.65909 1.25626 8.29648C0.74668 9.68789 0.488281 11.151 0.488281 12.6451C0.488281 19.6178 6.16091 25.2904 13.1337 25.2904C20.1065 25.2904 25.7792 19.6178 25.7792 12.6451C25.7792 11.2716 25.5572 9.94941 25.1503 8.71041L26.9204 6.69818C27.5297 6.00551 27.8327 5.11711 27.7738 4.19639C27.7146 3.27584 27.3007 2.43321 26.608 1.82388ZM25.0747 5.07495L14.9953 16.5337C14.8073 16.7473 14.5368 16.8704 14.2525 16.8719C14.2487 16.8719 14.2448 16.8717 14.241 16.8717C13.9526 16.8699 13.6794 16.7432 13.4915 16.524L9.03528 11.3252C8.67795 10.9084 8.72652 10.2784 9.1434 9.92086C9.32551 9.76484 9.55241 9.68116 9.78964 9.68116C9.81556 9.68116 9.84149 9.68215 9.86757 9.68428C10.1329 9.70463 10.3742 9.82718 10.5474 10.0291L13.3362 13.2827C13.5678 13.5529 13.9053 13.7096 14.2613 13.7119C14.6216 13.7092 14.9568 13.5619 15.1919 13.2945L23.5789 3.75949C23.7546 3.55983 23.9976 3.44039 24.2631 3.42349C24.528 3.40643 24.7848 3.49387 24.9845 3.66942C25.1843 3.8453 25.3036 4.08811 25.3206 4.35373C25.3378 4.61902 25.2504 4.87512 25.0747 5.07495Z" fill="#B1A7E4"/>
<path d="M26.608 31.1794C25.9153 30.5702 25.0271 30.267 24.1062 30.3261C23.1855 30.3851 22.343 30.7991 21.7337 31.4917L21.109 32.202C18.9315 30.4255 16.1566 29.3555 13.1337 29.3555C6.16107 29.3555 0.488281 35.0281 0.488281 42.0008C0.488281 48.9734 6.16091 54.646 13.1337 54.646C20.1065 54.646 25.779 48.9734 25.779 42.0008C25.779 40.6276 25.556 39.306 25.1488 38.0674L26.9202 36.0537C27.5296 35.361 27.8326 34.4726 27.7737 33.5519C27.7146 32.6313 27.3007 31.7887 26.608 31.1794ZM25.0747 34.4304L19.8463 40.3741C19.3981 40.8835 19.4478 41.6602 19.9574 42.1084C20.467 42.5569 21.2435 42.5071 21.6919 41.9973L23.1781 40.3078C23.2711 40.8586 23.3212 41.4239 23.3212 42.0008C23.3212 47.6181 18.7511 52.1882 13.1337 52.1882C7.51639 52.1882 2.9461 47.6181 2.9461 42.0008C2.9461 36.3834 7.51623 31.8133 13.1336 31.8133C15.5351 31.8133 17.7429 32.6513 19.4862 34.0467L14.2813 39.9639L12.4137 37.785C11.8134 37.0846 10.9761 36.6599 10.0564 36.589C9.13782 36.5168 8.24434 36.8097 7.54379 37.4101C6.09791 38.6496 5.92991 40.8341 7.16924 42.28L11.6253 47.4786C12.2763 48.2384 13.2233 48.6779 14.2238 48.6848C14.2329 48.685 14.2418 48.685 14.2477 48.685C15.2403 48.685 16.1853 48.2576 16.8409 47.5124L17.9821 46.2152C18.4303 45.7056 18.3808 44.9289 17.871 44.4807C17.3615 44.032 16.5848 44.0822 16.1366 44.5916L14.9953 45.889C14.8075 46.1025 14.5374 46.2255 14.2521 46.2272C14.2485 46.2272 14.2448 46.227 14.241 46.227C13.9526 46.2252 13.6794 46.0985 13.4915 45.8792L9.03528 40.6804C8.67795 40.2635 8.72652 39.6335 9.1434 39.276C9.34552 39.1029 9.60343 39.0181 9.86773 39.0394C10.133 39.0598 10.3744 39.1823 10.5476 39.3843L13.3363 42.6378C13.568 42.908 13.9055 43.0647 14.2615 43.067H14.2694C14.6226 43.067 14.9588 42.9151 15.1921 42.6498L23.5791 33.1148C23.7548 32.9151 23.9978 32.7957 24.2632 32.7788C24.5282 32.7614 24.785 32.8492 24.9846 33.0247C25.1844 33.2006 25.3037 33.4434 25.3208 33.709C25.3378 33.9745 25.2504 34.2306 25.0747 34.4304Z" fill="#B1A7E4"/>
</svg>
