<svg width="84" height="84" viewBox="0 0 84 84" fill="none" xmlns="http://www.w3.org/2000/svg">
<path d="M38.0625 30.1875V59.0625C38.0625 60.4549 37.5094 61.7902 36.5248 62.7748C35.5402 63.7594 34.2049 64.3125 32.8125 64.3125H9.1875C7.79511 64.3125 6.45976 63.7594 5.47519 62.7748C4.49062 61.7902 3.9375 60.4549 3.9375 59.0625V24.9375C3.9375 23.5451 4.49062 22.2098 5.47519 21.2252C6.45976 20.2406 7.79511 19.6875 9.1875 19.6875H27.5625L38.0625 30.1875Z" fill="#E9EEF2"/>
<path d="M38.0625 30.1875H32.8125C31.4201 30.1875 30.0848 29.6344 29.1002 28.6498C28.1156 27.6652 27.5625 26.3299 27.5625 24.9375V19.6875L38.0625 30.1875Z" fill="#C3C6C7"/>
<path d="M80.0625 30.1875V59.0625C80.0625 60.4549 79.5094 61.7902 78.5248 62.7748C77.5402 63.7594 76.2049 64.3125 74.8125 64.3125H51.1875C49.7951 64.3125 48.4598 63.7594 47.4752 62.7748C46.4906 61.7902 45.9375 60.4549 45.9375 59.0625V24.9375C45.9375 23.5451 46.4906 22.2098 47.4752 21.2252C48.4598 20.2406 49.7951 19.6875 51.1875 19.6875H69.5625L80.0625 30.1875Z" fill="#E9EEF2"/>
<path d="M80.0625 30.1875H74.8125C73.4201 30.1875 72.0848 29.6344 71.1002 28.6498C70.1156 27.6652 69.5625 26.3299 69.5625 24.9375V19.6875L80.0625 30.1875Z" fill="#C3C6C7"/>
<path d="M57.75 43.3125C58.4749 43.3125 59.0625 42.7249 59.0625 42C59.0625 41.2751 58.4749 40.6875 57.75 40.6875C57.0251 40.6875 56.4375 41.2751 56.4375 42C56.4375 42.7249 57.0251 43.3125 57.75 43.3125Z" fill="#C3C6C7"/>
<path d="M63 43.3125C63.7249 43.3125 64.3125 42.7249 64.3125 42C64.3125 41.2751 63.7249 40.6875 63 40.6875C62.2751 40.6875 61.6875 41.2751 61.6875 42C61.6875 42.7249 62.2751 43.3125 63 43.3125Z" fill="#C3C6C7"/>
<path d="M68.25 43.3125C68.9749 43.3125 69.5625 42.7249 69.5625 42C69.5625 41.2751 68.9749 40.6875 68.25 40.6875C67.5251 40.6875 66.9375 41.2751 66.9375 42C66.9375 42.7249 67.5251 43.3125 68.25 43.3125Z" fill="#C3C6C7"/>
<path d="M61.6875 3.9375C61.3394 3.9375 61.0056 4.07578 60.7594 4.32192C60.5133 4.56806 60.375 4.9019 60.375 5.25V7.80495C59.4006 7.15083 58.0896 6.51148 56.3363 5.92692C52.4875 4.64412 47.3962 3.9375 42 3.9375C36.6038 3.9375 31.5125 4.64412 27.6637 5.92692C22.1561 7.76278 21 10.1409 21 11.8125C21 12.1606 21.1383 12.4944 21.3844 12.7406C21.6306 12.9867 21.9644 13.125 22.3125 13.125C22.6606 13.125 22.9944 12.9867 23.2406 12.7406C23.4867 12.4944 23.625 12.1606 23.625 11.8125C23.625 9.67181 30.7832 6.5625 42 6.5625C51.0613 6.5625 57.4731 8.59163 59.6029 10.5H55.125C54.7769 10.5 54.4431 10.6383 54.1969 10.8844C53.9508 11.1306 53.8125 11.4644 53.8125 11.8125C53.8125 12.1606 53.9508 12.4944 54.1969 12.7406C54.4431 12.9867 54.7769 13.125 55.125 13.125H61.6875C62.0356 13.125 62.3694 12.9867 62.6156 12.7406C62.8617 12.4944 63 12.1606 63 11.8125V5.25C63 4.9019 62.8617 4.56806 62.6156 4.32192C62.3694 4.07578 62.0356 3.9375 61.6875 3.9375Z" fill="#6ED2F0"/>
<path d="M61.6875 70.875C61.3394 70.875 61.0056 71.0133 60.7594 71.2594C60.5133 71.5056 60.375 71.8394 60.375 72.1875C60.375 74.3282 53.2168 77.4375 42 77.4375C32.9387 77.4375 26.5269 75.4084 24.3971 73.5H28.875C29.2231 73.5 29.5569 73.3617 29.8031 73.1156C30.0492 72.8694 30.1875 72.5356 30.1875 72.1875C30.1875 71.8394 30.0492 71.5056 29.8031 71.2594C29.5569 71.0133 29.2231 70.875 28.875 70.875H22.3125C21.9644 70.875 21.6306 71.0133 21.3844 71.2594C21.1383 71.5056 21 71.8394 21 72.1875V78.75C21 79.0981 21.1383 79.4319 21.3844 79.6781C21.6306 79.9242 21.9644 80.0625 22.3125 80.0625C22.6606 80.0625 22.9944 79.9242 23.2406 79.6781C23.4867 79.4319 23.625 79.0981 23.625 78.75V76.1951C24.5994 76.8492 25.9104 77.4885 27.6637 78.0731C31.5125 79.3559 36.6038 80.0625 42 80.0625C47.3962 80.0625 52.4875 79.3559 56.3363 78.0731C61.8438 76.2372 63 73.8591 63 72.1875C63 71.8394 62.8617 71.5056 62.6156 71.2594C62.3694 71.0133 62.0356 70.875 61.6875 70.875Z" fill="#6ED2F0"/>
<path d="M30.1875 39.375H19.6875C19.3394 39.375 19.0056 39.2367 18.7594 38.9906C18.5133 38.7444 18.375 38.4106 18.375 38.0625C18.375 37.7144 18.5133 37.3806 18.7594 37.1344C19.0056 36.8883 19.3394 36.75 19.6875 36.75H30.1875C30.5356 36.75 30.8694 36.8883 31.1156 37.1344C31.3617 37.3806 31.5 37.7144 31.5 38.0625C31.5 38.4106 31.3617 38.7444 31.1156 38.9906C30.8694 39.2367 30.5356 39.375 30.1875 39.375Z" fill="#C3C6C7"/>
<path d="M22.3125 47.25H11.8125C11.4644 47.25 11.1306 47.1117 10.8844 46.8656C10.6383 46.6194 10.5 46.2856 10.5 45.9375C10.5 45.5894 10.6383 45.2556 10.8844 45.0094C11.1306 44.7633 11.4644 44.625 11.8125 44.625H22.3125C22.6606 44.625 22.9944 44.7633 23.2406 45.0094C23.4867 45.2556 23.625 45.5894 23.625 45.9375C23.625 46.2856 23.4867 46.6194 23.2406 46.8656C22.9944 47.1117 22.6606 47.25 22.3125 47.25Z" fill="#C3C6C7"/>
<path d="M30.1875 55.125H22.3125C21.9644 55.125 21.6306 54.9867 21.3844 54.7406C21.1383 54.4944 21 54.1606 21 53.8125C21 53.4644 21.1383 53.1306 21.3844 52.8844C21.6306 52.6383 21.9644 52.5 22.3125 52.5H30.1875C30.5356 52.5 30.8694 52.6383 31.1156 52.8844C31.3617 53.1306 31.5 53.4644 31.5 53.8125C31.5 54.1606 31.3617 54.4944 31.1156 54.7406C30.8694 54.9867 30.5356 55.125 30.1875 55.125Z" fill="#C3C6C7"/>
<path d="M14.4375 39.375H11.8125C11.4644 39.375 11.1306 39.2367 10.8844 38.9906C10.6383 38.7444 10.5 38.4106 10.5 38.0625C10.5 37.7144 10.6383 37.3806 10.8844 37.1344C11.1306 36.8883 11.4644 36.75 11.8125 36.75H14.4375C14.7856 36.75 15.1194 36.8883 15.3656 37.1344C15.6117 37.3806 15.75 37.7144 15.75 38.0625C15.75 38.4106 15.6117 38.7444 15.3656 38.9906C15.1194 39.2367 14.7856 39.375 14.4375 39.375Z" fill="#C3C6C7"/>
<path d="M30.1875 47.25H27.5625C27.2144 47.25 26.8806 47.1117 26.6344 46.8656C26.3883 46.6194 26.25 46.2856 26.25 45.9375C26.25 45.5894 26.3883 45.2556 26.6344 45.0094C26.8806 44.7633 27.2144 44.625 27.5625 44.625H30.1875C30.5356 44.625 30.8694 44.7633 31.1156 45.0094C31.3617 45.2556 31.5 45.5894 31.5 45.9375C31.5 46.2856 31.3617 46.6194 31.1156 46.8656C30.8694 47.1117 30.5356 47.25 30.1875 47.25Z" fill="#C3C6C7"/>
<path d="M17.0625 55.125H11.8125C11.4644 55.125 11.1306 54.9867 10.8844 54.7406C10.6383 54.4944 10.5 54.1606 10.5 53.8125C10.5 53.4644 10.6383 53.1306 10.8844 52.8844C11.1306 52.6383 11.4644 52.5 11.8125 52.5H17.0625C17.4106 52.5 17.7444 52.6383 17.9906 52.8844C18.2367 53.1306 18.375 53.4644 18.375 53.8125C18.375 54.1606 18.2367 54.4944 17.9906 54.7406C17.7444 54.9867 17.4106 55.125 17.0625 55.125Z" fill="#C3C6C7"/>
<path d="M17.0625 31.5H11.8125C11.4644 31.5 11.1306 31.3617 10.8844 31.1156C10.6383 30.8694 10.5 30.5356 10.5 30.1875C10.5 29.8394 10.6383 29.5056 10.8844 29.2594C11.1306 29.0133 11.4644 28.875 11.8125 28.875H17.0625C17.4106 28.875 17.7444 29.0133 17.9906 29.2594C18.2367 29.5056 18.375 29.8394 18.375 30.1875C18.375 30.5356 18.2367 30.8694 17.9906 31.1156C17.7444 31.3617 17.4106 31.5 17.0625 31.5Z" fill="#C3C6C7"/>
</svg>
