<svg width="24" height="24" viewBox="0 0 24 24" fill="none" xmlns="http://www.w3.org/2000/svg">
<path d="M21.5531 3.99921C21.4622 3.98985 21.3706 3.98985 21.2798 3.99921H2.6131C2.49346 4.00105 2.37462 4.01899 2.25977 4.05254L11.8931 13.6459L21.5531 3.99921Z" fill="#2C2C2C"/>
<path d="M22.54 4.92578L12.8333 14.5924C12.5835 14.8408 12.2455 14.9802 11.8933 14.9802C11.541 14.9802 11.2031 14.8408 10.9533 14.5924L1.33329 4.99911C1.30371 5.10781 1.28803 5.21981 1.28662 5.33245V18.6658C1.28662 19.0194 1.4271 19.3585 1.67715 19.6086C1.92719 19.8586 2.26633 19.9991 2.61995 19.9991H21.2866C21.6402 19.9991 21.9794 19.8586 22.2294 19.6086C22.4795 19.3585 22.62 19.0194 22.62 18.6658V5.33245C22.6146 5.19355 22.5877 5.05634 22.54 4.92578ZM3.53329 18.6658H2.60662V17.7124L7.45329 12.9058L8.39329 13.8458L3.53329 18.6658ZM21.2733 18.6658H20.34L15.48 13.8458L16.42 12.9058L21.2666 17.7124L21.2733 18.6658Z" fill="#2C2C2C"/>
</svg>
