<svg width="84" height="84" viewBox="0 0 84 84" fill="none" xmlns="http://www.w3.org/2000/svg">
<path d="M84 19.8516V7.54688C84 3.47599 80.6881 0.164062 76.6172 0.164062H7.38281C3.31193 0.164062 0 3.47599 0 7.54688V19.8516H84ZM56.7656 10.0078H71.5312C72.8903 10.0078 73.9922 11.1097 73.9922 12.4688C73.9922 13.8278 72.8903 14.9297 71.5312 14.9297H56.7656C55.4065 14.9297 54.3047 13.8278 54.3047 12.4688C54.3047 11.1097 55.4065 10.0078 56.7656 10.0078ZM32.1562 10.0078C33.5153 10.0078 34.6172 11.1097 34.6172 12.4688C34.6172 13.8278 33.5153 14.9297 32.1562 14.9297C30.7972 14.9297 29.6953 13.8278 29.6953 12.4688C29.6953 11.1097 30.7972 10.0078 32.1562 10.0078ZM22.3125 10.0078C23.6716 10.0078 24.7734 11.1097 24.7734 12.4688C24.7734 13.8278 23.6716 14.9297 22.3125 14.9297C20.9534 14.9297 19.8516 13.8278 19.8516 12.4688C19.8516 11.1097 20.9534 10.0078 22.3125 10.0078ZM12.4688 10.0078C13.8278 10.0078 14.9297 11.1097 14.9297 12.4688C14.9297 13.8278 13.8278 14.9297 12.4688 14.9297C11.1097 14.9297 10.0078 13.8278 10.0078 12.4688C10.0078 11.1097 11.1097 10.0078 12.4688 10.0078Z" fill="#B1A7E4"/>
<path d="M0 24.7734V76.4531C0 80.524 3.31193 83.8359 7.38281 83.8359H76.6172C80.6881 83.8359 84 80.524 84 76.4531V24.7734H0ZM28.7716 59.7658C29.8331 60.6149 30.0051 62.1634 29.156 63.2248C28.3072 64.2859 26.7583 64.4582 25.6971 63.609L13.3924 53.7653C12.1621 52.7814 12.1613 50.9066 13.3924 49.9219L25.6971 40.0782C26.7579 39.2291 28.3069 39.4011 29.156 40.4624C30.0051 41.5237 29.8331 43.0725 28.7716 43.9213L18.8692 51.8438L28.7716 59.7658ZM51.6447 35.5866L36.8791 70.0398C36.3438 71.2888 34.8974 71.8679 33.6477 71.3322C32.3986 70.7969 31.8198 69.35 32.3553 68.1009L47.1209 33.6477C47.6564 32.3986 49.1031 31.8199 50.3523 32.3553C51.6014 32.8906 52.1802 34.3373 51.6447 35.5866ZM70.6076 53.7654L58.3029 63.6092C57.2434 64.457 55.6943 64.2877 54.844 63.2249C53.9949 62.1636 54.1669 60.6149 55.2284 59.766L65.1308 51.8438L55.2284 43.9217C54.1669 43.0726 53.9949 41.5241 54.844 40.4627C55.6928 39.4014 57.2416 39.2293 58.3029 40.0785L70.6076 49.9222C71.8379 50.9061 71.8387 52.7807 70.6076 53.7654Z" fill="#B1A7E4"/>
</svg>
