<svg width="32" height="32" viewBox="0 0 32 32" fill="none" xmlns="http://www.w3.org/2000/svg">
<g clip-path="url(#clip0)">
<path d="M32 8.98242V26.238C32 27.6602 30.8468 28.8134 29.4245 28.8134H2.57545C1.15316 28.8134 0 27.6602 0 26.238V8.98242H32Z" fill="#F5F5F5"/>
<path d="M32 10.2695V8.98175L16 8.33789L0 8.98175V10.2695V26.2373C0 27.6596 1.15316 28.8127 2.57545 28.8127H3.86318C2.44089 28.8127 1.28773 27.6596 1.28773 26.2373V10.2695H32Z" fill="#E6E6E6"/>
<path d="M32 5.76295V8.98227H0V5.76295C0 4.34066 1.15316 3.1875 2.57545 3.1875H29.4245C30.8468 3.1875 32 4.34066 32 5.76295Z" fill="#50758D"/>
<path d="M30.5525 6.08346C30.5525 5.28468 29.9027 4.63477 29.1038 4.63477H15.3896C14.9785 4.63477 14.6071 4.80713 14.3432 5.08309C14.0363 5.38937 14.1804 5.24528 13.8741 5.55221C13.5981 5.81613 13.4258 6.18744 13.4258 6.59855C13.4258 7.39732 14.0756 8.04724 14.8745 8.04724H28.5888C28.9999 8.04724 29.3712 7.87488 29.6351 7.59892C29.942 7.29263 29.7979 7.43673 30.1042 7.1298C30.3802 6.86588 30.5525 6.49456 30.5525 6.08346Z" fill="#2B597F"/>
<path d="M4.3949 6.06783C4.3949 5.26906 3.74505 4.61914 2.9462 4.61914C2.5351 4.61914 2.16378 4.7915 1.89986 5.06746C1.59293 5.37375 1.73703 5.22965 1.43074 5.53658C1.15478 5.8005 0.982422 6.17182 0.982422 6.58292C0.982422 7.3817 1.63227 8.03162 2.43111 8.03162C2.84222 8.03162 3.21354 7.85925 3.47746 7.58329C3.78439 7.27701 3.64029 7.4211 3.94657 7.11417C4.22253 6.85026 4.3949 6.47894 4.3949 6.06783Z" fill="#2B597F"/>
<path d="M8.53161 6.06783C8.53161 5.26906 7.88176 4.61914 7.08292 4.61914C6.67182 4.61914 6.3005 4.7915 6.03658 5.06746C5.72965 5.37375 5.87375 5.22965 5.56746 5.53658C5.2915 5.8005 5.11914 6.17182 5.11914 6.58292C5.11914 7.3817 5.76899 8.03162 6.56783 8.03162C6.97894 8.03162 7.35025 7.85925 7.61417 7.58329C7.9211 7.27701 7.77701 7.4211 8.08329 7.11417C8.35925 6.85026 8.53161 6.47894 8.53161 6.06783Z" fill="#2B597F"/>
<path d="M12.6527 6.06783C12.6527 5.26906 12.0029 4.61914 11.204 4.61914C10.7929 4.61914 10.4216 4.7915 10.1577 5.06746C9.85074 5.37375 9.99484 5.22965 9.68856 5.53658C9.4126 5.8005 9.24023 6.17182 9.24023 6.58292C9.24023 7.3817 9.89009 8.03162 10.6889 8.03162C11.1 8.03162 11.4713 7.85925 11.7353 7.58329C12.0422 7.27701 11.8981 7.4211 12.2044 7.11417C12.4803 6.85026 12.6527 6.47894 12.6527 6.06783Z" fill="#2B597F"/>
<path d="M2.94479 7.51652C2.14594 7.51652 1.49609 6.86661 1.49609 6.06783C1.49609 5.26906 2.14594 4.61914 2.94479 4.61914C3.74363 4.61914 4.39348 5.26906 4.39348 6.06783C4.39348 6.86661 3.74363 7.51652 2.94479 7.51652Z" fill="#FD646F"/>
<path d="M7.08345 7.53215C6.28461 7.53215 5.63477 6.88223 5.63477 6.08346C5.63477 5.28468 6.28461 4.63477 7.08345 4.63477C7.88229 4.63477 8.53214 5.28468 8.53214 6.08346C8.53214 6.88223 7.88229 7.53215 7.08345 7.53215Z" fill="#FFC682"/>
<path d="M11.2026 7.53215C10.4038 7.53215 9.75391 6.88223 9.75391 6.08346C9.75391 5.28468 10.4038 4.63477 11.2026 4.63477C12.0014 4.63477 12.6513 5.28468 12.6513 6.08346C12.6513 6.88223 12.0014 7.53215 11.2026 7.53215Z" fill="#93DDB7"/>
<path d="M29.1024 7.53215H15.3881C14.5893 7.53215 13.9395 6.88223 13.9395 6.08346C13.9395 5.28468 14.5893 4.63477 15.3881 4.63477H29.1024C29.9013 4.63477 30.5511 5.28468 30.5511 6.08346C30.5511 6.88223 29.9013 7.53215 29.1024 7.53215Z" fill="#F5F5F5"/>
<path d="M13.9542 24.5917C13.8191 24.5917 13.6818 24.5644 13.55 24.5069C13.0383 24.2833 12.8046 23.6873 13.0282 23.1755L17.1224 13.8019C17.346 13.2902 17.9419 13.0567 18.4538 13.28C18.9655 13.5036 19.1992 14.0996 18.9756 14.6114L14.8814 23.985C14.7154 24.365 14.344 24.5917 13.9542 24.5917Z" fill="#50758D"/>
<path d="M9.90844 24.2273C9.64967 24.2273 9.39083 24.1286 9.19343 23.9312L5.40158 20.1394C5.00676 19.7445 5.00676 19.1042 5.40158 18.7093L9.14288 14.968C9.53776 14.5732 10.178 14.5732 10.5729 14.968C10.9677 15.3629 10.9677 16.0032 10.5729 16.3981L7.54661 19.4243L10.6235 22.5012C11.0183 22.8961 11.0183 23.5363 10.6235 23.9312C10.426 24.1286 10.1672 24.2273 9.90844 24.2273Z" fill="#50758D"/>
<path d="M22.0932 24.2273C22.352 24.2273 22.6108 24.1286 22.8082 23.9312L26.6001 20.1394C26.9949 19.7445 26.9949 19.1042 26.6001 18.7093L22.8588 14.968C22.4639 14.5732 21.8236 14.5732 21.4288 14.968C21.0339 15.3629 21.0339 16.0032 21.4288 16.3981L24.455 19.4243L21.3781 22.5012C20.9833 22.8961 20.9833 23.5363 21.3781 23.9312C21.5756 24.1286 21.8345 24.2273 22.0932 24.2273Z" fill="#50758D"/>
</g>
<defs>
<clipPath id="clip0">
<rect width="32" height="32" fill="white"/>
</clipPath>
</defs>
</svg>
