<svg width="84" height="84" viewBox="0 0 84 84" fill="none" xmlns="http://www.w3.org/2000/svg">
<path d="M71.7498 73.5C64.995 73.5 59.5002 68.0052 59.5002 61.2498V55.9998H45.4998V61.2498C45.4998 68.0052 40.005 73.5 33.2502 73.5C26.4948 73.5 21 68.0052 21 61.2498C21 54.495 26.4948 49.0002 33.2502 49.0002H38.5002V34.9998H33.2502C26.4948 34.9998 21 29.505 21 22.7502C21 15.9948 26.4948 10.5 33.2502 10.5C40.005 10.5 45.4998 15.9948 45.4998 22.7502V28.0002H59.5002V22.7502C59.5002 15.9948 64.995 10.5 71.7498 10.5C78.5052 10.5 84 15.9948 84 22.7502C84 29.505 78.5052 34.9998 71.7498 34.9998H66.4998V49.0002H71.7498C78.5052 49.0002 84 54.495 84 61.2498C84 68.0052 78.5052 73.5 71.7498 73.5ZM66.4998 55.9998V61.2498C66.4998 64.1446 68.8556 66.4998 71.7498 66.4998C74.6446 66.4998 76.9998 64.1446 76.9998 61.2498C76.9998 58.3556 74.6446 55.9998 71.7498 55.9998H66.4998ZM33.2502 55.9998C30.3554 55.9998 28.0002 58.3556 28.0002 61.2498C28.0002 64.1446 30.3554 66.4998 33.2502 66.4998C36.1444 66.4998 38.5002 64.1446 38.5002 61.2498V55.9998H33.2502ZM45.4998 49.0002H59.5002V34.9998H45.4998V49.0002ZM66.4998 28.0002H71.7498C74.6446 28.0002 76.9998 25.6444 76.9998 22.7502C76.9998 19.8554 74.6446 17.5002 71.7498 17.5002C68.8556 17.5002 66.4998 19.8554 66.4998 22.7502V28.0002ZM33.2502 17.5002C30.3554 17.5002 28.0002 19.8554 28.0002 22.7502C28.0002 25.6444 30.3554 28.0002 33.2502 28.0002H38.5002V22.7502C38.5002 19.8554 36.1444 17.5002 33.2502 17.5002Z" fill="#607D8B"/>
<path d="M13.9998 21.0002H3.49979C1.56436 21.0002 0 19.432 0 17.5004C0 15.5682 1.56436 14 3.49979 14H13.9998C15.9352 14 17.5002 15.5682 17.5002 17.5004C17.5002 19.432 15.9352 21.0002 13.9998 21.0002Z" fill="#4CAF50"/>
<path d="M13.9998 38.5002H3.49979C1.56436 38.5002 0 36.932 0 34.9998C0 33.0682 1.56436 31.5 3.49979 31.5H13.9998C15.9352 31.5 17.5002 33.0682 17.5002 34.9998C17.5002 36.932 15.9352 38.5002 13.9998 38.5002Z" fill="#4CAF50"/>
<path d="M13.9998 55.9996H3.49979C1.56436 55.9996 0 54.432 0 52.4998C0 50.5676 1.56436 49 3.49979 49H13.9998C15.9352 49 17.5002 50.5676 17.5002 52.4998C17.5002 54.432 15.9352 55.9996 13.9998 55.9996Z" fill="#4CAF50"/>
<path d="M13.9998 73.5002H3.49979C1.56436 73.5002 0 71.932 0 70.0004C0 68.0682 1.56436 66.5 3.49979 66.5H13.9998C15.9352 66.5 17.5002 68.0682 17.5002 70.0004C17.5002 71.932 15.9352 73.5002 13.9998 73.5002Z" fill="#4CAF50"/>
</svg>
