<svg width="32" height="32" viewBox="0 0 32 32" fill="none" xmlns="http://www.w3.org/2000/svg">
<path d="M29.125 16C29.125 23.2563 23.2563 29.125 16 29.125C8.74365 29.125 2.875 23.2563 2.875 16C2.875 8.74365 8.74365 2.875 16 2.875C23.2563 2.875 29.125 8.74365 29.125 16Z" fill="#BBDCFF"/>
<path d="M29.125 16C29.125 23.2563 23.2563 29.125 16 29.125V2.875C23.2563 2.875 29.125 8.74365 29.125 16Z" fill="#9ABADB"/>
<path d="M31.0625 15.0625H30.0061C29.5562 8.05005 23.95 2.4436 16.9375 1.99365V0.9375C16.9375 0.412354 16.5251 0 16 0C15.4749 0 15.0625 0.412354 15.0625 0.9375V1.99365C8.05005 2.4436 2.44385 8.05005 1.9939 15.0625H0.9375C0.412354 15.0625 0 15.4749 0 16C0 16.5249 0.412354 16.9375 0.9375 16.9375H1.9939C2.44385 23.95 8.05005 29.5562 15.0625 30.0061V31.0625C15.0625 31.5874 15.4749 32 16 32C16.5251 32 16.9375 31.5874 16.9375 31.0625V30.0061C23.95 29.5562 29.5562 23.95 30.0061 16.9375H31.0625C31.5876 16.9375 32 16.5249 32 16C32 15.4749 31.5876 15.0625 31.0625 15.0625ZM15.0625 3.86865V5.74365C10.1313 6.17505 6.17505 10.1313 5.7439 15.0625H3.8689C4.31885 9.1001 9.1001 4.3186 15.0625 3.86865ZM15.0625 28.1311C9.1001 27.6812 4.31885 22.8999 3.8689 16.9375H5.7439C6.17505 21.8687 10.1313 25.825 15.0625 26.2561V28.1311ZM16.9375 28.1311V26.2561C21.8687 25.825 25.825 21.8687 26.2561 16.9375H28.1311C27.6812 22.8999 22.8999 27.6812 16.9375 28.1311ZM23.5 15.0625C22.9749 15.0625 22.5625 15.4749 22.5625 16C22.5625 16.5249 22.9749 16.9375 23.5 16.9375H24.3438C23.9124 20.8374 20.8374 23.9124 16.9375 24.3438V23.5C16.9375 22.9749 16.5251 22.5625 16 22.5625C15.4749 22.5625 15.0625 22.9749 15.0625 23.5V24.3438C11.1624 23.9124 8.08765 20.8374 7.65625 16.9375H8.5C9.02515 16.9375 9.4375 16.5249 9.4375 16C9.4375 15.4749 9.02515 15.0625 8.5 15.0625H7.65625C8.08765 11.1624 11.1626 8.0874 15.0625 7.65625V8.5C15.0625 9.0249 15.4749 9.4375 16 9.4375C16.5251 9.4375 16.9375 9.0249 16.9375 8.5V3.86865C22.8999 4.3186 27.6812 9.1001 28.1311 15.0625H23.5Z" fill="#E0F4FF"/>
<path d="M18.0813 16C18.5312 16.5061 18.8125 17.1438 18.8125 17.875C18.8125 19.4312 17.5564 20.6875 16 20.6875C14.4436 20.6875 13.1875 19.4312 13.1875 17.875C13.1875 17.3499 13.5999 16.9375 14.125 16.9375C14.6501 16.9375 15.0625 17.3499 15.0625 17.875C15.0625 18.3999 15.4749 18.8125 16 18.8125C16.5251 18.8125 16.9375 18.3999 16.9375 17.875C16.9375 17.3499 16.5251 16.9375 16 16.9375C15.4749 16.9375 15.0625 16.5249 15.0625 16C15.0625 15.4749 15.4749 15.0625 16 15.0625C16.5251 15.0625 16.9375 14.6499 16.9375 14.125C16.9375 13.5999 16.5251 13.1875 16 13.1875C15.4749 13.1875 15.0625 13.5999 15.0625 14.125C15.0625 14.6499 14.6501 15.0625 14.125 15.0625C13.5999 15.0625 13.1875 14.6499 13.1875 14.125C13.1875 12.5686 14.4436 11.3125 16 11.3125C17.5564 11.3125 18.8125 12.5686 18.8125 14.125C18.8125 14.8562 18.5312 15.4937 18.0813 16Z" fill="#596C76"/>
<path d="M18.0813 16C18.5312 16.5061 18.8125 17.1438 18.8125 17.875C18.8125 19.4312 17.5564 20.6875 16 20.6875V18.8125C16.5251 18.8125 16.9375 18.3999 16.9375 17.875C16.9375 17.3499 16.5251 16.9375 16 16.9375V15.0625C16.5251 15.0625 16.9375 14.6499 16.9375 14.125C16.9375 13.5999 16.5251 13.1875 16 13.1875V11.3125C17.5564 11.3125 18.8125 12.5686 18.8125 14.125C18.8125 14.8562 18.5312 15.4937 18.0813 16Z" fill="#474F54"/>
<path d="M31.0625 15.0625H30.0061C29.5562 8.05005 23.95 2.4436 16.9375 1.99365V0.9375C16.9375 0.412354 16.5251 0 16 0V9.4375C16.5251 9.4375 16.9375 9.0249 16.9375 8.5V3.86865C22.8999 4.3186 27.6812 9.1001 28.1311 15.0625H23.5C22.9749 15.0625 22.5625 15.4749 22.5625 16C22.5625 16.5249 22.9749 16.9375 23.5 16.9375H24.3438C23.9124 20.8374 20.8374 23.9124 16.9375 24.3438V23.5C16.9375 22.9749 16.5251 22.5625 16 22.5625V32C16.5251 32 16.9375 31.5874 16.9375 31.0625V30.0061C23.95 29.5562 29.5562 23.95 30.0061 16.9375H31.0625C31.5876 16.9375 32 16.5249 32 16C32 15.4749 31.5876 15.0625 31.0625 15.0625ZM16.9375 28.1311V26.2561C21.8687 25.825 25.825 21.8687 26.2561 16.9375H28.1311C27.6812 22.8999 22.8999 27.6812 16.9375 28.1311Z" fill="#BBDCFF"/>
</svg>
