<svg width="32" height="32" viewBox="0 0 32 32" fill="none" xmlns="http://www.w3.org/2000/svg">
<path d="M30.3438 20.7812C30.1071 20.7822 29.8737 20.8367 29.6611 20.9406L28.4392 19.7187H23.4375V18.6562H26.0938V17.5937H23.4375V16.5312H26.2191L29.2403 15.0204C29.5051 15.274 29.8494 15.4283 30.2149 15.4573C30.5804 15.4863 30.9447 15.3881 31.2461 15.1793C31.5476 14.9706 31.7676 14.6641 31.8691 14.3117C31.9705 13.9594 31.9471 13.5828 31.8028 13.2457C31.6585 12.9087 31.4021 12.6318 31.0772 12.462C30.7522 12.2922 30.3786 12.2399 30.0194 12.3139C29.6603 12.3879 29.3378 12.5837 29.1065 12.8682C28.8752 13.1527 28.7492 13.5083 28.75 13.875C28.7525 13.9396 28.7591 14.004 28.7697 14.0678L25.9684 15.4687H23.4375V14.4062H25.0312V13.3437H23.4375V12.2812H25.7824L27.5356 10.5281C27.7483 10.6322 27.9819 10.6867 28.2188 10.6875C28.534 10.6875 28.8421 10.594 29.1042 10.4189C29.3663 10.2438 29.5706 9.99487 29.6912 9.70365C29.8118 9.41243 29.8434 9.09198 29.7819 8.78282C29.7204 8.47367 29.5686 8.18969 29.3457 7.9668C29.1228 7.74391 28.8388 7.59212 28.5297 7.53062C28.2205 7.46913 27.9001 7.50069 27.6088 7.62132C27.3176 7.74194 27.0687 7.94622 26.8936 8.20831C26.7185 8.4704 26.625 8.77854 26.625 9.09375C26.6259 9.33041 26.6804 9.5638 26.7844 9.77641L25.3426 11.2188H23.4375C23.4367 10.5145 23.1565 9.83939 22.6586 9.34143C22.1606 8.84347 21.4855 8.56334 20.7812 8.5625V7.18869L23.8173 4.15313C24.0299 4.2571 24.2633 4.31158 24.5 4.3125C24.8152 4.3125 25.1233 4.21903 25.3854 4.0439C25.6475 3.86878 25.8518 3.61987 25.9724 3.32865C26.0931 3.03743 26.1246 2.71698 26.0631 2.40783C26.0016 2.09867 25.8498 1.81469 25.627 1.5918C25.4041 1.36891 25.1201 1.21712 24.8109 1.15562C24.5018 1.09413 24.1813 1.12569 23.8901 1.24632C23.5989 1.36694 23.35 1.57122 23.1748 1.83331C22.9997 2.0954 22.9062 2.40354 22.9062 2.71875C22.9072 2.95542 22.9617 3.1888 23.0656 3.40141L19.7188 6.74828V8.5625H18.6562V6.96875H17.5938V8.5625H16.5313V4.746C16.8857 4.62068 17.1845 4.37409 17.3747 4.04981C17.5649 3.72553 17.6344 3.34444 17.5708 2.97389C17.5072 2.60335 17.3147 2.26721 17.0273 2.02488C16.7398 1.78256 16.376 1.64965 16 1.64965C15.624 1.64965 15.2602 1.78256 14.9727 2.02488C14.6853 2.26721 14.4928 2.60335 14.4292 2.97389C14.3656 3.34444 14.4351 3.72553 14.6253 4.04981C14.8156 4.37409 15.1143 4.62068 15.4688 4.746V8.5625H14.4063V6.96875H13.3438V8.5625H12.2813V4.62381L9.99688 2.33944C10.1009 2.12667 10.1554 1.89309 10.1563 1.65625C10.1563 1.34104 10.0628 1.0329 9.88766 0.770811C9.71253 0.50872 9.46362 0.304445 9.1724 0.183818C8.88118 0.0631905 8.56073 0.031629 8.25157 0.0931242C7.94242 0.154619 7.65844 0.306409 7.43555 0.529299C7.21266 0.752189 7.06087 1.03617 6.99937 1.34533C6.93788 1.65448 6.96944 1.97493 7.09007 2.26615C7.21069 2.55737 7.41497 2.80628 7.67706 2.98141C7.93915 3.15653 8.24729 3.25 8.5625 3.25C8.79917 3.24908 9.03255 3.1946 9.24516 3.09063L11.2188 5.06369V8.5625C10.5145 8.56334 9.83939 8.84347 9.34143 9.34143C8.84347 9.83939 8.56334 10.5145 8.5625 11.2188H6.65744L5.21563 9.77641C5.3196 9.5638 5.37408 9.33041 5.375 9.09375C5.375 8.77854 5.28153 8.4704 5.10641 8.20831C4.93128 7.94622 4.68237 7.74194 4.39115 7.62132C4.09993 7.50069 3.77948 7.46913 3.47033 7.53062C3.16117 7.59212 2.87719 7.74391 2.6543 7.9668C2.43141 8.18969 2.27962 8.47367 2.21812 8.78282C2.15663 9.09198 2.18819 9.41243 2.30882 9.70365C2.42945 9.99487 2.63372 10.2438 2.89581 10.4189C3.1579 10.594 3.46604 10.6875 3.78125 10.6875C4.01792 10.6866 4.2513 10.6321 4.46391 10.5281L6.21703 12.2812H8.5625V13.3437H5.18269L2.4 15.6621C2.17195 15.537 1.91637 15.4705 1.65625 15.4687C1.34104 15.4687 1.0329 15.5622 0.770811 15.7373C0.50872 15.9125 0.304445 16.1614 0.183818 16.4526C0.0631905 16.7438 0.031629 17.0643 0.0931242 17.3734C0.154619 17.6826 0.306409 17.9666 0.529299 18.1894C0.752189 18.4123 1.03617 18.5641 1.34533 18.6256C1.65448 18.6871 1.97493 18.6556 2.26615 18.5349C2.55737 18.4143 2.80628 18.21 2.98141 17.9479C3.15653 17.6858 3.25 17.3777 3.25 17.0625C3.25036 16.8493 3.20753 16.6382 3.12409 16.442L5.56731 14.4062H8.5625V15.4687H6.96875V16.5312H8.5625V17.5937H3.78125V18.6562H8.5625V19.7187H5.62203L3.48109 22.9296C3.40474 22.9162 3.3275 22.9083 3.25 22.9062C2.88041 22.9029 2.52093 23.0268 2.23201 23.2573C1.94309 23.4879 1.74236 23.8108 1.66358 24.1719C1.5848 24.533 1.63277 24.9103 1.79944 25.2402C1.9661 25.5701 2.24129 25.8325 2.57871 25.9834C2.91613 26.1342 3.29521 26.1643 3.65218 26.0685C4.00916 25.9727 4.32225 25.7569 4.53881 25.4573C4.75537 25.1578 4.86219 24.7929 4.84129 24.4238C4.82039 24.0548 4.67306 23.7043 4.42406 23.4311L6.19047 20.7812H8.5625C8.56334 21.4855 8.84347 22.1606 9.34143 22.6586C9.83939 23.1565 10.5145 23.4367 11.2188 23.4375V26.9363L9.24516 28.9094C9.03255 28.8054 8.79917 28.7509 8.5625 28.75C8.24729 28.75 7.93915 28.8435 7.67706 29.0186C7.41497 29.1937 7.21069 29.4426 7.09007 29.7338C6.96944 30.0251 6.93788 30.3455 6.99937 30.6547C7.06087 30.9638 7.21266 31.2478 7.43555 31.4707C7.65844 31.6936 7.94242 31.8454 8.25157 31.9069C8.56073 31.9684 8.88118 31.9368 9.1724 31.8162C9.46362 31.6956 9.71253 31.4913 9.88766 31.2292C10.0628 30.9671 10.1563 30.659 10.1563 30.3437C10.1553 30.1071 10.1008 29.8737 9.99688 29.6611L12.2813 27.3767V23.4375H13.3438V26.625H14.4063V23.4375H15.4688V27.9818L18.6956 30.0006C18.6088 30.3728 18.6567 30.7636 18.8308 31.1039C19.0048 31.4441 19.2937 31.7118 19.6462 31.8593C19.9988 32.0068 20.3922 32.0247 20.7567 31.9098C21.1212 31.7949 21.4332 31.5547 21.6374 31.2316C21.8416 30.9086 21.9248 30.5237 21.8723 30.1451C21.8197 29.7666 21.6348 29.4189 21.3503 29.1637C21.0658 28.9085 20.7001 28.7623 20.3181 28.7511C19.9361 28.7398 19.5625 28.8642 19.2635 29.1022L16.5313 27.3932V23.4375H17.5938V25.0312H18.6562V23.4375H19.7188V27.6875H23.5352C23.6606 28.042 23.9072 28.3407 24.2314 28.5309C24.5557 28.7212 24.9368 28.7906 25.3074 28.727C25.6779 28.6635 26.014 28.4709 26.2564 28.1835C26.4987 27.8961 26.6316 27.5322 26.6316 27.1562C26.6316 26.7803 26.4987 26.4164 26.2564 26.129C26.014 25.8415 25.6779 25.649 25.3074 25.5854C24.9368 25.5219 24.5557 25.5913 24.2314 25.7816C23.9072 25.9718 23.6606 26.2705 23.5352 26.625H20.7812V23.4375C21.4855 23.4367 22.1606 23.1565 22.6586 22.6586C23.1565 22.1606 23.4367 21.4855 23.4375 20.7812H27.9988L28.9094 21.6923C28.8054 21.9049 28.7509 22.1383 28.75 22.375C28.75 22.6902 28.8435 22.9983 29.0186 23.2604C29.1937 23.5225 29.4426 23.7268 29.7338 23.8474C30.0251 23.9681 30.3455 23.9996 30.6547 23.9381C30.9638 23.8766 31.2478 23.7248 31.4707 23.5019C31.6936 23.2791 31.8454 22.9951 31.9069 22.6859C31.9684 22.3768 31.9368 22.0563 31.8162 21.7651C31.6956 21.4739 31.4913 21.225 31.2292 21.0498C30.9671 20.8747 30.659 20.7812 30.3438 20.7812ZM30.3438 13.3437C30.4488 13.3437 30.5515 13.3749 30.6389 13.4333C30.7263 13.4917 30.7944 13.5746 30.8346 13.6717C30.8748 13.7688 30.8853 13.8756 30.8648 13.9786C30.8443 14.0817 30.7937 14.1764 30.7194 14.2507C30.6451 14.3249 30.5504 14.3755 30.4474 14.396C30.3443 14.4165 30.2375 14.406 30.1404 14.3658C30.0434 14.3256 29.9604 14.2575 29.902 14.1701C29.8437 14.0828 29.8125 13.9801 29.8125 13.875C29.8125 13.7341 29.8685 13.599 29.9681 13.4993C30.0677 13.3997 30.2029 13.3437 30.3438 13.3437ZM28.2188 8.5625C28.3238 8.5625 28.4265 8.59366 28.5139 8.65203C28.6013 8.71041 28.6694 8.79338 28.7096 8.89045C28.7498 8.98752 28.7603 9.09434 28.7398 9.19739C28.7193 9.30044 28.6687 9.3951 28.5944 9.4694C28.5201 9.5437 28.4254 9.59429 28.3224 9.61479C28.2193 9.63529 28.1125 9.62477 28.0154 9.58456C27.9184 9.54435 27.8354 9.47626 27.777 9.3889C27.7187 9.30153 27.6875 9.19882 27.6875 9.09375C27.6875 8.95285 27.7435 8.81773 27.8431 8.7181C27.9427 8.61847 28.0779 8.5625 28.2188 8.5625ZM24.5 2.1875C24.6051 2.1875 24.7078 2.21866 24.7951 2.27703C24.8825 2.33541 24.9506 2.41838 24.9908 2.51545C25.031 2.61252 25.0415 2.71934 25.021 2.82239C25.0005 2.92544 24.9499 3.0201 24.8757 3.0944C24.8014 3.1687 24.7067 3.21929 24.6036 3.23979C24.5006 3.26029 24.3938 3.24977 24.2967 3.20956C24.1996 3.16935 24.1167 3.10126 24.0583 3.0139C23.9999 2.92653 23.9688 2.82382 23.9688 2.71875C23.9688 2.57785 24.0247 2.44273 24.1243 2.3431C24.224 2.24347 24.3591 2.1875 24.5 2.1875ZM16 2.71875C16.1051 2.71875 16.2078 2.74991 16.2951 2.80828C16.3825 2.86666 16.4506 2.94963 16.4908 3.0467C16.531 3.14377 16.5415 3.25059 16.521 3.35364C16.5005 3.45669 16.4499 3.55135 16.3757 3.62565C16.3014 3.69995 16.2067 3.75054 16.1036 3.77104C16.0006 3.79154 15.8938 3.78102 15.7967 3.74081C15.6996 3.7006 15.6167 3.63251 15.5583 3.54515C15.4999 3.45778 15.4688 3.35507 15.4688 3.25C15.4688 3.1091 15.5247 2.97398 15.6244 2.87435C15.724 2.77472 15.8591 2.71875 16 2.71875ZM8.03125 1.65625C8.03125 1.55118 8.06241 1.44847 8.12078 1.3611C8.17916 1.27374 8.26213 1.20565 8.3592 1.16544C8.45627 1.12523 8.56309 1.11471 8.66614 1.13521C8.7692 1.15571 8.86386 1.2063 8.93815 1.2806C9.01245 1.3549 9.06304 1.44956 9.08354 1.55261C9.10404 1.65566 9.09352 1.76248 9.05331 1.85955C9.0131 1.95662 8.94501 2.03959 8.85765 2.09797C8.77028 2.15634 8.66757 2.1875 8.5625 2.1875C8.42161 2.1875 8.28648 2.13153 8.18685 2.0319C8.08722 1.93227 8.03125 1.79715 8.03125 1.65625ZM3.25 9.09375C3.25 8.98868 3.28116 8.88597 3.33953 8.7986C3.39791 8.71124 3.48088 8.64315 3.57795 8.60294C3.67502 8.56273 3.78184 8.55221 3.88489 8.57271C3.98794 8.59321 4.0826 8.6438 4.1569 8.7181C4.2312 8.7924 4.28179 8.88706 4.30229 8.99011C4.32279 9.09316 4.31227 9.19998 4.27206 9.29705C4.23185 9.39412 4.16376 9.47709 4.0764 9.53547C3.98903 9.59384 3.88632 9.625 3.78125 9.625C3.64035 9.625 3.50523 9.56903 3.4056 9.4694C3.30597 9.36977 3.25 9.23465 3.25 9.09375ZM1.65625 17.5937C1.55118 17.5937 1.44847 17.5626 1.3611 17.5042C1.27374 17.4458 1.20565 17.3629 1.16544 17.2658C1.12523 17.1687 1.11471 17.0619 1.13521 16.9589C1.15571 16.8558 1.2063 16.7611 1.2806 16.6868C1.3549 16.6126 1.44956 16.562 1.55261 16.5415C1.65566 16.521 1.76248 16.5315 1.85955 16.5717C1.95662 16.6119 2.03959 16.68 2.09797 16.7674C2.15634 16.8547 2.1875 16.9574 2.1875 17.0625C2.1875 17.2034 2.13153 17.3385 2.0319 17.4381C1.93227 17.5378 1.79715 17.5937 1.65625 17.5937ZM3.25 25.0312C3.14493 25.0312 3.04222 25.0001 2.95485 24.9417C2.86749 24.8833 2.7994 24.8004 2.75919 24.7033C2.71898 24.6062 2.70846 24.4994 2.72896 24.3964C2.74946 24.2933 2.80005 24.1986 2.87435 24.1243C2.94865 24.05 3.04331 23.9995 3.14636 23.979C3.24941 23.9585 3.35623 23.969 3.4533 24.0092C3.55037 24.0494 3.63334 24.1175 3.69172 24.2049C3.75009 24.2922 3.78125 24.3949 3.78125 24.5C3.78125 24.6409 3.72528 24.776 3.62565 24.8756C3.52602 24.9753 3.3909 25.0312 3.25 25.0312ZM8.5625 30.875C8.45743 30.875 8.35472 30.8438 8.26735 30.7855C8.17999 30.7271 8.1119 30.6441 8.07169 30.547C8.03148 30.45 8.02096 30.3432 8.04146 30.2401C8.06196 30.1371 8.11255 30.0424 8.18685 29.9681C8.26115 29.8938 8.35581 29.8432 8.45886 29.8227C8.56191 29.8022 8.66873 29.8127 8.7658 29.8529C8.86287 29.8931 8.94585 29.9612 9.00422 30.0486C9.06259 30.136 9.09375 30.2387 9.09375 30.3437C9.09375 30.4846 9.03778 30.6198 8.93815 30.7194C8.83852 30.819 8.7034 30.875 8.5625 30.875ZM20.25 29.8125C20.3551 29.8125 20.4578 29.8437 20.5451 29.902C20.6325 29.9604 20.7006 30.0434 20.7408 30.1404C20.781 30.2375 20.7915 30.3443 20.771 30.4474C20.7505 30.5504 20.6999 30.6451 20.6257 30.7194C20.5514 30.7937 20.4567 30.8443 20.3536 30.8648C20.2506 30.8853 20.1438 30.8748 20.0467 30.8346C19.9496 30.7943 19.8667 30.7263 19.8083 30.6389C19.7499 30.5515 19.7188 30.4488 19.7188 30.3437C19.7188 30.2029 19.7747 30.0677 19.8743 29.9681C19.974 29.8685 20.1091 29.8125 20.25 29.8125ZM25.0312 26.625C25.1363 26.625 25.239 26.6562 25.3264 26.7145C25.4138 26.7729 25.4819 26.8559 25.5221 26.9529C25.5623 27.05 25.5728 27.1568 25.5523 27.2599C25.5318 27.3629 25.4812 27.4576 25.4069 27.5319C25.3326 27.6062 25.2379 27.6568 25.1349 27.6773C25.0318 27.6978 24.925 27.6873 24.8279 27.6471C24.7309 27.6068 24.6479 27.5388 24.5895 27.4514C24.5312 27.364 24.5 27.2613 24.5 27.1562C24.5 27.0154 24.556 26.8802 24.6556 26.7806C24.7552 26.681 24.8904 26.625 25.0312 26.625ZM22.375 20.7812C22.375 21.2039 22.2071 21.6093 21.9082 21.9082C21.6093 22.2071 21.2039 22.375 20.7812 22.375H11.2188C10.7961 22.375 10.3907 22.2071 10.0918 21.9082C9.79291 21.6093 9.625 21.2039 9.625 20.7812V11.2188C9.625 10.7961 9.79291 10.3907 10.0918 10.0918C10.3907 9.79291 10.7961 9.625 11.2188 9.625H20.7812C21.2039 9.625 21.6093 9.79291 21.9082 10.0918C22.2071 10.3907 22.375 10.7961 22.375 11.2188V20.7812ZM30.3438 22.9062C30.2387 22.9062 30.136 22.8751 30.0486 22.8167C29.9612 22.7583 29.8931 22.6754 29.8529 22.5783C29.8127 22.4812 29.8022 22.3744 29.8227 22.2714C29.8432 22.1683 29.8938 22.0736 29.9681 21.9993C30.0424 21.9251 30.1371 21.8745 30.2401 21.854C30.3432 21.8335 30.45 21.844 30.5471 21.8842C30.6441 21.9244 30.7271 21.9925 30.7855 22.0799C30.8438 22.1672 30.875 22.2699 30.875 22.375C30.875 22.5159 30.819 22.651 30.7194 22.7506C30.6198 22.8503 30.4846 22.9062 30.3438 22.9062Z" fill="#1E81CE"/>
</svg>
