<svg width="78" height="84" viewBox="0 0 78 84" fill="none" xmlns="http://www.w3.org/2000/svg">
<path d="M56.25 30.1055H9.98828C9.30873 30.1055 8.75781 30.6562 8.75781 31.3359C8.75781 32.0156 9.30873 32.5664 9.98828 32.5664H56.2501C56.9297 32.5664 57.4806 32.0156 57.4806 31.3359C57.4806 30.6562 56.9295 30.1055 56.25 30.1055Z" fill="#B1A7E4"/>
<path d="M57.4804 42.7168C57.4804 42.0371 56.9295 41.4863 56.25 41.4863H9.98828C9.30873 41.4863 8.75781 42.0371 8.75781 42.7168C8.75781 43.3965 9.30873 43.9473 9.98828 43.9473H56.2501C56.9295 43.9473 57.4804 43.3965 57.4804 42.7168Z" fill="#B1A7E4"/>
<path d="M43.4575 54.0957C43.4575 53.416 42.9066 52.8652 42.2271 52.8652H9.98828C9.30873 52.8652 8.75781 53.416 8.75781 54.0957C8.75781 54.7754 9.30873 55.3262 9.98828 55.3262H42.2271C42.9066 55.3262 43.4575 54.7753 43.4575 54.0957Z" fill="#B1A7E4"/>
<path d="M9.98828 64.2441C9.30873 64.2441 8.75781 64.7949 8.75781 65.4746C8.75781 66.1543 9.30873 66.7051 9.98828 66.7051H33.1191C33.7987 66.7051 34.3496 66.1543 34.3496 65.4746C34.3496 64.7949 33.7987 64.2441 33.1191 64.2441H9.98828Z" fill="#B1A7E4"/>
<path d="M9.98828 13.5137H34.7826C35.4621 13.5137 36.013 12.9629 36.013 12.2832C36.013 11.6035 35.4621 11.0527 34.7826 11.0527H9.98828C9.30873 11.0527 8.75781 11.6035 8.75781 12.2832C8.75781 12.9629 9.30873 13.5137 9.98828 13.5137Z" fill="#B1A7E4"/>
<path d="M9.98828 21.6152H34.7826C35.4621 21.6152 36.013 21.0645 36.013 20.3848C36.013 19.7051 35.4621 19.1543 34.7826 19.1543H9.98828C9.30873 19.1543 8.75781 19.7051 8.75781 20.3848C8.75781 21.0645 9.30873 21.6152 9.98828 21.6152Z" fill="#B1A7E4"/>
<path d="M77.2004 35.8016C77.2004 34.9696 76.8764 34.1875 76.2881 33.5992C75.0737 32.3851 73.0979 32.3851 71.8835 33.5992L68.9076 36.5749C67.9622 36.2527 66.8725 36.4678 66.12 37.2205L30.9999 72.3409C30.9259 72.4149 30.8618 72.4979 30.8088 72.5881L26.3358 80.2069C26.089 80.6272 25.9734 81.0867 25.9829 81.5392H6.37448C4.65806 81.5392 3.26172 80.1429 3.26172 78.4265V5.5737C3.26172 3.85727 4.65806 2.46094 6.37448 2.46094H45.7905V17.103C45.7905 19.591 47.8147 21.6152 50.3027 21.6152H64.945V33.004C64.945 33.6837 65.4959 34.2344 66.1754 34.2344C66.855 34.2344 67.4059 33.6837 67.4059 33.004V20.3848C67.4059 20.0584 67.2763 19.7456 67.0455 19.5146L47.891 0.360281C47.6603 0.129609 47.3473 0 47.021 0H6.37448C3.30109 0 0.800781 2.50031 0.800781 5.5737V78.4265C0.800781 81.4997 3.30109 84.0002 6.37448 84.0002H61.832C64.9054 84.0002 67.4057 81.4999 67.4057 78.4265V54.5918C67.4057 53.9121 66.8548 53.3613 66.1753 53.3613C65.4957 53.3613 64.9448 53.9121 64.9448 54.5918V78.4263C64.9448 80.1427 63.5485 81.5391 61.832 81.5391H33.3646L37.3941 79.1733C37.4842 79.1205 37.5672 79.0561 37.6412 78.9823L72.7614 43.8621C73.2721 43.3515 73.5533 42.6727 73.5533 41.9505C73.5533 41.5967 73.4859 41.2535 73.3569 40.9352L76.2882 38.0039C76.8764 37.4156 77.2004 36.6335 77.2004 35.8016ZM48.2514 17.103V4.20098L63.2048 19.1543H50.3027C49.1717 19.1543 48.2514 18.2342 48.2514 17.103ZM65.9128 47.2303L62.7518 44.0693L64.2989 42.5222L67.4599 45.6832L65.9128 47.2303ZM36.7713 76.3719L33.6103 73.2109L61.0116 45.8095L64.1726 48.9705L36.7713 76.3719ZM28.5008 81.5391C28.4808 81.5345 28.447 81.5007 28.443 81.4861C28.4435 81.483 28.4471 81.4713 28.4581 81.4526L32.1254 75.2066L34.7758 77.857L28.5296 81.5241C28.5119 81.5345 28.5008 81.5384 28.5014 81.5392H28.5008V81.5391ZM71.0213 42.1217L69.2001 43.943L66.0391 40.782L67.8602 38.9609C67.9548 38.8664 68.1087 38.8664 68.2032 38.9609L71.0215 41.7792C71.0801 41.8377 71.0925 41.9048 71.0925 41.9505C71.0924 41.9962 71.0801 42.0632 71.0213 42.1217ZM74.548 36.2636L71.7672 39.0446L70.8428 38.1203L73.6237 35.3396C73.8783 35.0848 74.2932 35.0848 74.548 35.3396C74.6714 35.4629 74.7395 35.627 74.7395 35.8016C74.7395 35.9761 74.6716 36.1402 74.548 36.2636Z" fill="#B1A7E4"/>
</svg>
