<svg width="561" height="418" viewBox="0 0 561 418" fill="none" xmlns="http://www.w3.org/2000/svg">
<path d="M560.923 367.291H0V367.628H560.923V367.291Z" fill="#EBEBEB"/>
<path d="M504.719 385.355H467.586V385.692H504.719V385.355Z" fill="#EBEBEB"/>
<path d="M371.555 388.496H361.795V388.833H371.555V388.496Z" fill="#EBEBEB"/>
<path d="M466.463 375.035H444.924V375.372H466.463V375.035Z" fill="#EBEBEB"/>
<path d="M107.36 376.83H58.8965V377.167H107.36V376.83Z" fill="#EBEBEB"/>
<path d="M124.413 376.83H117.346V377.167H124.413V376.83Z" fill="#EBEBEB"/>
<path d="M252.64 381.652H147.523V381.989H252.64V381.652Z" fill="#EBEBEB"/>
<path d="M265.879 317.258H49.25C45.7723 317.258 42.8555 314.341 42.8555 310.864V6.39453C42.8555 2.9168 45.7723 0 49.25 0H265.879C269.356 0 272.273 2.9168 272.273 6.39453V310.864C272.273 314.454 269.468 317.258 265.879 317.258ZM49.25 0.336554C45.8845 0.336554 43.0798 3.02899 43.0798 6.50671V310.976C43.0798 314.341 45.7723 317.146 49.25 317.146H265.879C269.244 317.146 272.049 314.454 272.049 310.976V6.39453C272.049 3.02899 269.356 0.224369 265.879 0.224369H49.25V0.336554Z" fill="#EBEBEB"/>
<path d="M508.533 317.258H291.904C288.427 317.258 285.51 314.341 285.51 310.864V6.39453C285.51 2.9168 288.427 0 291.904 0H508.533C512.011 0 514.927 2.9168 514.927 6.39453V310.864C514.927 314.454 512.123 317.258 508.533 317.258ZM291.904 0.336554C288.539 0.336554 285.734 3.02899 285.734 6.50671V310.976C285.734 314.341 288.427 317.146 291.904 317.146H508.533C511.898 317.146 514.703 314.454 514.703 310.976V6.39453C514.703 3.02899 512.011 0.224369 508.533 0.224369H291.904V0.336554Z" fill="#EBEBEB"/>
<path d="M465.903 234.688H434.828V265.763H465.903V234.688Z" fill="url(#paint0_linear)"/>
<path d="M469.27 239.176H431.576V260.94H469.27V239.176Z" fill="url(#paint1_linear)"/>
<path d="M458.499 221.115H442.232V231.1H458.499V221.115Z" fill="url(#paint2_linear)"/>
<path d="M460.969 223.248H439.99V228.633H460.969V223.248Z" fill="url(#paint3_linear)"/>
<path d="M473.533 234.689H469.27V238.952H473.533V234.689Z" fill="url(#paint4_linear)"/>
<path d="M476.899 223.248H473.533V234.803H476.899V223.248Z" fill="url(#paint5_linear)"/>
<path d="M473.421 247.59H469.158V251.853H473.421V247.59Z" fill="url(#paint6_linear)"/>
<path d="M477.907 243.104H473.42V247.591H477.907V243.104Z" fill="url(#paint7_linear)"/>
<path d="M482.283 236.82H477.908V243.103H482.283V236.82Z" fill="url(#paint8_linear)"/>
<path d="M427.393 238.992H431.656V234.729H427.393V238.992Z" fill="url(#paint9_linear)"/>
<path d="M423.91 234.703H427.275V223.148H423.91V234.703Z" fill="url(#paint10_linear)"/>
<path d="M427.475 251.812H431.738V247.549H427.475V251.812Z" fill="url(#paint11_linear)"/>
<path d="M422.897 247.568H427.385V243.081H422.897V247.568Z" fill="url(#paint12_linear)"/>
<path d="M418.603 243.139H422.979V236.856H418.603V243.139Z" fill="url(#paint13_linear)"/>
<path d="M430.735 269.877H434.998V265.614H430.735V269.877Z" fill="url(#paint14_linear)"/>
<path d="M427.25 281.35H430.615V269.795H427.25V281.35Z" fill="url(#paint15_linear)"/>
<path d="M427.395 258.633H431.658V254.37H427.395V258.633Z" fill="url(#paint16_linear)"/>
<path d="M422.929 263.102H427.416V258.614H422.929V263.102Z" fill="url(#paint17_linear)"/>
<path d="M418.635 269.324H423.01V263.042H418.635V269.324Z" fill="url(#paint18_linear)"/>
<path d="M470.167 265.65H465.904V269.913H470.167V265.65Z" fill="url(#paint19_linear)"/>
<path d="M473.645 269.914H470.279V281.469H473.645V269.914Z" fill="url(#paint20_linear)"/>
<path d="M473.308 254.32H469.045V258.583H473.308V254.32Z" fill="url(#paint21_linear)"/>
<path d="M477.907 258.584H473.42V263.071H477.907V258.584Z" fill="url(#paint22_linear)"/>
<path d="M482.281 263.072H477.906V269.355H482.281V263.072Z" fill="url(#paint23_linear)"/>
<path d="M280.126 115.885H249.051V146.96H280.126V115.885Z" fill="#E0E0E0"/>
<path d="M283.378 120.371H245.684V142.135H283.378V120.371Z" fill="#E0E0E0"/>
<path d="M272.72 102.199H256.453V112.184H272.72V102.199Z" fill="#E0E0E0"/>
<path d="M275.076 104.332H254.098V109.717H275.076V104.332Z" fill="#E0E0E0"/>
<path d="M287.642 115.885H283.379V120.148H287.642V115.885Z" fill="#E0E0E0"/>
<path d="M291.119 104.33H287.754V115.885H291.119V104.33Z" fill="#E0E0E0"/>
<path d="M287.529 128.674H283.266V132.937H287.529V128.674Z" fill="#E0E0E0"/>
<path d="M292.017 124.299H287.529V128.786H292.017V124.299Z" fill="#E0E0E0"/>
<path d="M296.391 118.016H292.016V124.298H296.391V118.016Z" fill="#E0E0E0"/>
<path d="M241.579 120.09H245.842V115.827H241.579V120.09Z" fill="#E0E0E0"/>
<path d="M238.095 115.91H241.461V104.355H238.095V115.91Z" fill="#E0E0E0"/>
<path d="M241.661 133.02H245.924V128.757H241.661V133.02Z" fill="#E0E0E0"/>
<path d="M237.083 128.664H241.57V124.177H237.083V128.664Z" fill="#E0E0E0"/>
<path d="M232.789 124.234H237.164V117.952H232.789V124.234Z" fill="#E0E0E0"/>
<path d="M244.921 150.977H249.184V146.714H244.921V150.977Z" fill="#E0E0E0"/>
<path d="M241.437 162.561H244.803V151.006H241.437V162.561Z" fill="#E0E0E0"/>
<path d="M241.581 139.732H245.844V135.469H241.581V139.732Z" fill="#E0E0E0"/>
<path d="M237.003 144.199H241.49V139.712H237.003V144.199Z" fill="#E0E0E0"/>
<path d="M232.709 150.535H237.084V144.253H232.709V150.535Z" fill="#E0E0E0"/>
<path d="M284.388 146.85H280.125V151.113H284.388V146.85Z" fill="#E0E0E0"/>
<path d="M287.754 151.002H284.389V162.557H287.754V151.002Z" fill="#E0E0E0"/>
<path d="M287.529 135.52H283.266V139.783H287.529V135.52Z" fill="#E0E0E0"/>
<path d="M292.017 139.783H287.529V144.271H292.017V139.783Z" fill="#E0E0E0"/>
<path d="M296.393 144.158H292.018V150.441H296.393V144.158Z" fill="#E0E0E0"/>
<path d="M269.917 24.0059H250.396V43.526H269.917V24.0059Z" fill="url(#paint24_linear)"/>
<path d="M271.937 26.8105H248.266V40.4971H271.937V26.8105Z" fill="url(#paint25_linear)"/>
<path d="M265.205 15.3672H254.996V21.6495H265.205V15.3672Z" fill="url(#paint26_linear)"/>
<path d="M266.663 16.7129H253.537V20.0784H266.663V16.7129Z" fill="url(#paint27_linear)"/>
<path d="M274.63 24.0078H271.938V26.7002H274.63V24.0078Z" fill="url(#paint28_linear)"/>
<path d="M276.874 16.7148H274.742V24.0068H276.874V16.7148Z" fill="url(#paint29_linear)"/>
<path d="M274.63 32.082H271.938V34.7745H274.63V32.082Z" fill="url(#paint30_linear)"/>
<path d="M277.434 29.2773H274.629V32.082H277.434V29.2773Z" fill="url(#paint31_linear)"/>
<path d="M280.126 25.3535H277.434V29.28H280.126V25.3535Z" fill="url(#paint32_linear)"/>
<path d="M245.712 26.6074H248.404V23.915H245.712V26.6074Z" fill="url(#paint33_linear)"/>
<path d="M243.468 24.0156H245.6V16.7236H243.468V24.0156Z" fill="url(#paint34_linear)"/>
<path d="M245.765 34.6875H248.457V31.9951H245.765V34.6875Z" fill="url(#paint35_linear)"/>
<path d="M242.973 32.0059H245.777V29.2012H242.973V32.0059Z" fill="url(#paint36_linear)"/>
<path d="M240.263 29.2012H242.955V25.2747H240.263V29.2012Z" fill="url(#paint37_linear)"/>
<path d="M247.794 46.0508H250.486V43.3584H247.794V46.0508Z" fill="url(#paint38_linear)"/>
<path d="M245.661 53.2441H247.793V45.9521H245.661V53.2441Z" fill="url(#paint39_linear)"/>
<path d="M245.714 38.9375H248.406V36.2451H245.714V38.9375Z" fill="url(#paint40_linear)"/>
<path d="M242.922 41.7285H245.727V38.9239H242.922V41.7285Z" fill="url(#paint41_linear)"/>
<path d="M240.212 45.7676H242.904V41.8411H240.212V45.7676Z" fill="url(#paint42_linear)"/>
<path d="M272.608 43.416H269.916V46.1084H272.608V43.416Z" fill="url(#paint43_linear)"/>
<path d="M274.741 46.1074H272.609V53.3994H274.741V46.1074Z" fill="url(#paint44_linear)"/>
<path d="M274.628 36.3457H271.936V39.0381H274.628V36.3457Z" fill="url(#paint45_linear)"/>
<path d="M277.434 39.041H274.629V41.8456H277.434V39.041Z" fill="url(#paint46_linear)"/>
<path d="M280.126 41.7324H277.434V45.6589H280.126V41.7324Z" fill="url(#paint47_linear)"/>
<path d="M88.4011 32.5332H76.2852V44.6491H88.4011V32.5332Z" fill="url(#paint48_linear)"/>
<path d="M89.747 34.3301H75.0508V42.8561H89.747V34.3301Z" fill="url(#paint49_linear)"/>
<path d="M85.5957 27.2617H79.2012V31.1882H85.5957V27.2617Z" fill="url(#paint50_linear)"/>
<path d="M86.4942 28.0469H78.3047V30.1784H86.4942V28.0469Z" fill="url(#paint51_linear)"/>
<path d="M91.4289 32.5332H89.7461V34.216H91.4289V32.5332Z" fill="url(#paint52_linear)"/>
<path d="M92.7759 28.0469H91.4297V32.5343H92.7759V28.0469Z" fill="url(#paint53_linear)"/>
<path d="M91.3175 37.582H89.6348V39.2648H91.3175V37.582Z" fill="url(#paint54_linear)"/>
<path d="M93.0011 35.7891H91.3184V37.4718H93.0011V35.7891Z" fill="url(#paint55_linear)"/>
<path d="M94.7961 33.4316H93.1133V35.8997H94.7961V33.4316Z" fill="url(#paint56_linear)"/>
<path d="M73.4168 34.2168H75.0996V32.534H73.4168V34.2168Z" fill="url(#paint57_linear)"/>
<path d="M72.0366 32.5742H73.3828V28.0868H72.0366V32.5742Z" fill="url(#paint58_linear)"/>
<path d="M73.45 39.1953H75.1328V37.5125H73.45V39.1953Z" fill="url(#paint59_linear)"/>
<path d="M71.7293 37.5879H73.4121V35.9051H71.7293V37.5879Z" fill="url(#paint60_linear)"/>
<path d="M69.9911 35.7656H71.6738V33.2976H69.9911V35.7656Z" fill="url(#paint61_linear)"/>
<path d="M74.6864 46.209H76.3691V44.5262H74.6864V46.209Z" fill="url(#paint62_linear)"/>
<path d="M73.3042 50.7715H74.6504V46.2841H73.3042V50.7715Z" fill="url(#paint63_linear)"/>
<path d="M73.4188 41.8965H75.1016V40.2137H73.4188V41.8965Z" fill="url(#paint64_linear)"/>
<path d="M71.6981 43.6152H73.3809V41.9325H71.6981V43.6152Z" fill="url(#paint65_linear)"/>
<path d="M69.9598 46H71.6426V43.5319H69.9598V46Z" fill="url(#paint66_linear)"/>
<path d="M90.0832 44.6504H88.4004V46.3332H90.0832V44.6504Z" fill="url(#paint67_linear)"/>
<path d="M91.4302 46.2207H90.084V50.7081H91.4302V46.2207Z" fill="url(#paint68_linear)"/>
<path d="M91.3175 40.1641H89.6348V41.8468H91.3175V40.1641Z" fill="url(#paint69_linear)"/>
<path d="M93.0011 41.8457H91.3184V43.5285H93.0011V41.8457Z" fill="url(#paint70_linear)"/>
<path d="M94.7961 43.6406H93.1133V46.1087H94.7961V43.6406Z" fill="url(#paint71_linear)"/>
<path d="M96.2542 147.297H54.5215V177.026H96.2542V147.297Z" fill="url(#paint72_linear)"/>
<path d="M92.5512 144.941H58.2227V179.27H92.5512V144.941Z" fill="url(#paint73_linear)"/>
<path d="M63.3828 135.068H58.7832V143.258H63.3828V135.068Z" fill="url(#paint74_linear)"/>
<path d="M91.9902 135.068H87.3906V143.258H91.9902V135.068Z" fill="url(#paint75_linear)"/>
<path d="M87.3912 130.469H63.2715V135.181H87.3912V130.469Z" fill="url(#paint76_linear)"/>
<path d="M80.4365 155.262H70.3398V162.105H80.4365V155.262Z" fill="white"/>
<path d="M77.1837 159.639H73.5938V170.072H77.1837V159.639Z" fill="white"/>
<path d="M391.973 61.4785H350.24V91.2075H391.973V61.4785Z" fill="#E0E0E0"/>
<path d="M388.272 59.2344H353.943V93.5629H388.272V59.2344Z" fill="#E0E0E0"/>
<path d="M359.103 49.248H354.504V57.4375H359.103V49.248Z" fill="#E0E0E0"/>
<path d="M387.711 49.248H383.111V57.4375H387.711V49.248Z" fill="#E0E0E0"/>
<path d="M383.223 44.7617H359.104V49.4735H383.223V44.7617Z" fill="#E0E0E0"/>
<path d="M376.155 69.5566H366.059V76.3999H376.155V69.5566Z" fill="#FAFAFA"/>
<path d="M372.902 73.8203H369.312V84.2535H372.902V73.8203Z" fill="#FAFAFA"/>
<path d="M393.432 302.674H351.699V332.403H393.432V302.674Z" fill="url(#paint77_linear)"/>
<path d="M389.729 300.432H355.4V334.76H389.729V300.432Z" fill="url(#paint78_linear)"/>
<path d="M360.562 290.443H355.963V298.633H360.562V290.443Z" fill="url(#paint79_linear)"/>
<path d="M389.17 290.443H384.57V298.633H389.17V290.443Z" fill="url(#paint80_linear)"/>
<path d="M384.682 285.957H360.562V290.669H384.682V285.957Z" fill="url(#paint81_linear)"/>
<path d="M377.614 310.752H367.518V317.595H377.614V310.752Z" fill="white"/>
<path d="M374.359 315.129H370.77V325.562H374.359V315.129Z" fill="white"/>
<path d="M357.982 202.268H335.32V218.422H357.982V202.268Z" fill="#F0F0F0"/>
<path d="M355.962 201.033H337.34V219.656H355.962V201.033Z" fill="#F0F0F0"/>
<path d="M340.144 195.648H337.676V200.024H340.144V195.648Z" fill="#F0F0F0"/>
<path d="M355.738 195.648H353.27V200.024H355.738V195.648Z" fill="#F0F0F0"/>
<path d="M353.27 193.182H340.145V195.762H353.27V193.182Z" fill="#F0F0F0"/>
<path d="M349.456 206.643H343.959V210.345H349.456V206.643Z" fill="white"/>
<path d="M347.659 209H345.752V214.721H347.659V209Z" fill="white"/>
<path d="M185.553 30.8516H150.439V74.9401H185.553V30.8516Z" fill="url(#paint82_linear)"/>
<path d="M192.846 33.0957H143.148V57.6641H192.846V33.0957Z" fill="url(#paint83_linear)"/>
<path d="M189.929 52.5039H146.064V67.8732H189.929V52.5039Z" fill="url(#paint84_linear)"/>
<path d="M179.834 70.7891H156.051V79.0907H179.834V70.7891Z" fill="url(#paint85_linear)"/>
<path d="M171.083 76.3984H164.801V83.1295H171.083V76.3984Z" fill="url(#paint86_linear)"/>
<path d="M157.058 47.1211H151.785V52.3938H157.058V47.1211Z" fill="white"/>
<path d="M162.443 52.6172H157.059V58.002H162.443V52.6172Z" fill="white"/>
<path d="M169.061 58.1152H162.555V62.9392H169.061V58.1152Z" fill="white"/>
<path d="M173.999 51.2715H169.062V58.1147H173.999V51.2715Z" fill="white"/>
<path d="M178.823 44.9883H173.887V51.1584H178.823V44.9883Z" fill="white"/>
<path d="M184.095 39.8281H178.822V45.1008H184.095V39.8281Z" fill="white"/>
<path d="M484.483 43.0527H462.719V70.4258H484.483V43.0527Z" fill="url(#paint87_linear)"/>
<path d="M488.969 44.3984H458.23V59.6556H488.969V44.3984Z" fill="url(#paint88_linear)"/>
<path d="M487.174 56.5137H460.025V66.0494H487.174V56.5137Z" fill="url(#paint89_linear)"/>
<path d="M481.004 67.8457H466.195V73.0062H481.004V67.8457Z" fill="url(#paint90_linear)"/>
<path d="M475.618 71.3223H471.691V75.4731H475.618V71.3223Z" fill="url(#paint91_linear)"/>
<path d="M466.662 52.7168H463.408V55.9702H466.662V52.7168Z" fill="white"/>
<path d="M470.028 56.1953H466.662V59.5609H470.028V56.1953Z" fill="white"/>
<path d="M474.066 59.5605H470.027V62.5895H474.066V59.5605Z" fill="white"/>
<path d="M477.095 55.2988H474.066V59.5618H477.095V55.2988Z" fill="white"/>
<path d="M480.125 51.373H477.096V55.1873H480.125V51.373Z" fill="white"/>
<path d="M483.376 48.2305H480.123V51.4838H483.376V48.2305Z" fill="white"/>
<path d="M296.279 301.666H280.91V320.962H296.279V301.666Z" fill="url(#paint92_linear)"/>
<path d="M299.421 302.566H277.77V313.336H299.421V302.566Z" fill="url(#paint93_linear)"/>
<path d="M298.187 311.092H279.004V317.823H298.187V311.092Z" fill="url(#paint94_linear)"/>
<path d="M293.812 319.055H283.379V322.645H293.812V319.055Z" fill="url(#paint95_linear)"/>
<path d="M289.998 321.521H287.193V324.438H289.998V321.521Z" fill="url(#paint96_linear)"/>
<path d="M283.94 308.736H281.584V311.092H283.94V308.736Z" fill="white"/>
<path d="M286.184 311.092H283.828V313.448H286.184V311.092Z" fill="white"/>
<path d="M288.988 313.447H286.184V315.579H288.988V313.447Z" fill="white"/>
<path d="M291.233 310.531H289.102V313.56H291.233V310.531Z" fill="white"/>
<path d="M293.364 307.838H291.232V310.53H293.364V307.838Z" fill="white"/>
<path d="M295.719 305.482H293.363V307.838H295.719V305.482Z" fill="white"/>
<path d="M280.462 418C400.598 418 497.988 412.325 497.988 405.323C497.988 398.322 400.598 392.646 280.462 392.646C160.325 392.646 62.9355 398.322 62.9355 405.323C62.9355 412.325 160.325 418 280.462 418Z" fill="#F9F8FF"/>
<path d="M443.355 329.15C443.355 329.15 450.423 323.205 456.593 329.15C462.651 335.096 463.885 371.893 463.885 371.893" stroke="#407BFF" stroke-width="1.12185" stroke-miterlimit="10"/>
<path d="M464.332 378.96C464.332 378.96 460.181 335.769 475.887 317.707" stroke="#407BFF" stroke-width="1.12185" stroke-miterlimit="10"/>
<path d="M462.875 374.363C462.875 374.363 466.128 325.226 454.236 314.344" stroke="#407BFF" stroke-width="1.12185" stroke-miterlimit="10"/>
<path d="M464.332 374.36C464.332 374.36 464.556 341.939 473.419 336.89C482.282 331.842 486.769 348.333 486.769 348.333" stroke="#407BFF" stroke-width="1.12185" stroke-miterlimit="10"/>
<path d="M460.855 374.358C460.855 374.358 462.314 349.453 455.47 340.478C448.627 331.615 441.447 344.292 441.447 344.292" stroke="#407BFF" stroke-width="1.12185" stroke-miterlimit="10"/>
<path d="M463.212 377.726C463.212 377.726 458.837 319.39 466.129 309.518" stroke="#407BFF" stroke-width="1.12185" stroke-miterlimit="10"/>
<path d="M480.935 341.602C480.935 341.602 476.56 343.172 477.794 347.099C479.14 350.913 492.939 357.195 492.939 357.195C492.939 357.195 498.772 351.811 493.387 343.172C488.227 334.534 481.047 338.909 480.935 341.602Z" fill="#407BFF"/>
<path opacity="0.5" d="M480.935 341.602C480.935 341.602 476.56 343.172 477.794 347.099C479.14 350.913 492.939 357.195 492.939 357.195C492.939 357.195 498.772 351.811 493.387 343.172C488.227 334.534 481.047 338.909 480.935 341.602Z" fill="white"/>
<path d="M461.863 334.309C461.863 334.309 466.575 334.085 466.799 338.124C467.024 342.162 456.703 353.269 456.703 353.269C456.703 353.269 449.298 350.576 450.869 340.48C452.44 330.495 460.741 331.841 461.863 334.309Z" fill="#407BFF"/>
<path opacity="0.5" d="M461.863 334.309C461.863 334.309 466.575 334.085 466.799 338.124C467.024 342.162 456.703 353.269 456.703 353.269C456.703 353.269 449.298 350.576 450.869 340.48C452.44 330.495 460.741 331.841 461.863 334.309Z" fill="white"/>
<path d="M457.936 315.015C457.936 315.015 461.077 314.679 460.853 312.771C460.628 310.864 448.737 305.928 441.781 313.893C441.781 313.893 446.269 321.634 452.775 321.746C459.17 321.858 457.936 315.015 457.936 315.015Z" fill="#407BFF"/>
<path opacity="0.5" d="M457.936 315.015C457.936 315.015 461.077 314.679 460.853 312.771C460.628 310.864 448.737 305.928 441.781 313.893C441.781 313.893 446.269 321.634 452.775 321.746C459.17 321.858 457.936 315.015 457.936 315.015Z" fill="white"/>
<path d="M463.771 310.415C463.771 310.415 460.967 311.761 460.181 310.078C459.396 308.283 466.912 297.962 477.009 300.879C477.009 300.879 477.233 309.742 471.849 313.332C466.351 316.809 463.771 310.415 463.771 310.415Z" fill="#407BFF"/>
<path opacity="0.5" d="M463.771 310.415C463.771 310.415 460.967 311.761 460.181 310.078C459.396 308.283 466.912 297.962 477.009 300.879C477.009 300.879 477.233 309.742 471.849 313.332C466.351 316.809 463.771 310.415 463.771 310.415Z" fill="white"/>
<path d="M448.963 340.034C448.963 340.034 451.094 338.351 448.738 337.454C446.382 336.556 435.052 336.893 434.939 348.111C434.939 348.111 448.177 350.355 449.86 345.98C451.543 341.829 448.963 340.034 448.963 340.034Z" fill="#407BFF"/>
<path opacity="0.5" d="M448.963 340.034C448.963 340.034 451.094 338.351 448.738 337.454C446.382 336.556 435.052 336.893 434.939 348.111C434.939 348.111 448.177 350.355 449.86 345.98C451.543 341.829 448.963 340.034 448.963 340.034Z" fill="white"/>
<path d="M475.998 314.79C475.998 314.79 473.867 313.107 476.223 312.21C478.579 311.312 489.909 311.649 490.022 322.867C490.022 322.867 476.784 325.111 475.101 320.736C473.53 316.473 475.998 314.79 475.998 314.79Z" fill="#407BFF"/>
<path opacity="0.5" d="M475.998 314.79C475.998 314.79 473.867 313.107 476.223 312.21C478.579 311.312 489.909 311.649 490.022 322.867C490.022 322.867 476.784 325.111 475.101 320.736C473.53 316.473 475.998 314.79 475.998 314.79Z" fill="white"/>
<path d="M469.045 323.88C469.045 323.88 468.82 321.749 470.615 322.646C472.298 323.432 478.244 329.938 472.074 335.996C472.074 335.996 463.772 329.826 465.23 326.685C466.689 323.319 469.045 323.88 469.045 323.88Z" fill="#407BFF"/>
<path opacity="0.5" d="M469.045 323.88C469.045 323.88 468.82 321.749 470.615 322.646C472.298 323.432 478.244 329.938 472.074 335.996C472.074 335.996 463.772 329.826 465.23 326.685C466.689 323.319 469.045 323.88 469.045 323.88Z" fill="white"/>
<path d="M447.055 326.906C447.055 326.906 448.289 325.224 446.494 324.999C444.587 324.775 436.173 327.019 438.08 335.432C438.08 335.432 448.401 334.647 448.85 331.169C449.299 327.692 447.055 326.906 447.055 326.906Z" fill="#407BFF"/>
<path opacity="0.5" d="M447.055 326.906C447.055 326.906 448.289 325.224 446.494 324.999C444.587 324.775 436.173 327.019 438.08 335.432C438.08 335.432 448.401 334.647 448.85 331.169C449.299 327.692 447.055 326.906 447.055 326.906Z" fill="white"/>
<path d="M481.832 405.66H446.494L442.68 367.068H485.646L481.832 405.66Z" fill="#263238"/>
<path opacity="0.2" d="M481.832 405.66H446.494L442.68 367.068H485.646L481.832 405.66Z" fill="white"/>
<path d="M487.442 362.809H440.773V371.335H487.442V362.809Z" fill="#263238"/>
<path opacity="0.4" d="M487.442 362.809H440.773V371.335H487.442V362.809Z" fill="white"/>
<path d="M499.784 199.014H379.746C378.288 199.014 377.166 197.892 377.166 196.434V98.7209C377.166 97.2625 378.288 96.1406 379.746 96.1406H499.672C501.13 96.1406 502.252 97.2625 502.252 98.7209V196.546C502.364 197.892 501.242 199.014 499.784 199.014Z" fill="#407BFF"/>
<path opacity="0.6" d="M502.364 98.7209V196.546C502.364 198.004 501.242 199.126 499.784 199.126H379.746C378.288 199.126 377.166 198.004 377.166 196.546V98.7209C377.166 97.2625 378.288 96.1406 379.746 96.1406H499.672C501.242 96.1406 502.364 97.2625 502.364 98.7209Z" fill="white"/>
<path d="M499.671 106.576H379.857V196.1H499.671V106.576Z" fill="#263238"/>
<path opacity="0.5" d="M389.618 117.794C389.73 117.906 389.955 117.906 390.067 117.906C390.291 117.906 390.628 117.794 390.74 117.569C390.964 117.233 390.964 116.672 390.516 116.447L388.048 114.652L390.516 112.857C390.852 112.633 390.964 112.072 390.74 111.736C390.516 111.399 389.955 111.287 389.618 111.511L386.253 113.979C386.028 114.092 385.916 114.428 385.916 114.652C385.916 114.877 386.028 115.213 386.253 115.326L389.618 117.794Z" fill="white"/>
<path opacity="0.5" d="M401.062 114.54L398.594 116.335C398.258 116.56 398.146 117.121 398.37 117.457C398.482 117.682 398.819 117.794 399.043 117.794C399.268 117.794 399.38 117.794 399.492 117.682L402.857 115.214C403.082 115.101 403.194 114.765 403.194 114.54C403.194 114.316 403.082 113.98 402.857 113.867L399.492 111.399C399.155 111.175 398.594 111.175 398.37 111.624C398.146 111.96 398.146 112.521 398.594 112.746L401.062 114.54Z" fill="white"/>
<path opacity="0.5" d="M393.433 117.906C393.545 117.906 393.658 117.906 393.77 117.906C394.106 117.906 394.443 117.682 394.555 117.345L396.35 112.297C396.462 111.848 396.238 111.399 395.789 111.175C395.34 111.063 394.892 111.287 394.667 111.736L392.872 116.784C392.76 117.233 392.985 117.682 393.433 117.906Z" fill="white"/>
<path opacity="0.5" d="M407.456 118.242H411.943C412.616 118.242 413.065 117.793 413.065 117.12C413.065 116.447 412.616 115.998 411.943 115.998H407.456C406.783 115.998 406.334 116.447 406.334 117.12C406.334 117.681 406.783 118.242 407.456 118.242Z" fill="white"/>
<path opacity="0.5" d="M479.366 181.627H425.181H417.552H409.811C409.138 181.627 408.689 182.076 408.689 182.749C408.689 183.422 409.138 183.871 409.811 183.871H417.552H425.181H479.254C479.927 183.871 480.375 183.422 480.375 182.749C480.488 182.188 479.927 181.627 479.366 181.627Z" fill="white"/>
<path d="M494.511 181.627H485.985C485.312 181.627 484.863 182.076 484.863 182.749C484.863 183.422 485.312 183.871 485.985 183.871H494.511C495.184 183.871 495.633 183.422 495.633 182.749C495.633 182.188 495.184 181.627 494.511 181.627Z" fill="white"/>
<path d="M430.79 176.804H458.724C459.397 176.804 459.846 176.356 459.846 175.682C459.846 175.009 459.397 174.561 458.724 174.561H430.79C430.117 174.561 429.668 175.009 429.668 175.682C429.668 176.356 430.229 176.804 430.79 176.804Z" fill="white"/>
<path opacity="0.5" d="M479.368 176.804C480.041 176.804 480.489 176.356 480.489 175.682C480.489 175.009 480.041 174.561 479.368 174.561H463.55C462.876 174.561 462.428 175.009 462.428 175.682C462.428 176.356 462.876 176.804 463.55 176.804H479.368Z" fill="white"/>
<path opacity="0.5" d="M494.512 174.561H486.098C485.425 174.561 484.977 175.009 484.977 175.682C484.977 176.356 485.425 176.804 486.098 176.804H494.512C495.185 176.804 495.634 176.356 495.634 175.682C495.634 175.121 495.185 174.561 494.512 174.561Z" fill="white"/>
<path d="M479.478 167.49H442.009C441.335 167.49 440.887 167.939 440.887 168.612C440.887 169.285 441.335 169.734 442.009 169.734H479.366C480.039 169.734 480.488 169.285 480.488 168.612C480.6 167.939 480.039 167.49 479.478 167.49Z" fill="white"/>
<path d="M494.511 167.49H485.985C485.312 167.49 484.863 167.939 484.863 168.612C484.863 169.285 485.312 169.734 485.985 169.734H494.511C495.184 169.734 495.633 169.285 495.633 168.612C495.633 167.939 495.184 167.49 494.511 167.49Z" fill="white"/>
<path opacity="0.5" d="M458.838 161.434C458.838 160.761 458.389 160.312 457.716 160.312H419.573C418.9 160.312 418.451 160.761 418.451 161.434C418.451 162.107 418.9 162.556 419.573 162.556H457.716C458.389 162.556 458.838 162.107 458.838 161.434Z" fill="white"/>
<path opacity="0.5" d="M464.671 160.312C463.998 160.312 463.549 160.761 463.549 161.434C463.549 162.107 463.998 162.556 464.671 162.556H479.479C480.152 162.556 480.601 162.107 480.601 161.434C480.601 160.761 480.152 160.312 479.479 160.312H464.671Z" fill="white"/>
<path d="M494.512 160.312H486.098C485.425 160.312 484.977 160.761 484.977 161.434C484.977 162.107 485.425 162.556 486.098 162.556H494.512C495.185 162.556 495.634 162.107 495.634 161.434C495.634 160.873 495.185 160.312 494.512 160.312Z" fill="white"/>
<path d="M466.69 155.488H473.982C474.655 155.488 475.104 155.039 475.104 154.366C475.104 153.693 474.655 153.244 473.982 153.244H466.69C466.017 153.244 465.568 153.693 465.568 154.366C465.568 155.039 466.129 155.488 466.69 155.488Z" fill="white"/>
<path opacity="0.5" d="M479.255 155.488H494.512C495.185 155.488 495.634 155.039 495.634 154.366C495.634 153.693 495.185 153.244 494.512 153.244H479.255C478.582 153.244 478.133 153.693 478.133 154.366C478.133 155.039 478.694 155.488 479.255 155.488Z" fill="white"/>
<path d="M425.63 147.298C425.63 146.625 425.181 146.176 424.508 146.176H385.917C385.244 146.176 384.795 146.625 384.795 147.298C384.795 147.971 385.244 148.419 385.917 148.419H424.396C425.069 148.419 425.63 147.859 425.63 147.298Z" fill="white"/>
<path opacity="0.5" d="M430.454 148.419H441.785C442.458 148.419 442.906 147.971 442.906 147.298C442.906 146.625 442.458 146.176 441.785 146.176H430.454C429.781 146.176 429.332 146.625 429.332 147.298C429.332 147.859 429.893 148.419 430.454 148.419Z" fill="white"/>
<path opacity="0.5" d="M385.917 141.353H400.501C401.174 141.353 401.623 140.904 401.623 140.231C401.623 139.558 401.174 139.109 400.501 139.109H385.917C385.244 139.109 384.795 139.558 384.795 140.231C384.795 140.792 385.356 141.353 385.917 141.353Z" fill="white"/>
<path d="M454.125 140.231C454.125 139.558 453.676 139.109 453.003 139.109H407.68C407.007 139.109 406.559 139.558 406.559 140.231C406.559 140.904 407.007 141.353 407.68 141.353H453.003C453.676 141.353 454.125 140.792 454.125 140.231Z" fill="white"/>
<path d="M385.917 134.173H412.392C413.065 134.173 413.514 133.725 413.514 133.052C413.514 132.378 413.065 131.93 412.392 131.93H385.917C385.244 131.93 384.795 132.378 384.795 133.052C384.795 133.725 385.356 134.173 385.917 134.173Z" fill="white"/>
<path opacity="0.5" d="M417.328 133.052C417.328 133.725 417.777 134.173 418.45 134.173H424.957C425.63 134.173 426.079 133.725 426.079 133.052C426.079 132.378 425.63 131.93 424.957 131.93H418.45C417.889 131.93 417.328 132.491 417.328 133.052Z" fill="white"/>
<path opacity="0.5" d="M385.917 127.105H417.104C417.777 127.105 418.226 126.656 418.226 125.983C418.226 125.31 417.777 124.861 417.104 124.861H385.917C385.244 124.861 384.795 125.31 384.795 125.983C384.795 126.656 385.356 127.105 385.917 127.105Z" fill="white"/>
<path d="M440.327 127.105H464.222C464.895 127.105 465.344 126.656 465.344 125.983C465.344 125.31 464.895 124.861 464.222 124.861H440.327C439.654 124.861 439.205 125.31 439.205 125.983C439.205 126.656 439.766 127.105 440.327 127.105Z" fill="white"/>
<path opacity="0.2" d="M448.852 96.1406V124.075C448.852 127.216 446.384 129.684 443.243 129.684H377.166V98.7209C377.166 97.2625 378.288 96.1406 379.746 96.1406H448.852Z" fill="black"/>
<path d="M440.437 120.823H304.694C303.235 120.823 302.113 119.702 302.113 118.243V20.4181C302.113 18.9597 303.235 17.8379 304.694 17.8379H440.325C441.783 17.8379 442.905 18.9597 442.905 20.4181V118.243C443.017 119.589 441.783 120.823 440.437 120.823Z" fill="#407BFF"/>
<path opacity="0.6" d="M443.017 20.4181V118.243C443.017 119.702 441.895 120.823 440.437 120.823H304.694C303.235 120.823 302.113 119.702 302.113 118.243V20.4181C302.113 18.9597 303.235 17.8379 304.694 17.8379H440.437C441.783 17.8379 443.017 18.9597 443.017 20.4181Z" fill="white"/>
<path d="M440.324 28.2715H304.805V117.795H440.324V28.2715Z" fill="#263238"/>
<path d="M314.563 39.4909C314.676 39.6031 314.9 39.6031 315.012 39.6031C315.237 39.6031 315.573 39.4909 315.685 39.2665C315.91 38.9299 315.91 38.369 315.461 38.1447L312.993 36.3497L315.461 34.5547C315.797 34.3304 315.91 33.7694 315.685 33.4329C315.461 33.0963 314.9 32.9842 314.563 33.2085L311.198 35.6766C310.973 35.7888 310.861 36.1253 310.861 36.3497C310.861 36.5741 310.973 36.9106 311.198 37.0228L314.563 39.4909Z" fill="white"/>
<path d="M325.894 36.2378L323.426 38.0327C323.09 38.2571 322.978 38.818 323.202 39.1546C323.314 39.3789 323.651 39.4911 323.875 39.4911C324.1 39.4911 324.212 39.4911 324.324 39.3789L327.689 36.9109C327.914 36.7987 328.026 36.4621 328.026 36.2378C328.026 36.0134 327.914 35.6768 327.689 35.5647L324.324 33.0966C323.987 32.8722 323.426 32.8722 323.202 33.321C322.978 33.6575 322.978 34.2184 323.426 34.4428L325.894 36.2378Z" fill="white"/>
<path d="M318.379 39.6034C318.491 39.6034 318.603 39.6034 318.715 39.6034C319.052 39.6034 319.388 39.379 319.5 39.0425L321.295 33.9942C321.408 33.5454 321.183 33.0967 320.734 32.8723C320.286 32.7602 319.837 32.9845 319.613 33.4333L317.818 38.4816C317.705 38.9303 317.93 39.4912 318.379 39.6034Z" fill="white"/>
<path opacity="0.5" d="M332.401 39.939H336.889C337.562 39.939 338.01 39.4903 338.01 38.8172C338.01 38.1441 337.562 37.6953 336.889 37.6953H332.401C331.728 37.6953 331.279 38.1441 331.279 38.8172C331.279 39.3781 331.728 39.939 332.401 39.939Z" fill="white"/>
<path opacity="0.5" d="M389.952 48.8023H395.898C396.571 48.8023 397.02 48.3535 397.02 47.6804C397.02 47.0073 396.571 46.5586 395.898 46.5586H389.952C389.279 46.5586 388.83 47.0073 388.83 47.6804C388.83 48.3535 389.279 48.8023 389.952 48.8023Z" fill="white"/>
<path d="M324.998 47.6804C324.998 48.3535 325.447 48.8023 326.12 48.8023H382.212C382.885 48.8023 383.334 48.3535 383.334 47.6804C383.334 47.0073 382.885 46.5586 382.212 46.5586H326.12C325.447 46.5586 324.998 47.1195 324.998 47.6804Z" fill="white"/>
<path opacity="0.5" d="M310.862 48.8023H319.388C320.061 48.8023 320.51 48.3535 320.51 47.6804C320.51 47.0073 320.061 46.5586 319.388 46.5586H310.862C310.189 46.5586 309.74 47.0073 309.74 47.6804C309.74 48.3535 310.301 48.8023 310.862 48.8023Z" fill="white"/>
<path d="M368.974 55.8706C369.647 55.8706 370.096 55.4219 370.096 54.7488C370.096 54.0757 369.647 53.627 368.974 53.627H346.649C345.976 53.627 345.527 54.0757 345.527 54.7488C345.527 55.4219 345.976 55.8706 346.649 55.8706H368.974Z" fill="white"/>
<path d="M326.12 55.8706H341.938C342.611 55.8706 343.06 55.4219 343.06 54.7488C343.06 54.0757 342.611 53.627 341.938 53.627H326.12C325.447 53.627 324.998 54.0757 324.998 54.7488C324.998 55.4219 325.447 55.8706 326.12 55.8706Z" fill="white"/>
<path opacity="0.5" d="M310.862 55.8706H319.276C319.949 55.8706 320.398 55.4219 320.398 54.7488C320.398 54.0757 319.949 53.627 319.276 53.627H310.862C310.189 53.627 309.74 54.0757 309.74 54.7488C309.74 55.4219 310.301 55.8706 310.862 55.8706Z" fill="white"/>
<path d="M358.877 61.9285C358.877 61.2554 358.428 60.8066 357.755 60.8066H326.007C325.334 60.8066 324.885 61.2554 324.885 61.9285C324.885 62.6016 325.334 63.0503 326.007 63.0503H357.755C358.428 63.0503 358.877 62.4894 358.877 61.9285Z" fill="white"/>
<path opacity="0.5" d="M310.862 63.0503H319.388C320.061 63.0503 320.51 62.6016 320.51 61.9285C320.51 61.2554 320.061 60.8066 319.388 60.8066H310.862C310.189 60.8066 309.74 61.2554 309.74 61.9285C309.74 62.4894 310.301 63.0503 310.862 63.0503Z" fill="white"/>
<path d="M347.77 70.1167H380.304C380.977 70.1167 381.426 69.668 381.426 68.9949C381.426 68.3218 380.977 67.873 380.304 67.873H347.77C347.097 67.873 346.648 68.3218 346.648 68.9949C346.648 69.668 347.097 70.1167 347.77 70.1167Z" fill="white"/>
<path d="M326.007 67.873C325.334 67.873 324.885 68.3218 324.885 68.9949C324.885 69.668 325.334 70.1167 326.007 70.1167H340.815C341.488 70.1167 341.937 69.668 341.937 68.9949C341.937 68.3218 341.488 67.873 340.815 67.873H326.007Z" fill="white"/>
<path opacity="0.5" d="M310.862 70.1167H319.276C319.949 70.1167 320.398 69.668 320.398 68.9949C320.398 68.3218 319.949 67.873 319.276 67.873H310.862C310.189 67.873 309.74 68.3218 309.74 68.9949C309.74 69.668 310.301 70.1167 310.862 70.1167Z" fill="white"/>
<path d="M338.683 74.9414H331.391C330.718 74.9414 330.27 75.3901 330.27 76.0633C330.27 76.7364 330.718 77.1851 331.391 77.1851H338.683C339.356 77.1851 339.805 76.7364 339.805 76.0633C339.805 75.5023 339.356 74.9414 338.683 74.9414Z" fill="white"/>
<path d="M326.119 74.9414H310.862C310.189 74.9414 309.74 75.3901 309.74 76.0633C309.74 76.7364 310.189 77.1851 310.862 77.1851H326.119C326.792 77.1851 327.241 76.7364 327.241 76.0633C327.241 75.5023 326.792 74.9414 326.119 74.9414Z" fill="white"/>
<path d="M374.246 83.2429C374.246 83.916 374.695 84.3648 375.368 84.3648H435.162C435.835 84.3648 436.284 83.916 436.284 83.2429C436.284 82.5698 435.835 82.1211 435.162 82.1211H375.368C374.695 82.1211 374.246 82.5698 374.246 83.2429Z" fill="white"/>
<path opacity="0.5" d="M357.979 82.1211C357.306 82.1211 356.857 82.5698 356.857 83.2429C356.857 83.916 357.306 84.3648 357.979 84.3648H369.31C369.983 84.3648 370.432 83.916 370.432 83.2429C370.432 82.5698 369.983 82.1211 369.31 82.1211H357.979Z" fill="white"/>
<path opacity="0.5" d="M435.163 89.1875H420.579C419.906 89.1875 419.457 89.6362 419.457 90.3093C419.457 90.9825 419.906 91.4312 420.579 91.4312H435.163C435.836 91.4312 436.285 90.9825 436.285 90.3093C436.285 89.6362 435.836 89.1875 435.163 89.1875Z" fill="white"/>
<path d="M414.52 90.3093C414.52 89.6362 414.071 89.1875 413.398 89.1875H352.37C351.697 89.1875 351.248 89.6362 351.248 90.3093C351.248 90.9825 351.697 91.4312 352.37 91.4312H413.398C413.959 91.4312 414.52 90.9825 414.52 90.3093Z" fill="white"/>
<path d="M435.164 96.2578H408.688C408.015 96.2578 407.566 96.7066 407.566 97.3797C407.566 98.0528 408.015 98.5015 408.688 98.5015H435.164C435.837 98.5015 436.286 98.0528 436.286 97.3797C436.286 96.8187 435.837 96.2578 435.164 96.2578Z" fill="white"/>
<path opacity="0.5" d="M396.122 96.2578C395.449 96.2578 395 96.7066 395 97.3797C395 98.0528 395.449 98.5015 396.122 98.5015H402.629C403.302 98.5015 403.75 98.0528 403.75 97.3797C403.75 96.7066 403.302 96.2578 402.629 96.2578H396.122Z" fill="white"/>
<path d="M435.163 103.438H382.661C381.988 103.438 381.539 103.886 381.539 104.559C381.539 105.232 381.988 105.681 382.661 105.681H435.163C435.836 105.681 436.285 105.232 436.285 104.559C436.285 103.886 435.836 103.438 435.163 103.438Z" fill="white"/>
<path d="M359.437 103.438H341.151C340.478 103.438 340.029 103.886 340.029 104.559C340.029 105.232 340.478 105.681 341.151 105.681H359.437C360.11 105.681 360.559 105.232 360.559 104.559C360.559 103.886 360.11 103.438 359.437 103.438Z" fill="white"/>
<path opacity="0.2" d="M377.278 62.1518V120.824H304.807C303.348 120.824 302.227 119.703 302.227 118.244V57.1035H372.342C375.034 57.1035 377.278 59.3472 377.278 62.1518Z" fill="black"/>
<path d="M365.386 164.462H208.44C206.981 164.462 205.859 163.34 205.859 161.882V64.0568C205.859 62.5984 206.981 61.4766 208.44 61.4766H365.386C366.844 61.4766 367.966 62.5984 367.966 64.0568V161.882C367.966 163.228 366.844 164.462 365.386 164.462Z" fill="#407BFF"/>
<path opacity="0.6" d="M365.386 164.462H208.44C206.981 164.462 205.859 163.34 205.859 161.882V64.0568C205.859 62.5984 206.981 61.4766 208.44 61.4766H365.386C366.844 61.4766 367.966 62.5984 367.966 64.0568V161.882C367.966 163.228 366.844 164.462 365.386 164.462Z" fill="white"/>
<path d="M365.274 71.9121H208.439V161.435H365.274V71.9121Z" fill="#263238"/>
<path d="M239.626 90.7578H214.497C213.824 90.7578 213.375 91.2066 213.375 91.8797C213.375 92.5528 213.824 93.0015 214.497 93.0015H239.626C240.299 93.0015 240.748 92.5528 240.748 91.8797C240.748 91.2066 240.299 90.7578 239.626 90.7578Z" fill="white"/>
<path d="M239.626 97.7148H217.862C217.189 97.7148 216.74 98.1636 216.74 98.8367C216.74 99.5098 217.189 99.9585 217.862 99.9585H239.626C240.299 99.9585 240.748 99.5098 240.748 98.8367C240.748 98.2758 240.299 97.7148 239.626 97.7148Z" fill="white"/>
<path opacity="0.5" d="M239.626 104.781H214.497C213.824 104.781 213.375 105.23 213.375 105.903C213.375 106.576 213.824 107.025 214.497 107.025H239.626C240.299 107.025 240.748 106.576 240.748 105.903C240.748 105.23 240.299 104.781 239.626 104.781Z" fill="white"/>
<path d="M239.625 111.74H224.593C223.919 111.74 223.471 112.189 223.471 112.862C223.471 113.535 223.919 113.984 224.593 113.984H239.625C240.298 113.984 240.747 113.535 240.747 112.862C240.747 112.301 240.298 111.74 239.625 111.74Z" fill="white"/>
<path d="M239.626 118.805H214.497C213.824 118.805 213.375 119.253 213.375 119.927C213.375 120.6 213.824 121.048 214.497 121.048H239.626C240.299 121.048 240.748 120.6 240.748 119.927C240.748 119.253 240.299 118.805 239.626 118.805Z" fill="white"/>
<path d="M239.627 125.762H218.985C218.312 125.762 217.863 126.21 217.863 126.884C217.863 127.557 218.312 128.005 218.985 128.005H239.627C240.3 128.005 240.749 127.557 240.749 126.884C240.749 126.21 240.3 125.762 239.627 125.762Z" fill="white"/>
<path d="M239.627 132.715H218.985C218.312 132.715 217.863 133.164 217.863 133.837C217.863 134.51 218.312 134.959 218.985 134.959H239.627C240.3 134.959 240.749 134.51 240.749 133.837C240.749 133.276 240.3 132.715 239.627 132.715Z" fill="white"/>
<path d="M239.627 139.783H216.741C216.068 139.783 215.619 140.232 215.619 140.905C215.619 141.578 216.068 142.027 216.741 142.027H239.627C240.3 142.027 240.749 141.578 240.749 140.905C240.749 140.232 240.3 139.783 239.627 139.783Z" fill="white"/>
<path opacity="0.5" d="M239.625 146.74H224.593C223.919 146.74 223.471 147.189 223.471 147.862C223.471 148.535 223.919 148.984 224.593 148.984H239.625C240.298 148.984 240.747 148.535 240.747 147.862C240.747 147.301 240.298 146.74 239.625 146.74Z" fill="white"/>
<path opacity="0.5" d="M239.626 83.8047H221.227C220.554 83.8047 220.105 84.2534 220.105 84.9265C220.105 85.5996 220.554 86.0484 221.227 86.0484H239.626C240.299 86.0484 240.747 85.5996 240.747 84.9265C240.747 84.2534 240.299 83.8047 239.626 83.8047Z" fill="white"/>
<path d="M239.626 76.7344H214.497C213.824 76.7344 213.375 77.1831 213.375 77.8562C213.375 78.5293 213.824 78.9781 214.497 78.9781H239.626C240.299 78.9781 240.748 78.5293 240.748 77.8562C240.748 77.2953 240.299 76.7344 239.626 76.7344Z" fill="white"/>
<path d="M239.626 153.807H214.497C213.824 153.807 213.375 154.255 213.375 154.928C213.375 155.602 213.824 156.05 214.497 156.05H239.626C240.299 156.05 240.748 155.602 240.748 154.928C240.748 154.255 240.299 153.807 239.626 153.807Z" fill="white"/>
<path opacity="0.5" d="M253.2 90.4238H248.264V93.2284H253.2V90.4238Z" fill="white"/>
<path opacity="0.5" d="M253.2 97.4883H248.264V100.293H253.2V97.4883Z" fill="white"/>
<path opacity="0.5" d="M253.2 104.447H248.264V107.252H253.2V104.447Z" fill="white"/>
<path opacity="0.5" d="M253.2 111.512H248.264V114.316H253.2V111.512Z" fill="white"/>
<path opacity="0.5" d="M253.2 118.471H248.264V121.275H253.2V118.471Z" fill="white"/>
<path opacity="0.5" d="M253.2 125.424H248.264V128.228H253.2V125.424Z" fill="white"/>
<path opacity="0.5" d="M253.2 132.492H248.264V135.297H253.2V132.492Z" fill="white"/>
<path opacity="0.5" d="M253.2 139.447H248.264V142.252H253.2V139.447Z" fill="white"/>
<path opacity="0.5" d="M253.2 146.514H248.264V149.318H253.2V146.514Z" fill="white"/>
<path opacity="0.5" d="M253.2 83.4668H248.264V86.2714H253.2V83.4668Z" fill="white"/>
<path opacity="0.5" d="M253.2 76.5117H248.264V79.3163H253.2V76.5117Z" fill="white"/>
<path opacity="0.5" d="M253.2 153.471H248.264V156.275H253.2V153.471Z" fill="white"/>
<path d="M278.555 91.8797C278.555 92.5528 279.003 93.0015 279.677 93.0015H360.898C361.571 93.0015 362.02 92.5528 362.02 91.8797C362.02 91.2066 361.571 90.7578 360.898 90.7578H279.677C279.003 90.7578 278.555 91.2066 278.555 91.8797Z" fill="white"/>
<path d="M360.785 97.7148H316.36C315.687 97.7148 315.238 98.1636 315.238 98.8367C315.238 99.5098 315.687 99.9585 316.36 99.9585H360.785C361.458 99.9585 361.907 99.5098 361.907 98.8367C361.907 98.2758 361.458 97.7148 360.785 97.7148Z" fill="white"/>
<path opacity="0.5" d="M305.815 97.7148H292.016C291.343 97.7148 290.895 98.1636 290.895 98.8367C290.895 99.5098 291.343 99.9585 292.016 99.9585H305.815C306.488 99.9585 306.937 99.5098 306.937 98.8367C306.937 98.2758 306.376 97.7148 305.815 97.7148Z" fill="white"/>
<path d="M333.861 104.781H272.159C271.486 104.781 271.037 105.23 271.037 105.903C271.037 106.576 271.486 107.025 272.159 107.025H333.861C334.534 107.025 334.982 106.576 334.982 105.903C334.982 105.23 334.534 104.781 333.861 104.781Z" fill="white"/>
<path opacity="0.5" d="M259.483 107.025H263.858C264.531 107.025 264.98 106.576 264.98 105.903C264.98 105.23 264.531 104.781 263.858 104.781H259.483C258.81 104.781 258.361 105.23 258.361 105.903C258.361 106.576 258.81 107.025 259.483 107.025Z" fill="white"/>
<path d="M341.714 112.862C341.714 112.189 341.265 111.74 340.592 111.74H283.378C282.705 111.74 282.256 112.189 282.256 112.862C282.256 113.535 282.705 113.984 283.378 113.984H340.592C341.265 113.984 341.714 113.535 341.714 112.862Z" fill="white"/>
<path d="M259.483 113.984H275.638C276.311 113.984 276.76 113.535 276.76 112.862C276.76 112.189 276.311 111.74 275.638 111.74H259.483C258.81 111.74 258.361 112.189 258.361 112.862C258.361 113.535 258.81 113.984 259.483 113.984Z" fill="white"/>
<path d="M259.483 121.048H320.512C321.185 121.048 321.633 120.6 321.633 119.927C321.633 119.253 321.185 118.805 320.512 118.805H259.483C258.81 118.805 258.361 119.253 258.361 119.927C258.361 120.487 258.81 121.048 259.483 121.048Z" fill="white"/>
<path d="M298.86 125.762C298.187 125.762 297.738 126.21 297.738 126.884C297.738 127.557 298.187 128.005 298.86 128.005H330.496C331.169 128.005 331.618 127.557 331.618 126.884C331.618 126.21 331.169 125.762 330.496 125.762H298.86Z" fill="white"/>
<path d="M259.483 128.005H286.856C287.529 128.005 287.978 127.557 287.978 126.884C287.978 126.21 287.529 125.762 286.856 125.762H259.483C258.81 125.762 258.361 126.21 258.361 126.884C258.361 127.444 258.81 128.005 259.483 128.005Z" fill="white"/>
<path d="M360.784 132.715H286.294C285.621 132.715 285.172 133.164 285.172 133.837C285.172 134.51 285.621 134.959 286.294 134.959H360.784C361.457 134.959 361.906 134.51 361.906 133.837C361.906 133.276 361.457 132.715 360.784 132.715Z" fill="white"/>
<path d="M360.785 139.783H296.391C295.718 139.783 295.27 140.232 295.27 140.905C295.27 141.578 295.718 142.027 296.391 142.027H360.785C361.458 142.027 361.907 141.578 361.907 140.905C361.907 140.232 361.458 139.783 360.785 139.783Z" fill="white"/>
<path opacity="0.5" d="M360.785 146.74H347.548C346.875 146.74 346.426 147.189 346.426 147.862C346.426 148.535 346.875 148.984 347.548 148.984H360.785C361.459 148.984 361.907 148.535 361.907 147.862C361.907 147.301 361.459 146.74 360.785 146.74Z" fill="white"/>
<path d="M338.348 146.74H289.772C289.099 146.74 288.65 147.189 288.65 147.862C288.65 148.535 289.099 148.984 289.772 148.984H338.348C339.021 148.984 339.47 148.535 339.47 147.862C339.47 147.301 338.909 146.74 338.348 146.74Z" fill="white"/>
<path d="M259.483 86.0484H311.537C312.21 86.0484 312.659 85.5996 312.659 84.9265C312.659 84.2534 312.21 83.8047 311.537 83.8047H259.483C258.81 83.8047 258.361 84.2534 258.361 84.9265C258.361 85.4875 258.81 86.0484 259.483 86.0484Z" fill="white"/>
<path d="M259.483 78.9781H340.705C341.378 78.9781 341.827 78.5293 341.827 77.8562C341.827 77.1831 341.378 76.7344 340.705 76.7344H259.483C258.81 76.7344 258.361 77.1831 258.361 77.8562C258.361 78.5293 258.81 78.9781 259.483 78.9781Z" fill="white"/>
<path d="M334.984 153.807H300.544C299.871 153.807 299.422 154.255 299.422 154.928C299.422 155.602 299.871 156.05 300.544 156.05H334.984C335.658 156.05 336.106 155.602 336.106 154.928C336.106 154.255 335.658 153.807 334.984 153.807Z" fill="white"/>
<path opacity="0.5" d="M290.783 153.807H259.483C258.81 153.807 258.361 154.255 258.361 154.928C258.361 155.602 258.81 156.05 259.483 156.05H290.783C291.456 156.05 291.905 155.602 291.905 154.928C291.905 154.255 291.344 153.807 290.783 153.807Z" fill="white"/>
<path opacity="0.5" d="M322.979 86.0484C323.652 86.0484 324.101 85.5996 324.101 84.9265C324.101 84.2534 323.652 83.8047 322.979 83.8047H318.94C318.267 83.8047 317.818 84.2534 317.818 84.9265C317.818 85.5996 318.267 86.0484 318.94 86.0484H322.979Z" fill="white"/>
<path opacity="0.5" d="M273.843 91.8797C273.843 91.2066 273.395 90.7578 272.722 90.7578H267.337C266.664 90.7578 266.215 91.2066 266.215 91.8797C266.215 92.5528 266.664 93.0015 267.337 93.0015H272.722C273.282 93.0015 273.843 92.4406 273.843 91.8797Z" fill="white"/>
<path opacity="0.5" d="M335.656 119.927C335.656 119.253 335.208 118.805 334.534 118.805H328.589C327.916 118.805 327.467 119.253 327.467 119.927C327.467 120.6 327.916 121.048 328.589 121.048H334.534C335.208 121.048 335.656 120.487 335.656 119.927Z" fill="white"/>
<path opacity="0.5" d="M355.065 113.984C355.738 113.984 356.187 113.535 356.187 112.862C356.187 112.189 355.738 111.74 355.065 111.74H350.241C349.568 111.74 349.119 112.189 349.119 112.862C349.119 113.535 349.568 113.984 350.241 113.984H355.065Z" fill="white"/>
<path opacity="0.5" d="M277.321 132.715C276.648 132.715 276.199 133.164 276.199 133.837C276.199 134.51 276.648 134.959 277.321 134.959H282.145C282.818 134.959 283.267 134.51 283.267 133.837C283.267 133.164 282.818 132.715 282.145 132.715H277.321Z" fill="white"/>
<path d="M156.61 144.495H119.476C117.345 144.495 115.662 142.812 115.662 140.68V120.599C115.662 118.468 117.345 116.785 119.476 116.785H156.61C158.741 116.785 160.424 118.468 160.424 120.599V140.68C160.424 142.7 158.741 144.495 156.61 144.495Z" fill="#407BFF"/>
<path d="M144.83 143.035C144.83 143.035 146.513 150.776 156.385 153.805C156.385 153.805 151.225 149.205 152.459 143.035H144.83Z" fill="#407BFF"/>
<path d="M136.753 133.609V133.049C136.641 131.927 136.977 130.693 137.987 129.571C138.885 128.449 139.446 127.664 139.446 126.766C139.446 125.757 138.772 125.083 137.538 124.971C136.753 124.971 135.968 125.196 135.519 125.644L135.07 124.41C135.743 123.962 136.865 123.625 137.987 123.625C140.343 123.625 141.353 125.083 141.353 126.654C141.353 128 140.567 129.01 139.558 130.244C138.66 131.254 138.324 132.263 138.436 133.273V133.834H136.753V133.609ZM136.304 136.414C136.304 135.629 136.865 135.18 137.538 135.18C138.324 135.18 138.772 135.741 138.772 136.414C138.772 137.087 138.324 137.648 137.538 137.648C136.753 137.648 136.304 137.199 136.304 136.414Z" fill="white"/>
<path d="M85.4845 381.316L116.335 378.287V334.871H128.563V378.174L159.526 381.203C162.555 381.54 164.911 384.12 164.911 387.149V391.749H123.627H121.384H80.0996V387.149C80.0996 384.232 82.4555 381.652 85.4845 381.316Z" fill="#263238"/>
<path opacity="0.2" d="M85.4845 381.316L116.335 378.287V334.871H128.563V378.174L159.526 381.203C162.555 381.54 164.911 384.12 164.911 387.149V391.749H123.627H121.384H80.0996V387.149C80.0996 384.232 82.4555 381.652 85.4845 381.316Z" fill="white"/>
<path d="M161.77 405.661C166.169 405.661 169.735 402.095 169.735 397.696C169.735 393.297 166.169 389.73 161.77 389.73C157.371 389.73 153.805 393.297 153.805 397.696C153.805 402.095 157.371 405.661 161.77 405.661Z" fill="#263238"/>
<path d="M83.3538 405.661C87.7528 405.661 91.3189 402.095 91.3189 397.696C91.3189 393.297 87.7528 389.73 83.3538 389.73C78.9548 389.73 75.3887 393.297 75.3887 397.696C75.3887 402.095 78.9548 405.661 83.3538 405.661Z" fill="#263238"/>
<path d="M118.915 344.297H126.095C128.675 344.297 130.694 342.165 130.694 339.697V305.705H114.203V339.697C114.315 342.165 116.335 344.297 118.915 344.297Z" fill="#263238"/>
<path opacity="0.3" d="M118.915 344.297H126.095C128.675 344.297 130.694 342.165 130.694 339.697V305.705H114.203V339.697C114.315 342.165 116.335 344.297 118.915 344.297Z" fill="white"/>
<path d="M93.2246 237.832C93.2246 237.832 90.8687 295.607 107.023 305.592H88.625C88.625 305.592 74.3776 285.847 78.4162 237.832H93.2246Z" fill="#263238"/>
<path opacity="0.3" d="M93.2246 237.832C93.2246 237.832 90.8687 295.607 107.023 305.592H88.625C88.625 305.592 74.3776 285.847 78.4162 237.832H93.2246Z" fill="white"/>
<path d="M159.19 297.518H87.953C84.8118 297.518 82.3438 299.986 82.3438 303.127V310.082H164.687V303.127C164.799 300.098 162.219 297.518 159.19 297.518Z" fill="#263238"/>
<path d="M165.922 303.797H81.2222C79.9882 303.797 78.9785 304.807 78.9785 306.041V307.836C78.9785 309.07 79.9882 310.079 81.2222 310.079H165.922C167.156 310.079 168.165 309.07 168.165 307.836V306.041C168.165 304.807 167.156 303.797 165.922 303.797Z" fill="#263238"/>
<path opacity="0.6" d="M165.922 303.797H81.2222C79.9882 303.797 78.9785 304.807 78.9785 306.041V307.836C78.9785 309.07 79.9882 310.079 81.2222 310.079H165.922C167.156 310.079 168.165 309.07 168.165 307.836V306.041C168.165 304.807 167.156 303.797 165.922 303.797Z" fill="white"/>
<path d="M74.7149 249.611H102.649C111.736 249.611 119.028 242.319 119.028 233.233V223.248C119.028 214.161 111.736 206.869 102.649 206.869H74.7149C65.6279 206.869 58.3359 214.161 58.3359 223.248V233.233C58.3359 242.319 65.6279 249.611 74.7149 249.611Z" fill="#263238"/>
<path d="M154.926 397.583L163.901 396.349L165.135 375.146L156.16 376.381L154.926 397.583Z" fill="#EBB376"/>
<path opacity="0.2" d="M156.161 376.381L165.136 375.146L164.463 387.262L155.488 388.048L156.161 376.381Z" fill="black"/>
<path d="M155.375 272.721L153.243 259.035L103.097 256.006C103.097 256.006 97.8239 284.389 101.863 292.017C109.155 305.591 148.531 298.748 160.086 300.094C153.243 328.253 153.916 383.335 153.916 383.335L170.407 384.569C170.407 384.569 183.084 325.224 185.665 297.065C187.235 277.994 171.417 278.443 155.375 272.721Z" fill="#407BFF"/>
<path d="M151.897 384.009L171.642 385.355L173.324 376.941L151.561 375.932L151.897 384.009Z" fill="#407BFF"/>
<path d="M175.568 389.616L184.543 390.289L190.265 369.759L181.178 369.086L175.568 389.616Z" fill="#EBB376"/>
<path d="M185.777 390.739C185.89 390.739 185.777 390.739 185.777 390.739C185.89 390.739 185.89 390.739 185.777 390.739C186.563 391.187 187.348 391.524 188.133 391.748C188.694 391.973 189.367 391.973 189.928 391.748C190.265 391.524 190.489 391.075 190.489 390.739C190.489 390.514 190.377 390.178 190.153 390.066C189.592 389.729 188.582 389.841 187.684 389.953C188.358 389.393 188.919 388.719 189.031 388.159C189.031 387.822 188.806 387.485 188.47 387.373C188.133 387.261 187.909 387.261 187.572 387.373C186.45 387.934 186.002 390.514 186.002 390.627H186.114H186.002C185.89 390.627 185.777 390.627 185.777 390.739C185.777 390.627 185.777 390.739 185.777 390.739ZM186.45 390.178C186.338 390.178 186.338 390.178 186.226 390.29C186.45 389.505 186.899 388.046 187.572 387.71C187.684 387.598 187.909 387.598 188.021 387.598H188.133C188.358 387.71 188.47 387.822 188.47 388.046C188.47 388.719 187.348 389.729 186.45 390.178ZM186.563 390.627C187.797 390.29 189.367 389.953 189.928 390.29C190.04 390.402 190.04 390.514 190.04 390.627C190.04 390.851 189.928 391.187 189.704 391.3C189.143 391.636 188.021 391.412 186.563 390.627Z" fill="#407BFF"/>
<path opacity="0.2" d="M181.177 369.086L190.264 369.759L187.011 381.538L178.148 380.417L181.177 369.086Z" fill="black"/>
<path d="M193.293 380.08L177.475 375.368C177.475 375.368 186.898 321.968 196.546 303.458C195.873 303.233 194.864 302.897 193.742 302.56C191.61 301.887 188.806 301.102 185.44 300.204C162.442 293.81 115.773 281.806 115.773 281.806L137.089 261.949C137.089 261.949 222.012 274.85 223.695 297.287C224.48 308.169 193.293 380.08 193.293 380.08Z" fill="#407BFF"/>
<path d="M175.344 375.818L194.415 381.202L197.893 373.237L176.802 367.74L175.344 375.818Z" fill="#407BFF"/>
<path opacity="0.2" d="M193.63 302.675C191.498 302.001 188.694 301.216 185.328 300.319C186.001 294.934 186.001 288.651 183.421 285.51C178.26 279.228 164.91 275.526 157.282 274.067C150.887 272.946 129.572 270.702 129.572 270.702C129.572 270.702 157.282 268.01 185.665 276.311C199.575 280.462 196.883 294.149 193.63 302.675Z" fill="black"/>
<path opacity="0.2" d="M151.897 384.009L171.642 385.355L173.324 376.941L151.561 375.932L151.897 384.009Z" fill="white"/>
<path opacity="0.2" d="M175.344 375.818L194.415 381.202L197.893 373.237L176.802 367.74L175.344 375.818Z" fill="white"/>
<path d="M185.441 389.395L175.681 386.703C175.344 386.591 175.007 386.815 174.895 387.152L172.315 394.78C172.091 395.566 172.539 396.463 173.437 396.687C176.802 397.585 178.485 397.809 182.86 399.043C185.441 399.716 190.601 401.511 194.415 401.848C198.117 402.297 198.454 398.595 196.996 398.034C193.294 396.8 188.918 392.985 187.011 390.405C186.45 389.844 186.002 389.508 185.441 389.395Z" fill="#263238"/>
<path d="M164.799 396.348H165.023L165.248 396.46C165.248 396.46 165.248 396.46 165.248 396.572C165.248 396.572 165.248 396.572 165.36 396.572C166.145 396.796 166.93 397.021 167.716 397.021C168.277 397.133 168.95 397.021 169.398 396.684C169.735 396.348 169.847 395.899 169.735 395.562C169.735 395.338 169.511 395.001 169.286 394.889C168.725 394.665 167.716 395.001 166.818 395.338C167.379 394.665 167.828 393.88 167.716 393.319C167.716 392.982 167.267 392.646 166.93 392.646C166.594 392.533 166.145 392.646 165.921 392.87C164.911 393.655 164.799 396.235 164.799 396.348ZM165.809 395.899C165.696 395.899 165.696 396.011 165.584 396.011C165.584 395.114 165.809 393.767 166.369 393.206C166.482 393.094 166.706 392.982 166.818 393.094H166.93C167.267 393.094 167.267 393.319 167.267 393.431C167.379 393.992 166.482 395.226 165.809 395.899ZM165.921 396.348C167.043 395.787 168.501 395.114 169.174 395.338C169.286 395.45 169.398 395.562 169.398 395.675C169.511 395.899 169.398 396.235 169.174 396.46C168.613 396.796 167.491 396.684 165.921 396.348Z" fill="#407BFF"/>
<path d="M164.574 395.228L154.478 394.555C154.141 394.555 153.805 394.779 153.805 395.116L152.795 403.081C152.795 403.978 153.356 404.651 154.253 404.763C157.731 404.876 159.526 404.876 163.901 405.1C166.594 405.212 171.978 405.885 175.793 405.437C179.607 405.1 179.046 401.398 177.476 401.174C173.661 400.725 168.501 397.92 166.145 395.789C165.696 395.564 165.135 395.34 164.574 395.228Z" fill="#263238"/>
<path d="M175.793 221.677C175.793 221.677 178.598 237.046 183.758 239.963C188.806 242.879 224.032 221.901 224.032 221.901L221.116 215.955C221.116 215.955 191.611 223.92 191.387 223.92C191.05 223.92 190.265 217.189 190.265 217.189L175.793 221.677Z" fill="#263238"/>
<path d="M186.786 197.557C189.142 200.473 192.508 221.676 192.508 221.676L175.231 225.715L171.529 214.945L186.786 197.557Z" fill="#407BFF"/>
<path opacity="0.4" d="M186.786 197.557C189.142 200.473 192.508 221.676 192.508 221.676L175.231 225.715L171.529 214.945L186.786 197.557Z" fill="white"/>
<path d="M98.0488 273.732L156.16 264.084C156.16 264.084 159.75 229.643 186.787 197.671C186.787 197.671 177.476 177.253 144.157 180.058C110.726 182.862 98.0488 273.732 98.0488 273.732Z" fill="#407BFF"/>
<path opacity="0.6" d="M98.0488 273.732L156.16 264.084C156.16 264.084 159.75 229.643 186.787 197.671C186.787 197.671 177.476 177.253 144.157 180.058C110.726 182.862 98.0488 273.732 98.0488 273.732Z" fill="white"/>
<path d="M143.26 209.336C143.26 209.336 142.699 225.266 144.494 226.164C146.289 227.061 179.832 214.833 185.105 213.935C190.377 213.038 202.606 217.75 202.606 217.75L203.727 225.042C203.727 225.042 192.846 224.817 186.788 221.901C186.788 221.901 147.635 245.347 139.221 244.001C130.807 242.655 127.891 210.907 127.891 210.907L143.26 209.336Z" fill="#EBB376"/>
<path d="M143.258 214.947C143.258 214.947 143.371 224.371 145.39 225.044C147.297 225.717 176.353 215.508 176.353 215.508L180.952 226.166C180.952 226.166 144.268 249.837 137.2 244.003C130.133 238.169 128.338 217.303 128.338 217.303L143.258 214.947Z" fill="#263238"/>
<path d="M137.986 183.535C148.419 182.413 144.605 219.322 144.605 219.322L127.104 221.79C127.104 221.902 119.587 185.442 137.986 183.535Z" fill="#407BFF"/>
<path opacity="0.4" d="M137.986 183.535C148.419 182.413 144.605 219.322 144.605 219.322L127.104 221.79C127.104 221.902 119.587 185.442 137.986 183.535Z" fill="white"/>
<path d="M154.478 180.842C154.478 180.842 154.141 197.109 164.126 198.68C174.11 200.362 175.12 187.125 175.12 187.125C175.12 187.125 168.389 180.057 154.478 180.842Z" fill="#263238"/>
<path d="M179.494 189.817C177.026 188.695 174.109 189.817 174.109 189.817C174.109 189.817 173.1 195.426 166.705 195.763C165.92 195.763 165.022 195.763 164.125 195.651C155.487 194.417 156.384 181.516 156.384 181.516C159.974 181.74 163.003 180.73 165.471 179.384C169.285 177.14 171.417 174.111 171.417 174.111L179.494 189.817Z" fill="#EBB376"/>
<path opacity="0.2" d="M179.494 189.817C177.026 188.695 174.109 189.817 174.109 189.817C174.109 189.817 173.099 195.426 166.705 195.763C164.461 190.266 164.797 183.871 165.471 179.384C169.285 177.14 171.416 174.111 171.416 174.111L179.494 189.817Z" fill="black"/>
<path d="M186.225 164.801C182.41 167.381 184.093 171.868 192.844 178.824C196.433 174.224 196.994 165.249 194.19 163.006C191.385 160.762 189.59 162.557 186.225 164.801Z" fill="#263238"/>
<path d="M169.623 171.98C170.071 181.403 169.847 187.012 174.447 191.948C181.514 199.353 193.181 195.202 195.649 185.891C197.781 177.477 196.771 163.454 187.572 159.527C181.065 156.723 173.437 159.751 170.632 166.258C169.847 167.941 169.51 169.96 169.623 171.98Z" fill="#EBB376"/>
<path d="M183.645 174.786C183.645 175.571 183.981 176.132 184.542 176.244C184.991 176.244 185.439 175.683 185.439 174.898C185.439 174.113 185.103 173.552 184.542 173.439C184.093 173.439 183.757 174.113 183.645 174.786Z" fill="#263238"/>
<path d="M192.395 175.009C192.395 175.794 192.731 176.355 193.292 176.467C193.741 176.467 194.189 175.906 194.189 175.121C194.189 174.336 193.853 173.775 193.292 173.663C192.843 173.55 192.395 174.224 192.395 175.009Z" fill="#263238"/>
<path d="M189.591 175.346C190.488 177.702 191.722 179.945 193.181 181.965C191.722 183.199 189.479 182.638 189.479 182.638L189.591 175.346Z" fill="#D58745"/>
<path d="M196.321 169.961C196.209 170.073 196.097 170.185 195.872 170.185C194.751 170.073 193.629 170.522 192.843 171.419C192.731 171.643 192.395 171.643 192.17 171.531C191.946 171.419 191.946 171.082 192.058 170.858C192.956 169.736 194.414 169.175 195.872 169.288C196.097 169.288 196.321 169.512 196.321 169.736C196.433 169.736 196.321 169.848 196.321 169.961Z" fill="#263238"/>
<path d="M187.347 171.644C187.235 171.644 187.011 171.643 186.899 171.531C186.113 170.746 184.991 170.297 183.87 170.409C183.645 170.409 183.421 170.297 183.309 170.073C183.309 169.849 183.421 169.624 183.645 169.512C185.104 169.288 186.562 169.849 187.572 170.858C187.796 171.083 187.796 171.307 187.572 171.531C187.459 171.531 187.347 171.531 187.347 171.644Z" fill="#263238"/>
<path d="M173.548 163.678C177.923 165.248 177.362 170.072 170.519 178.935C165.92 175.345 163.227 166.819 165.359 163.902C167.602 161.097 169.734 162.331 173.548 163.678Z" fill="#263238"/>
<path d="M165.023 179.494C165.696 181.849 167.154 183.757 169.174 184.991C171.866 186.561 173.997 184.318 173.885 181.289C173.773 178.596 172.203 174.557 169.174 174.221C166.145 173.884 164.237 176.689 165.023 179.494Z" fill="#EBB376"/>
<path d="M182.299 184.098C182.299 184.098 183.982 187.239 188.469 187.014" stroke="#263238" stroke-width="0.590428" stroke-miterlimit="10" stroke-linecap="round" stroke-linejoin="round"/>
<path d="M174.559 166.931C174.559 166.931 178.261 167.156 179.944 169.512C179.944 169.512 181.402 167.941 180.841 165.136C180.841 165.136 185.329 165.697 187.348 168.839C187.348 168.839 188.358 166.819 188.021 165.136C188.021 165.136 189.479 166.931 189.367 168.839C189.367 168.839 192.845 166.707 192.396 164.576C192.396 164.576 193.63 166.034 194.191 168.165C194.191 168.165 196.435 167.38 195.986 163.342C195.986 163.342 197.445 165.024 197.557 166.258C197.557 166.258 200.474 157.957 189.367 153.245C178.261 148.533 165.472 154.142 165.696 163.342C166.033 172.653 174.559 166.931 174.559 166.931Z" fill="#263238"/>
<path d="M188.58 176.352C188.58 178.82 186.897 180.727 184.878 180.727C182.859 180.727 181.176 178.708 181.176 176.352C181.176 173.884 182.859 171.977 184.878 171.977C186.897 171.977 188.58 173.884 188.58 176.352Z" stroke="#263238" stroke-width="0.590428" stroke-miterlimit="10" stroke-linecap="round" stroke-linejoin="round"/>
<path d="M198.678 176.239C198.678 178.707 196.995 180.614 194.976 180.614C192.956 180.614 191.273 178.595 191.273 176.239C191.273 173.771 192.956 171.864 194.976 171.864C196.995 171.752 198.678 173.771 198.678 176.239Z" stroke="#263238" stroke-width="0.590428" stroke-miterlimit="10" stroke-linecap="round" stroke-linejoin="round"/>
<path d="M188.58 176.351C188.58 176.351 190.038 175.117 191.273 176.239" stroke="#263238" stroke-width="0.590428" stroke-miterlimit="10" stroke-linecap="round" stroke-linejoin="round"/>
<path d="M181.176 176.354L172.201 175.568" stroke="#263238" stroke-width="0.590428" stroke-miterlimit="10" stroke-linecap="round" stroke-linejoin="round"/>
<path d="M264.641 221.676V224.593C264.641 225.49 263.071 226.163 262.286 226.163H192.955C192.058 226.163 190.6 225.49 190.6 224.593V221.676H264.641Z" fill="#263238"/>
<path opacity="0.6" d="M264.641 221.676V224.593C264.641 225.49 263.071 226.163 262.286 226.163H192.955C192.058 226.163 190.6 225.49 190.6 224.593V221.676H264.641Z" fill="white"/>
<path opacity="0.2" d="M264.641 221.676V224.593C264.641 225.49 263.071 226.163 262.285 226.163H216.514C215.617 226.163 214.158 225.49 214.158 224.593V221.676H264.641Z" fill="black"/>
<path d="M275.748 185.218L267.446 222.8C267.222 224.034 265.988 225.044 264.754 225.044H219.655C218.421 225.044 217.636 223.81 217.973 222.576L226.162 185.442C226.387 184.208 227.621 183.647 228.855 183.647H273.953C275.299 183.535 275.972 183.984 275.748 185.218Z" fill="#263238"/>
<path opacity="0.6" d="M275.748 185.218L267.446 222.8C267.222 224.034 265.988 225.044 264.754 225.044H219.655C218.421 225.044 217.636 223.81 217.973 222.576L226.162 185.442C226.387 184.208 227.621 183.647 228.855 183.647H273.953C275.299 183.535 275.972 183.984 275.748 185.218Z" fill="white"/>
<path opacity="0.4" d="M275.748 185.218L267.446 222.8C267.221 224.034 265.987 225.044 264.753 225.044H221.226C219.992 225.044 219.206 223.81 219.543 222.576L227.845 185.442C228.069 184.208 229.303 183.647 230.537 183.647H274.065C275.299 183.535 275.972 183.984 275.748 185.218Z" fill="white"/>
<path opacity="0.2" d="M249.273 209.337C251.405 209.337 253.536 207.093 254.097 204.289C254.658 201.484 253.424 199.24 251.292 199.24C250.844 199.24 250.507 199.352 250.171 199.465C249.722 201.596 248.151 203.503 246.581 204.064C246.581 204.176 246.581 204.176 246.581 204.289C245.908 207.093 247.142 209.337 249.273 209.337Z" fill="black"/>
<path d="M304.354 195.312L314.9 205.858L318.49 226.163H296.838L297.735 223.92L309.627 221.676L310.637 209.336L302.784 207.428L304.354 195.312Z" fill="#263238"/>
<path opacity="0.6" d="M318.49 226.163H296.838L297.735 223.92L309.627 221.676L310.637 209.336L309.627 209.111L302.784 207.428L304.354 195.312L314.9 205.858L318.49 226.163Z" fill="white"/>
<path opacity="0.2" d="M313.441 204.399L309.626 209.111L302.783 207.428L304.354 195.312L313.441 204.399Z" fill="black"/>
<path d="M303.233 212.924H291.117C290.556 212.924 290.22 212.475 290.332 212.027L297.288 160.31C297.4 159.749 297.848 159.412 298.297 159.412H310.413C310.974 159.412 311.311 159.861 311.198 160.31L304.243 212.027C304.131 212.588 303.682 212.924 303.233 212.924Z" fill="#263238"/>
<path opacity="0.6" d="M303.233 212.924H291.117C290.556 212.924 290.22 212.475 290.332 212.027L297.288 160.31C297.4 159.749 297.848 159.412 298.297 159.412H310.413C310.974 159.412 311.311 159.861 311.198 160.31L304.243 212.027C304.131 212.588 303.682 212.924 303.233 212.924Z" fill="white"/>
<path opacity="0.4" d="M299.868 212.924H291.117C290.556 212.924 290.22 212.475 290.332 212.027L297.288 160.31C297.4 159.749 297.848 159.412 298.297 159.412H307.048C307.609 159.412 307.945 159.861 307.833 160.31L300.877 212.027C300.765 212.588 300.316 212.924 299.868 212.924Z" fill="white"/>
<path d="M300.316 211.355H291.117L297.848 160.984H307.16L300.316 211.355Z" fill="#407BFF"/>
<path d="M220.441 405.658H213.598L201.258 233.791H210.345L220.441 405.658Z" fill="#263238"/>
<path opacity="0.4" d="M220.441 405.658H213.598L201.819 242.317L201.258 234.016H210.345L210.794 242.317L220.441 405.658Z" fill="white"/>
<path opacity="0.2" d="M210.794 241.869H201.819L201.258 234.016H210.345L210.794 241.869Z" fill="black"/>
<path d="M270.925 405.658H263.97L262.848 233.791H272.047L270.925 405.658Z" fill="#263238"/>
<path opacity="0.5" d="M272.047 234.016L271.822 261.725L270.925 405.658H263.97L263.072 261.725L262.848 234.016H272.047Z" fill="white"/>
<path opacity="0.2" d="M272.047 234.016L271.822 262.062H263.072L262.848 234.016H272.047Z" fill="black"/>
<path d="M343.844 405.658H337L324.66 233.791H333.747L343.844 405.658Z" fill="#263238"/>
<path opacity="0.5" d="M343.844 405.658H337L325.221 242.317L324.66 234.016H333.747L334.196 242.317L343.844 405.658Z" fill="white"/>
<path opacity="0.2" d="M334.196 241.869H325.221L324.66 234.016H333.747L334.196 241.869Z" fill="black"/>
<path d="M141.8 405.658H134.957L145.054 233.791H154.141L141.8 405.658Z" fill="#263238"/>
<path opacity="0.5" d="M154.141 234.016L153.58 242.317L141.8 405.658H134.957L144.605 242.317L145.054 234.016H154.141Z" fill="white"/>
<path opacity="0.2" d="M145.054 234.016H154.141L153.58 241.869H144.605L145.054 234.016Z" fill="black"/>
<path d="M338.572 238.056H140.23C138.884 238.056 137.762 236.934 137.762 235.588V229.418H340.928V235.588C340.928 236.934 339.918 238.056 338.572 238.056Z" fill="#407BFF"/>
<path opacity="0.2" d="M341.039 229.418H137.873V233.681H341.039V229.418Z" fill="black"/>
<path d="M345.191 230.538H133.611C132.264 230.538 131.143 229.416 131.143 228.07C131.143 226.723 132.264 225.602 133.611 225.602H345.303C346.649 225.602 347.771 226.723 347.771 228.07C347.659 229.528 346.537 230.538 345.191 230.538Z" fill="#407BFF"/>
<defs>
<linearGradient id="paint0_linear" x1="450.366" y1="234.688" x2="450.366" y2="265.763" gradientUnits="userSpaceOnUse">
<stop stop-color="#B1A7E4"/>
<stop offset="1" stop-color="#8478CE"/>
</linearGradient>
<linearGradient id="paint1_linear" x1="450.423" y1="239.176" x2="450.423" y2="260.94" gradientUnits="userSpaceOnUse">
<stop stop-color="#B1A7E4"/>
<stop offset="1" stop-color="#8478CE"/>
</linearGradient>
<linearGradient id="paint2_linear" x1="450.366" y1="221.115" x2="450.366" y2="231.1" gradientUnits="userSpaceOnUse">
<stop stop-color="#B1A7E4"/>
<stop offset="1" stop-color="#8478CE"/>
</linearGradient>
<linearGradient id="paint3_linear" x1="450.479" y1="223.248" x2="450.479" y2="228.633" gradientUnits="userSpaceOnUse">
<stop stop-color="#B1A7E4"/>
<stop offset="1" stop-color="#8478CE"/>
</linearGradient>
<linearGradient id="paint4_linear" x1="471.401" y1="234.689" x2="471.401" y2="238.952" gradientUnits="userSpaceOnUse">
<stop stop-color="#B1A7E4"/>
<stop offset="1" stop-color="#8478CE"/>
</linearGradient>
<linearGradient id="paint5_linear" x1="475.216" y1="223.248" x2="475.216" y2="234.803" gradientUnits="userSpaceOnUse">
<stop stop-color="#B1A7E4"/>
<stop offset="1" stop-color="#8478CE"/>
</linearGradient>
<linearGradient id="paint6_linear" x1="471.29" y1="247.59" x2="471.29" y2="251.853" gradientUnits="userSpaceOnUse">
<stop stop-color="#B1A7E4"/>
<stop offset="1" stop-color="#8478CE"/>
</linearGradient>
<linearGradient id="paint7_linear" x1="475.664" y1="243.104" x2="475.664" y2="247.591" gradientUnits="userSpaceOnUse">
<stop stop-color="#B1A7E4"/>
<stop offset="1" stop-color="#8478CE"/>
</linearGradient>
<linearGradient id="paint8_linear" x1="480.096" y1="236.82" x2="480.096" y2="243.103" gradientUnits="userSpaceOnUse">
<stop stop-color="#B1A7E4"/>
<stop offset="1" stop-color="#8478CE"/>
</linearGradient>
<linearGradient id="paint9_linear" x1="429.525" y1="238.992" x2="429.525" y2="234.729" gradientUnits="userSpaceOnUse">
<stop stop-color="#B1A7E4"/>
<stop offset="1" stop-color="#8478CE"/>
</linearGradient>
<linearGradient id="paint10_linear" x1="425.593" y1="234.703" x2="425.593" y2="223.148" gradientUnits="userSpaceOnUse">
<stop stop-color="#B1A7E4"/>
<stop offset="1" stop-color="#8478CE"/>
</linearGradient>
<linearGradient id="paint11_linear" x1="429.607" y1="251.812" x2="429.607" y2="247.549" gradientUnits="userSpaceOnUse">
<stop stop-color="#B1A7E4"/>
<stop offset="1" stop-color="#8478CE"/>
</linearGradient>
<linearGradient id="paint12_linear" x1="425.141" y1="247.568" x2="425.141" y2="243.081" gradientUnits="userSpaceOnUse">
<stop stop-color="#B1A7E4"/>
<stop offset="1" stop-color="#8478CE"/>
</linearGradient>
<linearGradient id="paint13_linear" x1="420.791" y1="243.139" x2="420.791" y2="236.856" gradientUnits="userSpaceOnUse">
<stop stop-color="#B1A7E4"/>
<stop offset="1" stop-color="#8478CE"/>
</linearGradient>
<linearGradient id="paint14_linear" x1="432.867" y1="269.877" x2="432.867" y2="265.614" gradientUnits="userSpaceOnUse">
<stop stop-color="#B1A7E4"/>
<stop offset="1" stop-color="#8478CE"/>
</linearGradient>
<linearGradient id="paint15_linear" x1="428.932" y1="281.35" x2="428.932" y2="269.795" gradientUnits="userSpaceOnUse">
<stop stop-color="#B1A7E4"/>
<stop offset="1" stop-color="#8478CE"/>
</linearGradient>
<linearGradient id="paint16_linear" x1="429.527" y1="258.633" x2="429.527" y2="254.37" gradientUnits="userSpaceOnUse">
<stop stop-color="#B1A7E4"/>
<stop offset="1" stop-color="#8478CE"/>
</linearGradient>
<linearGradient id="paint17_linear" x1="425.172" y1="263.102" x2="425.172" y2="258.614" gradientUnits="userSpaceOnUse">
<stop stop-color="#B1A7E4"/>
<stop offset="1" stop-color="#8478CE"/>
</linearGradient>
<linearGradient id="paint18_linear" x1="420.822" y1="269.324" x2="420.822" y2="263.042" gradientUnits="userSpaceOnUse">
<stop stop-color="#B1A7E4"/>
<stop offset="1" stop-color="#8478CE"/>
</linearGradient>
<linearGradient id="paint19_linear" x1="468.036" y1="265.65" x2="468.036" y2="269.913" gradientUnits="userSpaceOnUse">
<stop stop-color="#B1A7E4"/>
<stop offset="1" stop-color="#8478CE"/>
</linearGradient>
<linearGradient id="paint20_linear" x1="471.962" y1="269.914" x2="471.962" y2="281.469" gradientUnits="userSpaceOnUse">
<stop stop-color="#B1A7E4"/>
<stop offset="1" stop-color="#8478CE"/>
</linearGradient>
<linearGradient id="paint21_linear" x1="471.176" y1="254.32" x2="471.176" y2="258.583" gradientUnits="userSpaceOnUse">
<stop stop-color="#B1A7E4"/>
<stop offset="1" stop-color="#8478CE"/>
</linearGradient>
<linearGradient id="paint22_linear" x1="475.664" y1="258.584" x2="475.664" y2="263.071" gradientUnits="userSpaceOnUse">
<stop stop-color="#B1A7E4"/>
<stop offset="1" stop-color="#8478CE"/>
</linearGradient>
<linearGradient id="paint23_linear" x1="480.094" y1="263.072" x2="480.094" y2="269.355" gradientUnits="userSpaceOnUse">
<stop stop-color="#B1A7E4"/>
<stop offset="1" stop-color="#8478CE"/>
</linearGradient>
<linearGradient id="paint24_linear" x1="260.157" y1="24.0059" x2="260.157" y2="43.526" gradientUnits="userSpaceOnUse">
<stop stop-color="#B1A7E4"/>
<stop offset="1" stop-color="#8478CE"/>
</linearGradient>
<linearGradient id="paint25_linear" x1="260.101" y1="26.8105" x2="260.101" y2="40.4971" gradientUnits="userSpaceOnUse">
<stop stop-color="#B1A7E4"/>
<stop offset="1" stop-color="#8478CE"/>
</linearGradient>
<linearGradient id="paint26_linear" x1="260.1" y1="15.3672" x2="260.1" y2="21.6495" gradientUnits="userSpaceOnUse">
<stop stop-color="#B1A7E4"/>
<stop offset="1" stop-color="#8478CE"/>
</linearGradient>
<linearGradient id="paint27_linear" x1="260.1" y1="16.7129" x2="260.1" y2="20.0784" gradientUnits="userSpaceOnUse">
<stop stop-color="#B1A7E4"/>
<stop offset="1" stop-color="#8478CE"/>
</linearGradient>
<linearGradient id="paint28_linear" x1="273.284" y1="24.0078" x2="273.284" y2="26.7002" gradientUnits="userSpaceOnUse">
<stop stop-color="#B1A7E4"/>
<stop offset="1" stop-color="#8478CE"/>
</linearGradient>
<linearGradient id="paint29_linear" x1="275.808" y1="16.7148" x2="275.808" y2="24.0068" gradientUnits="userSpaceOnUse">
<stop stop-color="#B1A7E4"/>
<stop offset="1" stop-color="#8478CE"/>
</linearGradient>
<linearGradient id="paint30_linear" x1="273.284" y1="32.082" x2="273.284" y2="34.7745" gradientUnits="userSpaceOnUse">
<stop stop-color="#B1A7E4"/>
<stop offset="1" stop-color="#8478CE"/>
</linearGradient>
<linearGradient id="paint31_linear" x1="276.031" y1="29.2773" x2="276.031" y2="32.082" gradientUnits="userSpaceOnUse">
<stop stop-color="#B1A7E4"/>
<stop offset="1" stop-color="#8478CE"/>
</linearGradient>
<linearGradient id="paint32_linear" x1="278.78" y1="25.3535" x2="278.78" y2="29.28" gradientUnits="userSpaceOnUse">
<stop stop-color="#B1A7E4"/>
<stop offset="1" stop-color="#8478CE"/>
</linearGradient>
<linearGradient id="paint33_linear" x1="247.058" y1="26.6074" x2="247.058" y2="23.915" gradientUnits="userSpaceOnUse">
<stop stop-color="#B1A7E4"/>
<stop offset="1" stop-color="#8478CE"/>
</linearGradient>
<linearGradient id="paint34_linear" x1="244.534" y1="24.0156" x2="244.534" y2="16.7236" gradientUnits="userSpaceOnUse">
<stop stop-color="#B1A7E4"/>
<stop offset="1" stop-color="#8478CE"/>
</linearGradient>
<linearGradient id="paint35_linear" x1="247.111" y1="34.6875" x2="247.111" y2="31.9951" gradientUnits="userSpaceOnUse">
<stop stop-color="#B1A7E4"/>
<stop offset="1" stop-color="#8478CE"/>
</linearGradient>
<linearGradient id="paint36_linear" x1="244.375" y1="32.0059" x2="244.375" y2="29.2012" gradientUnits="userSpaceOnUse">
<stop stop-color="#B1A7E4"/>
<stop offset="1" stop-color="#8478CE"/>
</linearGradient>
<linearGradient id="paint37_linear" x1="241.609" y1="29.2012" x2="241.609" y2="25.2747" gradientUnits="userSpaceOnUse">
<stop stop-color="#B1A7E4"/>
<stop offset="1" stop-color="#8478CE"/>
</linearGradient>
<linearGradient id="paint38_linear" x1="249.14" y1="46.0508" x2="249.14" y2="43.3584" gradientUnits="userSpaceOnUse">
<stop stop-color="#B1A7E4"/>
<stop offset="1" stop-color="#8478CE"/>
</linearGradient>
<linearGradient id="paint39_linear" x1="246.727" y1="53.2441" x2="246.727" y2="45.9521" gradientUnits="userSpaceOnUse">
<stop stop-color="#B1A7E4"/>
<stop offset="1" stop-color="#8478CE"/>
</linearGradient>
<linearGradient id="paint40_linear" x1="247.06" y1="38.9375" x2="247.06" y2="36.2451" gradientUnits="userSpaceOnUse">
<stop stop-color="#B1A7E4"/>
<stop offset="1" stop-color="#8478CE"/>
</linearGradient>
<linearGradient id="paint41_linear" x1="244.324" y1="41.7285" x2="244.324" y2="38.9239" gradientUnits="userSpaceOnUse">
<stop stop-color="#B1A7E4"/>
<stop offset="1" stop-color="#8478CE"/>
</linearGradient>
<linearGradient id="paint42_linear" x1="241.558" y1="45.7676" x2="241.558" y2="41.8411" gradientUnits="userSpaceOnUse">
<stop stop-color="#B1A7E4"/>
<stop offset="1" stop-color="#8478CE"/>
</linearGradient>
<linearGradient id="paint43_linear" x1="271.262" y1="43.416" x2="271.262" y2="46.1084" gradientUnits="userSpaceOnUse">
<stop stop-color="#B1A7E4"/>
<stop offset="1" stop-color="#8478CE"/>
</linearGradient>
<linearGradient id="paint44_linear" x1="273.675" y1="46.1074" x2="273.675" y2="53.3994" gradientUnits="userSpaceOnUse">
<stop stop-color="#B1A7E4"/>
<stop offset="1" stop-color="#8478CE"/>
</linearGradient>
<linearGradient id="paint45_linear" x1="273.282" y1="36.3457" x2="273.282" y2="39.0381" gradientUnits="userSpaceOnUse">
<stop stop-color="#B1A7E4"/>
<stop offset="1" stop-color="#8478CE"/>
</linearGradient>
<linearGradient id="paint46_linear" x1="276.031" y1="39.041" x2="276.031" y2="41.8456" gradientUnits="userSpaceOnUse">
<stop stop-color="#B1A7E4"/>
<stop offset="1" stop-color="#8478CE"/>
</linearGradient>
<linearGradient id="paint47_linear" x1="278.78" y1="41.7324" x2="278.78" y2="45.6589" gradientUnits="userSpaceOnUse">
<stop stop-color="#B1A7E4"/>
<stop offset="1" stop-color="#8478CE"/>
</linearGradient>
<linearGradient id="paint48_linear" x1="82.3431" y1="32.5332" x2="82.3431" y2="44.6491" gradientUnits="userSpaceOnUse">
<stop stop-color="#B1A7E4"/>
<stop offset="1" stop-color="#8478CE"/>
</linearGradient>
<linearGradient id="paint49_linear" x1="82.3989" y1="34.3301" x2="82.3989" y2="42.8561" gradientUnits="userSpaceOnUse">
<stop stop-color="#B1A7E4"/>
<stop offset="1" stop-color="#8478CE"/>
</linearGradient>
<linearGradient id="paint50_linear" x1="82.3984" y1="27.2617" x2="82.3984" y2="31.1882" gradientUnits="userSpaceOnUse">
<stop stop-color="#B1A7E4"/>
<stop offset="1" stop-color="#8478CE"/>
</linearGradient>
<linearGradient id="paint51_linear" x1="82.3994" y1="28.0469" x2="82.3994" y2="30.1784" gradientUnits="userSpaceOnUse">
<stop stop-color="#B1A7E4"/>
<stop offset="1" stop-color="#8478CE"/>
</linearGradient>
<linearGradient id="paint52_linear" x1="90.5875" y1="32.5332" x2="90.5875" y2="34.216" gradientUnits="userSpaceOnUse">
<stop stop-color="#B1A7E4"/>
<stop offset="1" stop-color="#8478CE"/>
</linearGradient>
<linearGradient id="paint53_linear" x1="92.1028" y1="28.0469" x2="92.1028" y2="32.5343" gradientUnits="userSpaceOnUse">
<stop stop-color="#B1A7E4"/>
<stop offset="1" stop-color="#8478CE"/>
</linearGradient>
<linearGradient id="paint54_linear" x1="90.4762" y1="37.582" x2="90.4762" y2="39.2648" gradientUnits="userSpaceOnUse">
<stop stop-color="#B1A7E4"/>
<stop offset="1" stop-color="#8478CE"/>
</linearGradient>
<linearGradient id="paint55_linear" x1="92.1597" y1="35.7891" x2="92.1597" y2="37.4718" gradientUnits="userSpaceOnUse">
<stop stop-color="#B1A7E4"/>
<stop offset="1" stop-color="#8478CE"/>
</linearGradient>
<linearGradient id="paint56_linear" x1="93.9547" y1="33.4316" x2="93.9547" y2="35.8997" gradientUnits="userSpaceOnUse">
<stop stop-color="#B1A7E4"/>
<stop offset="1" stop-color="#8478CE"/>
</linearGradient>
<linearGradient id="paint57_linear" x1="74.2582" y1="34.2168" x2="74.2582" y2="32.534" gradientUnits="userSpaceOnUse">
<stop stop-color="#B1A7E4"/>
<stop offset="1" stop-color="#8478CE"/>
</linearGradient>
<linearGradient id="paint58_linear" x1="72.7097" y1="32.5742" x2="72.7097" y2="28.0868" gradientUnits="userSpaceOnUse">
<stop stop-color="#B1A7E4"/>
<stop offset="1" stop-color="#8478CE"/>
</linearGradient>
<linearGradient id="paint59_linear" x1="74.2914" y1="39.1953" x2="74.2914" y2="37.5125" gradientUnits="userSpaceOnUse">
<stop stop-color="#B1A7E4"/>
<stop offset="1" stop-color="#8478CE"/>
</linearGradient>
<linearGradient id="paint60_linear" x1="72.5707" y1="37.5879" x2="72.5707" y2="35.9051" gradientUnits="userSpaceOnUse">
<stop stop-color="#B1A7E4"/>
<stop offset="1" stop-color="#8478CE"/>
</linearGradient>
<linearGradient id="paint61_linear" x1="70.8324" y1="35.7656" x2="70.8324" y2="33.2976" gradientUnits="userSpaceOnUse">
<stop stop-color="#B1A7E4"/>
<stop offset="1" stop-color="#8478CE"/>
</linearGradient>
<linearGradient id="paint62_linear" x1="75.5278" y1="46.209" x2="75.5278" y2="44.5262" gradientUnits="userSpaceOnUse">
<stop stop-color="#B1A7E4"/>
<stop offset="1" stop-color="#8478CE"/>
</linearGradient>
<linearGradient id="paint63_linear" x1="73.9773" y1="50.7715" x2="73.9773" y2="46.2841" gradientUnits="userSpaceOnUse">
<stop stop-color="#B1A7E4"/>
<stop offset="1" stop-color="#8478CE"/>
</linearGradient>
<linearGradient id="paint64_linear" x1="74.2602" y1="41.8965" x2="74.2602" y2="40.2137" gradientUnits="userSpaceOnUse">
<stop stop-color="#B1A7E4"/>
<stop offset="1" stop-color="#8478CE"/>
</linearGradient>
<linearGradient id="paint65_linear" x1="72.5395" y1="43.6152" x2="72.5395" y2="41.9325" gradientUnits="userSpaceOnUse">
<stop stop-color="#B1A7E4"/>
<stop offset="1" stop-color="#8478CE"/>
</linearGradient>
<linearGradient id="paint66_linear" x1="70.8012" y1="46" x2="70.8012" y2="43.5319" gradientUnits="userSpaceOnUse">
<stop stop-color="#B1A7E4"/>
<stop offset="1" stop-color="#8478CE"/>
</linearGradient>
<linearGradient id="paint67_linear" x1="89.2418" y1="44.6504" x2="89.2418" y2="46.3332" gradientUnits="userSpaceOnUse">
<stop stop-color="#B1A7E4"/>
<stop offset="1" stop-color="#8478CE"/>
</linearGradient>
<linearGradient id="paint68_linear" x1="90.7571" y1="46.2207" x2="90.7571" y2="50.7081" gradientUnits="userSpaceOnUse">
<stop stop-color="#B1A7E4"/>
<stop offset="1" stop-color="#8478CE"/>
</linearGradient>
<linearGradient id="paint69_linear" x1="90.4762" y1="40.1641" x2="90.4762" y2="41.8468" gradientUnits="userSpaceOnUse">
<stop stop-color="#B1A7E4"/>
<stop offset="1" stop-color="#8478CE"/>
</linearGradient>
<linearGradient id="paint70_linear" x1="92.1597" y1="41.8457" x2="92.1597" y2="43.5285" gradientUnits="userSpaceOnUse">
<stop stop-color="#B1A7E4"/>
<stop offset="1" stop-color="#8478CE"/>
</linearGradient>
<linearGradient id="paint71_linear" x1="93.9547" y1="43.6406" x2="93.9547" y2="46.1087" gradientUnits="userSpaceOnUse">
<stop stop-color="#B1A7E4"/>
<stop offset="1" stop-color="#8478CE"/>
</linearGradient>
<linearGradient id="paint72_linear" x1="75.3878" y1="147.297" x2="75.3878" y2="177.026" gradientUnits="userSpaceOnUse">
<stop stop-color="#B1A7E4"/>
<stop offset="1" stop-color="#8478CE"/>
</linearGradient>
<linearGradient id="paint73_linear" x1="75.3869" y1="144.941" x2="75.3869" y2="179.27" gradientUnits="userSpaceOnUse">
<stop stop-color="#B1A7E4"/>
<stop offset="1" stop-color="#8478CE"/>
</linearGradient>
<linearGradient id="paint74_linear" x1="61.083" y1="135.068" x2="61.083" y2="143.258" gradientUnits="userSpaceOnUse">
<stop stop-color="#B1A7E4"/>
<stop offset="1" stop-color="#8478CE"/>
</linearGradient>
<linearGradient id="paint75_linear" x1="89.6904" y1="135.068" x2="89.6904" y2="143.258" gradientUnits="userSpaceOnUse">
<stop stop-color="#B1A7E4"/>
<stop offset="1" stop-color="#8478CE"/>
</linearGradient>
<linearGradient id="paint76_linear" x1="75.3313" y1="130.469" x2="75.3313" y2="135.181" gradientUnits="userSpaceOnUse">
<stop stop-color="#B1A7E4"/>
<stop offset="1" stop-color="#8478CE"/>
</linearGradient>
<linearGradient id="paint77_linear" x1="372.566" y1="302.674" x2="372.566" y2="332.403" gradientUnits="userSpaceOnUse">
<stop stop-color="#B1A7E4"/>
<stop offset="1" stop-color="#8478CE"/>
</linearGradient>
<linearGradient id="paint78_linear" x1="372.565" y1="300.432" x2="372.565" y2="334.76" gradientUnits="userSpaceOnUse">
<stop stop-color="#B1A7E4"/>
<stop offset="1" stop-color="#8478CE"/>
</linearGradient>
<linearGradient id="paint79_linear" x1="358.263" y1="290.443" x2="358.263" y2="298.633" gradientUnits="userSpaceOnUse">
<stop stop-color="#B1A7E4"/>
<stop offset="1" stop-color="#8478CE"/>
</linearGradient>
<linearGradient id="paint80_linear" x1="386.87" y1="290.443" x2="386.87" y2="298.633" gradientUnits="userSpaceOnUse">
<stop stop-color="#B1A7E4"/>
<stop offset="1" stop-color="#8478CE"/>
</linearGradient>
<linearGradient id="paint81_linear" x1="372.622" y1="285.957" x2="372.622" y2="290.669" gradientUnits="userSpaceOnUse">
<stop stop-color="#B1A7E4"/>
<stop offset="1" stop-color="#8478CE"/>
</linearGradient>
<linearGradient id="paint82_linear" x1="167.996" y1="30.8516" x2="167.996" y2="74.9401" gradientUnits="userSpaceOnUse">
<stop stop-color="#B1A7E4"/>
<stop offset="1" stop-color="#8478CE"/>
</linearGradient>
<linearGradient id="paint83_linear" x1="167.997" y1="33.0957" x2="167.997" y2="57.6641" gradientUnits="userSpaceOnUse">
<stop stop-color="#B1A7E4"/>
<stop offset="1" stop-color="#8478CE"/>
</linearGradient>
<linearGradient id="paint84_linear" x1="167.997" y1="52.5039" x2="167.997" y2="67.8732" gradientUnits="userSpaceOnUse">
<stop stop-color="#B1A7E4"/>
<stop offset="1" stop-color="#8478CE"/>
</linearGradient>
<linearGradient id="paint85_linear" x1="167.942" y1="70.7891" x2="167.942" y2="79.0907" gradientUnits="userSpaceOnUse">
<stop stop-color="#B1A7E4"/>
<stop offset="1" stop-color="#8478CE"/>
</linearGradient>
<linearGradient id="paint86_linear" x1="167.942" y1="76.3984" x2="167.942" y2="83.1295" gradientUnits="userSpaceOnUse">
<stop stop-color="#B1A7E4"/>
<stop offset="1" stop-color="#8478CE"/>
</linearGradient>
<linearGradient id="paint87_linear" x1="473.601" y1="43.0527" x2="473.601" y2="70.4258" gradientUnits="userSpaceOnUse">
<stop stop-color="#B1A7E4"/>
<stop offset="1" stop-color="#8478CE"/>
</linearGradient>
<linearGradient id="paint88_linear" x1="473.6" y1="44.3984" x2="473.6" y2="59.6556" gradientUnits="userSpaceOnUse">
<stop stop-color="#B1A7E4"/>
<stop offset="1" stop-color="#8478CE"/>
</linearGradient>
<linearGradient id="paint89_linear" x1="473.6" y1="56.5137" x2="473.6" y2="66.0494" gradientUnits="userSpaceOnUse">
<stop stop-color="#B1A7E4"/>
<stop offset="1" stop-color="#8478CE"/>
</linearGradient>
<linearGradient id="paint90_linear" x1="473.599" y1="67.8457" x2="473.599" y2="73.0062" gradientUnits="userSpaceOnUse">
<stop stop-color="#B1A7E4"/>
<stop offset="1" stop-color="#8478CE"/>
</linearGradient>
<linearGradient id="paint91_linear" x1="473.655" y1="71.3223" x2="473.655" y2="75.4731" gradientUnits="userSpaceOnUse">
<stop stop-color="#B1A7E4"/>
<stop offset="1" stop-color="#8478CE"/>
</linearGradient>
<linearGradient id="paint92_linear" x1="288.595" y1="301.666" x2="288.595" y2="320.962" gradientUnits="userSpaceOnUse">
<stop stop-color="#B1A7E4"/>
<stop offset="1" stop-color="#8478CE"/>
</linearGradient>
<linearGradient id="paint93_linear" x1="288.595" y1="302.566" x2="288.595" y2="313.336" gradientUnits="userSpaceOnUse">
<stop stop-color="#B1A7E4"/>
<stop offset="1" stop-color="#8478CE"/>
</linearGradient>
<linearGradient id="paint94_linear" x1="288.596" y1="311.092" x2="288.596" y2="317.823" gradientUnits="userSpaceOnUse">
<stop stop-color="#B1A7E4"/>
<stop offset="1" stop-color="#8478CE"/>
</linearGradient>
<linearGradient id="paint95_linear" x1="288.595" y1="319.055" x2="288.595" y2="322.645" gradientUnits="userSpaceOnUse">
<stop stop-color="#B1A7E4"/>
<stop offset="1" stop-color="#8478CE"/>
</linearGradient>
<linearGradient id="paint96_linear" x1="288.596" y1="321.521" x2="288.596" y2="324.438" gradientUnits="userSpaceOnUse">
<stop stop-color="#B1A7E4"/>
<stop offset="1" stop-color="#8478CE"/>
</linearGradient>
</defs>
</svg>
