<svg width="561" height="418" viewBox="0 0 561 418" fill="none" xmlns="http://www.w3.org/2000/svg">
<path d="M560.923 367.293H0V367.63H560.923V367.293Z" fill="#EBEBEB"/>
<path d="M504.719 385.354H480.375V385.69H504.719V385.354Z" fill="#EBEBEB"/>
<path d="M386.7 379.633H348.445V379.969H386.7V379.633Z" fill="#EBEBEB"/>
<path d="M494.846 375.035H444.924V375.372H494.846V375.035Z" fill="#EBEBEB"/>
<path d="M194.079 380.643H181.627V380.979H194.079V380.643Z" fill="#EBEBEB"/>
<path d="M171.643 380.643H128.564V380.979H171.643V380.643Z" fill="#EBEBEB"/>
<path d="M105.454 375.93H74.3789V376.266H105.454V375.93Z" fill="#EBEBEB"/>
<path d="M265.879 317.258H49.25C45.7723 317.258 42.8555 314.341 42.8555 310.864V6.39453C42.8555 2.9168 45.7723 0 49.25 0H265.879C269.356 0 272.273 2.9168 272.273 6.39453V310.864C272.273 314.454 269.468 317.258 265.879 317.258ZM49.25 0.336554C45.8845 0.336554 43.0798 3.02899 43.0798 6.50671V310.976C43.0798 314.341 45.7723 317.146 49.25 317.146H265.879C269.244 317.146 272.049 314.454 272.049 310.976V6.39453C272.049 3.02899 269.356 0.224369 265.879 0.224369H49.25V0.336554Z" fill="#EBEBEB"/>
<path d="M508.533 317.258H291.904C288.427 317.258 285.51 314.341 285.51 310.864V6.39453C285.51 2.9168 288.427 0 291.904 0H508.533C512.011 0 514.927 2.9168 514.927 6.39453V310.864C514.927 314.454 512.123 317.258 508.533 317.258ZM291.904 0.336554C288.539 0.336554 285.734 3.02899 285.734 6.50671V310.976C285.734 314.341 288.427 317.146 291.904 317.146H508.533C511.898 317.146 514.703 314.454 514.703 310.976V6.39453C514.703 3.02899 512.011 0.224369 508.533 0.224369H291.904V0.336554Z" fill="#EBEBEB"/>
<path d="M242.43 163.678L242.991 148.982L233.904 146.065C233.568 141.017 232.67 136.08 231.436 131.257L239.065 125.647L233.904 111.849L224.368 112.634C222.125 108.146 219.432 103.883 216.516 99.957L221.452 91.7675L211.355 80.9978L202.829 85.373C199.015 82.1196 194.976 79.2028 190.713 76.6226L192.059 67.1991L178.597 61.1411L172.427 68.3209C167.715 66.7503 162.891 65.6285 157.843 64.9554L155.599 55.7562L140.791 55.1953L137.874 64.2823C132.826 64.731 127.89 65.5163 123.066 66.7503L117.344 59.1218L103.546 64.2823L104.331 73.818C99.8435 76.0617 95.5805 78.7541 91.5418 81.7831L83.3524 76.8469L72.5826 86.9436L76.9578 95.4696C73.7045 99.2839 70.7877 103.323 68.2074 107.586L58.7839 106.127L52.6138 119.589L59.9058 125.759C58.3352 130.471 57.2133 135.407 56.5402 140.343L47.2289 142.699L46.668 157.396L55.7549 160.312C56.0915 165.361 56.989 170.297 58.223 175.121L50.5944 180.73L55.7549 194.529L65.2906 193.743C67.5343 198.231 70.2267 202.494 73.1435 206.532L68.2074 214.722L78.304 225.492L86.8301 221.116C90.6444 224.37 94.683 227.287 98.946 229.867L97.4876 239.29L110.95 245.348L117.12 238.168C121.832 239.739 126.656 240.861 131.704 241.534L133.948 250.733L148.756 251.294L151.673 242.207C156.721 241.758 161.657 240.973 166.481 239.739L172.09 247.368L185.889 242.207L185.216 232.671C189.703 230.428 193.966 227.735 198.005 224.706L206.195 229.642L216.964 219.546L212.589 211.02C215.842 207.206 218.759 203.167 221.339 198.904L230.763 200.362L236.933 186.9L229.641 180.73C231.212 176.018 232.334 171.194 233.007 166.146L242.43 163.678ZM142.81 211.469C110.501 210.347 85.2595 183.31 86.3813 151.001C87.5032 118.692 114.54 93.4503 146.849 94.4599C179.158 95.5818 204.4 122.618 203.278 154.927C202.156 187.237 175.119 212.59 142.81 211.469Z" fill="#EBEBEB"/>
<path d="M494.733 114.991L498.435 111.513L496.977 108.597C498.099 107.25 499.108 105.904 500.006 104.446L503.259 104.895L505.391 100.295L502.923 98.1635C503.484 96.4807 503.82 94.798 504.157 93.1152L507.41 92.3299L507.522 87.2816L504.381 86.2719C504.269 84.5892 503.932 82.7942 503.596 81.1114L506.176 79.2043L504.381 74.3804L501.128 74.6047C500.343 73.0341 499.445 71.5757 498.435 70.2295L500.118 67.4249L496.64 63.7228L493.724 65.1812C492.377 64.0594 491.031 63.0497 489.573 62.1522L490.022 58.8989L485.422 56.7674L483.29 59.2354C481.608 58.6745 479.925 58.338 478.242 58.1136L477.457 54.9724L472.409 54.748L471.399 57.8892C469.716 58.0014 467.921 58.338 466.351 58.6745L464.443 55.9821L459.62 57.777L459.844 61.0304C458.273 61.8157 456.815 62.7132 455.469 63.7228L452.664 62.04L448.962 65.5178L450.42 68.4346C449.299 69.7808 448.289 71.127 447.391 72.5854L444.138 72.1367L442.007 76.7362L444.475 78.8678C443.914 80.5505 443.577 82.2333 443.241 83.9161L439.987 84.7013L439.875 89.7497L443.016 90.7593C443.128 92.4421 443.465 94.237 443.801 95.9198L441.109 97.8269L442.904 102.651L446.157 102.427C446.943 103.997 447.84 105.456 448.85 106.802L447.167 109.606L450.645 113.308L453.562 111.85C454.908 112.972 456.254 113.982 457.712 114.879L457.264 118.132L461.863 120.264L463.995 117.796C465.677 118.357 467.36 118.693 469.043 118.918L469.828 122.059L474.877 122.283L475.886 119.142C477.569 119.03 479.364 118.693 480.935 118.357L482.842 121.049L487.666 119.254L487.441 116.001C489.012 115.216 490.47 114.318 491.816 113.308L494.733 114.991ZM468.146 93.4518C465.453 90.535 465.565 85.9354 468.482 83.2429C471.399 80.5505 475.998 80.6627 478.691 83.5795C481.383 86.4963 481.271 91.0959 478.354 93.7883C475.55 96.5929 470.95 96.4807 468.146 93.4518Z" fill="#EBEBEB"/>
<path d="M358.99 266.326L347.435 258.361C346.313 254.098 344.742 250.059 342.723 246.245L345.64 234.577L328.812 216.516L316.921 218.647C313.218 216.403 309.292 214.609 305.141 213.15L297.961 201.034L273.281 200.137L265.316 211.692C261.053 212.814 257.014 214.384 253.2 216.403L241.532 213.487L223.471 230.314L225.602 242.094C223.359 245.796 221.564 249.722 220.105 253.873L207.989 261.053L207.092 285.734L218.759 293.699C219.881 297.962 221.451 302 223.359 305.815L220.442 317.482L237.269 335.544L249.049 333.412C252.751 335.656 256.677 337.451 260.828 338.909L268.008 351.025L292.689 351.923L300.654 340.368C304.917 339.246 308.955 337.675 312.882 335.656L324.437 338.573L342.499 321.745L340.367 309.965C342.611 306.263 344.406 302.337 345.864 298.186L357.98 291.006L358.99 266.326ZM282.143 303.795C266.774 303.234 254.882 290.445 255.331 275.188C255.892 259.819 268.681 247.927 283.938 248.376C299.308 248.937 311.199 261.726 310.75 276.983C310.302 292.24 297.513 304.244 282.143 303.795Z" fill="#EBEBEB"/>
<path d="M385.353 196.325L365.833 195.652C365.048 195.652 364.262 195.203 363.926 194.53L358.653 185.667C355.849 184.658 353.156 183.423 350.464 181.853L342.05 183.423C341.265 183.536 340.479 183.311 339.918 182.75L326.681 168.503C326.12 167.942 325.895 167.045 326.12 166.259L328.251 157.958C327.017 155.377 325.895 152.461 324.998 149.544L316.584 143.71C315.911 143.261 315.574 142.476 315.574 141.691L316.247 122.283C316.247 121.498 316.696 120.712 317.369 120.376L326.232 115.103C327.241 112.186 328.588 109.494 330.046 107.026L328.475 98.6119C328.363 97.8266 328.588 97.0413 329.149 96.4804L343.396 83.2426C343.957 82.6817 344.854 82.4573 345.64 82.6817L353.941 84.8132C356.634 83.467 359.438 82.4573 362.243 81.5598L368.077 73.146C368.525 72.4729 369.311 72.0241 370.096 72.1363L389.504 72.8094C390.289 72.8094 391.075 73.2582 391.411 73.9313L396.684 82.7939C399.488 83.8035 402.181 85.0375 404.761 86.6081L413.287 85.0376C414.072 84.9254 414.858 85.1497 415.419 85.7107L428.769 99.8459C429.329 100.407 429.554 101.304 429.329 102.09L427.198 110.391C428.544 113.084 429.554 115.888 430.451 118.693L438.865 124.527C439.538 124.975 439.875 125.761 439.875 126.546L439.202 145.954C439.202 146.739 438.753 147.524 438.08 147.861L429.217 153.134C428.208 156.05 426.861 158.743 425.403 161.211L426.974 169.625C427.086 170.41 426.861 171.195 426.3 171.756L412.053 184.994C411.492 185.555 410.595 185.779 409.809 185.555L401.508 183.423C398.815 184.77 395.898 185.779 393.094 186.677L387.26 195.091C386.924 195.988 386.138 196.325 385.353 196.325ZM367.404 190.94L384.231 191.501L389.84 183.423C390.177 182.975 390.626 182.638 391.187 182.526C394.328 181.741 397.357 180.507 400.386 179.048C400.835 178.824 401.508 178.712 402.069 178.824L409.922 180.843L422.262 169.4L420.803 161.323C420.691 160.762 420.803 160.201 421.14 159.64C422.711 156.948 424.169 154.031 425.291 150.89C425.515 150.329 425.852 149.88 426.3 149.544L434.714 144.495L435.275 127.668L427.198 122.058C426.749 121.722 426.413 121.385 426.3 120.824C426.3 120.712 426.3 120.712 426.3 120.6C425.403 117.459 424.281 114.43 422.823 111.513C422.598 110.952 422.486 110.391 422.598 109.83L424.618 101.865L413.063 89.5249L404.985 90.9833C404.424 91.0955 403.864 90.9833 403.303 90.6468C400.498 88.964 397.581 87.6178 394.552 86.4959C394.328 86.3838 394.216 86.3838 394.103 86.2716C393.767 86.0472 393.543 85.8228 393.318 85.4863L388.158 77.409L371.33 76.8481L365.721 84.9254C365.384 85.3741 364.935 85.7107 364.375 85.935C361.233 86.8325 358.204 87.9543 355.288 89.4127C354.727 89.6371 354.166 89.7493 353.605 89.6371L345.64 87.6178L333.299 99.1728L334.758 107.25C334.87 107.811 334.758 108.26 334.533 108.709C334.533 108.821 334.421 108.821 334.421 108.933C332.738 111.625 331.392 114.654 330.27 117.795C330.046 118.356 329.709 118.805 329.261 119.029L320.847 124.078L320.286 140.906L328.363 146.515C328.812 146.851 329.149 147.3 329.261 147.861C330.158 151.114 331.28 154.143 332.738 156.948C332.851 157.06 332.851 157.284 332.963 157.509C333.075 157.845 333.075 158.294 332.963 158.631L330.944 166.596L342.499 178.936L350.464 177.478C351.025 177.366 351.585 177.478 352.146 177.814C354.951 179.497 357.98 180.843 361.009 181.965C361.57 182.189 362.019 182.526 362.355 182.975L367.404 190.94ZM377.725 169.737C377.276 169.737 376.939 169.737 376.491 169.737C356.97 169.064 341.489 152.573 342.162 133.053C342.835 113.532 359.326 98.1632 378.846 98.7241C398.367 99.3972 413.848 115.888 413.175 135.408C412.838 144.832 408.8 153.695 401.956 160.089C395.338 166.371 386.812 169.737 377.725 169.737ZM377.725 103.436C361.233 103.436 347.547 116.561 346.986 133.165C346.425 150.105 359.775 164.352 376.715 165.025C384.904 165.25 392.757 162.333 398.815 156.724C404.873 151.114 408.239 143.486 408.575 135.296C409.136 118.356 395.786 104.109 378.846 103.436C378.398 103.436 378.061 103.436 377.725 103.436Z" fill="#EBEBEB"/>
<path d="M430.115 56.5433L422.15 54.2996L419.906 46.3345L423.047 43.1934L426.413 50.0366L433.256 53.4022L430.115 56.5433Z" fill="#E0E0E0"/>
<path d="M430.675 51.1568C432.133 49.6984 432.133 47.3425 430.675 45.8841C429.217 44.4257 426.861 44.4257 425.402 45.8841L429.441 39.8262L434.826 42.5186L435.948 48.1278L430.675 51.1568Z" fill="#E0E0E0"/>
<path d="M422.486 43.7524L428.432 37.8066L436.509 39.9381L438.641 48.0154L432.695 53.9612L424.618 51.8297L422.486 43.7524ZM433.144 48.5764C434.602 47.118 434.602 44.7621 433.144 43.3037C431.685 41.8453 429.33 41.8453 427.871 43.3037C426.413 44.7621 426.413 47.118 427.871 48.5764C429.33 50.0348 431.685 50.0348 433.144 48.5764Z" fill="#F0F0F0"/>
<path d="M101.191 271.262L105.566 270.028L106.688 265.765L105.005 264.082L103.21 267.784L99.5078 269.467L101.191 271.262Z" fill="#E0E0E0"/>
<path d="M100.966 268.347C100.18 267.562 100.18 266.328 100.966 265.542C101.751 264.757 102.985 264.757 103.77 265.542L101.639 262.289L98.7219 263.747L98.0488 266.776L100.966 268.347Z" fill="#E0E0E0"/>
<path d="M105.34 264.42L102.199 261.279L97.9363 262.401L96.8145 266.664L99.9556 269.805L104.219 268.683L105.34 264.42ZM99.6191 267.001C98.8338 266.215 98.8338 264.981 99.6191 264.196C100.404 263.411 101.638 263.411 102.424 264.196C103.209 264.981 103.209 266.215 102.424 267.001C101.638 267.786 100.404 267.786 99.6191 267.001Z" fill="#F0F0F0"/>
<path d="M85.7084 34.439L89.2983 38.0289C90.1958 38.9264 91.7664 38.9264 92.6639 38.0289C93.5613 37.1315 93.5613 35.5609 92.6639 34.6634L89.074 31.0735C88.1765 30.176 86.6059 30.176 85.7084 31.0735C84.6988 31.971 84.6988 33.5416 85.7084 34.439Z" fill="#F0F0F0"/>
<path d="M83.1275 25.5767C85.9321 24.5671 88.8489 25.9133 89.8585 28.4936C90.756 31.0738 89.2976 33.9906 86.493 35.0003C83.6884 36.0099 80.7716 34.6637 79.7619 32.0835C78.8644 29.391 80.3228 26.4742 83.1275 25.5767Z" fill="#E0E0E0"/>
<path d="M79.2523 31.4106L79.7832 32.8887L90.4465 29.0589L89.9156 27.5808L79.2523 31.4106Z" fill="#F0F0F0"/>
<path d="M280.462 418C400.598 418 497.988 412.325 497.988 405.323C497.988 398.322 400.598 392.646 280.462 392.646C160.325 392.646 62.9355 398.322 62.9355 405.323C62.9355 412.325 160.325 418 280.462 418Z" fill="#F5F5F5"/>
<path d="M97.2639 73.7053C96.1421 68.7692 96.5908 64.6184 98.7223 61.2528C100.854 57.8873 104.332 55.6436 109.268 54.5218C114.316 53.3999 118.467 53.8486 121.832 55.9802C125.198 58.1117 127.442 61.5894 128.451 66.4133C129.237 70.0032 129.349 73.0322 128.676 75.5003C128.003 78.0805 126.656 80.212 124.749 82.007C122.73 83.8019 120.15 85.036 116.784 85.8213C113.419 86.6066 110.39 86.7188 107.921 86.1578C105.453 85.5969 103.21 84.2507 101.303 82.2314C99.3955 79.9877 98.0492 77.1831 97.2639 73.7053ZM106.687 71.5738C107.361 74.6028 108.482 76.7343 109.941 77.744C111.399 78.8658 113.082 79.0902 114.989 78.6415C117.008 78.1927 118.355 77.1831 119.252 75.6125C120.15 74.0419 120.037 71.5738 119.252 68.2083C118.579 65.4037 117.569 63.3843 116.111 62.3747C114.653 61.365 112.97 61.0285 110.95 61.4772C109.043 61.9259 107.697 62.9356 106.912 64.5062C106.014 66.189 105.902 68.5448 106.687 71.5738Z" fill="#263238"/>
<path d="M133.051 70.0034C132.265 66.6379 132.826 63.6089 134.509 60.9165C136.304 58.224 139.108 56.4291 142.923 55.5316C147.298 54.5219 150.888 55.0829 153.692 57.1022C155.936 58.785 157.395 61.0287 158.068 64.0576C158.853 67.4232 158.292 70.4522 156.609 73.1446C154.814 75.837 152.01 77.632 148.083 78.5295C144.606 79.3148 141.464 79.0904 138.884 77.7442C135.855 76.1736 133.836 73.5933 133.051 70.0034ZM141.464 68.0963C141.913 70.0034 142.586 71.3496 143.596 72.1349C144.606 72.9202 145.727 73.1446 146.849 72.808C148.083 72.5837 148.981 71.7984 149.542 70.7887C150.103 69.6669 150.215 68.0963 149.654 66.077C149.205 64.1698 148.532 62.8236 147.522 62.1505C146.513 61.3652 145.503 61.1408 144.269 61.3652C143.035 61.5896 142.137 62.3749 141.577 63.4967C141.128 64.6186 141.016 66.1891 141.464 68.0963Z" fill="#263238"/>
<path d="M166.707 82.5676L159.863 52.2777L167.716 50.4828L168.501 53.7361C169.287 52.1655 170.072 50.9315 170.857 50.2584C171.979 49.3609 173.213 48.6878 174.672 48.3513C177.588 47.6781 180.169 48.2391 182.188 50.1462C184.32 52.0533 185.778 54.6336 186.451 57.8869C187.236 61.589 187.012 64.5058 185.778 66.8617C184.432 69.2176 182.525 70.676 179.832 71.2369C178.486 71.5735 177.364 71.5735 176.13 71.3491C175.008 71.1247 173.886 70.676 172.877 70.0029L175.233 80.4361L166.707 82.5676ZM170.745 61.4769C171.194 63.1596 171.755 64.3937 172.765 65.0668C173.662 65.7399 174.672 65.9642 175.793 65.7399C176.803 65.5155 177.476 64.9546 177.925 63.9449C178.374 62.9353 178.374 61.589 178.037 59.5697C177.588 57.7748 177.028 56.5407 176.13 55.8676C175.233 55.1945 174.335 54.9701 173.325 55.1945C172.204 55.4189 171.418 56.092 170.97 57.1017C170.409 58.1113 170.296 59.5697 170.745 61.4769Z" fill="#263238"/>
<path d="M190.041 62.0393L198.23 59.3468C198.791 60.2443 199.464 60.8052 200.137 61.1418C200.811 61.4783 201.708 61.4783 202.718 61.254C203.84 61.0296 204.625 60.5809 205.186 59.9078C205.635 59.459 205.747 58.8981 205.635 58.4494C205.522 57.8884 205.074 57.4397 204.4 57.2153C203.84 57.1031 202.606 57.1031 200.586 57.2153C197.557 57.3275 195.426 57.3275 194.192 57.2153C192.958 56.991 191.836 56.5422 190.826 55.6447C189.816 54.7473 189.143 53.7376 188.807 52.3914C188.47 50.933 188.582 49.5868 189.256 48.3527C189.816 47.1187 190.826 46.109 192.172 45.2116C193.519 44.3141 195.426 43.641 197.894 43.0801C200.474 42.5191 202.493 42.2948 203.84 42.407C205.186 42.5191 206.308 42.8557 207.429 43.5288C208.439 44.2019 209.449 45.2116 210.234 46.4456L202.493 49.0258C202.157 48.3527 201.708 47.904 201.147 47.6796C200.362 47.3431 199.577 47.3431 198.567 47.5674C197.669 47.7918 196.996 48.1284 196.66 48.5771C196.323 49.0258 196.211 49.4746 196.323 49.9233C196.435 50.4842 196.772 50.8208 197.445 50.933C198.006 51.0452 199.352 51.0452 201.259 50.8208C204.176 50.4842 206.308 50.4842 207.766 50.7086C209.224 50.933 210.458 51.4939 211.468 52.3914C212.478 53.2889 213.039 54.2985 213.375 55.6447C213.712 56.8788 213.6 58.225 213.039 59.5712C212.59 60.9174 211.58 62.1515 210.122 63.2733C208.664 64.3951 206.532 65.1804 203.615 65.8535C199.577 66.751 196.66 66.8632 194.64 66.0779C192.509 65.517 191.051 64.0586 190.041 62.0393Z" fill="#263238"/>
<path d="M217.414 34.3281H226.613V41.3958L224.93 55.6432H219.209L217.414 41.3958V34.3281ZM217.863 57.7747H226.501V65.4033H217.863V57.7747Z" fill="#263238"/>
<path d="M144.382 130.809C144.27 130.809 144.27 130.809 144.158 130.809C139.109 128.901 136.08 126.994 134.51 124.638C133.388 124.863 132.042 124.751 130.92 124.19C129.798 123.629 128.564 122.619 127.779 121.273C126.993 121.834 126.096 122.058 125.086 121.722C123.964 121.385 122.73 120.375 121.721 119.029C121.048 119.478 120.487 119.59 119.926 119.478C116.56 119.254 112.073 112.522 111.736 105.455C111.736 105.118 111.961 104.894 112.297 104.894C112.634 104.894 112.858 105.118 112.858 105.455C113.195 112.186 117.458 118.132 120.038 118.356C120.487 118.356 120.823 118.244 121.048 118.02C119.477 115.327 118.692 111.513 119.926 107.474C120.935 104.109 121.721 102.762 122.73 102.987C124.638 103.436 124.413 110.84 123.404 115.664C123.179 116.785 122.843 117.571 122.506 118.132C123.404 119.478 124.413 120.263 125.311 120.6C126.096 120.824 126.769 120.6 127.218 120.263C126.32 118.132 126.208 115.103 127.33 111.401C128.901 106.464 129.574 106.352 129.91 106.24C130.135 106.128 130.471 106.24 130.583 106.464C131.593 107.586 130.359 115.327 129.125 119.141C128.901 119.59 128.788 120.039 128.452 120.488C129.125 121.834 130.135 122.731 131.256 123.292C132.154 123.741 133.051 123.853 133.837 123.741C133.725 123.517 133.612 123.292 133.612 123.068C132.715 120.712 133.164 117.907 134.959 114.542C136.193 112.298 137.09 111.288 137.988 111.288C138.212 111.288 138.773 111.401 139.109 112.074C140.119 113.869 139.334 119.814 137.427 122.843C136.978 123.517 136.305 124.077 135.632 124.414C137.09 126.433 140.007 128.116 144.494 129.911C144.831 130.023 144.943 130.36 144.831 130.584C144.831 130.696 144.606 130.809 144.382 130.809ZM137.988 112.41C137.988 112.41 137.314 112.41 135.968 114.991C134.398 118.02 133.949 120.488 134.734 122.619C134.846 122.843 134.959 123.18 135.071 123.404C135.632 123.18 136.193 122.731 136.529 122.17C138.1 119.814 138.885 114.878 138.212 112.859C138.1 112.41 137.988 112.41 137.988 112.41ZM130.022 107.586C129.686 108.147 129.237 109.269 128.564 111.513C127.554 114.542 127.554 117.01 128.115 118.805C128.115 118.693 128.227 118.58 128.227 118.468C129.462 114.766 130.135 109.493 130.022 107.586ZM122.618 104.109C122.394 104.333 121.833 105.006 121.048 107.699C120.038 111.288 120.599 114.542 121.833 116.898C122.057 116.449 122.282 115.888 122.394 115.327C123.516 109.83 123.179 104.894 122.618 104.109Z" fill="#263238"/>
<path d="M187.013 189.595C185.33 189.595 183.535 189.259 181.852 188.249C181.628 188.137 181.516 187.8 181.628 187.464C181.74 187.239 182.077 187.127 182.413 187.239C186.452 189.595 191.612 187.912 192.622 186.23C192.734 186.005 192.846 185.781 192.734 185.444C191.164 185.557 189.257 185.22 187.013 183.762C184.208 181.967 183.984 181.406 183.984 181.069C183.984 180.845 184.096 180.62 184.32 180.508C185.442 179.947 190.491 182.303 192.622 183.649C192.846 183.874 193.183 183.986 193.295 184.21C194.193 183.986 194.978 183.537 195.427 182.976C195.763 182.528 195.988 182.191 196.1 181.742C195.988 181.742 195.988 181.742 195.875 181.742C194.081 181.967 192.286 181.181 190.378 179.386C189.032 178.152 188.583 177.367 188.696 176.694C188.696 176.47 188.92 176.133 189.481 175.909C191.052 175.572 194.866 177.143 196.436 178.825C196.773 179.162 196.997 179.611 197.109 180.172C198.568 179.499 200.138 177.928 201.933 175.348C202.158 175.123 202.494 175.011 202.719 175.236C202.943 175.46 203.055 175.796 202.831 176.021C200.699 178.938 198.904 180.62 197.222 181.294C197.109 182.079 196.773 182.864 196.212 183.537C195.651 184.21 194.866 184.771 193.744 185.108C193.856 185.669 193.744 186.117 193.407 186.678C192.734 188.473 190.042 189.595 187.013 189.595ZM186.003 181.854C186.34 182.079 186.901 182.528 187.686 182.976C189.257 183.874 190.603 184.323 191.725 184.435C189.93 183.313 187.462 182.303 186.003 181.854ZM189.93 177.143C190.042 177.367 190.266 177.816 191.276 178.713C192.959 180.284 194.417 180.957 195.875 180.733C195.988 180.733 196.1 180.733 196.212 180.733C196.1 180.396 195.988 180.06 195.763 179.835C194.193 178.04 190.715 176.918 189.93 177.143Z" fill="#263238"/>
<path d="M201.821 188.135L184.32 191.276L168.502 104.67L134.734 110.84L79.7637 208.441L85.7095 240.638L156.161 227.849L160.985 254.212L194.753 248.042L189.929 221.679L207.43 218.537L201.821 188.135ZM113.419 204.178L142.587 153.021L150.664 197.334L113.419 204.178Z" fill="#407BFF"/>
<path d="M342.612 98.7217C341.939 92.776 340.817 87.3911 339.022 82.7915C337.339 78.192 334.647 73.5924 331.169 69.105C327.691 64.6176 322.98 60.8033 316.922 57.4378C310.864 54.1844 303.011 51.8286 293.138 50.5945C272.609 47.9021 256.566 51.6042 245.123 61.4764C233.681 71.4609 226.052 90.5323 222.462 118.691C221.004 130.133 220.667 140.791 221.34 150.439C222.126 160.199 223.921 168.052 226.725 173.885C230.652 182.187 236.037 188.806 243.104 193.854C250.172 198.79 259.932 202.156 272.16 203.727C294.148 206.643 310.415 202.38 321.072 191.05C331.618 179.719 338.685 160.648 342.163 133.723C343.846 121.944 343.958 110.165 342.612 98.7217Z" fill="#407BFF"/>
<path d="M282.482 192.396C279.789 192.284 276.872 192.059 273.956 191.723C263.635 190.377 255.782 187.796 250.285 183.982C244.9 180.28 240.973 175.344 237.944 168.949V168.837C235.813 164.35 234.355 157.843 233.794 149.766C233.12 140.903 233.457 131.031 234.803 120.486C238.842 89.4104 247.031 76.3969 253.314 71.0121C260.606 64.7297 270.366 61.8129 283.267 62.2617C285.959 62.3739 288.764 62.5982 291.569 62.9348C299.87 64.0566 306.377 65.8516 311.089 68.4318C315.576 70.8999 319.054 73.7045 321.522 76.8457C324.214 80.3234 326.234 83.8011 327.58 87.2789C328.926 90.9809 329.936 95.3561 330.497 100.292C331.731 110.725 331.619 121.607 330.16 132.489C327.019 156.609 321.073 173.661 312.323 182.972C305.704 189.703 295.944 192.845 282.482 192.396Z" fill="#263238"/>
<path d="M304.357 99.0599L304.469 94.7969L301.889 93.8994C301.776 92.441 301.552 90.9826 301.215 89.6364L303.459 87.9536L302.001 83.915L299.308 84.1393C298.635 82.7931 297.85 81.6713 297.065 80.4372L298.523 78.0814L295.606 74.9402L293.138 76.1742C292.016 75.2768 290.894 74.3793 289.66 73.594L290.109 70.9016L286.183 69.1066L284.388 71.2381C283.042 70.7894 281.583 70.4528 280.125 70.2284L279.452 67.536L275.189 67.4238L274.291 70.0041C272.833 70.1163 271.374 70.3406 270.028 70.6772L268.345 68.4335L264.307 69.8919L264.531 72.5843C263.185 73.2574 262.063 74.0427 260.829 74.828L258.473 73.3696L255.332 76.2864L256.566 78.7545C255.668 79.8763 254.771 80.9982 254.098 82.2322L251.405 81.7835L249.611 85.7099L251.742 87.5049C251.293 88.8511 250.957 90.3095 250.732 91.7679L248.04 92.441L247.928 96.704L250.508 97.6015C250.62 99.0599 250.845 100.518 251.181 101.865L248.937 103.547L250.396 107.586L253.088 107.362C253.761 108.708 254.547 109.83 255.332 111.064L253.874 113.42L256.79 116.561L259.258 115.327C260.38 116.224 261.502 117.122 262.736 117.907L262.287 120.599L266.214 122.394L268.009 120.263C269.355 120.712 270.813 121.048 272.272 121.272L272.945 123.965L277.208 124.077L278.105 121.497C279.564 121.385 281.022 121.16 282.368 120.824L284.051 123.067L288.09 121.609L287.865 118.917C289.212 118.243 290.334 117.458 291.568 116.673L293.923 118.131L297.065 115.214L295.831 112.746C296.728 111.625 297.626 110.503 298.299 109.269L300.991 109.717L302.786 105.791L300.655 103.996C301.103 102.65 301.44 101.191 301.664 99.733L304.357 99.0599ZM275.637 112.859C266.326 112.522 259.034 104.781 259.371 95.47C259.707 86.1587 267.448 78.8667 276.759 79.2032C286.071 79.5398 293.363 87.2805 293.026 96.5918C292.802 105.903 284.949 113.195 275.637 112.859Z" fill="#407BFF"/>
<path opacity="0.3" d="M322.082 177.141L322.419 174.224L320.736 173.551C320.736 172.541 320.624 171.644 320.512 170.634L322.082 169.624L321.297 166.82H319.39C319.053 165.922 318.604 165.025 318.044 164.239L319.053 162.669L317.258 160.425L315.576 161.098C314.902 160.425 314.117 159.752 313.332 159.191L313.781 157.396L311.2 156.05L309.854 157.396C308.957 157.06 308.059 156.723 307.049 156.499L306.713 154.704L303.796 154.367L303.123 156.05C302.113 156.05 301.216 156.162 300.206 156.274L299.197 154.704L296.392 155.489V157.396C295.494 157.733 294.597 158.181 293.812 158.742L292.241 157.621L289.997 159.415L290.671 161.098C289.997 161.771 289.324 162.557 288.763 163.342L286.968 162.893L285.622 165.473L286.968 166.82C286.632 167.717 286.295 168.615 286.071 169.624L284.276 169.961L283.939 172.878L285.622 173.551C285.622 174.56 285.734 175.458 285.847 176.468L284.276 177.477L285.061 180.282H286.968C287.305 181.179 287.754 182.077 288.315 182.862L287.193 184.433L288.988 186.676L290.671 186.003C291.344 186.676 292.129 187.349 292.914 187.91L292.465 189.705L295.046 191.052L296.392 189.705C297.289 190.042 298.187 190.378 299.197 190.603L299.533 192.398L302.45 192.734L303.123 191.052C304.133 191.052 305.03 190.939 306.04 190.827L307.049 192.398L309.854 191.612V189.705C310.752 189.369 311.649 188.92 312.434 188.359L313.893 189.481L316.136 187.686L315.463 186.003C316.136 185.33 316.81 184.545 317.37 183.76L319.165 184.208L320.512 181.628L319.165 180.282C319.502 179.384 319.839 178.487 320.063 177.477L322.082 177.141ZM307.61 176.019C306.264 178.487 303.235 179.384 300.767 178.038C298.299 176.692 297.514 173.663 298.748 171.195C300.094 168.727 303.123 167.942 305.591 169.176C308.059 170.634 308.957 173.663 307.61 176.019Z" fill="#407BFF"/>
<path d="M338.012 128.674L334.646 126.318C334.31 125.084 333.861 123.962 333.3 122.84L334.198 119.475L329.374 114.314L326.008 114.988C324.999 114.314 323.765 113.866 322.643 113.417L320.511 109.939L313.444 109.715L311.088 113.08C309.854 113.417 308.732 113.866 307.61 114.427L304.244 113.529L299.084 118.353L299.757 121.719C299.084 122.84 298.635 123.962 298.186 125.084L294.709 127.103L294.484 134.171L297.85 136.527C298.186 137.761 298.635 138.883 299.196 140.005L298.299 143.37L303.123 148.531L306.488 147.858C307.61 148.531 308.732 148.979 309.854 149.428L311.873 152.906L318.941 153.13L321.296 149.765C322.531 149.428 323.652 148.979 324.774 148.419L328.14 149.316L333.3 144.492L332.627 141.127C333.3 140.005 333.749 138.883 334.198 137.761L337.675 135.629L338.012 128.674ZM315.912 139.444C311.536 139.332 308.059 135.629 308.171 131.142C308.283 126.767 311.985 123.289 316.473 123.401C320.848 123.514 324.325 127.216 324.213 131.703C323.989 136.19 320.287 139.668 315.912 139.444Z" fill="white"/>
<path d="M362.357 72.0226L362.918 70.5642C363.367 70.3399 363.703 70.1155 364.04 69.7789H365.386L366.957 67.5352L366.508 66.3012C366.62 65.8525 366.732 65.4037 366.845 64.955L367.966 63.9453L367.518 61.3651L366.059 60.8042C365.835 60.3554 365.61 60.0189 365.274 59.6823V58.3361L363.03 56.7655L361.796 57.2143C361.347 57.1021 360.899 56.9899 360.45 56.8777L359.44 55.7559L356.86 56.2046L356.299 57.663C355.85 57.8874 355.514 58.1117 355.065 58.4483H353.719L352.148 60.692L352.597 61.926C352.485 62.3748 352.373 62.8235 352.261 63.2722L351.139 64.2819L351.587 66.8621L353.046 67.4231C353.27 67.8718 353.495 68.2084 353.831 68.6571V70.0033L356.075 71.5739L357.309 71.1252C357.758 71.2373 358.206 71.3495 358.655 71.4617L359.665 72.5836L362.357 72.0226ZM356.748 64.7306C356.411 63.0479 357.533 61.5895 359.216 61.2529C360.899 60.9164 362.357 62.0382 362.694 63.721C363.03 65.4037 361.908 66.8621 360.226 67.1987C358.543 67.4231 356.972 66.3012 356.748 64.7306Z" fill="#407BFF"/>
<path d="M331.618 64.5069L330.721 63.8338C332.179 62.0389 334.311 59.7952 337.452 58.2246L338.013 59.2343C334.647 60.917 332.516 63.4973 331.618 64.5069Z" fill="#407BFF"/>
<path d="M340.593 58.1106L340.145 57.101C344.408 55.306 348.783 54.5207 353.27 54.9695L353.158 56.0913C348.895 55.7548 344.632 56.4279 340.593 58.1106Z" fill="#407BFF"/>
<path d="M338.462 65.9623L337.564 65.2892C339.92 61.9237 344.408 59.0069 348.671 58.1094L348.895 59.2312C344.856 60.0165 340.593 62.8211 338.462 65.9623Z" fill="#407BFF"/>
<path d="M263.971 173.887C263.858 173.887 263.634 173.775 263.522 173.663L261.166 171.195C259.932 171.083 258.81 170.858 257.688 170.522L253.986 172.092C253.762 172.204 253.65 172.204 253.425 172.092L247.255 168.054C247.143 167.941 247.031 167.717 247.031 167.605L247.143 163.566C246.358 162.669 245.685 161.659 245.124 160.537L241.982 159.303C241.758 159.191 241.646 159.079 241.646 158.854L240.188 151.675C240.188 151.45 240.187 151.338 240.3 151.114L242.768 148.758C242.88 147.524 243.104 146.402 243.441 145.28L241.87 141.578C241.758 141.354 241.758 141.241 241.87 141.017L245.909 134.847C246.021 134.735 246.133 134.623 246.358 134.623L250.396 134.735C251.294 133.949 252.303 133.276 253.425 132.715L254.659 129.574C254.771 129.35 254.884 129.238 255.108 129.238L262.288 127.779C262.512 127.779 262.624 127.779 262.849 127.891L265.205 130.36C266.439 130.472 267.561 130.696 268.795 131.033L272.497 129.462C272.721 129.35 272.833 129.35 273.058 129.462L279.228 133.501C279.34 133.613 279.452 133.837 279.452 133.949L279.34 137.988C280.125 138.886 280.798 139.895 281.359 141.017L284.5 142.251C284.725 142.363 284.837 142.475 284.837 142.7L286.295 149.88C286.295 150.104 286.295 150.216 286.183 150.441L283.715 152.796C283.603 154.03 283.379 155.152 283.042 156.274L284.613 159.976C284.725 160.201 284.725 160.313 284.613 160.537L280.574 166.707C280.462 166.82 280.35 166.932 280.125 166.932L276.087 166.82C275.189 167.605 274.179 168.278 273.058 168.839L271.824 171.98C271.711 172.204 271.599 172.317 271.375 172.317L263.971 173.887C264.083 173.887 264.083 173.887 263.971 173.887ZM257.688 169.512H257.8C259.035 169.849 260.269 170.073 261.503 170.185C261.615 170.185 261.727 170.297 261.839 170.409L264.083 172.765L270.702 171.419L271.936 168.39C271.936 168.278 272.048 168.166 272.16 168.054C273.282 167.493 274.404 166.82 275.301 165.922C275.413 165.81 275.526 165.81 275.638 165.81L279.564 165.922L283.266 160.313L281.696 156.723C281.696 156.611 281.584 156.499 281.696 156.386C282.032 155.152 282.257 153.918 282.369 152.684C282.369 152.572 282.481 152.46 282.481 152.348L284.837 150.104L283.491 143.485L280.462 142.251C280.35 142.251 280.237 142.139 280.125 142.027C279.564 140.905 278.891 139.895 277.994 138.886C277.882 138.773 277.882 138.661 277.882 138.549L277.994 134.623L272.384 130.92L268.795 132.491C268.682 132.491 268.57 132.603 268.458 132.491C267.224 132.154 265.99 131.93 264.756 131.818C264.644 131.818 264.532 131.706 264.419 131.706L262.176 129.35L255.557 130.696L254.323 133.725C254.323 133.837 254.211 133.949 254.098 134.062C252.977 134.623 251.967 135.296 250.957 136.193C250.845 136.305 250.733 136.305 250.621 136.305L246.694 136.193L242.992 141.802L244.563 145.392C244.675 145.504 244.675 145.729 244.563 145.841C244.226 146.963 244.002 148.197 243.89 149.431C243.89 149.543 243.777 149.655 243.777 149.767L241.422 152.011L242.768 158.63L245.797 159.864C245.909 159.864 246.021 159.976 246.133 160.201C246.694 161.323 247.367 162.332 248.153 163.342C248.265 163.454 248.265 163.566 248.265 163.678L248.153 167.605L253.762 171.307L257.352 169.736C257.576 169.512 257.576 169.512 257.688 169.512ZM263.185 165.81C260.381 165.81 257.464 165.025 254.996 163.342C251.63 161.098 249.387 157.733 248.601 153.806C247.816 149.88 248.601 145.953 250.733 142.588C255.332 135.744 264.644 133.837 271.487 138.325C278.33 142.924 280.237 152.123 275.638 159.079C272.833 163.454 268.009 165.81 263.185 165.81ZM251.743 143.261C249.723 146.29 248.938 149.992 249.723 153.694C250.508 157.284 252.528 160.425 255.669 162.444C262.063 166.707 270.59 164.912 274.853 158.518C279.116 152.123 277.321 143.597 270.926 139.334C264.532 135.183 255.893 136.866 251.743 143.261Z" fill="white"/>
<path d="M477.683 198.229L460.07 195.873L471.737 108.594L437.745 103.994L355.289 179.831L350.914 212.252L421.927 221.788L418.337 248.376L452.329 252.975L455.919 226.388L473.532 228.743L477.683 198.229ZM388.608 186.225L432.136 146.624L426.19 191.274L388.608 186.225Z" fill="#407BFF"/>
<path d="M442.12 252.19C441.671 252.078 441.559 251.853 441.559 251.517L467.81 108.033C467.81 107.696 468.146 107.584 468.483 107.584C468.819 107.584 469.044 107.921 468.932 108.257L442.793 251.741C442.68 251.966 442.456 252.19 442.12 252.19Z" fill="#263238"/>
<path d="M465.342 110.39C465.342 110.951 464.893 111.287 464.444 111.287C463.996 111.287 463.547 110.838 463.547 110.39C463.547 109.941 463.996 109.492 464.444 109.492C465.005 109.492 465.342 109.941 465.342 110.39Z" fill="#263238"/>
<path d="M461.641 129.798C461.641 130.359 461.192 130.695 460.743 130.695C460.182 130.695 459.846 130.247 459.846 129.798C459.846 129.237 460.294 128.9 460.743 128.9C461.304 128.9 461.641 129.349 461.641 129.798Z" fill="#263238"/>
<path d="M457.938 149.206C457.938 149.767 457.489 150.104 457.04 150.104C456.479 150.104 456.143 149.655 456.143 149.206C456.143 148.645 456.591 148.309 457.04 148.309C457.489 148.309 457.938 148.757 457.938 149.206Z" fill="#263238"/>
<path d="M450.533 169.399C450.533 169.96 450.084 170.297 449.636 170.297C449.187 170.297 448.738 169.848 448.738 169.399C448.738 168.839 449.187 168.502 449.636 168.502C450.084 168.502 450.533 168.951 450.533 169.399Z" fill="#263238"/>
<path d="M450.422 188.021C450.422 188.581 449.973 188.918 449.524 188.918C449.076 188.918 448.627 188.469 448.627 188.021C448.627 187.572 449.076 187.123 449.524 187.123C449.973 187.123 450.422 187.572 450.422 188.021Z" fill="#263238"/>
<path d="M446.719 207.431C446.719 207.992 446.27 208.328 445.821 208.328C445.373 208.328 444.924 207.879 444.924 207.431C444.924 206.87 445.373 206.533 445.821 206.533C446.27 206.533 446.719 206.982 446.719 207.431Z" fill="#263238"/>
<path d="M442.904 226.837C442.904 227.398 442.456 227.734 442.007 227.734C441.446 227.734 441.109 227.286 441.109 226.837C441.109 226.276 441.558 225.939 442.007 225.939C442.568 225.939 443.016 226.388 442.904 226.837Z" fill="#263238"/>
<path d="M439.203 246.243C439.203 246.804 438.754 247.141 438.306 247.141C437.745 247.141 437.408 246.692 437.408 246.243C437.408 245.794 437.857 245.346 438.306 245.346C438.867 245.346 439.203 245.794 439.203 246.243Z" fill="#263238"/>
<path d="M449.637 169.958C449.413 169.958 449.188 169.734 449.076 169.509C448.964 169.173 449.188 168.948 449.525 168.836L452.329 168.275C452.666 168.163 452.89 168.387 453.003 168.724C453.115 169.061 452.89 169.285 452.554 169.397L449.749 169.958H449.637Z" fill="#263238"/>
<path d="M458.949 159.639C458.949 159.639 456.481 166.145 455.583 170.184C454.686 174.11 454.686 182.973 454.686 182.973" fill="#263238"/>
<path d="M454.686 183.533C454.349 183.533 454.125 183.308 454.125 182.972C454.125 182.635 454.237 173.997 455.022 170.07C455.92 166.144 458.276 159.749 458.388 159.525C458.5 159.189 458.837 159.076 459.061 159.189C459.398 159.301 459.51 159.637 459.398 159.862C459.398 159.974 456.93 166.368 456.032 170.295C455.247 174.109 455.135 182.86 455.135 182.972C455.247 183.308 455.022 183.533 454.686 183.533Z" fill="#263238"/>
<path d="M249.609 280.349C251.18 255.219 248.263 209.56 295.493 215.618C346.088 222.125 331.616 281.358 331.616 281.358L249.609 280.349Z" fill="#263238"/>
<path d="M282.142 265.204C293.542 265.204 302.784 255.962 302.784 244.562C302.784 233.162 293.542 223.92 282.142 223.92C270.742 223.92 261.5 233.162 261.5 244.562C261.5 255.962 270.742 265.204 282.142 265.204Z" fill="white"/>
<path d="M284.834 224.033C275.074 222.35 264.641 229.53 263.631 236.822L302.335 240.412C300.988 232.11 292.574 225.379 284.834 224.033Z" fill="#263238"/>
<path d="M297.96 244.111C297.736 249.496 294.707 253.759 291.453 253.534C288.088 253.31 285.62 248.823 285.844 243.438C286.069 238.053 289.098 233.79 292.351 234.014C295.716 234.239 298.185 238.726 297.96 244.111Z" fill="#263238"/>
<path d="M282.143 266.325C270.139 266.325 260.379 256.564 260.379 244.561C260.379 232.557 270.139 222.797 282.143 222.797C294.146 222.797 303.907 232.557 303.907 244.561C303.907 256.564 294.146 266.325 282.143 266.325ZM282.143 225.153C271.373 225.153 262.623 233.903 262.623 244.673C262.623 255.443 271.373 264.193 282.143 264.193C292.912 264.193 301.663 255.443 301.663 244.673C301.663 233.903 292.912 225.153 282.143 225.153Z" fill="#407BFF"/>
<path opacity="0.3" d="M325.896 279.676H325.783C325.447 279.564 325.335 279.34 325.335 279.003C325.335 278.891 328.925 263.634 325.223 248.265C325.11 247.928 325.335 247.704 325.671 247.592C326.008 247.479 326.232 247.704 326.344 248.04C330.159 263.746 326.457 279.116 326.457 279.34C326.344 279.564 326.12 279.676 325.896 279.676Z" fill="white"/>
<path opacity="0.3" d="M322.755 239.849C322.53 239.849 322.306 239.737 322.194 239.513C320.735 236.371 318.94 233.455 316.921 230.874C316.697 230.65 316.809 230.313 317.033 230.089C317.258 229.865 317.594 229.977 317.819 230.201C319.95 232.782 321.857 235.811 323.316 239.064C323.428 239.4 323.316 239.625 323.091 239.849C322.867 239.849 322.867 239.849 322.755 239.849Z" fill="white"/>
<path d="M144.381 398.255C144.269 398.255 144.157 398.255 143.933 398.255C140.791 398.143 138.436 395.562 138.436 392.533C138.548 389.392 141.016 387.036 144.157 387.036H144.269C147.523 387.036 155.263 383.11 171.642 357.42C172.54 356.073 173.998 355.064 175.569 354.839C177.139 354.615 178.822 355.064 180.056 356.186C200.137 373.686 221.564 384.68 221.677 384.793C224.481 386.251 225.491 389.617 224.145 392.309C222.686 395.114 219.321 396.123 216.628 394.777C215.731 394.328 197.108 384.793 177.588 368.862C164.126 389.28 153.917 398.255 144.381 398.255Z" fill="#263238"/>
<path d="M179.159 355.063C179.047 355.063 178.822 355.063 178.71 355.063C176.915 354.839 175.569 353.044 175.905 351.249C176.691 345.64 175.681 324.773 168.613 308.506C167.94 307.048 168.501 305.253 169.847 304.356C185.217 293.922 217.975 292.576 219.321 292.576C221.116 292.576 222.686 293.922 222.799 295.83C222.911 297.737 221.452 299.195 219.545 299.307C219.209 299.307 190.602 300.429 175.905 308.506C182.188 324.661 183.534 344.854 182.524 352.146C182.188 353.941 180.729 355.063 179.159 355.063Z" fill="#263238"/>
<path d="M184.766 350.799C182.522 345.526 172.426 346.087 166.48 350.687C163.339 353.155 159.076 360.335 158.627 363.027C158.178 365.72 159.973 368.076 163.114 367.739C166.928 367.402 172.313 361.793 172.313 361.793C168.836 365.271 173.323 367.739 180.166 362.691C183.868 359.886 187.234 356.633 184.766 350.799Z" fill="#407BFF"/>
<path d="M377.725 281.808H377.613C377.276 281.696 377.164 281.359 377.276 281.135C378.735 275.974 380.418 272.721 382.549 270.926C382.213 269.804 382.213 268.57 382.774 267.224C383.222 265.99 384.12 264.756 385.466 263.858C384.793 263.185 384.568 262.288 384.793 261.166C385.017 260.044 385.915 258.698 387.149 257.576C386.588 257.015 386.476 256.342 386.476 255.893C386.476 252.528 392.646 247.479 399.713 246.47C400.05 246.357 400.274 246.694 400.386 246.918C400.386 247.255 400.162 247.479 399.938 247.591C393.319 248.489 387.71 253.313 387.71 255.893C387.71 256.342 387.822 256.678 388.158 256.903C390.739 255.108 394.441 253.986 398.592 254.771C402.069 255.444 403.415 256.117 403.303 257.239C402.967 259.259 395.675 259.595 390.739 259.034C389.617 258.922 388.831 258.585 388.158 258.361C386.924 259.371 386.139 260.493 385.915 261.39C385.69 262.175 386.027 262.849 386.476 263.185C388.607 262.063 391.524 261.614 395.338 262.512C400.386 263.634 400.611 264.307 400.723 264.643C400.835 264.868 400.723 265.204 400.499 265.429C399.377 266.551 391.636 265.99 387.71 265.092C387.149 264.98 386.7 264.756 386.363 264.531C385.017 265.317 384.232 266.438 383.783 267.56C383.447 268.458 383.334 269.355 383.559 270.141C383.783 270.028 384.008 269.916 384.232 269.804C386.588 268.682 389.392 268.906 392.87 270.365C395.114 271.375 396.236 272.272 396.348 273.057C396.348 273.282 396.348 273.843 395.675 274.179C393.992 275.301 387.934 275.189 384.905 273.506C384.12 273.17 383.559 272.496 383.222 271.823C381.427 273.506 379.857 276.535 378.51 281.247C378.174 281.696 377.95 281.808 377.725 281.808ZM383.783 271.375C384.12 271.935 384.568 272.384 385.129 272.721C387.71 274.067 392.646 274.404 394.553 273.618C394.889 273.506 395.002 273.282 395.002 273.282C395.002 273.282 394.889 272.609 392.197 271.487C389.056 270.141 386.588 269.916 384.568 270.926C384.344 271.038 384.008 271.15 383.783 271.375ZM387.597 263.97C387.71 263.97 387.822 263.97 387.934 264.083C391.86 265.092 397.245 265.204 399.04 264.868C398.479 264.643 397.358 264.195 395.002 263.746C391.748 263.073 389.392 263.297 387.597 263.97ZM388.944 257.688C389.505 257.912 390.066 258.025 390.514 258.025C396.123 258.698 401.06 257.912 401.733 257.239C401.508 257.015 400.835 256.566 398.031 256.005C394.441 255.332 391.187 256.23 388.944 257.688Z" fill="#263238"/>
<path d="M231.659 396.348C232.445 396.124 232.108 395.451 231.323 395.451H216.178C187.234 392.422 167.041 396.46 179.83 397.47C192.619 398.48 178.933 398.255 169.621 401.733C160.31 405.211 238.839 406.108 245.907 401.733C252.414 397.582 221.451 399.602 231.659 396.348Z" fill="#263238"/>
<path d="M340.479 400.836L208.325 396.461L202.828 268.346L358.877 271.823L340.479 400.836Z" fill="#407BFF"/>
<path d="M249.61 398.366C249.274 398.366 249.049 398.142 249.049 397.805L238.504 269.129C238.504 268.793 238.728 268.568 239.065 268.568C239.401 268.568 239.626 268.793 239.626 269.129L250.171 397.805C250.171 398.029 249.947 398.366 249.61 398.366Z" fill="#263238"/>
<path d="M340.48 400.835L375.931 395.45L387.149 276.31L358.879 271.822L340.48 400.835Z" fill="#407BFF"/>
<path opacity="0.2" d="M340.48 400.835L375.931 395.45L387.149 276.31L358.879 271.822L340.48 400.835Z" fill="black"/>
<path d="M219.543 371.779L216.29 295.605C215.953 287.64 222.348 281.133 230.313 281.246L329.148 283.489C337.449 283.714 343.62 291.006 342.498 299.195L331.504 375.929C330.494 382.885 324.436 387.933 317.368 387.709L232.781 384.904C225.714 384.68 219.88 378.958 219.543 371.779Z" fill="#263238"/>
<path d="M230.202 304.582L245.459 305.031L245.346 308.957L235.811 308.621L235.699 311.537L244.561 311.874L244.449 315.688L235.586 315.352L235.474 318.942L245.346 319.278L245.234 323.429L229.641 322.98L230.202 304.582Z" fill="white"/>
<path d="M248.375 323.653L248.936 305.143L258.472 305.479C260.267 305.479 261.613 305.703 262.51 306.04C263.408 306.377 264.193 306.938 264.754 307.835C265.315 308.62 265.539 309.63 265.539 310.864C265.539 311.874 265.315 312.771 264.754 313.444C264.305 314.117 263.632 314.79 262.847 315.239C262.398 315.464 261.725 315.688 260.828 315.912C261.501 316.137 261.949 316.361 262.286 316.585C262.51 316.698 262.735 317.034 263.183 317.595C263.52 318.156 263.856 318.493 263.969 318.717L266.549 324.102L260.154 323.877L257.238 318.156C256.901 317.371 256.564 316.922 256.228 316.698C255.779 316.361 255.33 316.249 254.882 316.249H254.433L254.209 323.765L248.375 323.653ZM254.433 312.883L256.789 312.996C257.013 312.996 257.574 312.883 258.359 312.771C258.696 312.659 259.033 312.547 259.257 312.21C259.481 311.874 259.593 311.537 259.706 311.201C259.706 310.64 259.593 310.191 259.145 309.854C258.808 309.518 258.023 309.293 257.013 309.293L254.545 309.181L254.433 312.883Z" fill="white"/>
<path d="M268.457 324.327L269.018 305.816L278.554 306.153C280.349 306.265 281.695 306.377 282.592 306.714C283.49 307.05 284.275 307.611 284.836 308.509C285.397 309.294 285.621 310.304 285.621 311.538C285.621 312.547 285.397 313.445 284.836 314.118C284.387 314.791 283.714 315.464 282.929 315.913C282.48 316.137 281.807 316.362 280.91 316.586C281.583 316.811 282.031 317.035 282.368 317.259C282.592 317.371 282.817 317.708 283.265 318.269C283.602 318.83 283.939 319.166 284.051 319.391L286.631 324.776L280.236 324.551L277.32 318.83C276.983 318.045 276.647 317.596 276.31 317.371C275.861 317.035 275.412 316.923 274.964 316.923H274.515L274.291 324.439L268.457 324.327ZM274.515 313.557L276.871 313.669C277.095 313.669 277.656 313.557 278.441 313.445C278.778 313.333 279.115 313.221 279.339 312.884C279.563 312.547 279.675 312.211 279.788 311.874C279.788 311.313 279.675 310.865 279.227 310.528C278.89 310.192 278.105 309.967 277.095 309.967L274.627 309.855L274.515 313.557Z" fill="white"/>
<path d="M287.527 315.69C287.64 312.661 288.537 310.305 290.22 308.735C291.903 307.164 294.371 306.379 297.287 306.491C300.316 306.603 302.672 307.501 304.355 309.183C305.926 310.866 306.711 313.222 306.599 316.139C306.487 318.27 306.15 320.065 305.365 321.412C304.579 322.758 303.458 323.767 302.111 324.553C300.765 325.226 298.97 325.562 296.951 325.562C294.819 325.45 293.137 325.114 291.79 324.441C290.444 323.767 289.322 322.646 288.537 321.187C287.864 319.617 287.527 317.822 287.527 315.69ZM293.249 315.915C293.137 317.822 293.473 319.168 294.146 319.953C294.819 320.738 295.717 321.187 296.951 321.299C298.185 321.299 299.082 320.963 299.868 320.178C300.541 319.392 300.99 317.934 300.99 315.915C300.99 314.232 300.765 312.886 300.092 312.1C299.419 311.315 298.521 310.866 297.287 310.754C296.166 310.754 295.156 311.091 294.483 311.876C293.698 312.661 293.361 314.007 293.249 315.915Z" fill="white"/>
<path d="M309.516 325.673L310.077 307.162L319.612 307.499C321.407 307.611 322.753 307.723 323.651 308.06C324.548 308.396 325.334 308.957 325.895 309.855C326.456 310.64 326.68 311.65 326.68 312.884C326.68 313.893 326.456 314.791 325.895 315.464C325.446 316.137 324.773 316.81 323.987 317.259C323.539 317.483 322.866 317.707 321.968 317.932C322.641 318.156 323.09 318.381 323.427 318.605C323.651 318.717 323.875 319.054 324.324 319.615C324.661 320.176 324.997 320.512 325.109 320.736L327.69 326.121L321.295 325.897L318.378 320.176C318.042 319.39 317.705 318.942 317.369 318.717C316.92 318.381 316.471 318.268 316.022 318.268H315.574L315.349 325.785L309.516 325.673ZM315.574 314.791L317.929 314.903C318.154 314.903 318.715 314.791 319.5 314.678C319.837 314.566 320.173 314.454 320.398 314.118C320.622 313.781 320.734 313.444 320.846 313.108C320.846 312.547 320.734 312.098 320.285 311.762C319.949 311.425 319.164 311.201 318.154 311.201L315.686 311.089L315.574 314.791Z" fill="white"/>
<path d="M318.604 356.97C318.155 356.97 317.819 356.858 317.482 356.522L307.834 345.976L297.513 355.4C296.952 355.961 295.943 355.961 295.382 355.288L285.734 344.742L275.413 354.166C274.852 354.727 273.842 354.727 273.281 354.054L263.633 343.508L253.312 352.932C252.976 353.156 252.639 353.381 252.303 353.268C251.966 353.268 251.518 353.044 251.293 352.82L241.645 342.274L231.324 351.698C230.763 352.259 229.754 352.259 229.193 351.586C228.632 351.025 228.632 350.015 229.305 349.454L240.748 339.021C241.309 338.46 242.318 338.46 242.879 339.133L252.527 349.678L262.848 340.255C263.185 340.031 263.521 339.806 263.858 339.918C264.194 339.918 264.643 340.143 264.868 340.367L274.515 350.912L284.836 341.489C285.397 340.928 286.407 340.928 286.968 341.601L296.616 352.147L306.937 342.723C307.498 342.162 308.507 342.162 309.068 342.835L319.726 354.502C320.287 355.063 320.287 356.073 319.614 356.634C319.277 356.858 318.94 356.97 318.604 356.97Z" fill="white"/>
<path d="M141.127 403.527L134.06 400.162L127.777 369.76L131.143 365.945L141.127 403.527Z" fill="#407BFF"/>
<path d="M141.127 403.527L150.438 398.142L142.361 373.013L131.143 365.945L141.127 403.527Z" fill="#407BFF"/>
<path opacity="0.2" d="M141.127 403.527L150.438 398.142L142.361 373.013L131.143 365.945L141.127 403.527Z" fill="black"/>
<path d="M293.81 409.138C293.585 409.138 293.249 409.138 293.024 409.138C289.883 409.026 287.527 406.445 287.527 403.416C287.64 400.275 290.22 397.919 293.249 397.919C301.887 398.256 320.173 392.871 330.606 382.774C331.279 382.101 332.065 381.652 332.85 381.428C350.575 376.155 357.194 386.813 357.418 387.262L347.771 392.983C347.771 392.983 347.771 393.095 347.883 393.207C347.771 393.095 345.302 389.842 337.225 391.861C324.436 403.753 304.243 409.138 293.81 409.138Z" fill="#263238"/>
<path d="M293.249 416.541L272.831 415.307L271.148 377.613L298.634 378.623L293.249 416.541Z" fill="#407BFF"/>
<path d="M293.248 416.541L298.072 411.83L300.989 388.271L298.633 378.623L293.248 416.541Z" fill="#407BFF"/>
<path opacity="0.2" d="M293.248 416.541L298.072 411.83L300.989 388.271L298.633 378.623L293.248 416.541Z" fill="black"/>
<path d="M411.605 402.291C410.932 402.291 410.146 402.067 409.585 401.618C397.918 392.756 382.212 377.05 376.154 361.793C376.042 361.568 376.042 361.344 375.93 361.12C373.013 343.619 370.209 306.71 370.096 305.139C369.984 303.232 371.33 301.662 373.238 301.549C375.033 301.437 376.715 302.784 376.827 304.691C376.827 305.027 379.744 342.385 382.549 359.773C388.607 374.582 404.986 389.727 413.736 396.346C415.195 397.467 415.531 399.599 414.409 401.057C413.624 401.843 412.614 402.291 411.605 402.291Z" fill="#263238"/>
<path d="M427.198 403.975C424.618 403.975 421.701 402.741 418.448 400.497C416.989 399.375 416.653 397.356 417.662 395.786C418.784 394.327 420.804 393.991 422.374 395C425.179 397.02 426.637 397.244 427.198 397.244C429.105 397.244 430.564 398.702 430.564 400.61C430.564 402.517 428.993 403.975 427.198 403.975Z" fill="#263238"/>
<path d="M419.345 400.388C422.935 389.731 437.743 391.75 442.791 393.433C447.84 395.003 452.439 397.023 455.244 398.818C458.048 400.612 458.048 403.641 454.346 405.324C449.859 407.456 438.416 405.549 438.416 405.549C444.25 408.129 438.416 412.28 428.095 408.241C424.73 406.895 418.111 404.315 419.345 400.388Z" fill="#407BFF"/>
<path d="M383.559 309.742C382.213 318.829 374.696 325.56 368.526 324.663C362.356 323.765 362.132 315.688 363.478 306.601C364.824 297.514 367.18 290.895 373.35 291.792C379.52 292.578 384.905 300.655 383.559 309.742Z" fill="#263238"/>
<path d="M235.474 273.393C235.969 273.393 236.371 272.991 236.371 272.495C236.371 271.999 235.969 271.598 235.474 271.598C234.978 271.598 234.576 271.999 234.576 272.495C234.576 272.991 234.978 273.393 235.474 273.393Z" fill="#263238"/>
<path d="M244.787 279.116C244.787 279.677 244.338 280.014 243.89 280.014C243.441 280.014 242.992 279.565 242.992 279.116C242.992 278.555 243.441 278.219 243.89 278.219C244.338 278.219 244.787 278.667 244.787 279.116Z" fill="#263238"/>
<path d="M245.795 387.821C245.795 388.382 245.346 388.719 244.897 388.719C244.337 388.719 244 388.27 244 387.821C244 387.26 244.449 386.924 244.897 386.924C245.458 386.924 245.795 387.373 245.795 387.821Z" fill="#263238"/>
<path d="M254.209 394.44C254.209 395.001 253.76 395.338 253.312 395.338C252.751 395.338 252.414 394.889 252.414 394.44C252.414 393.88 252.863 393.543 253.312 393.543C253.872 393.543 254.209 393.992 254.209 394.44Z" fill="#263238"/>
<path d="M92.552 405.548C89.8596 405.548 86.2697 403.978 84.3625 401.173C84.1382 400.949 84.2504 400.612 84.4747 400.388C84.6991 400.163 85.0356 400.276 85.26 400.5C87.3915 403.529 91.9911 405.1 94.0104 404.202C94.2348 404.09 94.347 403.978 94.5713 403.866C92.7764 402.968 91.0936 401.397 90.6449 398.817C90.4205 397.359 90.1961 395.452 91.318 395.227C92.8886 394.891 95.0201 398.705 95.8054 401.734C95.9176 402.295 96.0297 402.744 95.9176 403.192C96.5907 403.417 97.376 403.417 97.9369 403.305C98.3856 403.192 99.0587 403.08 99.5075 402.519C98.1612 401.622 97.2638 399.939 96.9272 397.808C96.4785 394.779 96.815 394.218 97.1516 393.993C97.376 393.769 97.6003 393.769 97.9369 393.881C99.1709 394.442 100.629 398.705 100.854 401.173C100.854 401.397 100.854 401.734 100.854 401.958C101.302 402.183 101.863 402.295 102.312 402.295C103.322 402.295 104.219 402.071 105.005 401.622C104.892 401.51 104.668 401.397 104.556 401.285C103.434 400.276 102.873 398.705 103.097 396.461C103.21 394.666 103.658 393.769 104.331 393.432C104.556 393.32 105.117 393.208 105.678 393.657C106.912 394.666 108.033 397.695 107.585 399.939C107.473 400.388 107.248 400.837 107.024 401.285C109.043 401.622 111.96 401.061 114.428 400.5C114.765 400.388 114.989 400.612 115.101 400.949C115.213 401.285 114.989 401.51 114.652 401.622C111.623 402.407 108.37 402.968 106.014 402.295C105.005 403.08 103.546 403.641 102.088 403.641C101.415 403.641 100.854 403.529 100.293 403.305C99.844 404.09 99.0587 404.539 97.9369 404.763C97.1516 404.875 96.3663 404.763 95.4688 404.539C95.2444 404.987 94.7957 405.324 94.347 405.548C93.8982 405.436 93.3373 405.548 92.552 405.548ZM91.5424 396.237C91.4302 396.461 91.318 397.022 91.6545 398.481C91.9911 400.5 93.3373 401.958 94.7957 402.632C94.7957 402.407 94.7957 402.183 94.6835 401.846C93.8982 398.705 92.2155 396.461 91.5424 396.237ZM97.8247 395.227C97.8247 395.676 97.8247 396.349 98.0491 397.583C98.2734 399.154 98.8344 400.388 99.7318 401.173C99.5075 398.929 98.4978 396.349 97.8247 395.227ZM104.892 394.218C104.892 394.218 104.444 394.442 104.331 396.349C104.219 398.256 104.556 399.49 105.341 400.276C105.565 400.5 105.79 400.612 106.014 400.724C106.351 400.388 106.575 399.939 106.575 399.603C106.912 398.032 106.126 395.564 105.229 394.666C105.117 394.33 104.892 394.218 104.892 394.218Z" fill="#263238"/>
<path d="M256.79 413.961L259.819 408.689L256.79 403.416H253.537L255.332 408.689L253.537 413.961H256.79Z" fill="#263238"/>
<path d="M253.761 411.495C252.302 411.495 251.068 410.261 251.068 408.69C251.068 407.232 252.302 405.998 253.761 405.998L248.6 404.988L247.254 409.139L249.61 412.617L253.761 411.495Z" fill="#263238"/>
<path d="M254.21 403.416H248.152L245.123 408.689L248.152 413.961H254.21L257.239 408.689L254.21 403.416ZM251.069 411.493C249.61 411.493 248.376 410.259 248.376 408.689C248.376 407.23 249.61 405.996 251.069 405.996C252.639 405.996 253.761 407.23 253.761 408.689C253.873 410.259 252.639 411.493 251.069 411.493Z" fill="#407BFF"/>
<path d="M468.82 403.081L466.576 399.155L468.82 395.229H471.176L469.83 399.155L471.176 403.081H468.82Z" fill="#407BFF"/>
<path d="M471.064 401.176C472.186 401.176 473.084 400.278 473.084 399.156C473.084 398.034 472.186 397.137 471.064 397.137L474.879 396.352L475.888 399.493L474.206 402.073L471.064 401.176Z" fill="#407BFF"/>
<path d="M470.728 395.229H475.215L477.459 399.155L475.215 403.081H470.728L468.484 399.155L470.728 395.229ZM472.972 401.174C474.094 401.174 474.991 400.277 474.991 399.155C474.991 398.033 474.094 397.136 472.972 397.136C471.85 397.136 470.952 398.033 470.952 399.155C470.952 400.277 471.85 401.174 472.972 401.174Z" fill="#263238"/>
<path d="M384.682 408.241H389.73C391.077 408.241 392.086 407.119 392.086 405.885C392.086 404.539 390.964 403.529 389.73 403.529H384.682C383.336 403.529 382.326 404.651 382.326 405.885C382.326 407.231 383.448 408.241 384.682 408.241Z" fill="#263238"/>
<path d="M376.605 403.755C377.839 401.063 380.868 399.941 383.336 401.063C385.804 402.185 386.814 405.326 385.58 408.018C384.346 410.711 381.317 411.832 378.848 410.711C376.38 409.477 375.371 406.448 376.605 403.755Z" fill="#407BFF"/>
<path d="M378.019 410.602L379.439 411.271L384.272 401.023L382.851 400.353L378.019 410.602Z" fill="#263238"/>
</svg>
