<svg width="84" height="84" viewBox="0 0 84 84" fill="none" xmlns="http://www.w3.org/2000/svg">
<path d="M4.98407 11.3906C2.62493 11.3906 0.712891 13.3027 0.712891 15.6618V59.7975H83.2893V15.6618C83.2893 13.3027 81.3772 11.3906 79.0181 11.3906H4.98407Z" fill="#4398D1"/>
<path d="M79.0192 11.3906H66.2057L17.7988 59.7973H83.2904V15.6618C83.2904 13.3027 81.3783 11.3906 79.0192 11.3906Z" fill="#3E8CC7"/>
<path d="M13.527 0H70.4763C72.8354 0 74.7475 1.91204 74.7475 4.27117V49.8305C74.7475 52.1896 72.8354 54.1016 70.4763 54.1016H13.527C11.1679 54.1016 9.25586 52.1896 9.25586 49.8305V4.27117C9.25586 1.91204 11.1679 0 13.527 0Z" fill="#87CED9"/>
<path d="M70.4745 0H66.9152L12.8789 54.0362C13.0925 54.0747 13.3089 54.096 13.5252 54.1016H70.4744C72.8335 54.1016 74.7455 52.1896 74.7455 49.8305V4.27117C74.7457 1.91204 72.8336 0 70.4745 0Z" fill="#71C4D1"/>
<path d="M52.9635 81.1534L49.1195 68.3398H34.8822L31.0382 81.1534H26.3398V84.0008H57.6618V81.1534H52.9635Z" fill="#DADDDF"/>
<path d="M0.712891 59.7969V64.068C0.712891 66.4271 2.62493 68.3392 4.98406 68.3392H79.0179C81.3771 68.3392 83.2891 66.4271 83.2891 64.068V59.7969H0.712891Z" fill="#DADDDF"/>
<path d="M42.0016 17.0859C39.6425 17.0859 37.7305 18.998 37.7305 21.3571V25.6283H46.2728V21.3571C46.2728 18.9981 44.3606 17.0859 42.0016 17.0859Z" fill="#3269A1"/>
<path d="M70.4765 9.96484H13.5273V12.8122H70.4765V9.96484Z" fill="#5EB3D1"/>
<path d="M22.0697 17.0859H13.5273V19.9334H22.0697V17.0859Z" fill="#5EB3D1"/>
<path d="M22.0697 24.2031H13.5273V27.0505H22.0697V24.2031Z" fill="#5EB3D1"/>
<path d="M20.6459 45.5586H13.5273V48.406H20.6459V45.5586Z" fill="#5EB3D1"/>
<path d="M16.3747 4.26953H13.5273V7.11694H16.3747V4.26953Z" fill="#5EB3D1"/>
<path d="M22.0681 4.26953H19.2207V7.11694H22.0681V4.26953Z" fill="#5EB3D1"/>
<path d="M27.7635 4.26953H24.916V7.11694H27.7635V4.26953Z" fill="#5EB3D1"/>
<path d="M33.4687 29.8991H27.7638C27.0861 29.9005 26.5023 29.4236 26.3671 28.7602L24.9434 21.6415L27.7367 21.082L28.9325 27.0617H33.4642L33.4687 29.8991Z" fill="#3269A1"/>
<path d="M26.2444 47.522L23.5977 46.4627L26.4451 39.344C26.6586 38.8015 27.1812 38.4428 27.7649 38.4414H32.036V41.2888H28.7344L26.2444 47.522Z" fill="#3269A1"/>
<path d="M21.6533 39.448L19.6387 37.4405L23.9098 33.1693C24.1747 32.8989 24.5378 32.745 24.9165 32.7422H33.4588V35.5896H25.5101L21.6533 39.448Z" fill="#3269A1"/>
<path d="M56.2633 29.9012H50.5684V27.0538H55.0986L56.2945 21.0742L59.085 21.6295L57.6612 28.7481C57.5318 29.4172 56.9453 29.9012 56.2633 29.9012Z" fill="#3269A1"/>
<path d="M57.7628 47.5133L55.2741 41.2888H51.9668V38.4414H56.238C56.8202 38.4414 57.3442 38.7945 57.5606 39.3355L60.408 46.454L57.7628 47.5133Z" fill="#3269A1"/>
<path d="M62.3499 39.4475L58.4959 35.5935H50.543V32.7461H59.0853C59.4626 32.7461 59.8257 32.8956 60.0919 33.1633L64.3631 37.4344L62.3499 39.4475Z" fill="#3269A1"/>
<path d="M17.7985 31.3203H13.5273V34.1677H17.7985V31.3203Z" fill="#5EB3D1"/>
<path d="M16.3747 38.4414H13.5273V41.2888H16.3747V38.4414Z" fill="#5EB3D1"/>
<path d="M70.476 17.0859H61.9336V19.9334H70.476V17.0859Z" fill="#5EB3D1"/>
<path d="M70.476 24.2031H61.9336V27.0505H70.476V24.2031Z" fill="#5EB3D1"/>
<path d="M70.4759 45.5586H63.3574V48.406H70.4759V45.5586Z" fill="#5EB3D1"/>
<path d="M70.4762 31.3203H66.2051V34.1677H70.4762V31.3203Z" fill="#5EB3D1"/>
<path d="M70.4762 38.4414H67.6289V41.2888H70.4762V38.4414Z" fill="#5EB3D1"/>
<path d="M42.0012 48.4044C48.2917 48.4044 53.3911 42.6676 53.3911 35.5909C53.3911 28.5141 48.2917 22.7773 42.0012 22.7773C35.7108 22.7773 30.6113 28.5141 30.6113 35.5909C30.6113 42.6676 35.7108 48.4044 42.0012 48.4044Z" fill="#E34B87"/>
<path d="M49.7656 26.2383C50.2795 27.8229 50.5414 29.4801 50.5428 31.1458C50.5428 39.1073 44.8066 45.5611 37.7294 45.5611C36.5705 45.5554 35.4173 45.3761 34.3125 45.0258C36.3057 47.1556 39.0834 48.3786 42.0007 48.4085C48.2906 48.4085 53.3905 42.6723 53.3905 35.595C53.4245 32.1268 52.1261 28.7783 49.7656 26.2383Z" fill="#D94881"/>
<path d="M33.5284 27.0508C32.8366 27.9221 32.2585 28.8803 31.8086 29.8982H40.5773V48.2957C41.5212 48.4437 42.4808 48.4437 43.4247 48.2957V29.8983H52.1934C51.7435 28.8803 51.1655 27.9222 50.4736 27.0509H33.5284V27.0508Z" fill="#BF3D75"/>
<path d="M50.4017 72.611L49.1202 68.3398H34.8829L33.6016 72.611H50.4017Z" fill="#C1C7C9"/>
</svg>
