<svg width="84" height="84" viewBox="0 0 84 84" fill="none" xmlns="http://www.w3.org/2000/svg">
<g clip-path="url(#clip0)">
<path d="M66.4998 42.1604C64.5644 42.1604 63 43.7286 63 45.6602V73.6604C63 75.5887 61.4318 77.1602 59.5002 77.1602H10.5C8.56778 77.1602 7.00021 75.5887 7.00021 73.6604V24.6602C7.00021 22.7318 8.56778 21.1604 10.5 21.1604H38.5002C40.4356 21.1604 42 19.5922 42 17.6606C42 15.7284 40.4356 14.1602 38.5002 14.1602H10.5C4.71103 14.1602 0 18.8712 0 24.6602V73.6604C0 79.4493 4.71103 84.1604 10.5 84.1604H59.5002C65.2892 84.1604 70.0002 79.4493 70.0002 73.6604V45.6602C70.0002 43.7247 68.4352 42.1604 66.4998 42.1604Z" fill="#B1A7E4"/>
<path d="M32.816 38.9732C32.5711 39.218 32.4064 39.5295 32.3366 39.8653L29.8622 52.2418C29.7468 52.8153 29.9288 53.4069 30.3416 53.8234C30.6742 54.156 31.1221 54.3342 31.581 54.3342C31.6925 54.3342 31.8085 54.3239 31.9239 54.2996L44.2965 51.8252C44.6394 51.7547 44.9508 51.5906 45.1924 51.3452L72.8844 23.6532L60.5118 11.2812L32.816 38.9732Z" fill="#B1A7E4"/>
<path d="M81.437 2.72353C78.025 -0.689095 72.4738 -0.689095 69.0644 2.72353L64.2207 7.56722L76.5933 19.9398L81.437 15.0955C83.0892 13.4472 83.9992 11.249 83.9992 8.91113C83.9992 6.57323 83.0892 4.37505 81.437 2.72353Z" fill="#B1A7E4"/>
</g>
<defs>
<clipPath id="clip0">
<rect width="84" height="84" fill="white"/>
</clipPath>
</defs>
</svg>
