<svg width="32" height="32" viewBox="0 0 32 32" fill="none" xmlns="http://www.w3.org/2000/svg">
<path d="M24.1879 12.3613C23.2271 12.3613 22.4453 13.1431 22.4453 14.104C22.4453 15.0648 23.227 15.8466 24.1879 15.8466C25.1489 15.8466 25.9306 15.0648 25.9306 14.104C25.9306 13.1431 25.1489 12.3613 24.1879 12.3613ZM24.1879 14.9091C23.744 14.9091 23.3829 14.548 23.3829 14.104C23.3829 13.66 23.744 13.2988 24.1879 13.2988C24.6319 13.2988 24.993 13.66 24.993 14.104C24.993 14.548 24.6319 14.9091 24.1879 14.9091Z" fill="black"/>
<path d="M20.8051 15.7441C19.8442 15.7441 19.0625 16.5259 19.0625 17.4868C19.0625 18.4476 19.8442 19.2294 20.8051 19.2294C21.7661 19.2294 22.5478 18.4476 22.5478 17.4868C22.5478 16.5258 21.7661 15.7441 20.8051 15.7441ZM20.8051 18.2918C20.3612 18.2918 20.0001 17.9307 20.0001 17.4867C20.0001 17.0428 20.3612 16.6816 20.8051 16.6816C21.2491 16.6816 21.6102 17.0427 21.6102 17.4867C21.6103 17.9307 21.2491 18.2918 20.8051 18.2918Z" fill="black"/>
<path d="M24.1879 19.125C23.2271 19.125 22.4453 19.9068 22.4453 20.8676C22.4453 21.8285 23.227 22.6103 24.1879 22.6103C25.1489 22.6103 25.9306 21.8285 25.9306 20.8676C25.9306 19.9068 25.1489 19.125 24.1879 19.125ZM24.1879 21.6728C23.744 21.6728 23.3829 21.3116 23.3829 20.8676C23.3829 20.4237 23.744 20.0625 24.1879 20.0625C24.6319 20.0625 24.993 20.4236 24.993 20.8676C24.993 21.3116 24.6319 21.6728 24.1879 21.6728Z" fill="black"/>
<path d="M13.377 20.6484C13.377 20.9073 13.5868 21.1172 13.8457 21.1172H14.7971C15.056 21.1172 15.2658 20.9073 15.2658 20.6484C15.2658 20.3896 15.056 20.1797 14.7971 20.1797H13.8457C13.5868 20.1797 13.377 20.3896 13.377 20.6484Z" fill="black"/>
<path d="M16.7383 20.6484C16.7383 20.9073 16.9482 21.1172 17.207 21.1172H18.1567C18.4157 21.1172 18.6255 20.9073 18.6255 20.6484C18.6255 20.3896 18.4156 20.1797 18.1567 20.1797H17.2071C16.9482 20.1797 16.7383 20.3896 16.7383 20.6484Z" fill="black"/>
<path d="M17.2679 14.8945H14.7344C14.4755 14.8945 14.2656 15.1044 14.2656 15.3633C14.2656 15.6222 14.4755 15.832 14.7344 15.832H17.2679C17.5268 15.832 17.7366 15.6222 17.7366 15.3633C17.7367 15.1044 17.5268 14.8945 17.2679 14.8945Z" fill="black"/>
<path d="M12.939 17.4862C12.939 14.6603 10.6401 12.3613 7.81434 12.3613C4.98953 12.3613 2.69141 14.6603 2.69141 17.4862C2.69141 20.3121 4.98953 22.611 7.81434 22.611C10.6401 22.611 12.939 20.312 12.939 17.4862ZM3.62891 17.4862C3.62891 15.1773 5.50647 13.2989 7.81434 13.2989C10.1232 13.2989 12.0015 15.1773 12.0015 17.4862C12.0015 19.7951 10.1232 21.6735 7.81434 21.6735C5.50647 21.6735 3.62891 19.7951 3.62891 17.4862Z" fill="black"/>
<path d="M10.4863 17.4853C10.4863 16.0115 9.28727 14.8125 7.81358 14.8125C6.34077 14.8125 5.14258 16.0115 5.14258 17.4853C5.14258 18.9591 6.34077 20.1581 7.81358 20.1581C9.28727 20.1581 10.4863 18.9591 10.4863 17.4853ZM6.08008 17.4853C6.08008 16.5284 6.85771 15.7501 7.81352 15.7501C8.77033 15.7501 9.54871 16.5285 9.54871 17.4853C9.54871 18.4421 8.77033 19.2206 7.81352 19.2206C6.85771 19.2206 6.08008 18.4421 6.08008 17.4853Z" fill="black"/>
<path d="M31.0632 21.9141C30.8043 21.9141 30.5945 22.1239 30.5945 22.3828V27.4606C30.5945 29.5145 29.0081 30.6184 27.6496 30.9396C26.0726 31.3123 24.0736 30.8747 23.1626 29.0561L21.0234 24.816C20.47 23.8415 20.1923 23.3524 19.6927 23.0637C19.1941 22.7755 18.6284 22.7763 17.5 22.7783H14.501C13.3727 22.7765 12.8066 22.7755 12.3078 23.0642C11.8083 23.3535 11.5304 23.8436 10.9768 24.8198L8.83833 29.056C7.92733 30.8746 5.92895 31.3126 4.35245 30.9396C2.99427 30.6185 1.4082 29.5146 1.4082 27.4606V22.3828C1.4082 22.1239 1.19833 21.9141 0.939453 21.9141C0.680578 21.9141 0.470703 22.1239 0.470703 22.3828V27.4606C0.470703 29.6017 1.9097 31.3254 4.1367 31.852C6.07239 32.3097 8.53614 31.7525 9.67652 29.4759L11.7923 25.2822C12.2475 24.4795 12.4983 24.0373 12.7776 23.8756C13.0578 23.7134 13.5698 23.7144 14.4995 23.7158H17.5016C18.4308 23.7142 18.9435 23.7134 19.2236 23.8753C19.5028 24.0367 19.7534 24.4779 20.2081 25.2789L22.3243 29.4758C23.2251 31.2741 24.9514 31.9996 26.5915 31.9996C27.0278 31.9996 27.4583 31.9481 27.8653 31.8519C30.0926 31.3252 31.5319 29.6016 31.5319 27.4606V22.3828C31.532 22.1239 31.3221 21.9141 31.0632 21.9141Z" fill="black"/>
<path d="M30.5522 13.8293C29.8985 12.6943 28.9626 11.7741 27.8633 11.1375L27.7118 10.3913C27.4236 8.96725 26.5069 8.08263 25.3195 8.08263H23.0553C21.8678 8.08263 20.9511 8.96731 20.6629 10.3919L20.5135 11.1348C19.9259 11.4744 19.3834 11.8959 18.9051 12.3914H17.7378V11.6944C17.7378 10.9876 17.1713 10.412 16.4693 10.3962V8.32281C16.4693 7.69425 16.9815 7.18288 17.611 7.18288H21.2677C22.4133 7.18288 23.3451 6.25012 23.3451 5.10362C23.3451 3.95806 22.4132 3.02612 21.2677 3.02612H17.611C16.9814 3.02612 16.4693 2.51394 16.4693 1.88437V0.46875C16.4693 0.209875 16.2594 0 16.0005 0C15.7416 0 15.5318 0.209875 15.5318 0.46875V1.88437C15.5318 3.03087 16.4645 3.96369 17.611 3.96369H21.2677C21.8963 3.96369 22.4076 4.47506 22.4076 5.10362C22.4076 5.73319 21.8963 6.24538 21.2677 6.24538H17.611C16.4645 6.24538 15.5318 7.17731 15.5318 8.32288V10.3964C14.8296 10.4131 14.2633 10.9883 14.2633 11.6945V12.3916H13.096C12.6181 11.8966 12.0761 11.4752 11.4892 11.1359L11.3381 10.3915C11.05 8.96744 10.1333 8.08281 8.94577 8.08281H6.6832C5.49577 8.08281 4.57908 8.9675 4.29095 10.3912L4.13952 11.1373C3.0402 11.7739 2.10439 12.6941 1.45058 13.8293C0.809516 14.8752 0.470703 16.0814 0.470703 17.3178V20.2199C0.470703 20.4788 0.680578 20.6886 0.939453 20.6886C1.19833 20.6886 1.4082 20.4788 1.4082 20.2199V17.3178C1.4082 16.2524 1.70033 15.2137 2.25302 14.3138C2.25539 14.3099 2.25777 14.306 2.26002 14.3021C3.40077 12.3172 5.52877 11.0841 7.81352 11.0841C9.60995 11.0841 11.335 11.8466 12.5465 13.1759C12.6353 13.2734 12.7611 13.3289 12.893 13.3289H19.108C19.2399 13.3289 19.3656 13.2733 19.4545 13.1759C20.6658 11.8465 22.391 11.0841 24.1874 11.0841C26.4732 11.0841 28.6019 12.3172 29.7426 14.3021C29.7448 14.3058 29.747 14.3096 29.7493 14.3132C30.3022 15.2162 30.5945 16.2552 30.5945 17.3178V20.2199C30.5945 20.4788 30.8043 20.6886 31.0632 20.6886C31.3221 20.6886 31.532 20.4788 31.532 20.2199V17.3178C31.532 16.0846 31.1932 14.8784 30.5522 13.8293ZM7.81352 10.1466C6.9072 10.1466 6.02252 10.3161 5.1987 10.6316L5.20977 10.5772C5.36214 9.82444 5.82914 9.02006 6.6832 9.02006H8.94564C9.79964 9.02006 10.2668 9.82444 10.4191 10.5775L10.4301 10.6314C9.60195 10.3149 8.7157 10.1466 7.81352 10.1466ZM16.8002 12.3914H15.2007V11.6944C15.2007 11.4947 15.3631 11.3322 15.5629 11.3322H16.4399C16.6352 11.3322 16.8003 11.498 16.8003 11.6944V12.3914H16.8002ZM24.1873 10.1466C23.2852 10.1466 22.399 10.3149 21.5709 10.6314L21.5818 10.5772C21.7341 9.82444 22.2011 9.02006 23.0552 9.02006H25.3195C26.1734 9.02006 26.6405 9.82444 26.793 10.5775L26.804 10.632C25.9797 10.3162 25.0944 10.1466 24.1873 10.1466Z" fill="black"/>
<path d="M27.5688 19.2294C28.5297 19.2294 29.3114 18.4476 29.3114 17.4868C29.3114 16.5259 28.5297 15.7441 27.5688 15.7441C26.6079 15.7441 25.8262 16.5259 25.8262 17.4868C25.8262 18.4476 26.6079 19.2294 27.5688 19.2294ZM27.5688 16.6816C28.0127 16.6816 28.3739 17.0428 28.3739 17.4868C28.3739 17.9307 28.0127 18.2919 27.5688 18.2919C27.1249 18.2919 26.7637 17.9308 26.7637 17.4868C26.7637 17.0428 27.1249 16.6816 27.5688 16.6816Z" fill="black"/>
</svg>
