<svg width="659" height="419" viewBox="0 0 659 419" fill="none" xmlns="http://www.w3.org/2000/svg">
<path d="M143.788 412.471H33.8739C33.8739 412.471 -8.66987 371.056 1.59932 310.569C14.6897 233.494 71.2267 230.673 71.2267 230.673C71.2267 230.673 70.8881 108.458 206.419 115.567C206.419 115.567 326.715 51.2439 403.452 140.507C403.452 140.507 457.506 82.1643 558.054 122.902C672.144 169.057 679.93 359.094 598.792 412.471H143.788Z" fill="url(#paint0_linear)"/>
<path d="M465.63 93.1092L473.304 96.1561V98.5259L463.373 93.8991V92.0936L473.304 87.4668V89.8366L465.63 93.1092Z" fill="#9FC1F7"/>
<path d="M479.399 96.0444C479.399 95.0288 479.512 94.3517 479.737 93.7874C479.963 93.2232 480.301 92.6589 480.979 91.9819L482.558 90.2891C483.236 89.4992 483.574 88.7093 483.574 87.8065C483.574 86.9037 483.348 86.3394 482.897 85.7752C482.446 85.3238 481.768 85.0981 480.979 85.0981C480.189 85.0981 479.512 85.3238 478.947 85.7752C478.496 86.2266 478.157 86.7908 478.157 87.5808H475.9C475.9 86.2266 476.352 85.211 477.255 84.421C478.157 83.6311 479.399 83.1797 480.866 83.1797C482.446 83.1797 483.574 83.6311 484.477 84.421C485.38 85.211 485.718 86.3394 485.718 87.8065C485.718 89.2735 485.041 90.6277 483.8 91.9819L482.446 93.336C481.881 94.0131 481.543 94.9159 481.543 96.1572H479.399V96.0444ZM479.286 99.8812C479.286 99.5427 479.399 99.2041 479.624 98.9784C479.85 98.7527 480.189 98.6399 480.64 98.6399C481.091 98.6399 481.43 98.7527 481.656 98.9784C481.881 99.2041 481.994 99.5427 481.994 99.8812C481.994 100.22 481.881 100.558 481.656 100.784C481.43 101.01 481.091 101.123 480.64 101.123C480.189 101.123 479.85 101.01 479.624 100.784C479.399 100.558 479.286 100.22 479.286 99.8812Z" fill="#9FC1F7"/>
<path d="M499.71 94.5747C499.71 96.606 499.258 98.1859 498.355 99.4272C497.453 100.669 496.211 101.233 494.631 101.233C493.051 101.233 491.81 100.781 490.907 99.7657V106.085H488.65V87.8038H490.682L490.794 89.2708C491.697 88.1424 492.939 87.5781 494.631 87.5781C496.211 87.5781 497.453 88.1424 498.355 89.3837C499.258 90.625 499.71 92.2049 499.71 94.349V94.5747ZM497.453 94.349C497.453 92.882 497.114 91.6407 496.55 90.8507C495.873 89.9479 495.083 89.6094 493.954 89.6094C492.6 89.6094 491.584 90.1736 490.907 91.415V97.7345C491.584 98.9758 492.6 99.54 493.954 99.54C495.083 99.54 495.873 99.0886 496.55 98.2987C497.227 97.5088 497.453 96.0417 497.453 94.349Z" fill="#9FC1F7"/>
<path d="M504.788 89.3848C505.804 88.1435 507.045 87.5793 508.738 87.5793C511.559 87.5793 512.913 89.1591 512.913 92.3189V101.008H510.656V92.3189C510.656 91.4161 510.431 90.6262 509.979 90.1748C509.528 89.7234 508.851 89.4977 507.948 89.4977C507.271 89.4977 506.594 89.7234 506.03 90.0619C505.465 90.4005 505.014 90.9647 504.788 91.6418V101.008H502.531V82.2754H504.788V89.3848Z" fill="#9FC1F7"/>
<path d="M527.358 94.5747C527.358 96.606 526.907 98.1859 526.004 99.4272C525.101 100.669 523.86 101.233 522.28 101.233C520.7 101.233 519.459 100.781 518.556 99.7657V106.085H516.299V87.8038H518.33L518.443 89.2708C519.346 88.1424 520.587 87.5781 522.28 87.5781C523.86 87.5781 525.101 88.1424 526.004 89.3837C526.907 90.625 527.358 92.2049 527.358 94.349V94.5747ZM525.101 94.349C525.101 92.882 524.762 91.6407 524.198 90.8507C523.521 89.9479 522.731 89.6094 521.603 89.6094C520.249 89.6094 519.233 90.1736 518.556 91.415V97.7345C519.233 98.9758 520.249 99.54 521.603 99.54C522.731 99.54 523.521 99.0886 524.198 98.2987C524.875 97.5088 525.101 96.0417 525.101 94.349Z" fill="#9FC1F7"/>
<path d="M469.58 131.139C467.775 131.139 466.308 130.574 465.179 129.333C464.051 128.092 463.486 126.625 463.486 124.593V124.142C463.486 122.788 463.712 121.659 464.276 120.644C464.728 119.628 465.518 118.838 466.42 118.274C467.323 117.71 468.339 117.371 469.354 117.371C471.047 117.371 472.401 117.935 473.304 119.064C474.207 120.192 474.771 121.772 474.771 123.916V124.819H465.856C465.856 126.173 466.308 127.189 466.985 127.979C467.662 128.769 468.677 129.22 469.806 129.22C470.596 129.22 471.273 129.107 471.837 128.769C472.401 128.43 472.853 127.979 473.304 127.527L474.658 128.543C473.417 130.349 471.724 131.139 469.58 131.139ZM469.242 119.402C468.339 119.402 467.549 119.741 466.985 120.418C466.42 121.095 465.969 121.998 465.856 123.239H472.401V123.014C472.288 121.885 472.063 120.982 471.499 120.305C470.934 119.628 470.257 119.402 469.242 119.402Z" fill="#9FC1F7"/>
<path d="M482.558 129.331C483.348 129.331 484.025 129.106 484.702 128.654C485.379 128.203 485.605 127.526 485.718 126.849H487.862C487.862 127.639 487.523 128.316 487.072 128.993C486.621 129.67 485.943 130.234 485.153 130.573C484.364 131.024 483.461 131.137 482.671 131.137C480.865 131.137 479.398 130.573 478.383 129.331C477.367 128.09 476.803 126.51 476.803 124.366V124.028C476.803 122.786 477.028 121.658 477.48 120.642C477.931 119.627 478.608 118.837 479.511 118.272C480.414 117.708 481.43 117.482 482.671 117.482C484.138 117.482 485.379 117.934 486.395 118.837C487.41 119.739 487.862 120.868 487.975 122.335H485.831C485.718 121.432 485.492 120.755 484.815 120.191C484.251 119.627 483.574 119.401 482.671 119.401C481.542 119.401 480.64 119.852 479.962 120.642C479.285 121.432 479.06 122.673 479.06 124.253V124.705C479.06 126.172 479.398 127.413 479.962 128.203C480.527 128.88 481.43 129.331 482.558 129.331Z" fill="#9FC1F7"/>
<path d="M492.601 119.289C493.616 118.048 494.858 117.484 496.55 117.484C499.372 117.484 500.726 119.063 500.726 122.223V130.912H498.469V122.223C498.469 121.32 498.243 120.53 497.792 120.079C497.34 119.628 496.663 119.402 495.76 119.402C495.083 119.402 494.406 119.628 493.842 119.966C493.278 120.305 492.826 120.869 492.601 121.546V130.912H490.344V112.18H492.601V119.289Z" fill="#9FC1F7"/>
<path d="M503.436 124.256C503.436 123.014 503.661 121.773 504.225 120.757C504.677 119.742 505.467 118.952 506.37 118.388C507.272 117.823 508.288 117.598 509.416 117.598C511.222 117.598 512.689 118.162 513.818 119.403C514.946 120.645 515.51 122.337 515.51 124.369V124.481C515.51 125.723 515.285 126.964 514.72 127.98C514.269 128.995 513.479 129.785 512.576 130.35C511.673 130.914 510.658 131.252 509.416 131.252C507.611 131.252 506.144 130.575 505.128 129.334C504.113 128.093 503.436 126.4 503.436 124.369V124.256ZM505.693 124.481C505.693 125.948 506.031 127.077 506.708 127.98C507.385 128.882 508.288 129.334 509.416 129.334C510.545 129.334 511.448 128.882 512.125 127.98C512.802 127.077 513.141 125.836 513.141 124.256C513.141 122.789 512.802 121.66 512.125 120.757C511.448 119.855 510.545 119.403 509.416 119.403C508.288 119.403 507.385 119.855 506.708 120.757C506.031 121.547 505.693 122.789 505.693 124.481Z" fill="#9FC1F7"/>
<path d="M526.117 111.955L527.358 112.858C526.568 113.874 526.23 115.002 526.23 116.243V117.936H523.973V116.469C523.973 115.679 524.198 114.776 524.537 113.986C524.988 113.196 525.553 112.519 526.117 111.955ZM529.954 111.955L531.195 112.858C530.405 113.874 530.066 115.002 530.066 116.243V117.936H527.81V116.469C527.81 115.679 528.035 114.776 528.374 113.986C528.825 113.196 529.389 112.519 529.954 111.955Z" fill="#9FC1F7"/>
<path d="M547.219 130.912H544.849V122.675H535.934V130.912H533.564V113.195H535.934V120.869H544.849V113.195H547.219V130.912Z" fill="#9FC1F7"/>
<path d="M556.473 131.139C554.667 131.139 553.2 130.574 552.072 129.333C550.943 128.092 550.379 126.625 550.379 124.593V124.142C550.379 122.788 550.605 121.659 551.169 120.644C551.62 119.628 552.41 118.838 553.313 118.274C554.216 117.71 555.231 117.371 556.247 117.371C557.94 117.371 559.294 117.935 560.197 119.064C561.099 120.192 561.664 121.772 561.664 123.916V124.819H552.749C552.749 126.173 553.2 127.189 553.877 127.979C554.554 128.769 555.57 129.22 556.698 129.22C557.488 129.22 558.165 129.107 558.73 128.769C559.294 128.43 559.745 127.979 560.197 127.527L561.551 128.543C560.422 130.349 558.73 131.139 556.473 131.139ZM556.247 119.402C555.344 119.402 554.554 119.741 553.99 120.418C553.426 121.095 552.974 121.998 552.862 123.239H559.407V123.014C559.294 121.885 559.068 120.982 558.504 120.305C557.94 119.628 557.15 119.402 556.247 119.402Z" fill="#9FC1F7"/>
<path d="M566.741 130.912H564.484V112.18H566.741V130.912Z" fill="#9FC1F7"/>
<path d="M572.724 130.912H570.467V112.18H572.724V130.912Z" fill="#9FC1F7"/>
<path d="M575.77 124.256C575.77 123.014 575.995 121.773 576.559 120.757C577.011 119.742 577.801 118.952 578.704 118.388C579.606 117.823 580.622 117.598 581.75 117.598C583.556 117.598 585.023 118.162 586.152 119.403C587.28 120.645 587.844 122.337 587.844 124.369V124.481C587.844 125.723 587.619 126.964 587.054 127.98C586.603 128.995 585.813 129.785 584.91 130.35C584.007 130.914 582.992 131.252 581.75 131.252C579.945 131.252 578.478 130.575 577.462 129.334C576.334 128.093 575.77 126.4 575.77 124.369V124.256ZM578.026 124.481C578.026 125.948 578.365 127.077 579.042 127.98C579.719 128.882 580.622 129.334 581.75 129.334C582.879 129.334 583.782 128.882 584.459 127.98C585.136 127.077 585.474 125.836 585.474 124.256C585.474 122.789 585.136 121.66 584.459 120.757C583.782 119.855 582.879 119.403 581.75 119.403C580.622 119.403 579.719 119.855 579.042 120.757C578.365 121.547 578.026 122.789 578.026 124.481Z" fill="#9FC1F7"/>
<path d="M468.226 155.289L468.564 157.659L469.016 155.515L472.514 143.102H474.432L477.818 155.515L478.269 157.659L478.608 155.289L481.316 143.214H483.686L479.398 160.932H477.254L473.642 148.067L473.417 146.713L473.191 148.067L469.354 160.932H467.21L462.922 143.214H465.292L468.226 155.289Z" fill="#9FC1F7"/>
<path d="M485.266 154.16C485.266 152.919 485.491 151.677 486.056 150.662C486.507 149.646 487.297 148.856 488.2 148.292C489.102 147.728 490.118 147.502 491.247 147.502C493.052 147.502 494.519 148.066 495.648 149.308C496.776 150.549 497.34 152.242 497.34 154.273V154.386C497.34 155.627 497.115 156.868 496.55 157.884C496.099 158.9 495.309 159.69 494.406 160.254C493.504 160.818 492.488 161.157 491.247 161.157C489.441 161.157 487.974 160.48 486.958 159.238C485.943 157.997 485.266 156.304 485.266 154.273V154.16ZM487.523 154.386C487.523 155.853 487.861 156.981 488.538 157.884C489.215 158.787 490.118 159.238 491.247 159.238C492.375 159.238 493.278 158.787 493.955 157.884C494.632 156.981 494.971 155.74 494.971 154.16C494.971 152.693 494.632 151.564 493.955 150.662C493.278 149.759 492.375 149.308 491.247 149.308C490.118 149.308 489.215 149.759 488.538 150.662C487.861 151.452 487.523 152.693 487.523 154.386Z" fill="#9FC1F7"/>
<path d="M506.368 149.645C506.029 149.532 505.691 149.532 505.239 149.532C503.772 149.532 502.757 150.209 502.193 151.451V160.817H499.936V147.614H502.08V149.081C502.87 147.952 503.885 147.275 505.239 147.275C505.691 147.275 506.029 147.388 506.255 147.501V149.645H506.368Z" fill="#9FC1F7"/>
<path d="M510.882 160.817H508.625V142.084H510.882V160.817Z" fill="#9FC1F7"/>
<path d="M513.93 154.159C513.93 152.128 514.381 150.548 515.397 149.307C516.3 148.065 517.654 147.501 519.121 147.501C520.701 147.501 521.829 148.065 522.732 149.081V142.197H524.989V160.93H522.958L522.845 159.463C521.942 160.592 520.701 161.156 519.121 161.156C517.541 161.156 516.3 160.479 515.397 159.237C514.381 157.996 513.93 156.303 513.93 154.385V154.159ZM516.187 154.385C516.187 155.852 516.525 157.093 517.089 157.883C517.654 158.673 518.556 159.124 519.685 159.124C521.152 159.124 522.168 158.447 522.845 157.206V151.225C522.168 149.984 521.152 149.42 519.685 149.42C518.556 149.42 517.767 149.871 517.089 150.661C516.525 151.451 516.187 152.692 516.187 154.385Z" fill="#9FC1F7"/>
<path d="M528.826 159.69C528.826 159.352 528.939 159.013 529.165 158.787C529.39 158.562 529.729 158.449 530.18 158.449C530.632 158.449 530.97 158.562 531.196 158.787C531.422 159.013 531.535 159.352 531.535 159.69C531.535 160.029 531.422 160.367 531.196 160.593C530.97 160.819 530.632 160.932 530.18 160.932C529.729 160.932 529.39 160.819 529.165 160.593C528.939 160.367 528.826 160.029 528.826 159.69ZM531.083 155.853H529.052L528.939 143.102H531.309L531.083 155.853Z" fill="#9FC1F7"/>
<path d="M535.257 148.066L534.016 147.164C534.806 146.148 535.144 145.02 535.144 143.778V141.973H537.401V143.553C537.401 144.342 537.175 145.132 536.837 146.035C536.385 146.938 535.934 147.615 535.257 148.066ZM539.094 148.066L537.852 147.164C538.642 146.148 538.981 145.02 538.981 143.778V141.973H541.238V143.553C541.238 144.342 541.012 145.132 540.674 146.035C540.222 146.938 539.658 147.615 539.094 148.066Z" fill="#9FC1F7"/>
<path d="M543.946 164.316L542.705 163.414C543.495 162.398 543.834 161.269 543.946 160.141V158.11H546.203V159.915C546.203 160.705 545.978 161.608 545.639 162.398C545.075 163.188 544.624 163.865 543.946 164.316ZM543.495 148.856C543.495 148.518 543.608 148.179 543.834 147.841C544.059 147.615 544.398 147.502 544.849 147.502C545.301 147.502 545.639 147.615 545.865 147.841C546.091 148.066 546.203 148.405 546.203 148.856C546.203 149.195 546.091 149.533 545.865 149.759C545.639 149.985 545.301 150.097 544.849 150.097C544.398 150.097 544.059 149.985 543.834 149.759C543.721 149.533 543.495 149.308 543.495 148.856Z" fill="#9FC1F7"/>
<path d="M466.758 185.757C466.758 184.742 466.871 184.065 467.097 183.5C467.322 182.936 467.661 182.372 468.338 181.695L469.918 180.002C470.595 179.212 470.933 178.422 470.933 177.519C470.933 176.617 470.708 176.052 470.256 175.488C469.805 175.037 469.128 174.811 468.338 174.811C467.548 174.811 466.871 175.037 466.307 175.488C465.855 175.939 465.517 176.504 465.517 177.294H463.26C463.26 175.939 463.711 174.924 464.614 174.134C465.517 173.344 466.758 172.893 468.225 172.893C469.805 172.893 470.933 173.344 471.836 174.134C472.739 174.924 473.078 176.052 473.078 177.519C473.078 178.986 472.4 180.341 471.159 181.695L469.805 183.049C469.241 183.726 468.902 184.629 468.902 185.87H466.758V185.757ZM466.645 189.594C466.645 189.256 466.758 188.917 466.984 188.691C467.209 188.466 467.548 188.353 467.999 188.353C468.451 188.353 468.789 188.466 469.015 188.691C469.241 188.917 469.354 189.256 469.354 189.594C469.354 189.933 469.241 190.271 469.015 190.497C468.789 190.723 468.451 190.835 467.999 190.835C467.548 190.835 467.209 190.723 466.984 190.497C466.758 190.271 466.645 189.933 466.645 189.594Z" fill="#9FC1F7"/>
<path d="M483.799 182.825L475.787 179.665V177.408L486.169 182.035V183.841L475.787 188.467V186.098L483.799 182.825Z" fill="#9FC1F7"/>
<path d="M550.718 237.328C549.702 237.893 547.671 238.344 544.963 238.344C538.869 238.344 534.242 234.507 534.242 227.398C534.242 220.627 538.869 216 545.527 216C548.235 216 549.928 216.564 550.718 217.016L550.041 219.273C549.025 218.708 547.445 218.37 545.64 218.37C540.562 218.37 537.176 221.642 537.176 227.285C537.176 232.589 540.223 235.974 545.527 235.974C547.22 235.974 548.912 235.636 550.041 235.071L550.718 237.328Z" fill="white"/>
<path d="M553.765 234.62C555.006 235.41 556.811 236.087 558.73 236.087C561.551 236.087 563.244 234.62 563.244 232.363C563.244 230.332 562.115 229.204 559.181 228.075C555.683 226.834 553.426 225.028 553.426 221.981C553.426 218.596 556.247 216.113 560.423 216.113C562.68 216.113 564.259 216.678 565.162 217.129L564.372 219.386C563.695 219.047 562.228 218.37 560.31 218.37C557.376 218.37 556.247 220.176 556.247 221.643C556.247 223.674 557.601 224.69 560.535 225.818C564.147 227.285 566.065 228.978 566.065 232.138C566.065 235.523 563.582 238.344 558.504 238.344C556.473 238.344 554.103 237.78 552.975 236.99L553.765 234.62Z" fill="white"/>
<path d="M569.563 234.62C570.805 235.41 572.61 236.087 574.529 236.087C577.35 236.087 579.043 234.62 579.043 232.363C579.043 230.332 577.914 229.204 574.98 228.075C571.482 226.834 569.225 225.028 569.225 221.981C569.225 218.596 572.046 216.113 576.221 216.113C578.478 216.113 580.058 216.678 580.961 217.129L580.171 219.386C579.494 219.047 578.027 218.37 576.109 218.37C573.175 218.37 572.046 220.176 572.046 221.643C572.046 223.674 573.4 224.69 576.334 225.818C579.945 227.285 581.864 228.978 581.864 232.138C581.864 235.523 579.381 238.344 574.303 238.344C572.272 238.344 569.902 237.78 568.773 236.99L569.563 234.62Z" fill="white"/>
<path d="M28.7948 205.958H97.745C101.92 205.958 105.419 202.572 105.419 198.284V169.508C105.419 165.332 102.033 161.834 97.745 161.834H28.7948C24.6194 161.834 21.1211 165.219 21.1211 169.508V198.284C21.1211 202.459 24.5065 205.958 28.7948 205.958Z" fill="#407BFF"/>
<path d="M43.9171 184.969V191.74H41.6602V174.475H48.0925C50.0109 174.475 51.478 174.926 52.4936 175.942C53.6221 176.957 54.0735 178.199 54.0735 179.778C54.0735 181.471 53.5092 182.713 52.4936 183.615C51.478 184.518 49.8981 184.969 47.9797 184.969H43.9171ZM43.9171 183.164H47.9797C49.221 183.164 50.1238 182.825 50.8009 182.261C51.478 181.697 51.8165 180.907 51.8165 179.778C51.8165 178.763 51.478 177.973 50.8009 177.296C50.1238 176.732 49.221 176.393 48.0925 176.28H43.9171V183.164Z" fill="white"/>
<path d="M70.3243 191.74H68.0674V183.728H59.3781V191.74H57.1211V174.475H59.3781V181.923H68.0674V174.475H70.3243V191.74Z" fill="white"/>
<path d="M76.6437 184.969V191.74H74.3867V174.475H80.8191C82.7375 174.475 84.2045 174.926 85.2201 175.942C86.3486 176.957 86.8 178.199 86.8 179.778C86.8 181.471 86.2358 182.713 85.2201 183.615C84.2045 184.518 82.6246 184.969 80.7062 184.969H76.6437ZM76.6437 183.164H80.7062C81.9475 183.164 82.8503 182.825 83.5274 182.261C84.2045 181.697 84.5431 180.907 84.5431 179.778C84.5431 178.763 84.2045 177.973 83.5274 177.296C82.8503 176.732 81.9475 176.393 80.8191 176.28H76.6437V183.164Z" fill="white"/>
<path d="M582.316 349.163H651.266C655.442 349.163 658.94 345.777 658.94 341.489V312.713C658.94 308.537 655.555 305.039 651.266 305.039H582.316C578.141 305.039 574.643 308.425 574.643 312.713V341.489C574.643 345.777 578.028 349.163 582.316 349.163Z" fill="#407BFF"/>
<path d="M599.809 327.837L607.708 330.997V333.48L597.326 328.627V326.822L607.708 322.082V324.565L599.809 327.837Z" fill="white"/>
<path d="M611.883 337.654H609.852L617.525 317.68H619.556L611.883 337.654Z" fill="white"/>
<path d="M630.392 327.836L622.041 324.563V322.193L632.874 326.933V328.739L622.041 333.591V331.108L630.392 327.836Z" fill="white"/>
<path d="M92.6683 315.76L88.8315 313.165C89.2829 311.359 89.6214 309.441 89.6214 307.522C89.6214 305.378 89.2829 303.234 88.7186 301.203L92.6683 298.494C94.4739 297.253 94.9253 294.883 93.684 293.078L89.96 287.661C88.7186 285.855 86.3488 285.404 84.5433 286.645L80.4807 289.354C78.5623 287.999 76.531 286.871 74.2741 286.081V281.116C74.2741 278.972 72.4685 277.166 70.3244 277.166H63.7792C61.6351 277.166 59.8295 278.972 59.8295 281.116V286.081C57.5725 286.871 55.4284 287.999 53.6228 289.354L49.5603 286.645C47.7547 285.404 45.2721 285.855 44.1436 287.661L40.5324 293.078C39.2911 294.883 39.7425 297.366 41.5481 298.494L45.4978 301.09C44.9335 303.121 44.595 305.152 44.595 307.296C44.595 309.328 44.9335 311.246 45.3849 313.052L41.6609 315.647C39.8554 316.889 39.404 319.258 40.6453 321.064L44.3693 326.481C45.6106 328.286 47.9804 328.738 49.786 327.496L53.3971 325.014C55.4284 326.594 57.5725 327.835 60.0552 328.625V332.913C60.0552 335.057 61.8608 336.863 64.0049 336.863H70.5501C72.6942 336.863 74.4998 335.057 74.4998 332.913V328.625C76.9824 327.835 79.2394 326.594 81.1578 325.014L84.7689 327.496C86.5745 328.738 89.0572 328.286 90.1857 326.481L93.7968 321.064C94.9253 319.371 94.361 316.889 92.6683 315.76ZM66.9389 318.92C60.6194 318.92 55.5413 313.842 55.5413 307.522C55.5413 301.203 60.6194 296.125 66.9389 296.125C73.2584 296.125 78.3366 301.203 78.3366 307.522C78.4494 313.729 73.2584 318.92 66.9389 318.92Z" fill="#D2CBFA"/>
<path d="M358.651 134.751C358.651 134.751 348.721 125.497 347.028 114.325C345.335 103.153 356.507 94.8026 356.507 94.8026C356.507 94.8026 356.507 87.4674 365.31 82.1636C367.341 80.9222 372.983 70.4273 379.077 69.7502C385.058 69.186 384.945 78.891 384.945 78.891C384.945 78.891 397.923 69.6374 402.098 70.653C406.273 71.7815 403.452 77.4239 403.452 77.4239C403.452 77.4239 417.671 70.2016 421.282 72.3458C424.893 74.4899 422.524 84.4205 422.524 84.4205C422.524 84.4205 427.263 90.2886 436.63 94.3512C445.883 98.4137 457.958 104.508 457.845 121.999C457.732 139.49 444.868 161.383 444.868 161.383L369.146 155.515L358.651 134.751Z" fill="#263238"/>
<path d="M376.707 125.046C375.579 124.82 374.676 124.143 373.773 123.466C372.983 122.676 372.194 121.886 371.629 120.87C370.501 118.952 369.711 116.808 369.147 114.664C368.131 110.263 367.68 105.862 368.244 101.348C368.582 99.0907 369.259 96.9465 370.049 94.8024C371.065 92.7712 372.081 90.7399 373.435 89.0472C376.143 85.436 379.529 82.502 383.478 80.4707C381.673 81.712 380.093 83.1791 378.513 84.7589C376.933 86.3388 375.579 88.0315 374.45 89.8371C372.081 93.4482 370.388 97.3979 369.824 101.686L369.598 103.266C369.598 103.83 369.598 104.282 369.485 104.846V106.426L369.598 108.006C369.598 110.15 369.937 112.294 370.275 114.438C370.727 116.582 371.291 118.613 372.306 120.532C373.322 122.337 374.676 124.143 376.707 125.046Z" fill="#455A64"/>
<path d="M380.205 124.482C378.963 119.855 378.625 115.116 378.963 110.263C379.302 105.523 380.431 100.784 382.575 96.3828C384.719 92.0945 387.766 88.1448 391.377 84.9851C394.988 81.8253 399.05 79.2298 403.452 77.5371C401.42 78.6656 399.389 79.9069 397.471 81.374C395.552 82.7281 393.747 84.308 392.167 85.8879C390.587 87.5806 389.007 89.2733 387.653 91.1918C386.299 92.9973 385.057 95.0286 384.042 97.0599C382.01 101.235 380.882 105.749 380.205 110.376C379.866 112.633 379.753 115.003 379.753 117.373C379.866 119.742 379.979 122.112 380.205 124.482Z" fill="#455A64"/>
<path d="M368.808 124.484C365.987 123.694 363.617 121.888 361.699 119.631C359.78 117.374 358.426 114.779 357.523 111.958C356.508 109.249 356.169 106.315 355.943 103.381C355.943 101.914 355.943 100.447 356.056 99.0929C356.282 97.6259 356.395 96.2717 356.62 94.8047C356.733 96.2717 356.733 97.6259 356.846 99.0929L357.298 103.268C357.749 105.977 358.2 108.798 359.103 111.393C360.006 113.989 361.134 116.472 362.827 118.729C364.294 120.985 366.325 123.017 368.808 124.484Z" fill="#455A64"/>
<path d="M384.945 122.903C387.428 119.856 390.136 117.035 392.845 114.214C395.553 111.392 398.261 108.571 401.083 105.863C403.904 103.154 406.612 100.333 409.546 97.7377L413.834 93.788C415.301 92.5467 416.769 91.1925 418.236 89.9512C416.994 91.4182 415.64 92.8852 414.399 94.3523L410.449 98.6405C407.741 101.462 405.032 104.283 402.211 106.991C399.39 109.7 396.569 112.521 393.747 115.116C390.813 117.712 387.992 120.42 384.945 122.903Z" fill="#455A64"/>
<path d="M373.095 332.235L365.196 396.672H334.84L347.366 310.568L373.095 332.235Z" fill="#FFBE9D"/>
<path d="M500.389 316.661L531.422 401.298L565.728 400.508L530.971 298.154L500.389 316.661Z" fill="#FFBE9D"/>
<path d="M435.726 170.637L439.676 209.005C440.466 216.904 438.435 220.516 434.147 227.287C429.971 233.945 423.652 238.007 412.141 238.007C387.089 238.007 390.813 192.416 390.813 192.416L435.726 170.637Z" fill="#FFBE9D"/>
<path d="M392.506 217.581C392.957 219.5 393.521 221.531 394.199 223.337C396.794 225.142 402.549 227.625 413.044 224.352C427.715 219.951 430.761 200.09 430.761 200.09C423.539 212.842 392.619 217.581 392.506 217.581Z" fill="#EB996E"/>
<path d="M440.917 151.904C439.225 151.904 437.645 152.243 436.178 152.807V152.694C421.846 151.34 431.551 117.034 431.551 117.034C431.551 117.034 424.329 119.404 421.169 118.952C418.009 118.388 425.457 111.504 425.457 111.504C425.457 111.504 416.881 115.454 413.721 114.664C410.561 113.874 415.075 108.57 415.075 108.57C415.075 108.57 399.051 116.808 384.945 122.902C370.839 128.996 356.733 120.758 356.733 120.758C355.378 153.033 362.375 188.354 362.375 188.354C365.873 205.394 380.882 218.146 398.825 218.146C418.686 218.146 434.824 202.686 435.952 183.163H436.065V176.279C437.532 176.843 439.112 177.182 440.804 177.182C447.801 177.182 453.443 171.54 453.443 164.543C453.556 157.546 447.914 151.904 440.917 151.904Z" fill="#FFBE9D"/>
<path d="M543.722 300.749C539.095 293.076 528.261 274.681 521.039 260.914C511.673 243.084 507.836 236.087 493.843 229.768C479.85 223.561 448.026 219.611 448.026 219.611L411.689 239.698L387.653 228.752C387.653 228.752 360.682 241.391 356.506 248.388C352.331 255.384 340.369 330.09 340.369 330.09L374.336 338.892L376.932 315.758L393.746 398.589L508.287 401.297L490.006 299.395L500.726 325.35C501.742 327.72 504.225 328.961 506.82 328.397C514.72 326.366 531.534 320.836 543.157 307.859C544.85 305.94 545.076 303.006 543.722 300.749Z" fill="#407BFF"/>
<path d="M490.007 299.394C488.765 296.573 487.524 293.639 486.508 290.705C485.38 287.771 484.364 284.837 483.461 281.79C482.559 278.856 481.543 275.809 480.753 272.762C479.85 269.715 479.06 266.668 478.496 263.621C479.737 266.442 480.979 269.376 481.994 272.31C483.123 275.244 484.138 278.179 485.041 281.225C485.944 284.159 486.96 287.206 487.75 290.253C488.54 293.3 489.33 296.234 490.007 299.394Z" fill="#1E4284"/>
<path d="M479.737 225.365C478.27 227.058 477.142 228.976 476.239 231.008C475.336 233.039 474.659 235.07 474.208 237.214C473.982 238.343 473.756 239.358 473.756 240.487C473.756 241.051 473.643 241.615 473.643 242.18C473.643 242.744 473.643 243.308 473.531 243.872C473.531 244.437 473.531 245.001 473.531 245.565V247.258C473.531 248.386 473.643 249.515 473.643 250.643C473.305 249.628 472.966 248.499 472.628 247.371C472.402 246.242 472.176 245.114 472.176 243.985C471.951 241.728 472.176 239.358 472.628 237.101C473.192 234.844 473.982 232.588 475.223 230.669C476.239 228.412 477.819 226.607 479.737 225.365Z" fill="#1E4284"/>
<path d="M376.931 315.757C376.029 312.146 375.239 308.534 374.449 304.923C373.659 301.312 372.982 297.701 372.305 294.09C371.063 286.868 369.935 279.532 369.258 272.197C371.176 279.307 372.643 286.529 373.885 293.864C374.562 297.475 375.126 301.086 375.577 304.81C376.254 308.422 376.706 312.033 376.931 315.757Z" fill="#1E4284"/>
<path d="M356.506 248.502C357.296 248.051 358.199 247.938 359.101 248.164C360.004 248.389 360.907 248.728 361.584 249.292C363.051 250.421 364.067 252 364.969 253.468C365.759 255.047 366.324 256.74 366.662 258.433C367.114 260.126 367.226 261.818 367.339 263.624C366.662 262.044 366.098 260.351 365.421 258.771C365.082 257.981 364.857 257.191 364.518 256.402C364.18 255.612 363.841 254.935 363.502 254.145C362.713 252.678 361.923 251.323 360.794 250.195C359.778 249.179 358.311 248.276 356.506 248.502Z" fill="#1E4284"/>
<path d="M441.368 210.471L413.833 235.862H409.093L392.956 220.401C392.617 220.063 391.94 220.063 391.601 220.514L384.492 228.978C384.041 229.542 383.928 230.332 384.379 231.009L395.213 248.162C397.131 251.209 401.419 251.096 403.338 248.049L408.19 240.037L408.754 270.619C408.754 271.522 409.544 272.312 410.56 272.312L416.315 271.973C417.218 271.973 417.895 271.183 417.895 270.167L416.202 240.375L423.537 249.968C425.456 252.45 429.18 252.45 431.098 249.968L453.555 219.837L441.368 210.471Z" fill="#356BBA"/>
<path d="M414.058 244.663C414.058 245.679 413.268 246.469 412.253 246.469C411.237 246.469 410.447 245.679 410.447 244.663C410.447 243.647 411.237 242.857 412.253 242.857C413.268 242.857 414.058 243.647 414.058 244.663Z" fill="white"/>
<path d="M414.847 265.427C414.847 266.442 414.058 267.232 413.042 267.232C412.026 267.232 411.236 266.442 411.236 265.427C411.236 264.411 412.026 263.621 413.042 263.621C414.058 263.734 414.847 264.524 414.847 265.427Z" fill="white"/>
<path d="M414.396 255.384C414.396 256.399 413.606 257.189 412.591 257.189C411.575 257.189 410.785 256.399 410.785 255.384C410.785 254.368 411.575 253.578 412.591 253.578C413.606 253.578 414.396 254.368 414.396 255.384Z" fill="white"/>
<path d="M412.254 362.703C416.091 365.976 420.153 368.684 424.442 371.167C428.73 373.649 433.244 375.681 437.87 377.261C442.497 378.84 447.35 379.856 452.315 380.195C454.798 380.42 457.28 380.42 459.763 380.195C462.246 380.082 464.728 379.743 467.211 379.292C462.471 380.759 457.393 381.549 452.315 381.436C447.237 381.323 442.272 380.42 437.419 378.84C432.567 377.261 428.053 375.004 423.877 372.295C419.589 369.587 415.639 366.427 412.254 362.703Z" fill="#1E4284"/>
<path d="M408.417 161.044C408.192 162.85 406.612 164.204 404.806 163.978C403.001 163.752 401.647 162.172 401.872 160.367C402.098 158.561 403.678 157.207 405.483 157.433C407.289 157.546 408.53 159.126 408.417 161.044Z" fill="#263238"/>
<path d="M398.827 152.807C398.714 151.227 399.391 149.647 400.632 148.519C401.196 147.955 401.986 147.503 402.776 147.278C403.566 147.052 404.356 146.826 405.146 146.826C405.936 146.826 406.839 146.939 407.629 147.052C408.419 147.278 409.209 147.616 409.773 148.18C411.127 149.083 412.03 150.437 412.368 152.017C410.224 149.873 407.742 148.632 405.146 148.857C403.792 148.857 402.551 149.196 401.422 149.873C400.519 150.437 399.617 151.453 398.827 152.807Z" fill="#263238"/>
<path d="M396.457 140.957C398.939 140.505 404.92 139.603 412.932 140.618C413.61 140.731 414.061 139.941 413.722 139.377C412.594 137.684 409.66 135.089 402.776 135.54C398.149 135.879 396.344 138.249 395.667 139.828C395.328 140.393 395.892 141.07 396.457 140.957Z" fill="#263238"/>
<path d="M375.915 162.852C376.028 164.658 375.013 166.238 373.658 166.351C372.304 166.463 371.063 165.109 370.95 163.304C370.837 161.498 371.853 159.918 373.207 159.805C374.561 159.693 375.802 161.047 375.915 162.852Z" fill="#263238"/>
<path d="M364.745 157.32C364.407 156.079 364.519 154.612 365.084 153.37C365.648 152.129 366.889 151.001 368.243 150.549C368.92 150.324 369.71 150.211 370.388 150.324C371.177 150.436 371.855 150.662 372.419 151.114C373.547 151.903 374.45 153.032 374.789 154.273C373.773 153.37 372.87 152.693 371.742 152.355C370.726 151.903 369.71 151.903 368.695 152.242C367.679 152.581 366.776 153.145 366.099 154.048C365.535 154.95 365.084 156.079 364.745 157.32Z" fill="#263238"/>
<path d="M361.133 145.924C362.939 145.021 367.227 143.215 373.434 142.99C373.998 142.99 374.224 142.2 373.772 141.636C372.644 140.169 370.048 138.024 364.97 139.604C361.472 140.62 360.456 143.328 360.23 145.021C360.23 145.698 360.682 146.149 361.133 145.924Z" fill="#263238"/>
<path d="M380.996 151.678C380.545 155.176 380.319 158.674 380.093 162.06C379.868 165.558 379.755 169.056 380.093 172.442C380.206 173.232 380.206 174.135 380.432 174.924L380.658 176.166L380.996 177.294C381.56 178.761 382.463 180.228 383.817 181.131C384.494 181.583 385.284 181.695 386.074 181.808C386.864 181.808 387.767 181.695 388.557 181.47C390.137 181.018 391.717 180.116 393.071 178.987C391.83 180.228 390.475 181.357 388.783 182.034C387.993 182.372 386.977 182.598 386.074 182.598C385.172 182.598 384.156 182.372 383.366 181.921C381.673 181.018 380.545 179.326 379.868 177.633L379.416 176.279L379.078 174.924C378.852 174.022 378.852 173.119 378.739 172.216C378.401 168.605 378.626 165.107 379.078 161.608C379.416 158.449 380.093 155.063 380.996 151.678Z" fill="#263238"/>
<path d="M385.623 191.512C387.541 192.076 389.46 192.415 391.378 192.415C393.297 192.415 395.102 192.076 396.908 191.286C397.698 190.835 398.601 190.496 399.391 189.932C399.729 189.706 400.18 189.481 400.519 189.142C400.858 188.804 401.196 188.465 401.647 188.239C401.986 187.901 402.325 187.562 402.663 187.224L403.679 186.208C404.243 185.418 404.92 184.628 405.597 183.951C405.146 184.854 404.807 185.757 404.243 186.66C403.679 187.449 403.115 188.352 402.437 189.142C401.083 190.722 399.391 191.963 397.472 192.753C395.554 193.543 393.41 193.882 391.378 193.656C389.347 193.318 387.316 192.64 385.623 191.512Z" fill="#263238"/>
<path d="M440.693 155.176C442.837 155.401 445.094 156.304 446.674 158.11C448.366 159.803 449.043 162.285 449.043 164.655C449.043 166.912 448.141 169.508 446.335 170.975C444.53 172.554 442.16 173.119 440.016 172.893C442.16 172.329 444.078 171.426 445.32 169.846C445.997 169.056 446.448 168.266 446.787 167.363C447.012 166.912 447.012 166.461 447.125 166.009C447.125 165.558 447.238 164.994 447.238 164.542C447.238 163.527 447.238 162.511 446.899 161.608C446.787 161.157 446.561 160.705 446.448 160.254C446.222 159.803 445.997 159.351 445.658 159.013C444.417 157.32 442.611 156.079 440.693 155.176Z" fill="#EB996E"/>
<path d="M231.134 307.408L254.267 412.469H100.004C100.004 412.469 107.339 322.981 117.721 293.979C124.492 275.02 168.277 271.635 197.956 276.261C214.432 278.857 227.522 291.157 231.134 307.408Z" fill="#37474F"/>
<path d="M334.389 318.017L64.6816 400.735V412.471H589.426V401.299L355.943 317.904C348.833 315.873 341.385 315.873 334.389 318.017Z" fill="#9FC1F7"/>
<path d="M64.5684 400.736L589.313 401.301V412.473H64.5684V400.736Z" fill="#82A5D8"/>
<path d="M194.907 70.5406C194.907 70.5406 181.365 69.2992 161.842 89.2734C143.11 108.57 147.736 144.456 147.736 144.456L208.336 125.385L218.266 90.8532L194.907 70.5406Z" fill="#1D272B"/>
<path d="M206.531 106.539C206.531 106.539 148.64 119.855 134.872 150.888C120.992 181.808 120.992 230.22 120.992 230.22L108.692 291.948C108.014 295.334 109.256 298.719 111.964 300.863C121.556 308.424 146.721 323.997 186.105 318.129C224.812 312.374 236.774 294.769 240.385 286.644C241.401 284.162 241.514 281.453 240.724 278.971L235.533 263.849L248.285 187.789L320.621 299.283C321.636 300.863 323.893 301.202 325.36 299.96C329.648 296.236 338.338 288.788 349.171 281.905C349.171 281.905 277.625 162.511 255.056 128.205C232.712 93.6739 206.531 106.539 206.531 106.539Z" fill="#294F87"/>
<path d="M211.609 238.57C211.609 238.57 213.753 246.695 214.317 249.968C214.881 253.24 213.076 253.917 213.076 253.917L193.553 265.766C193.553 265.766 154.282 287.433 145.931 291.044C137.693 294.656 135.21 290.48 135.21 290.48C125.28 278.631 121.556 233.153 120.992 226.382C120.879 228.752 120.879 230.106 120.879 230.106L108.578 291.834C107.901 295.22 109.143 298.605 111.851 300.749C111.964 300.862 112.189 300.975 112.302 301.088C121.556 304.135 133.179 307.52 138.032 307.069C146.721 306.392 212.85 264.187 216.461 261.14C219.959 257.98 219.734 250.758 219.734 250.758L239.369 240.714L241.965 225.254L211.609 238.57Z" fill="#214775"/>
<path d="M121.104 230.107C122.232 237.442 123.473 244.664 124.94 251.887C126.069 259.109 127.423 266.444 129.229 273.441C130.131 276.939 131.26 280.437 132.727 283.71C133.404 285.403 134.307 286.983 135.21 288.337C136.225 289.691 137.467 291.045 138.708 291.384C139.046 291.496 139.385 291.496 139.723 291.496C140.062 291.496 140.513 291.384 140.965 291.384C141.755 291.271 142.658 290.932 143.56 290.707C145.253 290.142 146.946 289.465 148.638 288.788C152.024 287.321 155.297 285.741 158.569 284.161C171.66 277.503 184.411 270.055 197.05 262.494L206.53 256.739L211.269 253.805L212.398 253.128C212.623 253.015 212.736 252.902 212.849 252.789C212.962 252.677 213.075 252.564 213.188 252.451C213.526 252 213.639 251.435 213.639 250.758C212.285 243.536 210.818 236.201 209.577 228.979C211.721 236.088 213.752 243.085 215.783 250.307C216.122 251.435 215.896 252.902 215.106 253.918C214.88 254.144 214.655 254.369 214.429 254.595C214.203 254.821 213.865 254.934 213.752 255.046L212.623 255.724L207.884 258.658L198.405 264.413C185.766 271.974 173.014 279.422 159.81 286.193C156.538 287.885 153.152 289.465 149.767 290.932C148.074 291.609 146.269 292.399 144.463 292.963C143.56 293.302 142.658 293.528 141.642 293.753C141.19 293.866 140.626 293.866 140.062 293.979C139.498 293.979 138.934 293.979 138.369 293.753C137.241 293.415 136.338 292.851 135.548 292.174C134.758 291.496 134.081 290.707 133.517 289.917C132.388 288.337 131.486 286.644 130.808 284.838C129.341 281.34 128.213 277.842 127.197 274.231C125.279 267.008 123.925 259.786 122.796 252.451C122.345 248.727 122.119 245.116 121.781 241.392C121.329 237.555 121.104 233.831 121.104 230.107Z" fill="#103254"/>
<path d="M208.11 222.32C198.405 228.301 188.587 233.831 178.544 239.135C168.5 244.439 158.457 249.63 148.188 254.369C157.892 248.388 167.71 242.859 177.754 237.555C187.684 232.251 197.841 227.06 208.11 222.32Z" fill="#103254"/>
<path d="M161.728 247.035C160.938 243.875 160.487 240.715 159.809 237.555L158.907 227.963C158.342 221.531 157.891 215.211 157.553 208.779C157.214 202.347 156.988 195.914 156.988 189.595C156.988 186.435 157.101 183.162 157.214 180.003L158.004 175.263C158.342 173.683 158.681 172.103 159.02 170.523L158.907 175.376L159.02 180.116C158.907 183.275 158.794 186.435 158.907 189.708C158.907 196.14 159.132 202.459 159.471 208.892C159.809 215.324 160.261 221.644 160.825 227.963C161.051 231.123 161.389 234.283 161.728 237.555C161.615 240.602 161.728 243.762 161.728 247.035Z" fill="#103254"/>
<path d="M141.189 140.956C143.785 140.279 146.493 140.279 149.202 140.844C151.91 141.408 154.506 142.649 156.424 144.68C158.342 146.712 159.584 149.307 160.035 152.016C160.487 154.724 160.374 157.432 159.809 160.028C159.697 157.432 159.358 154.837 158.681 152.354C158.342 151.113 157.891 149.984 157.327 148.856C156.763 147.727 156.085 146.712 155.183 145.922C153.49 144.116 151.233 142.988 148.863 142.198C146.38 141.408 143.785 140.956 141.189 140.956Z" fill="#103254"/>
<path d="M209.352 165.672C209.352 165.672 219.057 190.16 225.94 189.37C232.937 188.467 242.642 166.913 242.642 166.913L209.352 165.672Z" fill="#9FC1F7"/>
<path d="M242.078 225.255C243.207 213.18 244.899 201.331 246.705 189.369C248.623 177.407 250.542 165.558 253.137 153.709C252.009 165.784 250.316 177.633 248.51 189.595C246.592 201.557 244.561 213.519 242.078 225.255Z" fill="#103254"/>
<path d="M222.443 263.51C219.509 266.444 216.123 269.039 212.512 271.296C208.901 273.553 205.064 275.246 201.002 276.713C199.986 277.052 198.97 277.39 197.955 277.616L194.908 278.406C193.892 278.631 192.764 278.744 191.748 278.97L190.168 279.196C189.604 279.196 189.152 279.309 188.588 279.309C184.413 279.76 180.125 279.309 175.949 278.631C176.965 278.631 178.093 278.631 179.109 278.631H180.689C181.253 278.631 181.704 278.519 182.269 278.519L185.316 278.293L188.363 277.841C192.425 277.277 196.488 276.262 200.324 274.907C204.274 273.553 207.998 271.861 211.722 269.942C213.528 268.926 215.333 267.911 217.139 266.895C218.944 265.88 220.637 264.751 222.443 263.51Z" fill="#103254"/>
<path d="M196.939 89.2731C196.939 89.2731 183.058 72.6844 186.895 40.1841C190.732 7.68384 215.333 -0.328382 241.062 0.010163C266.679 0.348708 281.011 17.0502 284.396 46.6165C287.894 76.1827 276.045 88.9346 276.045 88.9346L196.939 89.2731Z" fill="#263238"/>
<path d="M224.135 23.4824C227.069 24.8366 229.664 26.5293 232.26 28.222C234.855 30.0276 237.338 31.8332 239.708 34.0902C236.774 32.736 234.178 31.0433 231.583 29.3505C228.987 27.545 226.392 25.7394 224.135 23.4824Z" fill="#455A64"/>
<path d="M249.301 38.3775C249.752 38.2647 250.203 38.039 250.429 37.7005C250.768 37.3619 250.768 37.0234 250.768 36.572C250.655 35.782 250.203 34.9921 249.639 34.2022C248.511 32.7351 247.269 31.2681 246.028 29.9139C243.545 27.0927 240.95 24.2715 238.58 21.2246C240.16 22.3531 241.627 23.5944 242.981 24.9486C244.335 26.1899 245.69 27.657 247.044 29.0111C248.285 30.4782 249.526 31.9452 250.542 33.6379C250.993 34.5407 251.445 35.4435 251.445 36.572C251.445 37.1362 251.106 37.7005 250.655 38.039C250.316 38.3775 249.865 38.3775 249.301 38.3775Z" fill="#455A64"/>
<path d="M256.071 39.1697C257.087 38.944 257.651 38.154 257.99 37.3641C258.328 36.5742 258.441 35.6714 258.441 34.7686C258.328 32.963 257.877 31.1574 257.313 29.3519C256.748 27.5463 256.071 25.7407 255.394 24.048L253.25 18.7441C254.378 20.324 255.394 21.9039 256.297 23.7095C257.2 25.4022 257.99 27.2078 258.554 29.1262C259.118 31.0446 259.57 32.963 259.457 34.9943C259.457 36.0099 259.118 37.0256 258.554 37.9283C257.99 38.4926 257.087 39.2825 256.071 39.1697Z" fill="#455A64"/>
<path d="M258.893 36.4599C260.36 37.3627 262.052 37.2499 263.519 36.7985C265.099 36.3471 266.453 35.67 267.695 34.6544C269.049 33.7516 270.177 32.6231 271.306 31.3818C272.434 30.1404 273.45 28.8991 274.466 27.5449C274.014 29.1248 273.111 30.7047 272.209 32.0589C271.193 33.413 269.952 34.6544 268.598 35.67C267.243 36.6856 265.551 37.4756 263.858 37.7013C262.955 37.8141 262.052 37.8141 261.262 37.7013C260.247 37.5884 259.344 37.137 258.893 36.4599Z" fill="#455A64"/>
<path d="M202.469 95.9316L201.453 112.52C198.519 115.68 196.149 122.677 199.986 138.024C201.114 142.651 202.356 146.149 203.597 148.745L209.352 165.672C209.352 165.672 225.038 172.556 242.643 166.913C242.643 166.913 247.044 161.271 248.285 138.024C249.639 114.777 202.469 95.9316 202.469 95.9316Z" fill="#FFBE9D"/>
<path d="M222.33 150.21C232.374 155.627 240.95 154.047 247.044 151.226C247.608 147.614 248.06 143.326 248.285 138.022C248.511 134.637 247.608 131.477 246.141 128.317L204.049 114.324C204.162 114.324 208.111 142.423 222.33 150.21Z" fill="#EB996E"/>
<path d="M278.077 112.181C278.303 111.278 278.528 110.262 278.641 109.247C280.221 101.009 282.817 84.8715 281.124 52.0327C281.011 50.34 280.221 48.873 278.98 47.8573C276.384 45.9389 271.983 41.6507 269.613 34.0898C269.613 34.0898 262.955 39.8451 258.78 36.234C258.78 36.234 257.877 42.2149 251.219 36.7982C251.219 36.7982 251.219 41.6507 239.821 34.0898H222.33C222.33 34.0898 220.412 45.0361 209.691 50.6785C209.014 51.0171 208.563 51.807 208.788 52.597C210.03 57.2237 213.302 72.5711 206.418 80.1319C203.484 77.7621 199.648 76.5208 195.585 77.1979C189.491 78.1007 184.639 83.1788 183.962 89.2726C182.946 97.6234 189.491 104.733 197.729 104.733C199.76 104.733 201.679 104.281 203.371 103.492V106.426C203.371 127.415 220.412 140.844 241.289 140.844C258.441 140.844 272.886 129.559 277.626 113.986C277.513 114.099 277.738 113.422 278.077 112.181Z" fill="#FFBE9D"/>
<path d="M255.846 80.4707L258.667 89.6114C259.57 92.6583 260.585 95.7052 261.714 98.5264C261.94 99.3164 262.278 99.9934 262.617 100.671L262.842 101.235C262.955 101.46 263.068 101.686 263.068 101.912C263.181 102.363 263.294 102.815 263.294 103.379C263.294 105.297 261.94 107.216 260.021 107.667C258.328 108.119 256.523 108.006 254.943 107.441C253.363 106.877 252.009 105.974 250.768 104.846C252.122 105.636 253.589 106.313 255.169 106.539C256.636 106.877 258.216 106.764 259.57 106.313C260.811 105.862 261.601 104.62 261.601 103.379C261.601 103.04 261.488 102.702 261.488 102.476C261.488 102.363 261.375 102.25 261.262 102.025L261.037 101.46C260.698 100.671 260.36 99.9934 260.134 99.2035C259.006 96.1566 258.103 93.1097 257.426 89.9499C256.636 86.7902 256.071 83.6305 255.846 80.4707Z" fill="#263238"/>
<path d="M240.385 84.1943C240.385 86.3384 238.692 88.0311 236.548 88.0311C234.404 88.0311 232.711 86.3384 232.711 84.1943C232.711 82.0501 234.404 80.3574 236.548 80.3574C238.692 80.4703 240.385 82.163 240.385 84.1943Z" fill="#263238"/>
<path d="M270.967 83.7431C270.967 85.8872 269.613 87.5799 267.92 87.5799C266.227 87.5799 264.873 85.8872 264.873 83.7431C264.873 81.599 266.227 79.9062 267.92 79.9062C269.613 79.9062 270.967 81.599 270.967 83.7431Z" fill="#263238"/>
<path d="M227.52 74.828C227.632 73.0224 228.535 71.3297 230.002 70.0883C231.469 68.847 233.388 68.1699 235.306 68.1699C236.209 68.1699 237.224 68.2828 238.127 68.6213C239.03 68.9599 239.933 69.4113 240.61 69.9755C242.077 71.2168 242.98 73.0224 242.867 74.828C241.964 73.2481 240.836 72.1196 239.594 71.4425C238.24 70.7654 236.773 70.4269 235.306 70.5397C233.839 70.5397 232.372 70.7654 231.018 71.5554C229.664 72.2325 228.535 73.3609 227.52 74.828Z" fill="#263238"/>
<path d="M262.39 74.8279C262.277 73.3608 262.616 71.781 263.519 70.5396C263.97 69.8625 264.534 69.2983 265.324 68.8469C266.114 68.3955 267.017 68.1698 267.807 68.2827C269.5 68.2827 271.305 69.1854 272.208 70.5396C273.111 71.8938 273.449 73.4737 273.224 74.9407C272.546 73.6994 271.756 72.458 270.854 71.781C270.402 71.3296 269.951 71.1039 269.387 70.8782C268.935 70.6525 268.371 70.6525 267.807 70.6525C267.243 70.6525 266.791 70.7653 266.227 70.8782C265.776 71.1039 265.211 71.4424 264.76 71.781C263.97 72.458 263.18 73.5865 262.39 74.8279Z" fill="#263238"/>
<path d="M223.344 61.0587C226.053 60.4944 232.372 59.5917 240.836 60.6073C241.513 60.7201 242.077 59.9302 241.626 59.2531C240.384 57.4475 237.338 54.7392 230.002 55.1906C225.037 55.5291 223.119 58.1246 222.442 59.7045C222.216 60.4944 222.78 61.1715 223.344 61.0587Z" fill="#263238"/>
<path d="M261.261 61.173C263.292 60.6088 268.031 59.4803 274.238 60.2703C274.802 60.3831 275.141 59.4803 274.915 58.9161C274.012 57.1105 271.868 54.515 266.339 55.1921C262.615 55.6435 261.148 58.239 260.583 59.9317C260.358 60.7217 260.809 61.2859 261.261 61.173Z" fill="#263238"/>
<path d="M196.712 100.558C194.343 100.332 192.086 99.3163 190.393 97.5108C188.587 95.7052 187.91 92.9968 187.91 90.627C187.91 88.1444 188.813 85.5489 190.844 83.8561C192.763 82.1634 195.245 81.4863 197.615 81.712C195.358 82.2763 193.327 83.2919 191.973 84.8718C191.296 85.6617 190.731 86.5645 190.506 87.4673C190.28 87.9187 190.28 88.4829 190.167 88.9343C190.167 89.4986 190.054 89.9499 190.054 90.5142C190.054 91.5298 190.054 92.6583 190.393 93.5611C190.506 94.1253 190.731 94.5767 190.957 95.0281C191.183 95.4795 191.408 95.9309 191.747 96.3823C192.763 98.1879 194.568 99.542 196.712 100.558Z" fill="#EB996E"/>
<path d="M246.366 116.809C245.35 119.292 241.852 120.195 238.692 118.84C235.532 117.486 233.727 114.327 234.742 111.844C235.758 109.361 239.256 108.458 242.416 109.813C245.689 111.167 247.381 114.327 246.366 116.809Z" fill="#EB996E"/>
<path d="M231.357 104.732C232.373 106.764 233.614 108.569 235.194 110.149C236.661 111.729 238.354 113.083 240.272 113.986C240.724 114.325 241.288 114.437 241.739 114.663L242.529 115.002L243.319 115.227C243.884 115.34 244.335 115.566 244.899 115.679C245.463 115.792 245.915 115.904 246.479 116.017C246.705 116.017 247.043 116.13 247.269 116.13L248.059 116.243L249.752 116.356C250.88 116.356 252.009 116.356 253.137 116.469C252.009 116.807 250.993 117.033 249.865 117.259L248.172 117.371C247.608 117.484 247.043 117.484 246.479 117.371C244.109 117.371 241.852 116.694 239.708 115.679C237.564 114.663 235.758 112.97 234.404 111.165C232.712 109.133 231.696 106.989 231.357 104.732Z" fill="#263238"/>
<path d="M234.291 104.732C233.163 104.958 232.485 105.297 232.034 105.635C231.808 105.861 231.47 106.087 231.131 106.312C231.018 106.425 230.793 106.651 230.567 106.764C230.341 106.877 230.229 107.102 229.89 107.328C229.664 106.764 229.664 106.2 229.89 105.635C230.116 105.071 230.454 104.507 230.906 104.168C231.47 103.83 232.147 103.604 232.711 103.717C233.388 103.83 233.953 104.168 234.291 104.732Z" fill="#263238"/>
<path d="M207.771 222.434C207.771 222.434 241.626 184.178 243.996 183.163C246.478 182.26 257.086 180.003 263.067 181.131C269.048 182.26 266.453 186.774 262.051 186.774C258.553 186.774 248.51 189.256 247.945 189.369C247.381 189.595 241.062 197.833 241.062 197.833C241.062 197.833 246.14 191.965 257.65 188.354C269.274 184.855 271.982 185.758 272.208 188.918C272.208 188.918 274.69 188.918 275.368 190.949C276.158 193.432 273.223 195.802 270.177 197.269C267.242 198.736 261.826 201.331 259.569 202.573C257.312 203.814 249.3 207.989 249.3 207.989C249.3 207.989 257.65 205.281 260.472 204.265C265.437 202.573 270.289 202.121 271.644 204.265C272.659 205.958 269.838 207.764 260.697 210.811L251.444 217.694C250.88 218.258 251.105 218.484 250.654 219.161C249.187 221.531 245.463 228.415 239.369 232.816C231.695 238.458 223.683 239.248 223.683 239.248L213.865 245.681C213.978 245.793 211.383 238.571 207.771 222.434Z" fill="#FFBE9D"/>
<path d="M235.871 200.88C236.435 199.864 237.112 198.848 238.015 197.833C238.241 197.607 238.467 197.381 238.805 197.156C238.918 197.043 239.257 196.93 239.369 196.93H239.821C240.498 196.93 241.062 196.93 241.626 196.93L241.288 197.043C243.432 195.012 245.689 193.093 248.284 191.626C249.526 190.836 250.993 190.272 252.347 189.708C253.701 189.143 255.168 188.692 256.522 188.241C259.344 187.338 262.165 186.548 265.099 186.097C266.566 185.871 268.033 185.645 269.613 185.871C270.403 185.984 271.193 186.209 271.757 186.774C272.321 187.451 272.321 188.241 272.208 188.918C272.095 188.241 271.983 187.451 271.531 186.999C271.08 186.548 270.29 186.435 269.613 186.435C268.146 186.435 266.792 186.661 265.324 186.999C262.503 187.676 259.682 188.579 256.974 189.482C255.62 189.933 254.265 190.498 252.798 190.949C251.444 191.4 250.09 191.965 248.849 192.755C247.607 193.432 246.366 194.222 245.238 195.012C243.996 195.801 242.868 196.704 241.739 197.607L241.626 197.72H241.514C240.949 197.607 240.272 197.607 239.708 197.607H239.257C239.031 197.607 239.031 197.607 238.918 197.72C238.692 197.833 238.467 198.058 238.241 198.171C237.451 199.074 236.661 199.977 235.871 200.88Z" fill="#E28A64"/>
<path d="M239.82 204.376C240.385 203.248 240.949 202.119 241.852 201.217C242.077 200.991 242.416 200.765 242.754 200.652C243.093 200.54 243.319 200.427 243.657 200.427C244.334 200.314 244.898 200.201 245.576 200.088H245.463C249.864 197.718 254.265 195.349 258.779 193.317C261.036 192.302 263.293 191.286 265.663 190.383C266.791 189.932 268.032 189.48 269.274 189.142C269.838 188.916 270.515 188.803 271.079 188.691C271.644 188.578 272.433 188.465 273.111 188.465C273.788 188.465 274.352 188.691 274.916 189.029C275.48 189.368 275.932 189.932 276.045 190.609C276.157 191.286 276.157 191.85 276.045 192.415C275.932 192.979 275.706 193.543 275.48 193.994C274.803 195.01 273.9 195.574 272.998 196.139C272.095 196.703 271.079 197.154 270.064 197.606C270.966 197.041 271.869 196.477 272.772 195.913C273.675 195.236 274.465 194.559 274.916 193.656C275.142 193.204 275.255 192.753 275.368 192.302C275.48 191.85 275.48 191.286 275.368 190.835C275.142 189.932 274.239 189.593 273.336 189.593C272.772 189.593 272.208 189.706 271.644 189.819C271.079 189.932 270.515 190.158 269.951 190.27C268.822 190.609 267.694 191.06 266.453 191.512C264.196 192.415 261.939 193.43 259.682 194.446L252.911 197.493C250.654 198.508 248.397 199.524 246.14 200.652H246.027H245.914C245.35 200.652 244.673 200.765 244.109 200.765C243.77 200.765 243.544 200.878 243.206 200.878C242.98 200.991 242.754 201.104 242.529 201.217C241.174 202.232 240.497 203.361 239.82 204.376Z" fill="#E28A64"/>
<path d="M243.205 210.81C243.995 209.907 244.897 209.004 245.8 208.101C246.026 207.876 246.252 207.65 246.59 207.537C246.929 207.424 247.267 207.537 247.606 207.537C248.283 207.537 248.847 207.65 249.411 207.876H249.298C252.233 206.747 255.167 205.845 258.101 204.829L262.502 203.362C263.969 202.91 265.436 202.346 267.129 202.121C267.918 202.008 268.821 201.895 269.724 202.121C270.627 202.233 271.53 202.91 271.981 203.7C272.094 203.926 272.207 204.039 272.32 204.265C272.432 204.49 272.545 204.829 272.432 205.167C272.432 205.732 272.094 206.183 271.755 206.522C271.191 207.199 270.401 207.65 269.724 208.101C269.047 208.553 268.257 208.891 267.467 209.117L265.323 209.907L260.922 211.487L261.035 211.374L251.668 218.258L251.781 218.032C250.088 221.079 248.17 224.013 245.913 226.834C244.785 228.188 243.656 229.543 242.302 230.671C241.061 231.912 239.594 232.928 238.014 233.718C239.481 232.815 240.835 231.687 242.076 230.445C243.318 229.204 244.333 227.85 245.349 226.383C247.38 223.562 249.186 220.628 250.766 217.581V217.468L250.878 217.355L260.132 210.358H260.245H260.358L264.759 208.666L266.903 207.876C267.693 207.65 268.257 207.312 268.934 206.973C269.611 206.634 270.175 206.183 270.627 205.732C270.853 205.506 270.965 205.28 270.965 205.055C270.965 204.942 270.965 204.829 270.965 204.829C270.965 204.716 270.853 204.49 270.74 204.378C270.063 203.249 268.596 203.136 267.129 203.362C265.661 203.588 264.194 204.039 262.727 204.49L258.214 205.845L249.298 208.553H249.186H249.073C248.509 208.44 247.944 208.214 247.267 208.214C246.929 208.214 246.703 208.101 246.364 208.214C246.139 208.214 245.913 208.44 245.687 208.666C245.01 209.117 244.107 209.907 243.205 210.81Z" fill="#E28A64"/>
<path d="M383.475 360.446C383.136 357.512 380.202 347.695 378.622 344.422C378.51 344.196 378.397 344.083 378.284 343.858C378.397 341.827 380.315 339.457 379.525 337.651C378.171 334.604 372.98 329.3 372.98 329.3C372.98 329.3 373.996 326.028 373.206 324.899C372.416 323.771 365.983 309.552 364.291 306.392C362.598 303.232 361.357 300.863 357.52 296.123C354.699 292.738 347.928 282.355 347.928 282.355C347.928 282.355 337.771 288.901 329.082 296.574C329.082 296.574 340.818 307.295 340.593 310.793C340.367 314.292 337.32 320.611 336.191 325.915C335.063 331.106 333.822 337.087 331.113 340.811C328.405 344.535 325.809 349.274 331.903 348.485C337.997 347.807 339.013 343.858 340.028 340.021C341.044 336.184 342.172 332.347 345.332 332.799C348.379 333.25 357.294 345.325 358.874 347.92C360.454 350.403 361.357 364.96 368.466 364.283C369.369 364.17 370.159 363.606 370.046 362.703C369.595 359.205 370.159 350.629 362.259 337.764C362.259 337.764 368.692 342.504 370.836 344.986C372.98 347.469 375.463 361.688 382.685 361.124C383.249 361.349 383.588 361.011 383.475 360.446Z" fill="#FFBE9D"/>
<path d="M378.398 343.859L376.141 340.587C375.802 340.022 375.351 339.571 375.012 339.007C374.787 338.781 374.561 338.555 374.448 338.33C374.335 338.217 374.222 338.104 374.109 337.991L373.771 337.653C371.74 336.073 369.708 334.38 367.79 332.687L367.677 332.574V332.462C367.113 330.995 366.549 329.528 365.984 328.061C366.887 329.302 367.677 330.656 368.467 332.01L368.354 331.897C370.498 333.364 372.53 335.057 374.561 336.75L374.899 337.088C375.012 337.201 375.125 337.314 375.238 337.54C375.464 337.765 375.689 338.104 375.915 338.33C376.254 338.894 376.592 339.458 376.931 340.135C377.495 341.377 378.059 342.618 378.398 343.859Z" fill="#E28A64"/>
<path d="M362.26 337.988C361.921 337.311 361.809 336.521 361.583 335.844C361.47 335.505 361.47 335.167 361.357 334.828C361.244 334.49 361.244 334.49 361.019 334.264C360.567 333.813 359.89 333.361 359.326 332.91C358.762 332.459 358.197 331.894 357.746 331.33C358.536 331.443 359.213 331.781 359.89 332.007C360.567 332.346 361.244 332.684 361.809 333.248C361.921 333.361 362.147 333.587 362.26 333.813C362.373 334.151 362.486 334.264 362.486 334.49C362.599 334.941 362.599 335.28 362.599 335.731C362.599 336.521 362.486 337.311 362.26 337.988Z" fill="#E28A64"/>
<path d="M372.98 329.3C372.078 328.735 371.4 328.058 370.836 327.381C370.272 326.591 369.708 325.801 369.369 324.898C370.272 325.463 370.949 326.14 371.513 326.817C372.19 327.607 372.642 328.397 372.98 329.3Z" fill="#E28A64"/>
<path d="M302.227 418.001L266.341 368.912C265.438 367.558 264.874 365.978 264.987 364.398L265.213 360.9L338.677 352.662L302.227 418.001Z" fill="#455A64"/>
<path d="M326.262 362.139L279.994 367.443L313.51 411.228L326.262 362.139Z" fill="#304349"/>
<path d="M506.594 271.41L503.434 269.266C501.403 267.799 498.807 267.122 496.325 267.347L315.203 281.905C312.834 282.13 310.915 283.936 310.689 286.419L298.84 406.038L265.212 360.898L264.986 364.735C264.873 366.202 265.324 367.556 266.114 368.685L299.292 414.163L302.113 418L506.594 271.41Z" fill="#263238"/>
<path d="M488.539 391.593L302.227 417.999L316.333 290.255C316.558 287.885 318.477 286.079 320.847 285.854L503.209 270.394C506.482 270.168 509.077 272.989 508.513 276.149L488.539 391.593Z" fill="#455A64"/>
<path d="M401.42 342.617C399.727 348.711 400.291 355.595 405.934 357.175C411.576 358.754 417.557 355.256 419.25 349.162C420.942 343.069 420.378 336.185 414.736 334.605C409.093 332.912 403.112 336.523 401.42 342.617Z" fill="#F5F5F5"/>
<path d="M234.066 368.009C234.066 356.837 224.926 347.696 213.754 347.696C210.481 347.696 207.321 348.486 204.5 349.953C200.776 342.392 192.99 337.201 183.962 337.201C171.323 337.201 161.054 347.47 161.054 360.109C161.054 360.222 161.054 360.448 161.054 360.561C159.925 360.335 158.797 360.109 157.555 360.109C149.769 360.109 143.449 366.429 143.449 374.215C143.449 382.002 149.769 388.321 157.555 388.321H216.462L216.349 388.096C226.393 386.854 234.066 378.391 234.066 368.009Z" fill="white"/>
<defs>
<linearGradient id="paint0_linear" x1="326.384" y1="93.1484" x2="326.384" y2="412.471" gradientUnits="userSpaceOnUse">
<stop stop-color="#B1A7E4"/>
<stop offset="1" stop-color="#8478CE"/>
</linearGradient>
</defs>
</svg>
