<svg width="32" height="32" viewBox="0 0 32 32" fill="none" xmlns="http://www.w3.org/2000/svg">
<path d="M29.773 6.88546C29.773 5.54875 28.6793 4.45508 27.3426 4.45508H9.11397C7.77726 4.45508 6.68359 5.54875 6.68359 6.88546V29.569C6.68359 30.9058 7.77726 31.9994 9.11397 31.9994H22.8849L29.771 25.5184L29.773 6.88546Z" fill="#DADEE0"/>
<path d="M6.68226 6.88608C6.68226 5.54937 7.77593 4.4557 9.11264 4.4557H25.316V2.43038C25.316 1.09367 24.2223 0 22.8856 0H4.65694C3.32023 0 2.22656 1.09367 2.22656 2.43038V25.1139C2.22656 26.4506 3.32023 27.5443 4.65694 27.5443H6.68226V6.88608Z" fill="#1BB7EA"/>
<path d="M25.3151 25.5176H29.7708L22.8848 31.9986V27.948C22.8848 26.6113 23.9784 25.5176 25.3151 25.5176Z" fill="#F2F2F2"/>
<path d="M12.7599 15.1898H23.6966C24.0325 15.1898 24.3042 14.9176 24.3042 14.5822C24.3042 14.2464 24.0324 13.9746 23.6966 13.9746H12.7599C12.4242 13.9746 12.1523 14.2464 12.1523 14.5822C12.1523 14.9176 12.4241 15.1898 12.7599 15.1898Z" fill="#1F4254"/>
<path d="M12.7599 11.139H23.6966C24.0325 11.139 24.3042 10.8668 24.3042 10.5314C24.3042 10.1957 24.0324 9.92383 23.6966 9.92383H12.7599C12.4242 9.92383 12.1523 10.1957 12.1523 10.5314C12.1523 10.8668 12.4241 11.139 12.7599 11.139Z" fill="#1F4254"/>
<path d="M12.7599 19.2406H23.6966C24.0325 19.2406 24.3042 18.9683 24.3042 18.633C24.3042 18.2972 24.0324 18.0254 23.6966 18.0254H12.7599C12.4242 18.0254 12.1523 18.2972 12.1523 18.633C12.1523 18.9683 12.4241 19.2406 12.7599 19.2406Z" fill="#1F4254"/>
<path d="M12.7599 23.2914H18.8359C19.1716 23.2914 19.4435 23.0191 19.4435 22.6838C19.4435 22.3479 19.1716 22.0762 18.8359 22.0762H12.7599C12.4242 22.0762 12.1523 22.3479 12.1523 22.6838C12.1523 23.0191 12.4241 23.2914 12.7599 23.2914Z" fill="#1F4254"/>
</svg>
