<svg width="84" height="84" viewBox="0 0 84 84" fill="none" xmlns="http://www.w3.org/2000/svg">
<path d="M78.4794 0H27.9961C27.3165 0 26.7656 0.550922 26.7656 1.23047V4.92188H5.51953C4.83998 4.92188 4.28906 5.4728 4.28906 6.15234V20.7675C4.28906 21.4471 4.83998 21.998 5.51953 21.998H58.0225L50.2692 33.675C48.8965 35.7423 48.8965 38.4139 50.2692 40.4813L59.0859 53.7598V81.5391H35.3789C31.9864 81.5391 29.2266 78.7792 29.2266 75.3867V60.293C29.2266 59.6134 28.6756 59.0625 27.9961 59.0625H12.9023C9.50986 59.0625 6.75 56.3026 6.75 52.9102V25.6894C6.75 25.0098 6.19908 24.4589 5.51953 24.4589C4.83998 24.4589 4.28906 25.0098 4.28906 25.6894V52.9102C4.28906 55.2848 5.25506 57.4381 6.81464 58.9979C6.81185 59.0006 29.2884 81.4772 29.2884 81.4772C30.8509 83.034 33.0043 84 35.3789 84H60.3164C60.996 84 61.5469 83.4491 61.5469 82.7695V74.1562H78.4793C79.1588 74.1562 79.7097 73.6053 79.7097 72.9258V1.23047C79.7099 0.550922 79.159 0 78.4794 0ZM12.8126 61.5211C12.8426 61.5215 12.8723 61.5234 12.9023 61.5234H26.7656V75.3867C26.7656 75.4167 26.7676 75.4464 26.7679 75.4765L12.8126 61.5211ZM6.75 7.38281H59.0859V19.5371H6.75V7.38281ZM60.3164 4.92188H29.2266V2.46094H71.2244C70.7989 2.87848 70.4107 3.34064 70.0732 3.84891L61.5469 16.6901V6.15234C61.5469 5.4728 60.9961 4.92188 60.3164 4.92188ZM61.5469 71.6953V57.4663L70.0732 70.3077C70.4107 70.8159 70.7987 71.2779 71.2243 71.6955H61.5469V71.6953ZM77.249 71.6953C75.1826 71.6953 73.2667 70.6676 72.1235 68.9463L52.3195 39.1202C51.4959 37.8797 51.4959 36.2767 52.3195 35.0364L72.1235 5.2103C73.2665 3.48862 75.1826 2.46094 77.249 2.46094V71.6953Z" fill="#B1A7E4"/>
<path d="M15.3633 31.8418H32.918C33.5975 31.8418 34.1484 31.2909 34.1484 30.6113C34.1484 29.9318 33.5975 29.3809 32.918 29.3809H15.3633C14.6837 29.3809 14.1328 29.9318 14.1328 30.6113C14.1328 31.2909 14.6837 31.8418 15.3633 31.8418Z" fill="#B1A7E4"/>
<path d="M15.3633 36.7637H32.918C33.5975 36.7637 34.1484 36.2128 34.1484 35.5332C34.1484 34.8537 33.5975 34.3027 32.918 34.3027H15.3633C14.6837 34.3027 14.1328 34.8537 14.1328 35.5332C14.1328 36.2128 14.6837 36.7637 15.3633 36.7637Z" fill="#B1A7E4"/>
<path d="M15.3633 51.6797H50.4727C51.1522 51.6797 51.7031 51.1288 51.7031 50.4492C51.7031 49.7697 51.1522 49.2188 50.4727 49.2188H15.3633C14.6837 49.2188 14.1328 49.7697 14.1328 50.4492C14.1328 51.1288 14.6837 51.6797 15.3633 51.6797Z" fill="#B1A7E4"/>
<path d="M15.3633 46.7578H32.918C33.5975 46.7578 34.1484 46.2069 34.1484 45.5273C34.1484 44.8478 33.5975 44.2969 32.918 44.2969H15.3633C14.6837 44.2969 14.1328 44.8478 14.1328 45.5273C14.1328 46.2069 14.6837 46.7578 15.3633 46.7578Z" fill="#B1A7E4"/>
<path d="M50.4727 71.6953H32.918C32.2384 71.6953 31.6875 72.2462 31.6875 72.9258C31.6875 73.6053 32.2384 74.1562 32.918 74.1562H50.4727C51.1522 74.1562 51.7031 73.6053 51.7031 72.9258C51.7031 72.2462 51.1524 71.6953 50.4727 71.6953Z" fill="#B1A7E4"/>
<path d="M15.3633 56.6016H50.4727C51.1522 56.6016 51.7031 56.0506 51.7031 55.3711C51.7031 54.6915 51.1522 54.1406 50.4727 54.1406H15.3633C14.6837 54.1406 14.1328 54.6915 14.1328 55.3711C14.1328 56.0506 14.6837 56.6016 15.3633 56.6016Z" fill="#B1A7E4"/>
</svg>
