<svg width="84" height="84" viewBox="0 0 84 84" fill="none" xmlns="http://www.w3.org/2000/svg">
<path d="M42 83.3438C19.2032 83.3438 0.65625 64.7968 0.65625 42C0.65625 19.2032 19.2032 0.65625 42 0.65625C64.7968 0.65625 83.3438 19.2032 83.3438 42C83.3438 64.7968 64.7968 83.3438 42 83.3438Z" fill="white"/>
<path d="M42 1.3125C64.4346 1.3125 82.6875 19.5654 82.6875 42C82.6875 64.4346 64.4346 82.6875 42 82.6875C19.5654 82.6875 1.3125 64.4346 1.3125 42C1.3125 19.5654 19.5654 1.3125 42 1.3125ZM42 0C18.8042 0 0 18.8042 0 42C0 65.1958 18.8042 84 42 84C65.1958 84 84 65.1958 84 42C84 18.8042 65.1958 0 42 0Z" fill="#999999"/>
<g opacity="0.5">
<path opacity="0.5" d="M41.9998 79.3785C21.3883 79.3785 4.62109 62.6113 4.62109 41.9998C4.62109 21.3883 21.3883 4.62109 41.9998 4.62109C62.6113 4.62109 79.3785 21.3883 79.3785 41.9998C79.3785 62.6113 62.6113 79.3785 41.9998 79.3785Z" fill="white"/>
<path opacity="0.5" d="M41.9998 4.94922C62.4302 4.94922 79.0503 21.5707 79.0503 41.9998C79.0503 62.4288 62.4302 79.0503 41.9998 79.0503C21.5694 79.0503 4.94922 62.4302 4.94922 41.9998C4.94922 21.5694 21.5694 4.94922 41.9998 4.94922ZM41.9998 4.29297C21.1743 4.29297 4.29297 21.1743 4.29297 41.9998C4.29297 62.8252 21.1743 79.7066 41.9998 79.7066C62.8252 79.7066 79.7066 62.8252 79.7066 41.9998C79.7066 21.1743 62.8252 4.29297 41.9998 4.29297Z" fill="#999999"/>
</g>
<path d="M37.9841 31.8125H41.5882L39.3347 42.6249C38.7349 45.4914 37.9474 47.4299 36.9735 48.4458C35.9996 49.4617 34.5007 49.9683 32.4795 49.9683C30.7667 49.9683 29.4844 49.5732 28.6313 48.7871C27.7781 48.0009 27.3516 46.9286 27.3516 45.5728C27.3516 45.2879 27.3726 44.9716 27.4132 44.6225L30.81 44.2576C30.7614 44.6146 30.7378 44.9113 30.7378 45.1475C30.7378 45.7158 30.8992 46.1503 31.2247 46.4495C31.5489 46.7501 32.0477 46.901 32.7223 46.901C33.6647 46.901 34.3262 46.6241 34.7068 46.0728C34.9916 45.6502 35.3355 44.4598 35.7424 42.5041L37.9841 31.8125Z" fill="#E21B1B"/>
<path d="M42.087 43.8781L45.5822 43.6944C45.6308 44.8074 45.8211 45.5568 46.1544 45.9466C46.6899 46.5793 47.6809 46.8982 49.126 46.8982C50.3269 46.8982 51.1958 46.6829 51.7313 46.2524C52.2668 45.8219 52.5345 45.3022 52.5345 44.6932C52.5345 44.1656 52.3153 43.7193 51.877 43.3531C51.5685 43.0854 50.722 42.6509 49.3373 42.0498C47.9526 41.45 46.9433 40.9486 46.3054 40.5457C45.6675 40.1441 45.1661 39.623 44.8013 38.9812C44.4351 38.3407 44.2526 37.5886 44.2526 36.729C44.2526 35.2261 44.796 33.9806 45.8841 32.9897C46.9721 32 48.5458 31.5039 50.6091 31.5039C52.7038 31.5039 54.3248 31.9961 55.4732 32.9778C56.6217 33.9596 57.253 35.2668 57.3672 36.8983L53.847 37.0558C53.7578 36.204 53.4493 35.5516 52.9217 35.0962C52.3941 34.6408 51.6145 34.4137 50.5841 34.4137C49.5696 34.4137 48.8451 34.5922 48.4106 34.9492C47.9762 35.3062 47.7596 35.7564 47.7596 36.2998C47.7596 36.8116 47.9578 37.2343 48.3568 37.5663C48.7545 37.9076 49.6352 38.3748 50.9989 38.9668C53.0516 39.8514 54.3602 40.5706 54.9193 41.1219C55.7554 41.9343 56.1728 42.9778 56.1728 44.2522C56.1728 45.8272 55.5493 47.1738 54.3038 48.2881C53.0582 49.4051 51.3231 49.9629 49.0984 49.9629C47.5641 49.9629 46.2345 49.7043 45.111 49.1885C43.9862 48.6727 43.1934 47.9574 42.7301 47.0399C42.2707 46.1264 42.0555 45.0699 42.087 43.8781Z" fill="#E21B1B"/>
</svg>
