<svg width="32" height="32" viewBox="0 0 32 32" fill="none" xmlns="http://www.w3.org/2000/svg">
<path d="M24.5 30.5H7.5C6.70435 30.5 5.94129 30.1839 5.37868 29.6213C4.81607 29.0587 4.5 28.2956 4.5 27.5V4.5C4.5 3.70435 4.81607 2.94129 5.37868 2.37868C5.94129 1.81607 6.70435 1.5 7.5 1.5H21.5L27.5 7.5V27.5C27.5 28.2956 27.1839 29.0587 26.6213 29.6213C26.0587 30.1839 25.2956 30.5 24.5 30.5Z" fill="#8690FA"/>
<path d="M4.5 22.5H27.5V27.5C27.5 28.2956 27.1839 29.0587 26.6213 29.6213C26.0587 30.1839 25.2956 30.5 24.5 30.5H7.5C6.70435 30.5 5.94129 30.1839 5.37868 29.6213C4.81607 29.0587 4.5 28.2956 4.5 27.5V22.5Z" fill="#CFD2FC"/>
<path d="M27.5 7.5H24.5C23.7044 7.5 22.9413 7.18393 22.3787 6.62132C21.8161 6.05871 21.5 5.29565 21.5 4.5V1.5L27.5 7.5Z" fill="#CFD2FC"/>
<path d="M21.8536 1.14644C21.8071 1.10001 21.752 1.06318 21.6913 1.03805C21.6307 1.01293 21.5657 0.999998 21.5 1H7.5C6.57206 1.00104 5.68243 1.37013 5.02628 2.02628C4.37013 2.68243 4.00104 3.57206 4 4.5V27.5C4.00104 28.4279 4.37013 29.3176 5.02628 29.9737C5.68243 30.6299 6.57206 30.999 7.5 31H24.5C25.4279 30.999 26.3176 30.6299 26.9737 29.9737C27.6299 29.3176 27.999 28.4279 28 27.5V7.5C28 7.43434 27.9871 7.36932 27.9619 7.30865C27.9368 7.24799 27.9 7.19287 27.8536 7.14644L21.8536 1.14644ZM22 2.70706L26.2929 7H24.5C23.8372 6.99926 23.2017 6.73562 22.7331 6.26694C22.2644 5.79827 22.0007 5.16281 22 4.5V2.70706ZM7.5 2H21V4.5C21.001 5.42794 21.3701 6.31757 22.0263 6.97372C22.6824 7.62987 23.5721 7.99896 24.5 8H27V22H5V4.5C5.00074 3.83719 5.26438 3.20173 5.73306 2.73306C6.20173 2.26438 6.83719 2.00074 7.5 2ZM24.5 30H7.5C6.83719 29.9993 6.20173 29.7356 5.73306 29.2669C5.26438 28.7983 5.00074 28.1628 5 27.5V23H27V27.5C26.9993 28.1628 26.7356 28.7983 26.2669 29.2669C25.7983 29.7356 25.1628 29.9993 24.5 30Z" fill="black"/>
<path d="M15 24C14.8674 24 14.7402 24.0527 14.6464 24.1464C14.5527 24.2402 14.5 24.3674 14.5 24.5V27.5C14.5 27.6326 14.4473 27.7598 14.3536 27.8536C14.2598 27.9473 14.1326 28 14 28C13.8674 28 13.7402 27.9473 13.6464 27.8536C13.5527 27.7598 13.5 27.6326 13.5 27.5C13.5 27.3674 13.4473 27.2402 13.3536 27.1464C13.2598 27.0527 13.1326 27 13 27C12.8674 27 12.7402 27.0527 12.6464 27.1464C12.5527 27.2402 12.5 27.3674 12.5 27.5C12.5 27.8978 12.658 28.2794 12.9393 28.5607C13.2206 28.842 13.6022 29 14 29C14.3978 29 14.7794 28.842 15.0607 28.5607C15.342 28.2794 15.5 27.8978 15.5 27.5V24.5C15.5 24.3674 15.4473 24.2402 15.3536 24.1464C15.2598 24.0527 15.1326 24 15 24Z" fill="black"/>
<path d="M18 25H19C19.1326 25 19.2598 24.9473 19.3536 24.8536C19.4473 24.7598 19.5 24.6326 19.5 24.5C19.5 24.3674 19.4473 24.2402 19.3536 24.1464C19.2598 24.0527 19.1326 24 19 24H18C17.6022 24 17.2206 24.158 16.9393 24.4393C16.658 24.7206 16.5 25.1022 16.5 25.5C16.5 25.8978 16.658 26.2794 16.9393 26.5607C17.2206 26.842 17.6022 27 18 27C18.1326 27 18.2598 27.0527 18.3536 27.1464C18.4473 27.2402 18.5 27.3674 18.5 27.5C18.5 27.6326 18.4473 27.7598 18.3536 27.8536C18.2598 27.9473 18.1326 28 18 28H17C16.8674 28 16.7402 28.0527 16.6464 28.1464C16.5527 28.2402 16.5 28.3674 16.5 28.5C16.5 28.6326 16.5527 28.7598 16.6464 28.8536C16.7402 28.9473 16.8674 29 17 29H18C18.3978 29 18.7794 28.842 19.0607 28.5607C19.342 28.2794 19.5 27.8978 19.5 27.5C19.5 27.1022 19.342 26.7206 19.0607 26.4393C18.7794 26.158 18.3978 26 18 26C17.8674 26 17.7402 25.9473 17.6464 25.8536C17.5527 25.7598 17.5 25.6326 17.5 25.5C17.5 25.3674 17.5527 25.2402 17.6464 25.1464C17.7402 25.0527 17.8674 25 18 25Z" fill="black"/>
<path d="M18 14C18.2761 14 18.5 13.7761 18.5 13.5C18.5 13.2239 18.2761 13 18 13C17.7239 13 17.5 13.2239 17.5 13.5C17.5 13.7761 17.7239 14 18 14Z" fill="black"/>
<path d="M14 14C14.2761 14 14.5 13.7761 14.5 13.5C14.5 13.2239 14.2761 13 14 13C13.7239 13 13.5 13.2239 13.5 13.5C13.5 13.7761 13.7239 14 14 14Z" fill="black"/>
<path d="M16 14C16.2761 14 16.5 13.7761 16.5 13.5C16.5 13.2239 16.2761 13 16 13C15.7239 13 15.5 13.2239 15.5 13.5C15.5 13.7761 15.7239 14 16 14Z" fill="black"/>
<path d="M9.5 14C9.63256 14.0001 9.75965 14.0529 9.85339 14.1466C9.94712 14.2403 9.99985 14.3674 10 14.5V16.5C10.0005 16.8977 10.1586 17.2789 10.4399 17.5601C10.7211 17.8414 11.1023 17.9995 11.5 18C11.6326 18 11.7598 17.9473 11.8536 17.8536C11.9473 17.7598 12 17.6326 12 17.5C12 17.3674 11.9473 17.2402 11.8536 17.1464C11.7598 17.0527 11.6326 17 11.5 17C11.3674 16.9999 11.2403 16.9471 11.1466 16.8534C11.0529 16.7597 11.0001 16.6326 11 16.5V14.5C11.0003 14.1308 10.8639 13.7746 10.6171 13.5C10.8639 13.2254 11.0003 12.8692 11 12.5V10.5C11.0001 10.3674 11.0529 10.2403 11.1466 10.1466C11.2403 10.0529 11.3674 10.0001 11.5 10C11.6326 10 11.7598 9.94732 11.8536 9.85355C11.9473 9.75979 12 9.63261 12 9.5C12 9.36739 11.9473 9.24021 11.8536 9.14645C11.7598 9.05268 11.6326 9 11.5 9C11.1023 9.00046 10.7211 9.15865 10.4399 9.43985C10.1586 9.72106 10.0005 10.1023 10 10.5V12.5C9.99985 12.6326 9.94712 12.7597 9.85339 12.8534C9.75965 12.9471 9.63256 12.9999 9.5 13C9.36739 13 9.24021 13.0527 9.14645 13.1464C9.05268 13.2402 9 13.3674 9 13.5C9 13.6326 9.05268 13.7598 9.14645 13.8536C9.24021 13.9473 9.36739 14 9.5 14Z" fill="black"/>
<path d="M21 16.5C20.9999 16.6326 20.9471 16.7597 20.8534 16.8534C20.7597 16.9471 20.6326 16.9999 20.5 17C20.3674 17 20.2402 17.0527 20.1464 17.1464C20.0527 17.2402 20 17.3674 20 17.5C20 17.6326 20.0527 17.7598 20.1464 17.8536C20.2402 17.9473 20.3674 18 20.5 18C20.8977 17.9995 21.2789 17.8414 21.5601 17.5601C21.8414 17.2789 21.9995 16.8977 22 16.5V14.5C22.0001 14.3674 22.0529 14.2403 22.1466 14.1466C22.2403 14.0529 22.3674 14.0001 22.5 14C22.6326 14 22.7598 13.9473 22.8536 13.8536C22.9473 13.7598 23 13.6326 23 13.5C23 13.3674 22.9473 13.2402 22.8536 13.1464C22.7598 13.0527 22.6326 13 22.5 13C22.3674 12.9999 22.2403 12.9471 22.1466 12.8534C22.0529 12.7597 22.0001 12.6326 22 12.5V10.5C21.9995 10.1023 21.8414 9.72106 21.5601 9.43985C21.2789 9.15865 20.8977 9.00046 20.5 9C20.3674 9 20.2402 9.05268 20.1464 9.14645C20.0527 9.24021 20 9.36739 20 9.5C20 9.63261 20.0527 9.75979 20.1464 9.85355C20.2402 9.94732 20.3674 10 20.5 10C20.6326 10.0001 20.7597 10.0529 20.8534 10.1466C20.9471 10.2403 20.9999 10.3674 21 10.5V12.5C20.9997 12.8692 21.1361 13.2254 21.3829 13.5C21.1361 13.7746 20.9997 14.1308 21 14.5V16.5Z" fill="black"/>
</svg>
