<svg width="498" height="418" viewBox="0 0 498 418" fill="none" xmlns="http://www.w3.org/2000/svg">
<path d="M145.022 418H70.0923C70.0923 418 41.0896 396.989 48.0903 366.303C57.0142 327.201 95.5561 325.769 95.5561 325.769C95.5561 325.769 95.3253 263.767 187.718 267.374C187.718 267.374 269.726 234.741 322.038 280.026C322.038 280.026 358.887 250.427 427.432 271.095C505.208 294.51 510.516 390.92 455.204 418H145.022Z" fill="#F9F8FF"/>
<path d="M313.716 64.4291C313.793 64.1746 315.905 60.5862 318.628 56.667C331.251 38.4705 349.982 20.9358 371.945 21.5975L371.97 21.4702C362.045 20.3759 352.323 23.0226 343.772 27.7308C329.673 35.3148 315.956 49.7956 308.448 60.917L313.716 64.4291Z" fill="#F7CC7F"/>
<path d="M367.059 31.6759L368.535 21.4452L360.951 14.4211C360.086 13.6321 360.519 12.1815 361.664 11.9779L371.844 10.2219L376.17 0.83101C376.654 -0.237871 378.181 -0.28877 378.715 0.754662L383.525 9.9165L393.781 11.1381C394.952 11.2653 395.461 12.6905 394.621 13.5303L387.393 20.9362L389.404 31.0905C389.633 32.2358 388.437 33.152 387.393 32.643L378.13 28.062L369.095 33.1011C368.128 33.6864 366.907 32.8466 367.059 31.6759Z" fill="#F7CC7F"/>
<path d="M167.229 12.9453L165.881 17.9589L169.953 21.3692L168.018 26.8663L173.465 29.1822L171.581 35.4937L176.315 38.2422L175.501 44.6301L173.083 44.3247L173.694 39.5401L168.68 36.6643L170.512 30.5819L164.99 28.2405L167.102 22.1581L163.132 18.8242L164.379 14.1924L161.325 12.5382L162.496 10.4004L167.229 12.9453Z" fill="#9BC1F9"/>
<path d="M52.8348 324.446C58.6882 330.987 58.1537 341.014 51.6132 346.893C45.0727 352.746 35.0201 352.186 29.1667 345.671C23.3133 339.131 23.8477 329.104 30.3883 323.225C36.9288 317.346 46.9814 317.906 52.8348 324.446Z" fill="#F7CC7F"/>
<path d="M36.3438 342.595C39.474 346.081 44.8439 346.387 48.3305 343.256C51.8171 340.126 52.1225 334.756 48.9922 331.27L36.3438 342.595Z" fill="#EFEFEF"/>
<path d="M454.835 414.387H74.0589C73.0663 414.387 72.252 415.201 72.252 416.194C72.252 417.186 73.0663 418.001 74.0589 418.001H454.835C455.828 418.001 456.642 417.186 456.642 416.194C456.642 415.201 455.828 414.387 454.835 414.387Z" fill="#F9F9F9"/>
<path d="M35.5276 284.645L31.3793 282.278C30.2341 284.11 28.8344 285.739 27.4855 286.986C26.3657 288.03 24.6097 288.004 23.5154 286.935L23.3881 286.808C22.1666 285.637 22.192 283.678 23.4645 282.558C24.7624 281.413 26.0095 279.988 26.9765 278.282C28.4017 275.788 28.4017 273.549 26.6457 272.556C24.9915 271.615 23.1337 272.429 20.207 275.025C15.9823 278.817 11.9867 280.751 7.73667 278.359C3.89378 276.17 2.41771 271.767 4.14828 266.55L0 264.209L2.41771 259.933L6.26059 262.122C7.22768 260.57 8.19476 259.399 9.08549 258.457C10.2053 257.312 12.0122 257.312 13.1574 258.406C14.3281 259.552 14.3536 261.435 13.1574 262.58C12.2667 263.445 11.2996 264.565 10.4343 266.118C8.831 268.968 9.51814 270.571 10.7397 271.258C12.1903 272.073 13.9718 271.055 17.4838 268.153C22.2684 264.005 25.8568 263.267 29.8014 265.481C33.6952 267.695 35.4512 272.327 33.4662 277.85L37.9198 280.369L35.5276 284.645Z" fill="#FAE0B2"/>
<path d="M443.841 109.322L441.092 116.168L429.589 112.962L424.346 122.48L415.337 121.513L414.828 126.068L426.866 127.391L431.854 118.357L443.815 121.691L447.963 111.384L443.841 109.322Z" fill="#466EB6"/>
<path d="M423.939 351.961L426.356 345.98C423.71 344.758 421.267 343.18 419.358 341.603C417.78 340.279 417.5 337.938 418.722 336.258L418.874 336.055C420.223 334.222 422.87 333.891 424.575 335.393C426.331 336.92 428.469 338.32 430.937 339.312C434.526 340.763 437.554 340.356 438.547 337.836C439.514 335.444 438.114 333.128 434.068 329.667C428.24 324.679 424.906 319.69 427.374 313.583C429.614 308.035 435.264 305.261 442.542 306.66L444.96 300.68L451.144 303.174L448.905 308.722C451.144 309.74 452.9 310.809 454.325 311.877C456.031 313.175 456.387 315.593 455.114 317.324C453.791 319.105 451.272 319.461 449.516 318.087C448.218 317.044 446.513 315.975 444.298 315.084C440.201 313.43 438.165 314.677 437.452 316.433C436.613 318.52 438.292 320.734 442.822 324.908C449.261 330.583 450.89 335.266 448.599 340.915C446.334 346.514 440.455 349.721 432.693 348.041L430.098 354.455L423.939 351.961Z" fill="#96D9C9"/>
<path d="M87.9794 144.976C88.5901 145.791 88.5392 146.911 87.8775 147.674C86.5542 149.15 84.391 150.932 81.6679 152.255C77.6977 154.189 73.1423 154.774 68.8413 153.298C66.1691 152.382 63.5987 150.499 61.69 147.929L59.3486 149.074C58.5597 149.456 57.5926 149.125 57.2108 148.336L57.1854 148.285C56.8036 147.496 57.1345 146.529 57.9234 146.147L59.8576 145.205C59.4758 144.569 59.2213 144.187 59.0432 143.831C58.7378 143.22 58.4579 142.482 58.2034 141.643L56.2183 142.61C55.4294 142.991 54.4623 142.661 54.0805 141.872C53.6988 141.083 54.0296 140.116 54.8186 139.734L57.2363 138.563C56.5491 135.484 56.6764 132.353 57.5926 129.681C59.1704 125.126 62.6061 121.639 66.7799 119.629C69.1976 118.458 71.2335 117.974 72.9132 117.796C74.0839 117.669 75.1273 118.483 75.28 119.654V119.68C75.4582 120.876 74.6183 121.97 73.3968 122.123C72.0225 122.301 70.4446 122.734 68.6377 123.624C65.9909 124.922 63.7514 127.034 62.6316 130.114C62.0208 131.895 61.8426 134.008 62.4534 136.018L75.9926 129.427C76.7815 129.045 77.7486 129.376 78.1304 130.165C78.5121 130.954 78.1813 131.921 77.3923 132.303L63.2424 139.199C63.4969 139.887 63.7768 140.574 63.9804 141.006C64.2349 141.541 64.5149 142.101 64.922 142.788L79.0975 135.891C79.9118 135.484 80.9044 135.84 81.2861 136.654C81.6933 137.469 81.337 138.461 80.5226 138.843L66.958 145.46C68.2305 146.987 69.8084 148.081 71.4117 148.641C74.5929 149.685 77.4178 149.354 80.4208 147.903C82.2532 147.012 83.7547 145.893 84.8491 144.824C85.7398 143.857 87.2159 143.984 87.9794 144.976Z" fill="#86B1F2"/>
<path d="M44.2061 187.782L37.2075 188.469L34.8152 177.322L24.4318 177.118L21.276 169.051L17.2041 170.654L21.4287 181.419L31.2523 181.623L33.7463 193.228L44.2824 192.159L44.2061 187.782Z" fill="#50BFA5"/>
<path d="M378.232 106.244L382.635 107.694C382.635 107.694 389.608 105.429 390.295 104.004C390.982 102.579 391.186 99.1431 392.178 99.0413C393.171 98.9396 395.079 99.2704 395.538 101.637C395.868 103.342 393.349 108.305 393.756 108.839C394.011 109.17 396.505 110.086 398.337 110.697C399.559 111.104 400.424 112.173 400.602 113.471C400.729 114.337 400.246 115.176 399.431 115.507L398.159 115.991L398.566 117.289C398.871 118.256 398.337 119.299 397.37 119.63L396.403 119.961L396.708 120.75C397.115 121.768 396.556 122.938 395.487 123.244L394.621 123.498L394.647 123.727C394.799 124.669 394.189 125.585 393.273 125.84L392.433 126.069L380.726 122.2C379.632 121.844 378.614 121.259 377.748 120.47L373.855 118.408C373.447 118.179 373.244 117.696 373.396 117.238L377.01 106.854C377.188 106.345 377.723 106.091 378.232 106.244Z" fill="#FAE0B2"/>
<path d="M110.069 120.215C109.967 119.935 107.625 115.914 104.597 111.563C90.4978 91.2538 69.6037 71.6831 45.0704 72.4211L45.0449 72.2684C56.1409 71.0468 66.9824 73.999 76.526 79.267C92.2539 87.7418 107.574 103.902 115.973 116.322L110.069 120.215Z" fill="#F7CC7F"/>
<path d="M50.5172 83.6428L48.863 72.216L57.3377 64.3775C58.3047 63.4868 57.8212 61.8835 56.5233 61.6544L45.1473 59.6948L40.3119 49.2096C39.752 48.0134 38.0723 47.9625 37.4616 49.1332L32.0663 59.3639L20.614 60.7382C19.316 60.8909 18.7561 62.4688 19.6723 63.4104L27.7398 71.6815L25.5003 83.0066C25.2458 84.3045 26.5691 85.3225 27.7653 84.7372L38.1232 79.6218L48.2013 85.2462C49.3211 85.8824 50.6953 84.9408 50.5172 83.6428Z" fill="#F7CC7F"/>
<path d="M433.965 281.794L434.754 279.097C438.953 278.308 442.567 275.483 443.763 271.411C444.145 270.113 444.399 269.018 444.603 267.542L438.978 265.914L439.971 262.503L445.061 263.979C445.264 262.274 445.544 260.06 446.181 257.948C448.064 251.56 453.714 248.659 459.771 250.415C461.501 250.924 462.85 251.56 463.843 252.222C464.733 252.833 464.988 254.029 464.377 254.945C463.792 255.861 462.57 256.116 461.629 255.556C460.865 255.072 459.873 254.639 458.625 254.283C454.35 253.062 451.754 255.479 450.634 259.322C449.947 261.638 449.769 263.47 449.591 265.303L457.455 267.568L456.462 270.978L449.031 268.84C448.598 270.953 448.089 273.04 447.02 274.846C445.723 277.01 443.839 278.562 441.523 279.606L441.498 279.707L455.877 283.856C456.946 284.161 457.557 285.255 457.251 286.324L457.2 286.477C456.895 287.52 455.775 288.131 454.706 287.826L433.965 281.794Z" fill="#F7CC7F"/>
<path d="M2.0353 122.482L4.7075 117.952L2.49339 113.193C2.2389 112.658 2.72244 112.047 3.30778 112.175L8.42314 113.32L12.266 109.757C12.6987 109.35 13.4113 109.63 13.4622 110.215L13.9457 115.432L18.5266 118.002C19.0611 118.282 19.0102 119.046 18.4503 119.3L13.6403 121.387L12.6223 126.528C12.4951 127.113 11.757 127.317 11.3753 126.859L7.96505 122.94L2.74789 123.576C2.16255 123.652 1.72991 122.991 2.0353 122.482Z" fill="#466EB6"/>
<path d="M496.012 195.062L489.573 194.553L488.708 200.482L482.371 200.253L480.819 205.827L476.06 206.412L476.365 208.83L482.753 208.041L484.203 202.747L490.795 203.002L491.66 197.149L497.488 197.632L496.012 195.062Z" fill="#F48C7F"/>
<path d="M152.545 50.9912L152.163 44.5525L146.157 44.5271L145.495 38.2156L139.769 37.4775L138.497 32.8457L136.13 33.4819L137.835 39.6916L143.256 40.4042L143.968 46.9702L149.873 46.9957L150.203 52.8236L152.545 50.9912Z" fill="#F48C7F"/>
<path d="M13.4621 240.642L18.323 242.5L22.1149 238.81L27.4085 241.278L30.2334 236.086L36.3412 238.606L39.5479 234.178L45.8085 235.628L45.274 237.995L40.5659 236.901L37.2065 241.609L31.3277 239.166L28.4519 244.434L22.6239 241.711L18.9083 245.325L14.4037 243.62L12.4696 246.47L10.4336 245.121L13.4621 240.642Z" fill="#F7CC7F"/>
<path d="M306.055 36.3086L305.725 40.2024L299.388 40.406L298.217 46.0558L293.509 46.972L293.967 49.3642L300.278 48.1426L301.373 42.7728L307.99 42.5692L308.448 36.6903L306.055 36.3086Z" fill="#50BFA5"/>
<path d="M434.78 36.9453C442.109 43.9694 442.338 55.5999 435.314 62.9039C428.29 70.2334 416.66 70.4624 409.356 63.4383C402.026 56.4143 401.797 44.7838 408.821 37.4798C415.82 30.1503 427.45 29.9213 434.78 36.9453Z" fill="#FFF3D9"/>
<path d="M434.475 52.2901L426.662 54.6823L424.219 62.4699C424.015 63.1061 423.175 63.2334 422.819 62.6989L418.111 56.0057L409.942 56.0821C409.28 56.0821 408.898 55.344 409.305 54.8096L414.217 48.269L411.621 40.5069C411.418 39.8707 412.003 39.2853 412.639 39.4889L420.376 42.1357L426.942 37.2748C427.476 36.8931 428.214 37.2748 428.214 37.9365L428.087 46.1058L434.755 50.8394C435.238 51.2721 435.086 52.0865 434.475 52.2901Z" fill="#FED333"/>
<path d="M486.825 131.592L491.126 131.338C491.585 131.312 491.839 130.702 491.534 130.32L488.785 126.732L489.956 122.151C490.083 121.667 489.65 121.234 489.218 121.413L485.197 123.219L481.608 120.649C481.227 120.369 480.692 120.7 480.743 121.209L480.997 125.917L477.613 128.895C477.256 129.226 477.358 129.862 477.816 129.964L481.99 131.058L483.466 135.461C483.619 135.944 484.23 135.995 484.459 135.563L486.825 131.592Z" fill="#F47458"/>
<path d="M158.806 211.197C158.806 211.197 166.517 196.335 167.713 190.889C168.909 185.443 172.93 157.982 172.701 156.201C172.268 152.816 167.84 150.628 168.655 149.126C169.469 147.624 173.668 147.166 175.093 147.294C176.519 147.421 179.394 148.261 180.641 149.279C181.863 150.297 179.267 183.203 178.478 190.278C177.689 197.353 168.095 219.189 168.095 219.189L158.806 211.197Z" fill="#F7A491"/>
<path d="M182.015 148.668C181.837 148.77 181.2 148.973 181.048 149.101L179.852 149.482C179.852 149.482 182.906 149.406 184.712 151.34C184.712 151.315 183.873 149.788 182.015 148.668Z" fill="#F47257"/>
<path d="M327.969 154.622C329.165 153.706 329.776 151.415 330.03 149.939L330.641 148.005C330.183 147.801 321.097 146.071 318.349 145.867C318.043 146.732 317.865 147.445 317.941 147.929C318.247 150.194 320.461 164.954 320.461 164.954L328.325 165.463C328.299 165.463 326.976 156.734 327.969 154.622Z" fill="#F7A491"/>
<path d="M328.147 148.438C328.147 148.438 326.518 149.176 324.711 151.339C324.711 151.339 320.384 148.285 320.588 147.394C320.843 146.198 325.296 148.641 325.296 148.641L328.147 148.438Z" fill="#F47458"/>
<path d="M366.499 364.227C366.499 364.227 377.086 371.861 378.74 374.126C381.132 377.409 360.824 383.543 363.038 379.7C363.547 378.809 365.023 375.857 365.074 375.552C365.404 373.999 361.104 369.775 361.104 369.775L366.499 364.227Z" fill="#F7A491"/>
<path d="M357.541 386.112L364.718 375.958C364.718 375.958 369.197 374.914 373.803 369.748C373.803 369.748 377.951 371.326 380.496 374.762C380.496 374.762 375.686 379.953 368.281 385.781C368.281 385.781 363.878 389.675 357.821 391.711C351.738 393.747 357.541 386.112 357.541 386.112Z" fill="#F7CC7F"/>
<path d="M452.876 176.05C452.876 176.05 450.153 180.554 449.848 180.274C449.618 180.071 451.247 177.678 452.418 174.803C452.723 174.064 453.003 173.326 453.283 172.665C453.97 170.883 453.131 169.967 452.113 171.723C451.756 172.334 451.196 173.377 450.891 174.166C450.56 175.032 450 175.719 449.618 176.38C448.855 177.729 448.321 178.722 448.295 178.671C448.244 178.595 447.913 178.747 448.219 177.958C448.575 176.991 449.746 175.133 450.178 173.683C450.407 172.868 450.993 171.189 450.993 171.189C450.993 171.189 451.425 168.491 451.273 168.415C450.484 168.007 449.695 169.789 449.517 170.934C449.033 171.621 448.473 173.403 448.473 173.403C448.473 173.403 446.539 176.762 446.056 176.508C445.852 176.406 446.819 174.192 447.43 171.876C447.99 169.738 448.219 167.473 447.837 167.32C447.175 167.04 446.285 169.356 446.285 169.356C446.285 169.356 445.75 171.011 445.547 171.545C445.292 172.181 444.401 174.014 444.401 174.014C444.401 174.014 440.889 180.198 440.482 179.892C440.075 179.612 439.388 178.442 439.464 177.984C439.54 177.526 440.126 176.762 440.202 176.304C440.278 175.846 440.024 175.184 439.464 175.057C438.93 174.93 437.708 176.991 437.708 176.991C437.708 176.991 436.716 178.671 436.69 180.045C436.588 184.728 437.352 184.55 437.326 185.135C437.301 185.848 431.88 193.661 431.88 193.661C431.88 193.661 431.855 193.712 431.778 193.788L438.217 198.471C440.355 194.984 442.035 192.235 442.518 191.396C442.518 191.396 445.75 188.647 447.71 186.84C449.669 185.033 450.789 182.437 451.273 181.852C451.349 181.776 452.825 179.689 454.021 176.66C455.014 174.039 452.876 176.05 452.876 176.05Z" fill="#F8A492"/>
<path d="M382.684 285.84L381.005 294.111L338.937 332.362L369.043 362.825L360.925 371.122C360.925 371.122 316.465 338.47 314.861 334.194C312.393 327.603 346.75 283.957 346.75 283.957L382.684 285.84Z" fill="#B75742"/>
<path d="M413.657 387.105C413.657 387.105 424.244 394.74 425.898 397.005C428.291 400.288 407.982 406.422 410.196 402.579C410.705 401.688 412.181 398.736 412.232 398.431C412.563 396.878 408.262 392.653 408.262 392.653L413.657 387.105Z" fill="#F7A491"/>
<path d="M404.673 409.016L411.85 398.862C411.85 398.862 416.635 397.996 421.216 392.83C421.216 392.83 425.059 394.23 427.604 397.64C427.604 397.64 422.794 402.832 415.388 408.66C415.388 408.66 410.985 412.553 404.928 414.589C398.896 416.651 404.673 409.016 404.673 409.016Z" fill="#F7CC7F"/>
<path d="M381.235 289.658L381.897 344.044L415.312 385.959L407.448 394.688C407.448 394.688 366.067 360.281 361.537 350.406C358.738 344.273 348.481 286.375 348.481 286.375L381.235 289.658Z" fill="#F47458"/>
<path d="M347.31 285.383C350.72 277.672 350.338 222.319 363.648 209.34C368.331 210.129 371.665 210.587 372.454 210.79C373.141 216.491 373.904 237.411 374.388 256.6C374.693 269.375 374.388 282.762 375.94 289.837C376.933 294.214 344.179 292.433 347.31 285.383Z" fill="#FAE0B2"/>
<path d="M290.941 241.101C283.153 241.559 279.87 242.781 277.478 242.323C275.086 241.865 268.698 239.6 268.825 237.182C277.376 235.477 292.29 238.124 292.29 238.124C291.272 243.112 290.941 241.101 290.941 241.101Z" fill="#F7A491"/>
<path d="M357.973 211.097C357.973 211.097 354.512 228.072 350.491 230.973C346.47 233.9 326.059 244.156 324.812 244.08C318.653 243.723 289.132 242.527 289.132 242.527L290.048 233.06L323.311 230.362C323.311 230.362 347.386 214.583 350.643 212.089C352.908 210.664 357.973 211.097 357.973 211.097Z" fill="#466EB6"/>
<path d="M345.963 289.074C342.96 289.074 341.866 288.667 339.88 288.056C339.88 288.056 338.583 265.839 344.945 232.907C347.337 220.488 347.414 212.955 352.325 211.046C356.754 209.315 362.174 209.086 363.65 209.341C350.62 246.243 350.569 274.644 348.711 282.89C347.795 287.013 346.981 289.1 345.963 289.074Z" fill="#466EB6"/>
<path d="M365.023 203.766L363.649 209.339C363.649 209.339 363.343 214.2 365.583 214.633C368.306 215.167 372.327 211.095 372.327 211.095L374.668 195.367L365.023 203.766Z" fill="#F7A491"/>
<path d="M365.023 203.766L363.649 209.339C363.649 209.339 363.343 214.2 365.583 214.633C368.306 215.167 372.327 211.095 372.327 211.095L374.668 195.367L365.023 203.766Z" fill="#F7A491"/>
<path d="M374.669 195.445L365.024 203.767L364.006 207.941C367.696 207.05 372.939 202.978 374.669 195.445Z" fill="#F47458"/>
<path d="M364.997 180.963C362.656 180.963 360.569 182.566 359.755 184.908C359.068 186.842 358.202 189.692 357.643 192.975C356.625 199.032 360.06 204.555 363.063 204.987C366.066 205.42 373.192 203.435 374.77 194.884C375.457 191.219 376.348 186.409 373.319 183.864C370.953 181.905 367.67 180.988 364.997 180.963Z" fill="#F7A491"/>
<path d="M373.803 201.424C373.803 201.424 384.365 192.008 384.823 184.653C385.281 177.298 378.486 173.353 372.684 173.149C370.062 173.048 368.281 173.175 365.583 173.506C359.755 174.244 355.989 176.814 357.312 181.573C359.093 187.961 371.157 182.566 373.625 184.551C375.661 186.18 372.353 190.124 374.338 191.626C376.196 193.051 375.254 192.567 374.643 195.24C374.032 197.988 373.803 201.424 373.803 201.424Z" fill="#13375B"/>
<path d="M377.874 192.899C377.62 194.655 376.525 195.953 375.456 195.8C374.387 195.648 373.726 194.095 374.006 192.314C374.26 190.558 375.355 189.26 376.423 189.413C377.467 189.591 378.129 191.143 377.874 192.899Z" fill="#F7A491"/>
<path d="M329.776 145.461C328.834 143.806 327.409 145.511 328.325 147.649C328.376 147.751 328.325 147.929 328.325 147.904C328.096 148.464 325.882 150.22 325.882 150.22C325.882 150.22 327.638 155.131 328.63 153.859C329.623 152.561 330.361 148.362 330.361 148.362L329.776 145.461Z" fill="#F7A491"/>
<path d="M441.091 195.825L433.889 188.699C433.889 188.699 420.222 208.321 413.3 211.706C406.556 215.014 384.135 213.818 383.346 213.64C380.648 213.029 372.377 210.764 372.377 210.764C372.377 210.764 365.455 270.265 374.464 290.956C377.416 297.7 395.74 293.221 395.74 293.221C395.74 293.221 390.09 268.433 389.785 265.201C389.505 262.096 387.927 237.511 388.181 237.282C388.843 236.621 413.86 231.175 420.706 225.957C427.985 220.46 441.091 195.825 441.091 195.825Z" fill="#466EB6"/>
<path d="M91.8757 249.83C104.219 262.682 115.035 251.306 114.5 251.484C114.933 251.306 117.631 251.306 119.387 251.255C126.742 250.975 133.435 245.707 136.336 238.734C147.33 237.283 154.532 227.129 151.3 218.349C156.161 212.292 154.66 202.646 150.053 196.462C148.984 186.333 135.751 184.603 126.614 188.166C121.983 189.973 118.063 193.866 116.027 198.575C107.247 198.371 99.7396 204.835 97.78 213.819C84.1645 217.585 79.3036 236.698 91.8757 249.83Z" fill="#FF3B3B"/>
<path d="M171.126 374.381C169.853 381.329 167.639 387.436 167.359 388.149C167.207 388.505 165.832 389.752 165.68 390.109C166.418 398.583 171.813 403.597 176.877 407.185C175.783 402.91 173.34 398.023 173.645 397.082C174.154 395.58 176.114 388.684 180.288 380.005C176.063 379.522 174.562 376.951 171.126 374.381Z" fill="#F7A491"/>
<path d="M155.704 273.676L126.437 293.654C126.437 293.654 140.688 302.917 145.575 307.575C150.461 312.232 176.623 333.355 177.03 334.424C177.336 335.213 174.613 345.24 168.327 377.306C171.101 380.157 177.234 382.931 180.848 383.847C188.457 366.745 197.034 331.141 196.067 327.222C194.59 321.139 155.704 273.676 155.704 273.676Z" fill="#355389"/>
<path d="M81.5931 313.887C82.4584 314.727 88.1591 325.848 90.3478 331.804C93.529 329.793 95.4632 327.426 99.0006 326.077C96.2012 322.031 90.7295 312.258 90.2714 309.942C89.2026 304.42 87.9555 303.605 87.9555 303.605C87.9555 303.605 69.4792 309.866 68.2321 311.622C67.036 313.353 78.1575 310.528 81.5931 313.887Z" fill="#F7A491"/>
<path d="M90.5011 311.137C91.9263 311.137 90.3739 304.648 90.043 303.172C89.6613 301.492 88.6942 300.983 88.4651 300.932C87.8034 300.779 67.2657 307.727 63.8045 310.221C63.5755 310.399 63.1428 310.934 63.0919 311.036C61.1832 314.573 78.1326 315.26 80.5503 313.708C82.7135 312.334 84.0624 311.137 90.5011 311.137Z" fill="#3C8F7C"/>
<path d="M161.021 279.911C161.021 279.911 136.233 270.138 135.902 271.181C133.332 279.453 125.341 276.78 120.607 291.338C118.622 297.445 117.07 313.53 115.721 325.465C114.805 333.66 113.507 340.252 113.507 340.252C113.507 340.252 107.755 331.751 96.9645 319.587C96.1247 318.645 87.3955 326.941 87.3955 326.941C104.599 361.069 117.146 365.879 119.895 364.963C132.339 360.764 148.805 303.553 148.78 303.579C150.816 299.66 161.021 279.911 161.021 279.911Z" fill="#466EB6"/>
<path d="M122.771 222.115C122.771 222.115 93.1732 222.09 86.8363 221.708C81.1101 221.377 58.3582 221.963 57.4675 221.861C56.5768 221.759 50.6979 211.808 49.7308 212.877C48.7638 213.946 53.0138 217.814 51.6905 218.807C50.3671 219.799 36.268 217.56 36.4462 218.603C36.8025 220.563 45.0227 220.308 45.0227 221.25C45.0227 222.192 36.3953 220.716 35.8099 222.294C35.2246 223.871 44.1065 222.93 44.4373 223.642C44.7936 224.329 36.2171 225.627 37.0824 227.078C37.5659 227.867 44.6918 225.755 44.6409 226.824C44.6155 227.892 39.3983 230.361 40.0346 231.201C40.6708 232.066 44.1065 228.554 47.135 228.529C50.1635 228.478 52.3012 226.9 57.1367 228.223C59.5035 228.885 77.6744 231.099 92.9951 232.397C108.723 233.746 121.6 234.178 121.6 234.178L122.771 222.115Z" fill="#F7A491"/>
<path d="M166.645 248.429C167.027 243.67 166.111 234.636 165.882 233.058C167.307 228.121 170.387 217.585 171.481 215.523C171.481 215.523 166.34 205.623 161.047 205.7C161.047 205.7 155.651 217.839 151.503 220.028C151.452 220.002 150.027 220.664 149.416 220.664C145.395 220.639 131.347 220.206 128.726 220.155L130.202 240.082C135.75 254.766 134.732 267.771 133.765 272.301C133.23 274.821 157.636 282.379 161.377 279.961C161.505 279.834 165.856 258.024 166.645 248.429Z" fill="#50BFA5"/>
<path d="M135.853 220.869C133.257 219.622 114.501 220.258 114.501 220.258C114.501 220.258 111.879 233.314 113.992 236.469C113.992 236.469 130.763 238.963 130.28 240.338L135.853 220.869Z" fill="#50BFA5"/>
<path d="M139.136 211.732C139.136 211.732 141.095 218.603 141.452 221.555C141.808 224.533 146.313 233.746 152.471 232.448C158.63 231.124 152.217 222.497 150.995 219.774C149.799 217.051 146.542 206.082 146.542 206.082L139.136 211.732Z" fill="#F7A491"/>
<path d="M147.89 210.587C147.127 208.093 146.516 206.082 146.516 206.082L139.11 211.732C139.11 211.732 139.467 213.004 139.899 214.659C143.819 215.193 146.516 213.335 147.89 210.587Z" fill="#F47257"/>
<path d="M133.765 191.193C133.765 191.193 130.533 193.051 129.413 196.97C128.293 200.89 129.769 210.968 138.219 213.258C146.643 215.574 150.18 207.532 148.348 201.322C146.515 195.087 142.647 187.249 133.765 191.193Z" fill="#F7A491"/>
<path d="M149.365 198.882C149.238 200.561 148.322 201.859 147.329 201.783C146.362 201.707 145.675 200.281 145.802 198.602C145.93 196.922 146.846 195.624 147.838 195.7C148.805 195.777 149.492 197.202 149.365 198.882Z" fill="#F7A491"/>
<path d="M167.283 388.378C166.748 387.054 161.404 391.279 160.132 392.144C158.706 393.111 158.605 394.206 158.63 394.46C158.732 395.122 172.347 411.893 176.343 414.209C176.725 414.438 177.514 414.438 177.743 414.336C179.957 413.471 176.343 399.754 173.442 397.03C171.584 395.274 169.675 394.358 167.283 388.378Z" fill="#3C8F7C"/>
<path d="M134.732 190.66C134.732 190.66 133.383 201.934 129.769 204.021C126.155 206.108 127.758 211.071 127.758 211.071C127.758 211.071 124.297 199.542 127.122 195.776C129.947 192.009 134.732 190.66 134.732 190.66Z" fill="#FF3B3B"/>
<path d="M131.958 205.599C132.976 207.049 132.976 208.78 132.009 209.467C131.016 210.154 129.413 209.518 128.42 208.067C127.402 206.617 127.402 204.886 128.369 204.199C129.337 203.512 130.94 204.148 131.958 205.599Z" fill="#F7A491"/>
<path d="M284.73 99.2177C280.123 100.134 261.749 124.744 261.749 124.744L261.112 126.449C261.112 126.449 294.375 122.758 295.571 121.333C298.803 117.49 288.496 98.4542 284.73 99.2177ZM261.978 125.278C268.035 117.516 281.879 106.191 284.857 103.799C287.529 106.522 291.55 114.564 292.084 118.178C288.267 118.941 271.674 124.082 261.978 125.278Z" fill="#82C7E6"/>
<path d="M240.169 103.418C231.134 97.5139 228.64 97.5648 225.993 99.0663C223.346 100.568 213.625 114.514 217.977 118.866C222.328 123.218 256.787 126.323 256.787 126.323L257.576 124.21C257.576 124.185 249.229 109.322 240.169 103.418ZM223.983 117.314C221.972 115.303 226.986 106.956 229.251 105.174C229.836 104.843 253.021 119.604 256.253 124.643C243.324 123.243 225.866 118.968 223.983 117.314Z" fill="#82C7E6"/>
<path d="M257.092 132.838H259.026C260.96 132.838 262.513 131.286 262.513 129.351V123.651C262.513 121.716 260.96 120.164 259.026 120.164H257.092C255.158 120.164 253.605 121.716 253.605 123.651V129.351C253.605 131.26 255.158 132.838 257.092 132.838Z" fill="#82C7E6"/>
<path d="M330.59 126.552L172.93 126.068C168.731 126.068 165.525 129.784 166.135 133.932L168.579 150.016L176.468 149.991L181.227 230.946C181.481 235.272 185.07 238.657 189.396 238.657H315.219L320.461 149.686L327.893 149.66L330.59 126.552Z" fill="#B32323"/>
<path d="M173.898 151.924L173.923 149.99C172.422 149.405 170.64 149.583 169.75 149.354L167.637 147.802C167.205 147.598 166.568 148.082 166.568 148.591C166.568 149.049 167.179 149.99 167.459 150.219C167.459 150.219 171.251 153.324 172.574 154.291C173.236 154.749 175.298 156.022 175.298 156.022L176.494 153.757L173.898 151.924Z" fill="#F7A491"/>
<path d="M317.968 238.709H221.387L216.221 128.232H330.973L326.163 231.023C325.959 235.324 322.345 238.709 317.968 238.709Z" fill="#FF3B3B"/>
<path d="M335.706 149.762L211.131 150.093L208.28 126.119L330.311 126.577C334.307 126.603 337.462 130.038 337.106 134.034L335.706 149.762Z" fill="#FF3B3B"/>
<path d="M211.131 150.093L329.955 149.762L214.897 156.048L211.131 150.093Z" fill="#B32323"/>
<path d="M261.189 126.32H257.881V149.988H261.189V126.32Z" fill="#82C7E6"/>
<path d="M271.574 149.865H267.451V238.862H271.574V149.865Z" fill="#82C7E6"/>
<path d="M171.834 79.8775C182.828 84.153 191.888 87.0288 200.948 89.4211C203.925 90.21 208.863 92.4751 211.611 90.4645C213.036 89.4211 213.647 87.8432 212.807 86.189C211.28 83.1351 206.521 82.906 203.518 82.1171C194.356 79.6739 184.126 76.4927 173.971 72.6498C172.063 71.9373 169.848 73.3624 169.289 75.2203C168.652 77.3071 169.925 79.1395 171.834 79.8775Z" fill="#DEF0F8"/>
<path d="M242.28 62.9791C239.023 38.1149 239.252 38.064 237.878 35.6972C236.478 33.3049 232.609 33.6103 231.846 36.4098C231.082 39.1583 231.261 38.7257 234.773 64.8624C235.053 66.9492 237.623 68.1454 239.481 67.6873C241.695 67.1274 242.56 65.066 242.28 62.9791Z" fill="#DEF0F8"/>
<path d="M282.26 66.1581C284.729 62.8496 286.79 59.2867 288.495 55.5202C290.073 52.0081 292.974 46.8673 290.251 43.4062C289.666 42.6681 288.292 42.3119 287.426 42.6172C283.762 43.8897 283.049 49.0305 281.573 52.2626C279.97 55.7747 277.984 59.134 275.821 62.3152C274.676 63.9949 275.44 66.4635 277.119 67.456C278.977 68.6012 281.038 67.8123 282.26 66.1581Z" fill="#DEF0F8"/>
<path d="M337.588 85.0678C338.708 83.5409 337.766 81.5558 336.468 80.5887C333.771 78.5782 329.037 80.436 326.085 81.2504C322.675 82.192 319.366 83.4645 316.134 84.9406C314.276 85.8059 313.767 88.4272 314.709 90.1068C315.803 92.0665 317.967 92.321 319.875 91.532C332.244 86.3658 334.84 88.8344 337.588 85.0678Z" fill="#DEF0F8"/>
</svg>
