<svg width="88" height="84" viewBox="0 0 88 84" fill="none" xmlns="http://www.w3.org/2000/svg">
<path d="M0 7.62291C0 5.14361 0 2.62731 0 0C28.8264 0 57.6159 0 86.5533 0C86.5533 2.5163 86.5533 4.95859 86.5533 7.62291C57.7639 7.62291 28.9374 7.62291 0 7.62291Z" fill="#B1A7E4"/>
<path d="M70.8636 84.0006C65.2389 78.3759 59.5033 72.6402 53.7676 66.9415C55.4698 65.2763 57.246 63.5001 59.2442 61.5389C61.5755 63.9812 64.0178 66.5345 66.4231 69.0878C66.5711 68.9768 66.7561 68.9028 66.9041 68.7918C66.9041 59.0596 66.9041 49.2904 66.9041 39.4473C69.6055 39.4473 72.0848 39.4473 74.7861 39.4473C74.7861 49.2534 74.7861 59.0226 74.7861 68.9768C77.4134 66.2755 79.8557 63.7962 82.261 61.3169C84.3702 63.4631 86.1834 65.2763 87.8486 66.9785C82.261 72.6402 76.5253 78.3759 70.8636 84.0006Z" fill="#B1A7E4"/>
<path d="M0 23.6465C22.3507 23.6465 44.5163 23.6465 66.83 23.6465C66.83 26.2368 66.83 28.7901 66.83 31.4544C44.5533 31.4544 22.3507 31.4544 0 31.4544C0 28.8271 0 26.3478 0 23.6465Z" fill="#B1A7E4"/>
<path d="M47.1437 47.3652C47.1437 49.9925 47.1437 52.4718 47.1437 55.0992C31.4168 55.0992 15.801 55.0992 0.0371094 55.0992C0.0371094 52.5458 0.0371094 50.0296 0.0371094 47.3652C15.69 47.3652 31.3058 47.3652 47.1437 47.3652Z" fill="#B1A7E4"/>
<path d="M27.3835 71.0117C27.3835 73.639 27.3835 76.1553 27.3835 78.7456C18.2434 78.7456 9.25131 78.7456 0.0742188 78.7456C0.0742188 76.1923 0.0742188 73.639 0.0742188 71.0117C9.10329 71.0117 18.1324 71.0117 27.3835 71.0117Z" fill="#B1A7E4"/>
</svg>
