<svg width="28" height="28" viewBox="0 0 28 28" fill="none" xmlns="http://www.w3.org/2000/svg">
<path d="M14 28C21.7192 28 28 21.7198 28 14C28 10.2573 26.5445 6.74109 23.9016 4.09843C21.2583 1.45548 17.7427 0 14 0C6.28023 0 0 6.28023 0 14C0 17.7427 1.45548 21.2589 4.09843 23.9016C6.74109 26.5445 10.2573 28 14 28ZM14 25.6667C11.2736 25.6667 8.69161 24.7398 6.61377 23.036L23.036 6.61377C24.7398 8.69161 25.6667 11.2736 25.6667 14C25.6667 20.4329 20.4329 25.6667 14 25.6667ZM14 2.33333C16.7258 2.33333 19.3084 3.26017 21.3857 4.96403L4.96403 21.3862C3.26017 19.3084 2.33333 16.7264 2.33333 14C2.33333 7.5671 7.5671 2.33333 14 2.33333Z" fill="#999999"/>
</svg>
