<svg width="84" height="82" viewBox="0 0 84 82" fill="none" xmlns="http://www.w3.org/2000/svg">
<path d="M8.42744 57.9849C8.42744 70.8656 18.9052 81.3434 31.7859 81.3434C44.6657 81.3434 55.1435 70.8647 55.1435 57.9849C55.1435 45.107 44.6657 34.6283 31.7859 34.6283C18.9052 34.6293 8.42744 45.108 8.42744 57.9849ZM23.3183 38.6112C31.6368 33.3207 43.3639 36.8114 49.4601 46.3964C55.5555 55.9805 53.7489 68.0832 45.4304 73.3756C37.1128 78.6661 25.3848 75.1754 19.2885 65.5895C13.1932 56.0044 14.9997 43.9017 23.3183 38.6112ZM0.236003 37.4203L21.269 1.59205C21.6054 1.01664 22.2544 0.658203 22.9618 0.658203C23.67 0.658203 24.319 1.01664 24.6545 1.59013L37.9443 24.2299C37.3078 24.5979 36.697 25.0385 36.1655 25.546L25.6486 6.99438C25.2395 6.29949 24.4519 5.91716 23.6519 6.03091C22.8528 6.14083 22.199 6.72388 21.9973 7.50575L14.2198 38.9993C12.8787 40.3958 11.6983 41.9452 10.708 43.6198C7.35883 42.7423 4.1071 41.4844 0.975814 39.8376C0.521796 39.5986 0.19777 39.2086 0.0639545 38.7403C-0.0622146 38.2939 -8.58706e-05 37.8236 0.236003 37.4203ZM57.4996 57.5634C57.4996 60.2722 57.0609 62.8797 56.2589 65.3237L60.1721 67.3721C60.3145 67.4485 60.4713 67.4877 60.6299 67.4877H60.6318C60.6968 67.5623 60.7714 67.6311 60.8593 67.6856C61.0123 67.7754 61.1824 67.8204 61.3535 67.8204C61.5112 67.8204 61.6689 67.785 61.8113 67.7066L83.4952 55.9471C83.8068 55.7788 84.0009 55.452 84.0009 55.0993V26.4894C84.0009 26.4818 83.999 26.4741 83.999 26.4655C83.997 26.4598 84.0009 26.4522 84.0009 26.4455C83.999 26.4177 83.9894 26.3929 83.9846 26.3652C83.9779 26.3107 83.9703 26.261 83.9559 26.2084C83.9445 26.1731 83.9292 26.1434 83.9148 26.1081C83.8948 26.0631 83.8737 26.0182 83.8479 25.979C83.8279 25.9456 83.8049 25.9178 83.7801 25.8873C83.7514 25.85 83.7199 25.8146 83.6816 25.7812C83.6539 25.7573 83.6224 25.7343 83.5918 25.7104C83.5717 25.6951 83.5545 25.677 83.5325 25.6636C83.5124 25.6521 83.4876 25.6464 83.4656 25.634C83.4465 25.6263 83.4321 25.612 83.413 25.6024L61.0677 14.7825C60.8077 14.6725 60.5124 14.6831 60.2581 14.8102L38.1728 26.3222C37.8488 26.4866 37.6433 26.8173 37.6423 27.1786C37.6423 27.1843 37.6442 27.1901 37.6442 27.1958C37.6041 27.3019 37.5754 27.4156 37.5763 27.5342L37.6021 33.1181C48.9469 35.4656 57.4996 45.5333 57.4996 57.5634ZM62.3179 39.1474L82.072 28.1067V54.5248L62.3179 65.2396V39.1474ZM40.7296 27.1939L60.7274 16.7323L80.8084 26.5984L61.343 37.4814L40.7296 27.1939Z" fill="#B1A7E4"/>
</svg>
