<svg width="419" height="419" viewBox="0 0 419 419" fill="none" xmlns="http://www.w3.org/2000/svg">
<path d="M363.913 357.527C355.568 366.305 347.671 371.978 341.446 376.456C268.132 429.065 181.382 413.733 162.945 409.986C135.715 404.462 83.0919 393.774 45.0389 349.018C-12.5256 281.317 -3.56851 174.667 41.0829 104.264C49.2488 91.3805 92.3924 19.9174 180.083 8.45225C233.154 1.51047 295.003 15.5135 339.804 53.0439C433.839 131.822 427.136 290.975 363.913 357.527Z" fill="url(#paint0_linear)"/>
<path d="M4.47849 2.90048C4.09035 1.25834 6.40428 0.168556 7.82249 1.31806C22.2136 12.9922 56.8031 47.94 48.1893 109.028C37.3811 185.671 55.8626 213.632 78.8825 230.681C78.8825 230.681 47.2787 222.664 27.3938 194.285C-21.4375 124.613 11.3456 32.1605 4.47849 2.90048Z" fill="#91B3FA"/>
<path d="M15.4353 26.8468C17.2417 35.371 18.839 43.94 20.0781 52.5389C21.3769 61.1228 22.3622 69.7515 23.034 78.3803C23.6759 87.009 24.1238 95.6526 24.1536 104.311C24.2283 112.955 23.87 121.598 23.4669 130.272C23.1235 138.945 22.7205 147.679 23.3624 156.472C23.9894 165.25 25.8406 174.102 29.4981 182.403C30.4087 184.478 31.379 186.538 32.4688 188.523C33.5288 190.539 34.6783 192.509 35.8726 194.465C38.291 198.361 41.008 202.123 44.0385 205.691C50.1144 212.827 57.4593 219.157 65.5356 224.501C66.3865 225.068 67.6107 224.919 68.2526 224.188C68.8946 223.471 68.7453 222.441 67.9391 221.874C66.0133 220.53 64.1174 219.157 62.2812 217.724C61.3556 217.022 60.4599 216.275 59.5642 215.559C58.6983 214.812 57.7877 214.081 56.9517 213.305C53.5181 210.244 50.3383 206.99 47.4571 203.541C41.6499 196.689 37.0071 189.046 33.4989 181.119C31.797 177.133 30.4236 173.057 29.4234 168.892C28.4232 164.727 27.8111 160.502 27.4528 156.233C26.7661 147.694 27.0796 139.05 27.3483 130.376C27.6021 121.703 27.7962 112.985 27.5573 104.266C27.4528 99.9072 27.2588 95.563 26.9901 91.2039C26.8706 89.0243 26.6915 86.8597 26.5123 84.6801C26.3183 82.5155 26.1093 80.3359 25.8853 78.1713C24.9448 69.4978 23.7058 60.869 22.1532 52.2702C20.5558 43.6863 18.6898 35.1322 16.4505 26.6677C16.3908 26.4288 16.1071 26.2795 15.8235 26.3243C15.5548 26.384 15.3756 26.608 15.4353 26.8468Z" fill="white"/>
<path d="M41.7695 192.149C40.0079 194.015 36.9028 193.477 35.8429 191.133C29.9909 178.205 16.7343 140.137 38.6196 96.2772C57.1011 59.2544 63.61 37.4139 65.8791 27.2923C66.3568 25.1575 69.2978 24.8739 70.1786 26.8743C79.9269 49.0134 105.709 124.283 41.7695 192.149Z" fill="#BDD0FB"/>
<path d="M38.5586 190.776C38.4989 190.791 38.4243 190.791 38.3646 190.791C37.8122 190.776 37.3643 190.328 37.3793 189.776C37.3942 189.149 38.6183 126.284 61.9965 73.6314C62.2204 73.1238 62.8176 72.8999 63.3251 73.1238C63.8327 73.3478 64.0566 73.9449 63.8327 74.4525C40.6188 126.717 39.3946 189.193 39.3946 189.806C39.3797 190.298 39.0214 190.701 38.5586 190.776Z" fill="white"/>
<path d="M178.77 307.369L169.828 387.58H273.597L260.071 307.369H178.77Z" fill="url(#paint1_linear)"/>
<path d="M4.46484 109.728V293.439C4.46484 308.547 16.5122 320.908 31.6199 321.296C98.7238 323.028 333.401 327.223 397.28 326.282C408.253 326.118 417.15 317.34 417.464 306.353C418.703 263.672 420.703 161.038 413.299 113.401C411.746 103.369 403.267 95.8597 393.115 95.5462C336.894 93.7548 88.1096 88.0372 24.2601 89.4703C13.2578 89.7241 4.46484 98.7111 4.46484 109.728Z" fill="url(#paint2_linear)"/>
<path d="M15.9902 108.833V283.378C15.9902 292.2 23.0664 299.396 31.8892 299.53L388.085 303.934C396.833 304.069 403.999 297.022 404.029 288.274L404.626 115.297C404.656 109.042 399.669 103.921 393.414 103.772L28.7392 96.3824C21.7527 96.2182 15.9902 101.846 15.9902 108.833Z" fill="#91B3FA"/>
<path d="M406.715 311.131C406.715 311.131 406.7 311.131 406.715 311.131L15.9749 304.473C15.6764 304.473 15.4375 304.219 15.4375 303.92C15.4375 303.622 15.6764 303.383 15.9899 303.383L406.715 310.041C407.014 310.041 407.253 310.295 407.253 310.593C407.253 310.892 407.014 311.131 406.715 311.131Z" fill="#91B3FA"/>
<path d="M295.945 403.985H144.077C139.956 403.985 136.851 401.044 137.657 397.894L139.613 390.191C140.195 387.877 142.748 386.175 145.778 386.071L292.183 381.503C295.348 381.398 298.154 383.085 298.841 385.489L302.349 397.76C303.245 400.955 300.14 403.985 295.945 403.985Z" fill="url(#paint3_linear)"/>
<path d="M225.826 388.222C225.527 388.222 225.288 387.983 225.273 387.685C225.273 387.386 225.512 387.133 225.811 387.133L232.081 387.043H232.096C232.394 387.043 232.633 387.282 232.648 387.58C232.648 387.879 232.409 388.133 232.111 388.133L225.826 388.222C225.841 388.222 225.826 388.222 225.826 388.222Z" fill="#91B3FA"/>
<path d="M143.27 399.792C143.24 399.792 143.211 399.792 143.181 399.792C142.882 399.747 142.673 399.464 142.733 399.165L143.629 393.567C144.106 390.536 146.704 388.297 149.779 388.252L216.316 387.282C216.599 387.267 216.868 387.521 216.868 387.819C216.868 388.118 216.629 388.372 216.331 388.372L149.794 389.342C147.256 389.387 145.121 391.223 144.718 393.746L143.823 399.344C143.763 399.598 143.539 399.792 143.27 399.792Z" fill="#91B3FA"/>
<path opacity="0.44" d="M327.041 162.635H287.451C284.972 162.635 282.957 160.62 282.957 158.142C282.957 155.664 284.972 153.648 287.451 153.648H327.041C329.519 153.648 331.535 155.664 331.535 158.142C331.535 160.62 329.534 162.635 327.041 162.635Z" fill="white"/>
<path opacity="0.43" d="M341.612 155.561H384.337C387.024 155.561 389.189 163.547 389.189 173.415V278.542C389.189 288.395 387.009 296.397 384.337 296.397H341.612C338.924 296.397 336.76 288.41 336.76 278.542V173.415C336.76 163.547 338.939 155.561 341.612 155.561Z" fill="white"/>
<path opacity="0.46" d="M287.451 167.637H327.041C329.519 167.637 331.535 169.652 331.535 172.13V198.643C331.535 201.121 329.519 203.137 327.041 203.137H287.451C284.972 203.137 282.957 201.121 282.957 198.643V172.145C282.957 169.652 284.972 167.637 287.451 167.637Z" fill="white"/>
<path opacity="0.38" d="M287.451 211.08H327.041C329.519 211.08 331.535 215.932 331.535 221.918V285.783C331.535 291.769 329.519 296.621 327.041 296.621H287.451C284.972 296.621 282.957 291.769 282.957 285.783V221.933C282.957 215.932 284.972 211.08 287.451 211.08Z" fill="white"/>
<path opacity="0.42" d="M388.711 148.066H34.0379C29.9326 148.066 26.6035 144.737 26.6035 140.631V111.058C26.6035 106.878 30.052 103.519 34.232 103.623L388.89 112.596C392.921 112.7 396.13 115.999 396.13 120.03V140.646C396.145 144.752 392.816 148.066 388.711 148.066Z" fill="white"/>
<path opacity="0.58" d="M270.06 269.703H150.556C147.541 269.703 145.107 267.27 145.107 264.254V162.322C145.107 159.306 147.541 156.873 150.556 156.873H270.06C273.075 156.873 275.508 159.306 275.508 162.322V264.254C275.508 267.255 273.075 269.703 270.06 269.703Z" fill="white"/>
<path opacity="0.28" d="M275.165 298.501L29.4407 296.441C26.455 296.411 24.0664 293.992 24.0664 291.007V282.333C24.0664 278.183 27.4253 274.824 31.5755 274.824H274.837C276.434 274.824 277.733 276.123 277.733 277.72V295.948C277.733 297.366 276.583 298.516 275.165 298.501Z" fill="white"/>
<path opacity="0.47" d="M132.388 267.091H29.2018C26.3654 267.091 24.0664 264.792 24.0664 261.955V158.784C24.0664 155.947 26.3654 153.648 29.2018 153.648H132.388C135.225 153.648 137.524 155.947 137.524 158.784V261.97C137.524 264.792 135.225 267.091 132.388 267.091Z" fill="white"/>
<path d="M208.179 165.383L324.398 164.338C326.682 164.323 328.533 166.159 328.518 168.443L328.011 257.627C327.996 259.926 326.1 261.747 323.816 261.687C302.796 261.06 209.508 258.298 205.402 258.463C201.327 258.627 203.536 187 204.148 169.324C204.208 167.145 205.984 165.398 208.179 165.383Z" fill="url(#paint4_linear)"/>
<path opacity="0.69" d="M323.934 258.327H323.905C307.214 257.835 223.152 255.327 207.656 255.118H207.447L207.417 254.909C205.954 246.683 205.984 213.139 207.492 169.443C207.506 169.055 207.82 168.756 208.208 168.756L324.427 167.711C324.681 167.711 324.845 167.83 324.95 167.92C325.084 168.054 325.159 168.233 325.159 168.427L324.651 257.611C324.636 257.999 324.323 258.327 323.934 258.327ZM207.88 254.61C223.913 254.849 307.304 257.327 323.919 257.82H323.934C324.039 257.82 324.143 257.715 324.143 257.596L324.651 168.413C324.651 168.353 324.636 168.308 324.591 168.263C324.546 168.219 324.502 168.204 324.427 168.204L208.208 169.249C208.089 169.249 207.999 169.338 207.999 169.458C206.506 212.765 206.461 246.086 207.88 254.61Z" fill="white"/>
<path d="M222.196 246.864H298.377C300.751 246.864 302.229 244.281 301.019 242.236L270.864 190.971C269.61 188.836 266.46 189.001 265.43 191.255L250.874 223.157C250.008 225.053 247.545 225.546 246.008 224.143L240.111 218.738C238.737 217.484 236.588 217.723 235.528 219.246L219.688 242.027C218.27 244.072 219.733 246.864 222.196 246.864Z" fill="white"/>
<path d="M301.55 199.542C307.141 197.226 309.796 190.816 307.48 185.225C305.164 179.634 298.754 176.979 293.163 179.295C287.572 181.611 284.917 188.021 287.233 193.612C289.549 199.203 295.959 201.858 301.55 199.542Z" fill="white"/>
<path d="M397.069 272.241C394.397 262.344 386.127 254.223 376.931 252.177C375.244 251.804 374.258 250.073 374.661 248.386C374.661 248.371 374.661 248.356 374.676 248.356C376.005 242.608 372.318 238.025 366.764 236.726C361.211 235.443 355.881 237.936 354.538 243.683C353.642 247.565 354.792 251.939 357.344 254.76C358.389 255.925 358.479 257.671 357.464 258.865C351.851 265.434 349.567 275.466 352 284.438C355.568 297.65 368.003 303.562 380.454 300.188C392.904 296.814 400.652 285.453 397.069 272.241Z" fill="url(#paint5_linear)"/>
<path d="M393.204 284.857L392.965 284.693C395.189 281.528 395.473 276.96 393.711 272.78C392.308 269.451 389.8 266.405 385.799 263.211C384.306 262.016 382.739 260.882 381.216 259.792C379.38 258.478 377.484 257.105 375.722 255.627C374.14 254.298 372.468 252.641 372.124 250.476C371.945 249.402 372.11 248.252 372.274 247.132C372.528 245.386 372.751 243.744 371.736 242.49L371.96 242.311C373.065 243.669 372.811 245.46 372.557 247.177C372.408 248.267 372.244 249.402 372.408 250.432C372.737 252.507 374.364 254.104 375.901 255.403C377.648 256.881 379.544 258.239 381.38 259.553C382.903 260.658 384.485 261.792 385.978 262.987C390.009 266.226 392.547 269.301 393.98 272.675C395.786 276.93 395.488 281.603 393.204 284.857Z" fill="#91B3FA"/>
<path d="M387.277 286.77L386.994 286.665C388.516 282.47 388.069 277.32 385.77 272.528C383.501 267.78 379.783 263.899 376.812 261.063L377.021 260.854C380.022 263.72 383.754 267.616 386.053 272.408C388.382 277.26 388.83 282.5 387.277 286.77Z" fill="#91B3FA"/>
<path d="M327.561 232.501L327.456 229.082L331.024 221.991C331.681 220.693 331.681 219.17 331.039 217.871L326.994 209.705C326.994 209.705 324.665 227.425 324.038 228.903C323.426 230.381 325.71 233.024 325.71 233.024L327.561 232.501Z" fill="url(#paint6_linear)"/>
<path d="M327.473 229.082C327.473 229.082 338.326 258.685 356.838 267.941C356.838 267.941 350.672 277.988 347.462 278.6C347.462 278.6 327.697 253.296 325.682 232.575L327.473 229.082Z" fill="url(#paint7_linear)"/>
<path d="M401.892 407.182L402.444 411.675C403.012 413.81 405.758 419.184 409.282 418.841C411.446 418.632 411.715 412.287 411.416 411.332C410.864 409.6 409.864 407.003 408.401 405.465H403.415C402.489 405.45 401.773 406.256 401.892 407.182Z" fill="url(#paint8_linear)"/>
<path d="M362.884 354.572L362.048 359.514C362.048 359.514 364.869 388.027 365.362 399.433C365.437 401.224 364.974 402.986 364.033 404.508L359.137 412.45L371.572 405.105L371.826 403.583L369.796 400.776L372.468 368.829C372.617 366.948 372.244 365.067 371.348 363.41L368.781 358.573L362.884 354.572Z" fill="url(#paint9_linear)"/>
<path d="M358.316 413.63H362.287C363.033 413.63 363.735 413.287 364.183 412.705C365.422 411.092 367.99 407.957 369.214 407.883C370.871 407.778 370.647 413.645 370.647 413.645H371.572L372.752 406.36C373.05 404.524 372.14 402.702 370.483 401.852C370.483 401.852 370.109 404.643 368.064 405.882C366.019 407.121 359.734 411.54 359.734 411.54C359.734 411.54 358.958 411.436 358.122 411.585C356.868 411.764 357.047 413.63 358.316 413.63Z" fill="url(#paint10_linear)"/>
<path d="M379.916 356.93C379.916 356.93 396.412 388.22 399.025 395.356C401.652 402.492 402.563 408.463 402.593 409.016C402.652 409.896 403.742 410.747 406.773 410.747C408.325 410.747 409.101 410.12 409.475 409.523C409.788 409.001 409.803 408.359 409.534 407.821C408.579 405.896 405.548 399.715 404.429 396.923C403.085 393.579 400.204 378.442 398.636 373.172C397.054 367.902 395.278 362.2 388.395 356.93C388.41 356.93 383.678 352.302 379.916 356.93Z" fill="url(#paint11_linear)"/>
<path d="M369.496 305.666C367.078 295.425 369.511 287.722 372.064 282.96C374.094 279.168 372.661 274.48 368.854 272.495C362.883 269.389 356.837 267.941 356.837 267.941C356.837 267.941 345.013 276.585 346.416 283.348C347.238 287.319 354.732 307.099 354.732 307.099C354.732 307.099 361.644 310.383 369.496 305.666Z" fill="url(#paint12_linear)"/>
<path d="M378.93 314.593C377.199 309.383 369.495 305.666 369.495 305.666C361.643 310.383 354.716 307.099 354.716 307.099C354.716 307.099 353.164 313.041 354.238 318.549C355.313 324.058 362.031 359.513 362.031 359.513C372.63 361.663 388.917 357.349 388.917 357.349C382.185 345.376 380.662 319.803 378.93 314.593Z" fill="url(#paint13_linear)"/>
<path d="M364.555 256.03L368.018 271.571C368.347 272.944 367.108 272.72 365.719 272.451C363.45 272.018 360.539 271.138 359.554 269.376C359.449 269.197 359.405 268.988 359.375 268.794L357.882 258.015C357.763 257.164 358.225 256.328 359.016 255.985L361.883 254.716C363.002 254.224 364.271 254.865 364.555 256.03Z" fill="url(#paint14_linear)"/>
<path d="M321.321 245.773C321.321 245.773 330.428 277.392 367.137 274.421C369.481 274.227 371.556 275.974 371.735 278.318L371.84 279.587C372.109 282.99 369.332 285.857 365.913 285.692C353.702 285.08 327.487 280.273 318.5 251.267L321.321 245.773Z" fill="url(#paint15_linear)"/>
<path d="M318.501 251.265C318.501 251.265 316.754 246.114 316.306 242.905C315.873 239.68 317.485 232.47 318.874 230.439C320.262 228.409 320.501 233.38 321.128 235.724C321.755 238.068 320.695 241.397 320.695 241.397L321.337 245.771L318.501 251.265Z" fill="url(#paint16_linear)"/>
<path d="M357.464 243.222C357.464 243.222 348.716 255.956 354.15 259.509C359.584 263.062 365.809 254 365.809 254C365.809 254 367.765 247.074 365.541 244.789C363.331 242.49 357.464 243.222 357.464 243.222Z" fill="url(#paint17_linear)"/>
<path d="M361.138 240.131C361.138 240.131 357.331 241.101 356.823 242.848C356.316 244.594 362.302 246.072 363.974 246.132L365.452 253.089C365.452 253.089 369.304 246.446 367.662 242.684C366.019 238.907 361.138 240.131 361.138 240.131Z" fill="url(#paint18_linear)"/>
<path d="M364.062 253.104C364.062 253.104 367.481 248.984 368.929 251.596C370.362 254.209 365.869 256.284 364.272 255.015L364.062 253.104Z" fill="url(#paint19_linear)"/>
<path d="M36.918 375.25H176.157V352.633H36.918C39.8888 352.633 39.8888 375.25 36.918 375.25Z" fill="#91B3FA"/>
<path d="M176.158 369.59V359.244C176.158 355.602 173.411 352.646 170.007 352.646H37.5009C34.8287 352.646 32.6641 350.884 32.6641 348.72C32.6641 348.063 33.3209 347.525 34.1271 347.525H178.949C182.263 347.525 187.548 351.765 187.548 356.99V371.441C187.548 376.367 182.427 380.368 179.292 380.368H34.9033C33.6643 380.368 32.679 379.562 32.679 378.562C32.679 376.741 34.5003 375.263 36.7545 375.263H170.903C173.799 375.248 176.158 372.71 176.158 369.59Z" fill="url(#paint20_linear)"/>
<path opacity="0.76" d="M172.29 357.767H41.74C41.4563 357.767 41.2324 357.543 41.2324 357.26C41.2324 356.976 41.4563 356.752 41.74 356.752H172.29C172.574 356.752 172.798 356.976 172.798 357.26C172.798 357.543 172.574 357.767 172.29 357.767Z" fill="white"/>
<path opacity="0.76" d="M172.29 361.128H41.74C41.4563 361.128 41.2324 360.904 41.2324 360.621C41.2324 360.337 41.4563 360.113 41.74 360.113H172.29C172.574 360.113 172.798 360.337 172.798 360.621C172.798 360.904 172.574 361.128 172.29 361.128Z" fill="white"/>
<path opacity="0.76" d="M172.29 364.486H41.74C41.4563 364.486 41.2324 364.262 41.2324 363.978C41.2324 363.695 41.4563 363.471 41.74 363.471H172.29C172.574 363.471 172.798 363.695 172.798 363.978C172.798 364.262 172.574 364.486 172.29 364.486Z" fill="white"/>
<path opacity="0.76" d="M172.29 367.845H41.74C41.4563 367.845 41.2324 367.621 41.2324 367.338C41.2324 367.054 41.4563 366.83 41.74 366.83H172.29C172.574 366.83 172.798 367.054 172.798 367.338C172.798 367.621 172.574 367.845 172.29 367.845Z" fill="white"/>
<path opacity="0.76" d="M172.29 371.203H41.74C41.4563 371.203 41.2324 370.979 41.2324 370.695C41.2324 370.411 41.4563 370.188 41.74 370.188H172.29C172.574 370.188 172.798 370.411 172.798 370.695C172.798 370.979 172.574 371.203 172.29 371.203Z" fill="white"/>
<path d="M190.623 418.465H9.18083C7.97161 418.465 6.98633 417.48 6.98633 416.271V382.861C6.98633 381.651 7.97161 380.666 9.18083 380.666H190.623C191.832 380.666 192.817 381.651 192.817 382.861V416.271C192.817 417.48 191.832 418.465 190.623 418.465Z" fill="url(#paint21_linear)"/>
<path d="M46.1882 414.12H31.6328C29.6174 414.12 27.9902 412.493 27.9902 410.478V388.652C27.9902 386.637 29.6174 385.01 31.6328 385.01H46.1882C48.2035 385.01 49.8307 386.637 49.8307 388.652V410.478C49.8158 412.493 48.1886 414.12 46.1882 414.12Z" fill="#7D97F4"/>
<path d="M58.266 414.121H55.9969C54.3697 414.121 53.041 412.793 53.041 411.165V387.981C53.041 386.354 54.3697 385.025 55.9969 385.025H58.266C59.8932 385.025 61.2219 386.354 61.2219 387.981V411.165C61.2219 412.793 59.8932 414.121 58.266 414.121Z" fill="#7D97F4"/>
<path d="M100.99 245.832C100.901 245.996 95.2129 250.176 95.2129 250.176C95.2129 250.176 96.4669 259.148 101.558 262.701C107.156 266.598 115.068 259.492 115.068 259.492C115.068 259.492 121.368 260.985 124.712 247.892C125.473 244.892 121.039 244.638 115.695 245.19C108.813 245.892 100.99 245.832 100.99 245.832Z" fill="url(#paint22_linear)"/>
<path d="M90.3767 276.449C92.6011 274.927 95.0494 273.762 97.6618 273.061C98.6471 272.792 103.917 274.33 107.186 274.255C111.665 274.15 116.233 272.105 119.92 273.031C123.593 273.941 126.593 275.136 128.325 276.375C133.52 280.062 136.566 286.959 138.417 293.767C134.894 297.379 130.475 298.977 130.475 298.977L129.654 332.133L110.053 342.165L87.6746 330.924L88.4808 298.529C88.4808 298.529 81.3748 295.215 80.8523 294.02C80.3447 292.826 84.1067 280.764 90.3767 276.449Z" fill="url(#paint23_linear)"/>
<path d="M81.1964 293.887C81.1964 293.887 71.672 320.28 93.393 331.134C97.9015 330.536 96.1698 323.042 96.1698 323.042C96.1698 323.042 86.7349 320.952 89.5713 298.933C86.9588 296.783 81.1964 293.887 81.1964 293.887Z" fill="url(#paint24_linear)"/>
<path d="M137.984 293.887C137.984 293.887 144.537 321.445 125.787 331.134C121.279 330.536 123.01 323.042 123.01 323.042C123.01 323.042 130.609 319.295 129.609 298.933C132.221 296.783 137.984 293.887 137.984 293.887Z" fill="url(#paint25_linear)"/>
<path d="M129.178 332.984H88.6766C87.9899 332.984 87.4375 332.417 87.4375 331.745V305.202C87.4375 304.515 88.0048 303.963 88.6766 303.963H129.178C129.864 303.963 130.417 304.53 130.417 305.202V331.745C130.432 332.417 129.864 332.984 129.178 332.984Z" fill="url(#paint26_linear)"/>
<path d="M149.285 341.582C144.358 340.447 132.998 341.059 132.998 341.059L132.535 342.313L131.773 348.539C131.773 348.539 142.597 350.494 147.941 350.479C148.479 350.479 148.986 350.39 149.434 350.255C149.598 350.106 149.762 349.957 149.912 349.793C152.166 347.329 151.509 343.702 149.285 341.582Z" fill="url(#paint27_linear)"/>
<path d="M129.729 340.717L131.654 340.806C132.684 340.851 133.67 341.359 134.356 342.21C135.058 343.061 135.416 344.18 135.342 345.33C135.297 346.24 134.924 347.091 134.297 347.703C133.685 348.315 132.864 348.614 132.042 348.554L129.102 348.345L129.729 340.717Z" fill="url(#paint28_linear)"/>
<path d="M64.9838 340.987C69.9252 340.001 81.2858 340.972 81.2858 340.972L81.7188 342.241L82.3308 348.481C82.3308 348.481 71.4628 350.093 66.1184 349.929C65.581 349.914 65.0734 349.81 64.6256 349.66C64.4613 349.511 64.3121 349.347 64.1628 349.183C61.9533 346.645 62.6998 343.032 64.9838 340.987Z" fill="url(#paint29_linear)"/>
<path d="M84.5564 340.719L82.6307 340.749C81.6006 340.764 80.6153 341.241 79.8987 342.062C79.1822 342.898 78.794 344.003 78.8239 345.153C78.8537 346.063 79.1971 346.929 79.8092 347.556C80.4063 348.183 81.2124 348.511 82.0335 348.482L84.9894 348.362L84.5564 340.719Z" fill="url(#paint30_linear)"/>
<path d="M150.659 322.071C148.435 316.935 142.971 316.099 138.328 318.503C138.254 318.607 108.829 333.685 82.8984 340.283C83.6449 342.657 84.0181 345.195 84.1077 347.688C84.1226 348.24 84.1077 348.793 84.0778 349.33C103.963 348.315 125.564 341.672 144.106 335.85C149.853 333.998 153.122 327.758 150.659 322.071Z" fill="url(#paint31_linear)"/>
<path d="M129.865 348.092C129.79 345.225 130.343 342.553 131.537 340.075C131.567 339.956 131.611 339.851 131.641 339.747C130.163 339.284 128.253 338.672 125.73 337.821C107.308 331.521 93.26 325.146 79.8541 317.831C74.644 314.98 68.7174 316.891 67.0454 323.056C65.5525 328.565 68.8219 333.253 73.7931 334.91C88.6321 339.851 80.914 338.478 85.7509 340.045C98.7686 344.076 114.981 347.733 129.88 348.734C129.88 348.51 129.865 348.301 129.865 348.092Z" fill="url(#paint32_linear)"/>
<path d="M97.6621 273.061C97.6621 273.061 99.6476 281.645 109.262 281.465C119.055 281.286 119.936 273.031 119.936 273.031L113.531 271.657L112.994 264.521L103.365 265.238L103.186 272.016L97.6621 273.061Z" fill="url(#paint33_linear)"/>
<path d="M104.724 244.338C104.724 244.338 93.6921 265.701 106.784 270.896C116.01 274.553 121.803 256.714 120.071 251.877C117.399 244.398 115.652 245.293 115.652 245.293L104.724 244.338Z" fill="url(#paint34_linear)"/>
<path d="M122.713 242.383C128.162 243.876 123.504 255.7 115.294 252.908C107.083 250.116 103.858 250.161 102.589 252.4C101.306 254.655 101.037 262.656 98.2602 258.7C95.2148 254.371 93.5279 245.668 97.2451 242.861C100.574 240.353 101.35 236.472 105.351 236.606C110.651 236.785 114.756 234.426 117.16 236.128C119.922 238.069 118.712 241.279 122.713 242.383Z" fill="url(#paint35_linear)"/>
<path d="M102.095 254.251C102.095 254.251 99.7366 251.714 99.3634 254.774C98.9902 257.819 100.199 261.76 101.618 259.596C103.036 257.431 102.095 254.251 102.095 254.251Z" fill="url(#paint36_linear)"/>
<path d="M111.472 316.189C111.696 317.727 110.875 319.13 109.337 319.354C107.799 319.578 106.366 318.518 106.142 316.981C105.918 315.443 106.62 313.905 108.158 313.681C109.68 313.457 111.233 314.652 111.472 316.189Z" fill="#91B3FA"/>
<path d="M81.8991 235.025C109.684 235.025 132.208 212.501 132.208 184.716C132.208 156.93 109.684 134.406 81.8991 134.406C54.1141 134.406 31.5898 156.93 31.5898 184.716C31.5898 212.501 54.1141 235.025 81.8991 235.025Z" fill="white"/>
<path d="M40.4277 182.266L50.9822 176.758V179.102C50.9822 179.281 50.9375 179.445 50.8479 179.594C50.7583 179.744 50.609 179.863 50.415 179.967L45.5781 182.446C45.3691 182.55 45.1601 182.64 44.9362 182.714C44.7122 182.789 44.4734 182.864 44.2047 182.923C44.4585 182.983 44.6973 183.058 44.9362 183.132C45.1601 183.207 45.384 183.297 45.5781 183.401L50.415 185.894C50.624 185.999 50.7732 186.133 50.8479 186.267C50.9375 186.417 50.9822 186.581 50.9822 186.76V189.104L40.4277 183.58V182.266Z" fill="#91B3FA"/>
<path d="M55.8047 191.91V172.1H59.1039V179.713C59.6413 179.206 60.2235 178.803 60.8655 178.489C61.5074 178.176 62.2538 178.026 63.1197 178.026C63.8661 178.026 64.523 178.146 65.1052 178.399C65.6874 178.653 66.1651 179.012 66.5533 179.459C66.9414 179.922 67.24 180.46 67.434 181.102C67.6281 181.743 67.7326 182.43 67.7326 183.206V191.91H64.4334V183.206C64.4334 182.37 64.2393 181.729 63.8512 181.266C63.463 180.803 62.8808 180.579 62.1045 180.579C61.5373 180.579 60.9998 180.713 60.5072 180.967C60.0145 181.221 59.5368 181.579 59.089 182.027V191.925H55.8047V191.91Z" fill="#91B3FA"/>
<path d="M75.4494 192.118C74.27 192.118 73.3594 191.789 72.7174 191.117C72.0755 190.446 71.762 189.52 71.762 188.341V180.697H70.3737C70.1945 180.697 70.0452 180.637 69.9109 180.518C69.7765 180.399 69.7168 180.234 69.7168 179.996V178.697L71.9113 178.338L72.598 174.606C72.6279 174.427 72.7174 174.293 72.8518 174.188C72.9862 174.084 73.1354 174.039 73.3444 174.039H75.0463V178.338H78.6441V180.682H75.0463V188.087C75.0463 188.52 75.1508 188.848 75.3598 189.087C75.5688 189.326 75.8524 189.445 76.2107 189.445C76.4197 189.445 76.5839 189.416 76.7183 189.371C76.8527 189.326 76.9721 189.266 77.0766 189.221C77.1811 189.162 77.2706 189.117 77.3453 189.072C77.4199 189.027 77.5095 188.998 77.5842 188.998C77.6887 188.998 77.7633 189.027 77.823 189.072C77.8827 189.117 77.9574 189.192 78.0171 189.296L79.0024 190.893C78.5247 191.296 77.9723 191.595 77.3453 191.804C76.7631 192.028 76.1212 192.118 75.4494 192.118Z" fill="#91B3FA"/>
<path d="M81.2715 191.91V178.235H83.2868C83.7198 178.235 83.9885 178.429 84.1228 178.832L84.3318 179.847C84.5707 179.579 84.8245 179.34 85.0783 179.116C85.347 178.892 85.6157 178.698 85.9143 178.549C86.2128 178.384 86.5263 178.265 86.8697 178.175C87.2131 178.086 87.5863 178.041 87.9893 178.041C88.8552 178.041 89.5568 178.28 90.1092 178.743C90.6615 179.205 91.0796 179.832 91.3483 180.609C91.5573 180.161 91.826 179.773 92.1544 179.444C92.4679 179.116 92.8262 178.862 93.2143 178.653C93.6025 178.444 94.0055 178.295 94.4385 178.205C94.8714 178.101 95.3043 178.056 95.7373 178.056C96.4986 178.056 97.1704 178.175 97.7526 178.399C98.3348 178.623 98.8275 178.967 99.2306 179.414C99.6336 179.862 99.9322 180.4 100.141 181.042C100.35 181.684 100.455 182.415 100.455 183.236V191.94H97.1853V183.236C97.1853 182.37 96.9913 181.713 96.6181 181.266C96.2299 180.833 95.6776 180.609 94.9311 180.609C94.5878 180.609 94.2743 180.668 93.9906 180.788C93.707 180.907 93.4532 181.072 93.2293 181.281C93.0053 181.504 92.8411 181.773 92.7217 182.102C92.6023 182.43 92.5426 182.803 92.5426 183.236V191.94H89.2433V183.236C89.2433 182.326 89.0642 181.654 88.691 181.236C88.3178 180.818 87.7803 180.609 87.0638 180.609C86.5861 180.609 86.1531 180.728 85.7351 180.967C85.3171 181.206 84.9439 181.519 84.5856 181.937V191.954H81.2715V191.91Z" fill="#91B3FA"/>
<path d="M107.233 172.1V191.91H103.934V172.1H107.233Z" fill="#91B3FA"/>
<path d="M112.234 189.119V186.776C112.234 186.596 112.279 186.432 112.369 186.283C112.458 186.134 112.608 186.014 112.802 185.91L117.639 183.417C118.027 183.223 118.489 183.058 119.012 182.939C118.758 182.879 118.519 182.805 118.28 182.73C118.057 182.655 117.833 182.566 117.639 182.461L112.802 179.983C112.593 179.879 112.443 179.744 112.369 179.61C112.279 179.461 112.234 179.296 112.234 179.117V176.773L122.789 182.282V183.611L112.234 189.119Z" fill="#91B3FA"/>
<path d="M197.311 196.538C221.79 196.538 241.634 176.694 241.634 152.216C241.634 127.737 221.79 107.893 197.311 107.893C172.832 107.893 152.988 127.737 152.988 152.216C152.988 176.694 172.832 196.538 197.311 196.538Z" fill="white"/>
<path d="M173.873 152.292L186.682 145.619V148.471C186.682 148.68 186.622 148.889 186.518 149.068C186.413 149.247 186.234 149.396 185.98 149.53L180.113 152.531C179.859 152.665 179.606 152.77 179.322 152.859C179.053 152.949 178.755 153.039 178.441 153.113C178.755 153.188 179.053 153.278 179.322 153.367C179.591 153.457 179.859 153.576 180.113 153.696L185.98 156.726C186.234 156.86 186.413 157.01 186.518 157.189C186.622 157.368 186.682 157.562 186.682 157.771V160.622L173.873 153.919V152.292Z" fill="#91B3FA"/>
<path d="M193.921 164.039C193.832 164.293 193.697 164.502 193.548 164.681C193.399 164.861 193.22 165.025 193.026 165.144C192.832 165.264 192.623 165.368 192.414 165.428C192.205 165.488 191.981 165.532 191.787 165.532H190.1L199.549 141.378C199.729 140.93 199.997 140.572 200.341 140.333C200.684 140.094 201.102 139.975 201.58 139.975H203.282L193.921 164.039Z" fill="#91B3FA"/>
<path d="M206.611 160.607V157.755C206.611 157.546 206.671 157.337 206.776 157.173C206.88 156.994 207.059 156.845 207.313 156.71L213.18 153.68C213.658 153.441 214.21 153.247 214.852 153.098C214.538 153.023 214.24 152.933 213.971 152.844C213.702 152.754 213.434 152.635 213.18 152.515L207.313 149.515C207.059 149.38 206.88 149.231 206.776 149.052C206.671 148.873 206.611 148.679 206.611 148.455V145.604L219.42 152.277V153.889L206.611 160.607Z" fill="#91B3FA"/>
<g opacity="0.64">
<path opacity="0.64" d="M396.516 177.894C396.381 177.894 396.262 177.849 396.157 177.745C395.963 177.551 395.963 177.222 396.172 177.028C396.471 176.745 396.755 176.446 397.053 176.147C397.247 175.953 397.561 175.938 397.77 176.132C397.964 176.327 397.979 176.64 397.785 176.849C397.486 177.148 397.187 177.446 396.889 177.745C396.769 177.849 396.635 177.894 396.516 177.894Z" fill="url(#paint37_linear)"/>
<path opacity="0.64" d="M365.181 191.12C364.912 191.12 364.689 190.896 364.674 190.627C364.674 190.344 364.883 190.12 365.166 190.12C365.972 190.105 366.808 190.06 367.615 190C367.883 189.986 368.137 190.18 368.152 190.463C368.167 190.747 367.973 190.986 367.689 191.001C366.868 191.06 366.032 191.105 365.181 191.12C365.196 191.12 365.196 191.12 365.181 191.12ZM362.703 191.12H362.688C361.852 191.09 361.016 191.045 360.18 190.986C359.896 190.956 359.702 190.717 359.717 190.448C359.747 190.18 359.986 189.971 360.255 189.986C361.061 190.06 361.897 190.105 362.703 190.12C362.987 190.135 363.196 190.359 363.196 190.642C363.196 190.896 362.972 191.12 362.703 191.12ZM370.137 190.732C369.884 190.732 369.675 190.553 369.645 190.299C369.615 190.03 369.809 189.777 370.078 189.732C370.884 189.627 371.705 189.493 372.511 189.344C372.78 189.299 373.049 189.478 373.093 189.747C373.138 190.015 372.959 190.284 372.69 190.329C371.869 190.478 371.033 190.613 370.212 190.732C370.182 190.732 370.167 190.732 370.137 190.732ZM357.747 190.702C357.717 190.702 357.702 190.702 357.672 190.702C356.836 190.583 356.015 190.448 355.194 190.299C354.925 190.239 354.746 189.986 354.791 189.717C354.836 189.448 355.104 189.269 355.373 189.314C356.179 189.463 356.985 189.597 357.806 189.717C358.075 189.762 358.269 190.015 358.239 190.284C358.21 190.523 357.986 190.702 357.747 190.702ZM375.019 189.821C374.795 189.821 374.586 189.672 374.527 189.433C374.467 189.164 374.631 188.896 374.9 188.821C375.691 188.627 376.482 188.403 377.273 188.179C377.542 188.105 377.826 188.254 377.9 188.508C377.975 188.776 377.826 189.06 377.572 189.135C376.766 189.373 375.96 189.597 375.153 189.791C375.109 189.806 375.064 189.821 375.019 189.821ZM352.865 189.762C352.82 189.762 352.79 189.762 352.746 189.747C351.94 189.553 351.118 189.314 350.327 189.075C350.059 189 349.909 188.717 349.999 188.448C350.073 188.179 350.357 188.03 350.626 188.119C351.402 188.358 352.208 188.582 353 188.776C353.268 188.836 353.432 189.12 353.373 189.388C353.298 189.612 353.089 189.762 352.865 189.762ZM379.781 188.373C379.572 188.373 379.378 188.239 379.304 188.045C379.214 187.791 379.348 187.492 379.602 187.403C380.364 187.119 381.14 186.821 381.886 186.507C382.14 186.403 382.439 186.522 382.543 186.776C382.648 187.03 382.528 187.328 382.274 187.433C381.498 187.761 380.722 188.075 379.931 188.343C379.901 188.373 379.841 188.373 379.781 188.373ZM348.103 188.314C348.043 188.314 347.984 188.299 347.924 188.284C347.133 188 346.356 187.687 345.58 187.358C345.326 187.254 345.207 186.955 345.311 186.701C345.416 186.447 345.714 186.328 345.968 186.432C346.715 186.746 347.491 187.06 348.252 187.343C348.506 187.433 348.64 187.731 348.551 187.985C348.506 188.179 348.312 188.314 348.103 188.314ZM384.364 186.432C384.185 186.432 384.006 186.328 383.917 186.149C383.797 185.895 383.902 185.597 384.155 185.477C384.887 185.119 385.618 184.731 386.335 184.342C386.574 184.208 386.887 184.298 387.022 184.537C387.156 184.775 387.066 185.089 386.828 185.223C386.096 185.626 385.35 186.015 384.603 186.388C384.514 186.418 384.439 186.432 384.364 186.432ZM343.535 186.358C343.46 186.358 343.385 186.343 343.311 186.313C342.564 185.94 341.818 185.552 341.087 185.149C340.848 185.014 340.758 184.701 340.892 184.462C341.027 184.223 341.325 184.133 341.579 184.268C342.296 184.671 343.027 185.044 343.759 185.402C344.012 185.522 344.117 185.82 343.983 186.074C343.893 186.253 343.729 186.358 343.535 186.358ZM388.709 184.029C388.544 184.029 388.38 183.939 388.276 183.79C388.126 183.551 388.201 183.238 388.44 183.103C389.127 182.671 389.828 182.208 390.485 181.745C390.709 181.581 391.023 181.64 391.187 181.864C391.351 182.088 391.291 182.402 391.067 182.566C390.381 183.044 389.679 183.507 388.977 183.954C388.903 183.999 388.798 184.029 388.709 184.029ZM339.205 183.939C339.116 183.939 339.026 183.91 338.937 183.865C338.235 183.417 337.533 182.954 336.847 182.462C336.623 182.297 336.563 181.984 336.727 181.76C336.892 181.536 337.205 181.476 337.429 181.64C338.101 182.118 338.787 182.566 339.474 183.014C339.713 183.163 339.773 183.477 339.623 183.701C339.534 183.85 339.37 183.939 339.205 183.939ZM392.784 181.178C392.635 181.178 392.486 181.118 392.396 180.984C392.232 180.76 392.262 180.446 392.486 180.282C393.128 179.774 393.769 179.252 394.382 178.714C394.59 178.535 394.904 178.55 395.083 178.759C395.262 178.968 395.247 179.282 395.038 179.461C394.411 180.013 393.769 180.551 393.113 181.073C392.993 181.133 392.889 181.178 392.784 181.178ZM335.145 181.058C335.04 181.058 334.921 181.028 334.831 180.954C334.175 180.431 333.533 179.894 332.906 179.341C332.697 179.162 332.682 178.834 332.861 178.625C333.04 178.416 333.368 178.401 333.562 178.58C334.175 179.118 334.802 179.655 335.443 180.162C335.667 180.342 335.697 180.655 335.518 180.864C335.443 180.999 335.294 181.058 335.145 181.058ZM331.428 177.774C331.293 177.774 331.174 177.729 331.069 177.625C330.472 177.042 329.89 176.43 329.323 175.818C329.129 175.609 329.144 175.296 329.353 175.102C329.562 174.923 329.875 174.923 330.069 175.132C330.622 175.729 331.189 176.326 331.771 176.908C331.965 177.102 331.965 177.416 331.771 177.625C331.681 177.729 331.562 177.774 331.428 177.774ZM328.084 174.102C327.934 174.102 327.8 174.042 327.696 173.922C327.173 173.28 326.651 172.609 326.158 171.937C325.994 171.713 326.038 171.399 326.262 171.235C326.486 171.071 326.8 171.116 326.964 171.34C327.442 171.997 327.949 172.653 328.472 173.28C328.651 173.489 328.621 173.818 328.397 173.982C328.308 174.072 328.188 174.102 328.084 174.102ZM325.143 170.101C324.979 170.101 324.814 170.026 324.725 169.877C324.262 169.175 323.829 168.459 323.411 167.742C323.277 167.503 323.351 167.19 323.59 167.055C323.829 166.921 324.143 166.996 324.277 167.234C324.68 167.936 325.113 168.638 325.561 169.324C325.71 169.563 325.65 169.862 325.411 170.026C325.337 170.071 325.247 170.101 325.143 170.101ZM322.665 165.786C322.485 165.786 322.306 165.682 322.217 165.518C322.038 165.174 321.858 164.816 321.694 164.458C321.5 164.055 321.321 163.652 321.142 163.248C321.022 162.995 321.142 162.696 321.396 162.592C321.649 162.472 321.948 162.592 322.053 162.845C322.232 163.234 322.411 163.637 322.605 164.025C322.769 164.368 322.948 164.726 323.112 165.07C323.232 165.324 323.142 165.622 322.889 165.742C322.814 165.771 322.739 165.786 322.665 165.786ZM320.634 161.248C320.425 161.248 320.246 161.129 320.172 160.92C319.873 160.143 319.589 159.337 319.336 158.546C319.246 158.277 319.395 157.994 319.664 157.919C319.933 157.829 320.216 157.979 320.291 158.247C320.545 159.024 320.813 159.8 321.112 160.561C321.217 160.815 321.082 161.114 320.828 161.203C320.754 161.248 320.694 161.248 320.634 161.248ZM319.112 156.516C318.888 156.516 318.694 156.366 318.634 156.142C318.425 155.336 318.231 154.515 318.052 153.694C317.992 153.425 318.171 153.157 318.44 153.097C318.709 153.037 318.977 153.216 319.037 153.485C319.201 154.291 319.395 155.097 319.604 155.874C319.679 156.142 319.515 156.411 319.246 156.486C319.201 156.516 319.156 156.516 319.112 156.516ZM318.096 151.649C317.858 151.649 317.634 151.47 317.604 151.216C317.484 150.395 317.38 149.559 317.29 148.723C317.26 148.454 317.469 148.2 317.738 148.171C318.022 148.141 318.261 148.35 318.291 148.618C318.365 149.425 318.47 150.246 318.589 151.052C318.634 151.321 318.44 151.589 318.171 151.619C318.141 151.649 318.126 151.649 318.096 151.649ZM317.619 146.708C317.35 146.708 317.126 146.499 317.111 146.23C317.081 145.558 317.066 144.886 317.066 144.215V143.722C317.066 143.438 317.32 143.214 317.574 143.229C317.858 143.229 318.082 143.453 318.067 143.737V144.215C318.067 144.871 318.082 145.543 318.111 146.185C318.126 146.469 317.902 146.693 317.634 146.708H317.619Z" fill="url(#paint38_linear)"/>
<path opacity="0.64" d="M317.663 141.706C317.648 141.706 317.649 141.706 317.634 141.706C317.35 141.691 317.141 141.452 317.171 141.169C317.201 140.751 317.231 140.318 317.275 139.9C317.305 139.631 317.544 139.422 317.828 139.452C318.111 139.482 318.305 139.721 318.276 140.004C318.231 140.422 318.201 140.825 318.171 141.243C318.156 141.497 317.932 141.706 317.663 141.706Z" fill="url(#paint39_linear)"/>
</g>
<g opacity="0.64">
<path opacity="0.64" d="M333.519 109.639C333.384 109.639 333.235 109.579 333.146 109.459C332.966 109.25 332.981 108.937 333.19 108.758C333.504 108.474 333.832 108.205 334.161 107.937C334.37 107.758 334.698 107.787 334.862 108.011C335.041 108.22 335.012 108.549 334.788 108.713C334.474 108.982 334.146 109.25 333.847 109.519C333.758 109.609 333.638 109.639 333.519 109.639Z" fill="url(#paint40_linear)"/>
<path opacity="0.64" d="M410.416 147.199C410.401 147.199 410.401 147.199 410.386 147.199C410.103 147.184 409.894 146.945 409.909 146.677C409.954 145.826 409.983 144.975 409.983 144.139C409.983 143.855 410.207 143.631 410.491 143.631C410.775 143.631 410.999 143.855 410.999 144.139C410.999 144.99 410.969 145.855 410.924 146.721C410.909 147.005 410.685 147.199 410.416 147.199ZM410.416 142.093C410.148 142.093 409.924 141.884 409.909 141.616C409.864 140.78 409.789 139.929 409.7 139.093C409.67 138.824 409.864 138.57 410.148 138.54C410.416 138.511 410.67 138.705 410.7 138.988C410.79 139.839 410.864 140.705 410.909 141.571C410.924 141.855 410.715 142.079 410.431 142.093C410.446 142.093 410.431 142.093 410.416 142.093ZM409.849 137.003C409.61 137.003 409.401 136.824 409.356 136.585C409.222 135.764 409.058 134.928 408.864 134.107C408.804 133.838 408.968 133.569 409.237 133.51C409.506 133.45 409.774 133.614 409.834 133.883C410.028 134.719 410.192 135.585 410.327 136.421C410.372 136.689 410.192 136.958 409.909 137.003C409.909 137.003 409.879 137.003 409.849 137.003ZM408.729 132.002C408.505 132.002 408.311 131.852 408.252 131.643C408.028 130.837 407.759 130.016 407.49 129.225C407.401 128.956 407.535 128.673 407.804 128.583C408.058 128.494 408.356 128.628 408.446 128.897C408.729 129.703 408.983 130.539 409.222 131.36C409.297 131.629 409.147 131.897 408.879 131.987C408.819 132.002 408.774 132.002 408.729 132.002ZM407.057 127.165C406.863 127.165 406.669 127.045 406.595 126.851C406.281 126.075 405.938 125.299 405.579 124.537C405.46 124.284 405.564 123.985 405.818 123.866C406.072 123.746 406.371 123.851 406.49 124.105C406.863 124.881 407.207 125.687 407.535 126.478C407.64 126.732 407.52 127.031 407.266 127.135C407.192 127.15 407.117 127.165 407.057 127.165ZM404.863 122.537C404.684 122.537 404.505 122.447 404.415 122.268C404.012 121.537 403.594 120.79 403.146 120.074C402.997 119.835 403.071 119.521 403.31 119.387C403.549 119.238 403.863 119.312 403.997 119.551C404.445 120.283 404.878 121.044 405.296 121.791C405.43 122.029 405.341 122.343 405.087 122.477C405.027 122.522 404.952 122.537 404.863 122.537ZM402.191 118.178C402.026 118.178 401.877 118.103 401.773 117.954C401.295 117.267 400.787 116.581 400.28 115.909C400.116 115.685 400.145 115.371 400.369 115.207C400.593 115.043 400.907 115.073 401.071 115.297C401.594 115.983 402.116 116.685 402.609 117.387C402.773 117.611 402.713 117.924 402.474 118.088C402.385 118.148 402.295 118.178 402.191 118.178ZM399.056 114.147C398.921 114.147 398.772 114.087 398.682 113.968C398.13 113.341 397.563 112.714 396.966 112.102C396.772 111.908 396.772 111.579 396.981 111.385C397.175 111.191 397.503 111.191 397.697 111.4C398.294 112.012 398.891 112.654 399.444 113.296C399.623 113.505 399.608 113.819 399.399 113.998C399.28 114.102 399.16 114.147 399.056 114.147ZM395.488 110.475C395.368 110.475 395.249 110.43 395.144 110.34C394.532 109.773 393.89 109.221 393.234 108.683C393.025 108.504 392.995 108.191 393.159 107.982C393.338 107.773 393.652 107.743 393.861 107.907C394.532 108.459 395.189 109.027 395.816 109.609C396.025 109.803 396.04 110.116 395.846 110.325C395.756 110.43 395.622 110.475 395.488 110.475ZM336.49 107.265C336.341 107.265 336.177 107.19 336.087 107.056C335.923 106.832 335.968 106.519 336.191 106.354C336.878 105.847 337.595 105.354 338.311 104.877C338.55 104.727 338.849 104.787 339.013 105.026C339.162 105.265 339.102 105.563 338.864 105.727C338.162 106.19 337.46 106.668 336.789 107.176C336.699 107.235 336.595 107.265 336.49 107.265ZM391.532 107.235C391.427 107.235 391.323 107.205 391.233 107.131C390.561 106.638 389.86 106.145 389.158 105.698C388.919 105.548 388.859 105.235 389.009 104.996C389.158 104.757 389.472 104.697 389.71 104.847C390.427 105.309 391.144 105.817 391.845 106.325C392.069 106.489 392.114 106.802 391.95 107.026C391.83 107.161 391.681 107.235 391.532 107.235ZM340.789 104.459C340.61 104.459 340.446 104.369 340.356 104.205C340.222 103.966 340.297 103.652 340.536 103.518C341.282 103.085 342.043 102.667 342.805 102.294C343.059 102.174 343.357 102.264 343.477 102.518C343.596 102.772 343.506 103.07 343.253 103.19C342.506 103.563 341.76 103.981 341.028 104.399C340.954 104.444 340.864 104.459 340.789 104.459ZM387.247 104.444C387.158 104.444 387.083 104.429 386.993 104.384C386.262 103.966 385.515 103.563 384.769 103.175C384.515 103.055 384.426 102.742 384.545 102.503C384.664 102.264 384.978 102.16 385.217 102.279C385.978 102.667 386.755 103.085 387.501 103.503C387.74 103.637 387.829 103.951 387.68 104.19C387.59 104.354 387.411 104.444 387.247 104.444ZM345.343 102.145C345.149 102.145 344.969 102.025 344.88 101.846C344.775 101.592 344.88 101.294 345.134 101.189C345.925 100.846 346.731 100.517 347.522 100.219C347.776 100.114 348.075 100.249 348.164 100.517C348.269 100.771 348.134 101.07 347.866 101.159C347.074 101.458 346.283 101.771 345.522 102.115C345.492 102.145 345.417 102.145 345.343 102.145ZM382.679 102.13C382.604 102.13 382.545 102.115 382.485 102.085C381.724 101.756 380.932 101.428 380.141 101.129C379.887 101.025 379.753 100.741 379.843 100.488C379.947 100.234 380.231 100.099 380.485 100.189C381.291 100.488 382.097 100.816 382.888 101.159C383.142 101.264 383.261 101.562 383.142 101.816C383.052 102.025 382.873 102.13 382.679 102.13ZM350.135 100.353C349.926 100.353 349.717 100.219 349.657 99.9949C349.567 99.7262 349.717 99.4426 349.985 99.3679C350.806 99.1141 351.643 98.8753 352.479 98.6663C352.747 98.5916 353.016 98.7558 353.091 99.0246C353.165 99.2933 353.001 99.562 352.732 99.6366C351.911 99.8456 351.09 100.084 350.299 100.323C350.239 100.338 350.194 100.353 350.135 100.353ZM377.872 100.338C377.827 100.338 377.768 100.323 377.723 100.308C376.917 100.055 376.11 99.8307 375.289 99.6217C375.021 99.5471 374.856 99.2783 374.931 99.0096C375.006 98.7409 375.274 98.5767 375.543 98.6513C376.379 98.8603 377.215 99.0992 378.036 99.353C378.305 99.4426 378.454 99.7113 378.365 99.98C378.29 100.204 378.096 100.338 377.872 100.338ZM355.106 99.0843C354.867 99.0843 354.658 98.9201 354.613 98.6812C354.554 98.4125 354.733 98.1438 355.016 98.099C355.867 97.9348 356.718 97.7855 357.569 97.6661C357.838 97.6213 358.092 97.8153 358.136 98.099C358.181 98.3677 357.987 98.6215 357.704 98.6663C356.868 98.7857 356.031 98.9201 355.21 99.0843C355.166 99.0843 355.136 99.0843 355.106 99.0843ZM372.916 99.0843C372.886 99.0843 372.856 99.0843 372.811 99.0693C371.99 98.9051 371.139 98.7708 370.318 98.6513C370.049 98.6066 369.855 98.3528 369.885 98.0841C369.93 97.8153 370.184 97.6213 370.453 97.6511C371.303 97.7706 372.154 97.9198 373.005 98.0841C373.274 98.1438 373.453 98.3976 373.408 98.6663C373.364 98.9201 373.155 99.0843 372.916 99.0843ZM367.84 98.3826C367.825 98.3826 367.81 98.3826 367.795 98.3826C366.959 98.308 366.108 98.2632 365.272 98.2483C364.989 98.2333 364.78 98.0094 364.78 97.7258C364.795 97.4421 365.033 97.2331 365.302 97.2331C366.168 97.263 367.034 97.3078 367.885 97.3824C368.168 97.4123 368.362 97.6511 368.348 97.9198C368.318 98.1736 368.109 98.3826 367.84 98.3826ZM360.167 98.3826C359.913 98.3826 359.689 98.1886 359.674 97.9198C359.644 97.6362 359.853 97.3973 360.137 97.3824C360.988 97.3078 361.869 97.263 362.72 97.2331C362.988 97.2182 363.227 97.4421 363.242 97.7258C363.242 98.0094 363.033 98.2333 362.749 98.2483C361.913 98.2781 361.062 98.3229 360.226 98.3826C360.197 98.3826 360.182 98.3826 360.167 98.3826Z" fill="url(#paint41_linear)"/>
<path opacity="0.64" d="M410.042 151.035C410.012 151.035 409.997 151.035 409.967 151.035C409.698 150.99 409.504 150.737 409.534 150.468C409.594 150.065 409.639 149.647 409.684 149.244C409.713 148.975 409.967 148.766 410.236 148.796C410.505 148.826 410.714 149.079 410.684 149.348C410.639 149.766 410.579 150.184 410.52 150.602C410.505 150.856 410.296 151.035 410.042 151.035Z" fill="url(#paint42_linear)"/>
</g>
<path d="M403.965 154.961C404.07 154.707 403.995 154.409 403.786 154.23L397.785 149.154C398.292 145.511 398.233 141.779 397.546 138.062L403.308 132.718C403.517 132.523 403.577 132.24 403.458 131.986L399.651 123.357C399.546 123.104 399.278 122.954 399.009 122.969L391.171 123.626C388.902 120.61 386.185 118.028 383.155 115.953L383.453 108.1C383.468 107.832 383.304 107.578 383.035 107.473L374.242 104.055C373.989 103.95 373.69 104.025 373.511 104.234L368.435 110.235C364.793 109.728 361.06 109.787 357.343 110.474L351.999 104.712C351.805 104.503 351.521 104.443 351.267 104.562L342.639 108.369C342.385 108.474 342.236 108.742 342.25 109.011L342.907 116.848C339.892 119.118 337.309 121.835 335.234 124.865L327.382 124.567C327.113 124.552 326.859 124.716 326.755 124.985L323.336 133.777C323.231 134.031 323.306 134.33 323.515 134.509L329.516 139.585C329.009 143.227 329.069 146.959 329.755 150.677L323.993 156.021C323.784 156.215 323.724 156.499 323.844 156.753L327.65 165.381C327.755 165.635 328.024 165.784 328.292 165.769L336.13 165.113C338.399 168.128 341.116 170.711 344.146 172.786L343.848 180.638C343.833 180.907 343.997 181.161 344.266 181.265L353.059 184.684C353.313 184.788 353.611 184.714 353.79 184.505L358.866 178.503C362.509 179.011 366.241 178.951 369.958 178.265L375.302 184.027C375.496 184.236 375.78 184.296 376.034 184.176L384.663 180.37C384.916 180.265 385.066 179.996 385.051 179.728L384.394 171.89C387.409 169.621 389.992 166.904 392.067 163.873L399.92 164.172C400.188 164.187 400.442 164.023 400.547 163.754L403.965 154.961Z" fill="url(#paint43_linear)"/>
<path d="M363.659 153.231C361.016 153.231 358.389 152.051 356.642 149.812C353.627 145.946 354.328 140.362 358.18 137.347C360.046 135.884 362.375 135.242 364.733 135.54C367.092 135.839 369.182 137.018 370.645 138.899C372.108 140.765 372.75 143.094 372.451 145.453C372.153 147.812 370.973 149.902 369.092 151.365C367.48 152.619 365.569 153.231 363.659 153.231ZM363.629 136.481C361.882 136.481 360.195 137.063 358.807 138.153C355.388 140.825 354.761 145.781 357.433 149.2C360.106 152.619 365.062 153.231 368.48 150.573C370.138 149.275 371.197 147.423 371.451 145.333C371.705 143.243 371.138 141.183 369.854 139.526C368.555 137.869 366.704 136.809 364.614 136.555C364.285 136.496 363.957 136.481 363.629 136.481Z" fill="#91B3FA"/>
<path d="M363.479 167.561C354.537 167.561 345.983 162.366 342.146 153.678C340.803 150.632 340.176 147.453 340.176 144.333C340.176 135.39 345.371 126.836 354.059 123.015C359.747 120.507 366.077 120.372 371.869 122.626C377.661 124.881 382.23 129.255 384.738 134.942C385.409 136.465 385.917 138.048 386.245 139.66C386.245 139.69 386.26 139.735 386.26 139.764C386.26 140.003 386.096 140.212 385.857 140.257C385.588 140.317 385.32 140.138 385.26 139.869C384.947 138.331 384.454 136.809 383.812 135.36C383.663 135.032 383.513 134.719 383.364 134.405C383.364 134.39 383.349 134.375 383.349 134.375C383.349 134.375 383.349 134.375 383.349 134.36C380.871 129.419 376.706 125.612 371.511 123.597C365.972 121.447 359.911 121.581 354.477 123.97C346.147 127.642 341.191 135.808 341.191 144.377C341.191 147.363 341.803 150.409 343.072 153.32C348.013 164.561 361.18 169.666 372.421 164.725C376.109 163.098 379.289 160.5 381.618 157.231C381.782 157.007 382.095 156.947 382.319 157.111C382.453 157.216 382.528 157.365 382.528 157.529C382.528 157.634 382.498 157.723 382.439 157.813C380.02 161.232 376.691 163.949 372.84 165.651C369.794 166.934 366.614 167.561 363.479 167.561Z" fill="#91B3FA"/>
<g opacity="0.64">
<path opacity="0.64" d="M329.219 119.761C329.084 119.761 328.95 119.716 328.861 119.612C328.666 119.418 328.666 119.089 328.875 118.895C329.174 118.612 329.473 118.313 329.756 118.015C329.95 117.82 330.264 117.806 330.473 118C330.667 118.194 330.682 118.507 330.488 118.716C330.189 119.015 329.891 119.313 329.592 119.612C329.473 119.716 329.353 119.761 329.219 119.761Z" fill="url(#paint44_linear)"/>
<path opacity="0.64" d="M303.467 130.165C302.78 130.165 302.093 130.15 301.422 130.106C301.138 130.091 300.929 129.852 300.944 129.583C300.959 129.299 301.198 129.09 301.466 129.105C302.302 129.15 303.138 129.165 303.974 129.15C304.243 129.15 304.467 129.374 304.482 129.643C304.482 129.926 304.258 130.15 303.989 130.15C303.81 130.165 303.646 130.165 303.467 130.165ZM306.527 130.046C306.273 130.046 306.049 129.852 306.035 129.583C306.005 129.299 306.214 129.061 306.497 129.046C307.333 128.971 308.169 128.881 308.99 128.747C309.259 128.702 309.528 128.896 309.558 129.165C309.602 129.434 309.408 129.703 309.14 129.732C308.289 129.867 307.438 129.956 306.587 130.031C306.542 130.046 306.527 130.046 306.527 130.046ZM298.914 129.897C298.899 129.897 298.869 129.897 298.854 129.897C298.003 129.792 297.152 129.658 296.316 129.494C296.047 129.434 295.868 129.18 295.913 128.911C295.973 128.643 296.226 128.463 296.495 128.508C297.316 128.672 298.137 128.792 298.973 128.896C299.242 128.926 299.451 129.18 299.406 129.464C299.376 129.703 299.167 129.897 298.914 129.897ZM311.543 129.27C311.319 129.27 311.11 129.105 311.051 128.881C310.991 128.613 311.155 128.344 311.424 128.284C312.23 128.105 313.051 127.881 313.842 127.657C314.111 127.583 314.395 127.732 314.469 128.001C314.544 128.269 314.395 128.553 314.126 128.628C313.305 128.867 312.469 129.09 311.633 129.285C311.618 129.27 311.573 129.27 311.543 129.27ZM293.927 128.926C293.883 128.926 293.838 128.926 293.793 128.911C292.972 128.687 292.136 128.449 291.33 128.165C291.061 128.075 290.927 127.792 291.016 127.523C291.106 127.254 291.39 127.12 291.658 127.209C292.45 127.478 293.256 127.717 294.062 127.941C294.331 128.016 294.495 128.284 294.42 128.553C294.345 128.777 294.151 128.926 293.927 128.926ZM316.41 127.822C316.201 127.822 316.022 127.702 315.932 127.493C315.828 127.239 315.962 126.941 316.231 126.851C317.007 126.568 317.783 126.239 318.545 125.896C318.798 125.776 319.097 125.896 319.216 126.15C319.336 126.403 319.216 126.702 318.963 126.821C318.186 127.18 317.38 127.508 316.589 127.807C316.529 127.822 316.47 127.822 316.41 127.822ZM289.12 127.299C289.061 127.299 288.986 127.284 288.926 127.254C288.135 126.926 287.359 126.568 286.583 126.179C286.329 126.06 286.239 125.746 286.359 125.508C286.478 125.254 286.792 125.164 287.03 125.284C287.777 125.657 288.538 126.015 289.315 126.329C289.568 126.433 289.688 126.732 289.583 126.986C289.509 127.18 289.315 127.299 289.12 127.299ZM321.038 125.732C320.859 125.732 320.679 125.642 320.59 125.463C320.456 125.224 320.545 124.91 320.799 124.776C321.53 124.388 322.262 123.955 322.964 123.522C323.202 123.373 323.501 123.447 323.65 123.686C323.8 123.925 323.725 124.239 323.486 124.373C322.755 124.821 322.008 125.269 321.262 125.672C321.202 125.717 321.112 125.732 321.038 125.732ZM284.582 125.015C284.493 125.015 284.403 125 284.328 124.94C283.597 124.507 282.865 124.045 282.149 123.552C281.925 123.403 281.865 123.089 282.014 122.85C282.164 122.626 282.477 122.567 282.716 122.716C283.403 123.179 284.119 123.642 284.836 124.06C285.075 124.194 285.149 124.507 285.015 124.746C284.911 124.925 284.746 125.015 284.582 125.015ZM325.337 123.029C325.188 123.029 325.024 122.955 324.934 122.82C324.77 122.597 324.815 122.283 325.039 122.119C325.71 121.626 326.382 121.104 327.009 120.581C327.218 120.402 327.547 120.432 327.711 120.641C327.89 120.85 327.86 121.163 327.651 121.343C326.994 121.895 326.308 122.432 325.621 122.925C325.546 123 325.442 123.029 325.337 123.029ZM280.387 122.149C280.283 122.149 280.163 122.119 280.074 122.044C279.402 121.507 278.745 120.954 278.103 120.372C277.894 120.193 277.879 119.865 278.073 119.656C278.267 119.447 278.581 119.432 278.79 119.626C279.402 120.178 280.044 120.73 280.701 121.253C280.925 121.432 280.955 121.746 280.79 121.955C280.686 122.089 280.537 122.149 280.387 122.149ZM276.625 118.745C276.491 118.745 276.357 118.7 276.267 118.596C275.67 117.984 275.103 117.327 274.55 116.67C274.371 116.461 274.401 116.147 274.61 115.968C274.819 115.789 275.132 115.819 275.312 116.028C275.849 116.67 276.401 117.297 276.984 117.894C277.178 118.088 277.163 118.417 276.969 118.611C276.879 118.685 276.76 118.745 276.625 118.745ZM273.371 114.834C273.222 114.834 273.057 114.759 272.968 114.625C272.475 113.938 271.982 113.221 271.535 112.49C271.385 112.251 271.46 111.938 271.699 111.803C271.938 111.654 272.236 111.729 272.386 111.967C272.833 112.669 273.296 113.371 273.789 114.042C273.953 114.266 273.893 114.58 273.669 114.744C273.58 114.804 273.475 114.834 273.371 114.834ZM270.684 110.534C270.505 110.534 270.325 110.445 270.236 110.266C269.982 109.788 269.728 109.28 269.489 108.788C269.355 108.504 269.221 108.235 269.101 107.952C268.982 107.698 269.101 107.399 269.355 107.28C269.609 107.16 269.907 107.28 270.012 107.534C270.131 107.802 270.266 108.071 270.385 108.34C270.624 108.817 270.863 109.31 271.117 109.773C271.251 110.012 271.161 110.325 270.908 110.46C270.848 110.519 270.773 110.534 270.684 110.534ZM268.609 105.906C268.4 105.906 268.206 105.787 268.131 105.578C267.832 104.772 267.564 103.951 267.325 103.13C267.25 102.861 267.399 102.577 267.668 102.503C267.937 102.428 268.22 102.577 268.295 102.846C268.534 103.637 268.803 104.443 269.086 105.22C269.176 105.473 269.056 105.772 268.788 105.862C268.728 105.891 268.668 105.906 268.609 105.906ZM267.175 101.025C266.952 101.025 266.743 100.861 266.683 100.637C266.504 99.8006 266.339 98.9497 266.22 98.0988C266.175 97.8301 266.369 97.5613 266.638 97.5315C266.907 97.4867 267.175 97.6808 267.205 97.9495C267.325 98.7706 267.489 99.6066 267.668 100.413C267.728 100.681 267.564 100.95 267.28 101.01C267.235 101.025 267.205 101.025 267.175 101.025ZM266.414 96.0088C266.16 96.0088 265.936 95.8147 265.907 95.546C265.832 94.6951 265.802 93.8292 265.787 92.9783C265.787 92.6946 266.011 92.4707 266.28 92.4707C266.548 92.4707 266.787 92.6946 266.787 92.9633C266.802 93.7993 266.832 94.6354 266.907 95.4714C266.922 95.755 266.728 95.9938 266.444 96.0088C266.444 96.0088 266.429 96.0088 266.414 96.0088Z" fill="url(#paint45_linear)"/>
<path opacity="0.64" d="M266.37 90.9192C266.355 90.9192 266.355 90.9192 266.34 90.9192C266.056 90.9042 265.847 90.6654 265.862 90.3817C265.892 89.9637 265.922 89.5308 265.952 89.1128C265.982 88.8441 266.22 88.6351 266.504 88.665C266.773 88.6948 266.982 88.9337 266.952 89.2173C266.907 89.6353 266.877 90.0384 266.862 90.4564C266.847 90.7102 266.623 90.9192 266.37 90.9192Z" fill="url(#paint46_linear)"/>
</g>
<g opacity="0.64">
<path opacity="0.64" d="M279.044 65.0362C278.91 65.0362 278.76 64.9764 278.671 64.857C278.492 64.648 278.507 64.3345 278.716 64.1554C279.029 63.8717 279.358 63.603 279.686 63.3343C279.895 63.1552 280.223 63.1999 280.388 63.4089C280.567 63.6179 280.522 63.9464 280.313 64.1106C279.985 64.3644 279.671 64.6331 279.373 64.9018C279.283 64.9914 279.164 65.0362 279.044 65.0362Z" fill="url(#paint47_linear)"/>
<path opacity="0.64" d="M340.55 94.3696H340.535C340.251 94.3547 340.042 94.1307 340.057 93.8471C340.072 93.3992 340.087 92.9514 340.087 92.5035C340.087 92.1303 340.087 91.7571 340.072 91.3689C340.057 91.0853 340.281 90.8614 340.565 90.8464C340.848 90.8464 341.072 91.0554 341.087 91.3391C341.102 91.7272 341.102 92.1154 341.102 92.5035C341.102 92.9663 341.087 93.4142 341.072 93.8769C341.042 94.1457 340.818 94.3696 340.55 94.3696ZM340.4 89.3685C340.147 89.3685 339.923 89.1744 339.908 88.9207C339.833 88.1145 339.714 87.2785 339.579 86.4724C339.534 86.2037 339.714 85.9349 339.997 85.8902C340.266 85.8454 340.535 86.0245 340.579 86.3082C340.714 87.1442 340.833 87.9802 340.908 88.8162C340.938 89.0849 340.729 89.3387 340.46 89.3685C340.43 89.3685 340.415 89.3685 340.4 89.3685ZM339.564 84.4421C339.34 84.4421 339.131 84.2928 339.072 84.0539C338.878 83.2627 338.669 82.4566 338.415 81.6803C338.325 81.4116 338.475 81.1279 338.743 81.0533C339.012 80.9637 339.296 81.113 339.37 81.3817C339.624 82.1879 339.848 83.0089 340.042 83.83C340.102 84.0987 339.938 84.3674 339.669 84.4421C339.639 84.4421 339.609 84.4421 339.564 84.4421ZM338.086 79.6649C337.892 79.6649 337.698 79.5455 337.624 79.3365C337.325 78.5752 336.997 77.8138 336.653 77.0674C336.534 76.8136 336.638 76.515 336.892 76.3956C337.146 76.2762 337.444 76.3807 337.564 76.6344C337.922 77.3958 338.251 78.187 338.564 78.9633C338.669 79.2171 338.534 79.5157 338.28 79.6202C338.206 79.6649 338.146 79.6649 338.086 79.6649ZM335.967 75.1416C335.787 75.1416 335.623 75.052 335.519 74.8878C335.116 74.1712 334.698 73.4547 334.265 72.7679C334.115 72.5291 334.19 72.2305 334.414 72.0812C334.653 71.9319 334.951 72.0066 335.101 72.2305C335.549 72.9322 335.981 73.6637 336.399 74.4101C336.534 74.6489 336.444 74.9624 336.205 75.0968C336.131 75.1117 336.056 75.1416 335.967 75.1416ZM333.279 70.9317C333.13 70.9317 332.981 70.8571 332.876 70.7227C332.384 70.0659 331.876 69.409 331.339 68.7969C331.16 68.5879 331.189 68.2744 331.398 68.0953C331.607 67.9162 331.921 67.946 332.1 68.155C332.638 68.7969 333.175 69.4687 333.668 70.1405C333.832 70.3644 333.787 70.6779 333.563 70.8422C333.488 70.9019 333.384 70.9317 333.279 70.9317ZM330.04 67.1249C329.906 67.1249 329.771 67.0802 329.682 66.9757C329.114 66.3934 328.517 65.8112 327.905 65.2738C327.696 65.0947 327.681 64.7662 327.86 64.5572C328.039 64.3482 328.368 64.3333 328.577 64.5124C329.204 65.0797 329.816 65.6619 330.398 66.2591C330.592 66.4532 330.592 66.7816 330.383 66.9757C330.294 67.0802 330.174 67.1249 330.04 67.1249ZM326.323 63.7809C326.218 63.7809 326.099 63.7511 326.009 63.6764C325.367 63.1689 324.695 62.6912 324.024 62.2284C323.8 62.0791 323.74 61.7656 323.889 61.5267C324.039 61.3028 324.352 61.2431 324.591 61.3924C325.293 61.8701 325.979 62.3627 326.636 62.8852C326.86 63.0494 326.89 63.3779 326.726 63.5869C326.621 63.7212 326.472 63.7809 326.323 63.7809ZM282 62.721C281.836 62.721 281.686 62.6464 281.582 62.512C281.418 62.2881 281.477 61.9746 281.701 61.8104C282.388 61.3327 283.104 60.8549 283.821 60.422C284.06 60.2727 284.373 60.3474 284.508 60.5862C284.657 60.8251 284.582 61.1386 284.344 61.2729C283.642 61.7059 282.955 62.1537 282.283 62.6314C282.194 62.6912 282.104 62.721 282 62.721ZM322.187 60.9893C322.098 60.9893 322.008 60.9744 321.934 60.9147C321.232 60.4967 320.501 60.1085 319.769 59.7502C319.515 59.6308 319.426 59.3322 319.545 59.0784C319.665 58.8247 319.963 58.7351 320.217 58.8545C320.963 59.2277 321.725 59.6308 322.441 60.0637C322.68 60.1981 322.755 60.5116 322.62 60.7504C322.531 60.8997 322.367 60.9893 322.187 60.9893ZM286.269 60.1085C286.09 60.1085 285.911 60.004 285.821 59.8398C285.687 59.6009 285.792 59.2874 286.031 59.168C286.404 58.9739 286.792 58.7799 287.18 58.6007C287.553 58.4216 287.941 58.2424 288.315 58.0782C288.568 57.9588 288.867 58.0782 288.971 58.332C289.076 58.5858 288.971 58.8844 288.718 58.9889C288.344 59.1531 287.971 59.3173 287.613 59.4964C287.24 59.6756 286.866 59.8697 286.493 60.0488C286.419 60.0936 286.344 60.1085 286.269 60.1085ZM317.709 58.7649C317.649 58.7649 317.575 58.75 317.515 58.7202C316.753 58.4067 315.977 58.1081 315.201 57.8543C314.932 57.7647 314.798 57.4811 314.887 57.2124C314.977 56.9437 315.261 56.8093 315.529 56.8989C316.321 57.1676 317.127 57.4662 317.903 57.7946C318.157 57.8991 318.276 58.1977 318.172 58.4514C318.097 58.6455 317.918 58.7649 317.709 58.7649ZM290.837 58.1081C290.628 58.1081 290.434 57.9737 290.36 57.7797C290.27 57.5259 290.405 57.2273 290.658 57.1377C291.45 56.8541 292.256 56.5854 293.062 56.3614C293.331 56.2868 293.614 56.4361 293.689 56.7048C293.764 56.9735 293.614 57.2422 293.345 57.3318C292.554 57.5557 291.763 57.8095 291.002 58.0932C290.957 58.0932 290.897 58.1081 290.837 58.1081ZM312.977 57.1527C312.932 57.1527 312.887 57.1527 312.842 57.1377C312.051 56.9287 311.245 56.7347 310.439 56.5854C310.17 56.5257 309.991 56.2719 310.036 56.0032C310.095 55.7344 310.349 55.5553 310.618 55.6001C311.439 55.7643 312.275 55.9584 313.081 56.1674C313.35 56.242 313.514 56.5107 313.439 56.7794C313.41 57.0034 313.201 57.1527 312.977 57.1527ZM295.645 56.7197C295.406 56.7197 295.212 56.5555 295.152 56.3167C295.092 56.0479 295.271 55.7792 295.54 55.7195C296.361 55.5404 297.197 55.3911 298.033 55.2717C298.302 55.2269 298.556 55.4209 298.6 55.6897C298.645 55.9584 298.451 56.2122 298.182 56.2569C297.376 56.3764 296.555 56.5257 295.749 56.6899C295.719 56.7197 295.674 56.7197 295.645 56.7197ZM308.08 56.1972C308.065 56.1972 308.035 56.1972 308.02 56.1972C307.199 56.0927 306.378 56.0181 305.572 55.9733C305.288 55.9584 305.079 55.7195 305.094 55.4359C305.109 55.1522 305.348 54.9432 305.632 54.9582C306.468 55.0029 307.319 55.0925 308.155 55.197C308.423 55.2269 308.617 55.4807 308.588 55.7643C308.543 56.0032 308.334 56.1972 308.08 56.1972ZM300.586 56.0032C300.332 56.0032 300.108 55.8091 300.078 55.5404C300.063 55.2567 300.257 55.0179 300.541 55.0029C301.377 54.9432 302.228 54.8984 303.079 54.8984C303.348 54.8984 303.572 55.1224 303.586 55.3911C303.586 55.6747 303.363 55.8986 303.094 55.8986C302.273 55.8986 301.452 55.9434 300.631 56.0032C300.616 56.0032 300.601 56.0032 300.586 56.0032Z" fill="url(#paint48_linear)"/>
<path opacity="0.64" d="M340.222 98.1171C340.192 98.1171 340.177 98.1171 340.147 98.1171C339.878 98.0723 339.684 97.8186 339.714 97.5498C339.774 97.1468 339.818 96.7288 339.863 96.3257C339.893 96.057 340.132 95.848 340.416 95.8778C340.684 95.9077 340.893 96.1466 340.863 96.4302C340.819 96.8482 340.774 97.2662 340.714 97.6991C340.684 97.938 340.475 98.1171 340.222 98.1171Z" fill="url(#paint49_linear)"/>
</g>
<path d="M335.354 101.144C335.429 100.935 335.369 100.711 335.205 100.562L330.413 96.5015C330.831 93.5905 330.771 90.6048 330.219 87.634L334.831 83.3644C334.996 83.2151 335.04 82.9763 334.951 82.7822L331.905 75.8852C331.816 75.6762 331.607 75.5568 331.383 75.5717L325.128 76.0942C323.307 73.6758 321.142 71.6156 318.709 69.9585L318.947 63.6736C318.962 63.4497 318.828 63.2556 318.619 63.166L311.588 60.4341C311.379 60.3595 311.155 60.4192 311.005 60.5834L306.945 65.3755C304.034 64.9575 301.048 65.0172 298.077 65.5695L293.808 60.9566C293.658 60.7924 293.42 60.7476 293.226 60.8372L286.329 63.8826C286.12 63.9722 286 64.1812 286.015 64.4051L286.538 70.6602C284.119 72.4815 282.059 74.6461 280.402 77.0795L274.117 76.8406C273.893 76.8257 273.699 76.96 273.609 77.169L270.877 84.2004C270.803 84.4094 270.863 84.6333 271.027 84.7826L275.819 88.8432C275.401 91.7543 275.461 94.74 276.013 97.7108L271.4 101.98C271.236 102.13 271.191 102.368 271.281 102.563L274.326 109.46C274.416 109.669 274.625 109.788 274.848 109.773L281.104 109.251C282.925 111.669 285.089 113.729 287.523 115.386L287.284 121.671C287.269 121.895 287.403 122.089 287.612 122.179L294.644 124.911C294.853 124.985 295.077 124.926 295.226 124.761L299.287 119.969C302.198 120.387 305.183 120.328 308.154 119.775L312.424 124.388C312.573 124.552 312.812 124.597 313.006 124.508L319.903 121.462C320.112 121.373 320.231 121.164 320.216 120.94L319.694 114.685C322.112 112.863 324.172 110.699 325.83 108.265L332.114 108.504C332.338 108.519 332.532 108.385 332.622 108.176L335.354 101.144Z" fill="url(#paint50_linear)"/>
<path d="M303.139 99.8756C302.84 99.8756 302.542 99.8607 302.243 99.8159C300.332 99.5771 298.631 98.6067 297.451 97.0989C296.272 95.5762 295.749 93.6952 295.988 91.7843C296.227 89.8735 297.197 88.1716 298.705 86.9923C300.228 85.8129 302.109 85.2904 304.02 85.5293C305.931 85.7681 307.633 86.7385 308.812 88.2463C311.245 91.3813 310.693 95.9046 307.558 98.3529C306.274 99.3531 304.736 99.8756 303.139 99.8756ZM303.124 86.4847C301.751 86.4847 300.422 86.9326 299.332 87.7984C298.033 88.8136 297.197 90.2766 296.988 91.9187C296.779 93.5608 297.227 95.1881 298.257 96.4868C299.273 97.7856 300.736 98.6216 302.378 98.8306C304.02 99.0396 305.647 98.5918 306.946 97.5617C308.245 96.5466 309.081 95.0836 309.29 93.4414C309.499 91.7993 309.051 90.1721 308.021 88.8733C307.006 87.5745 305.543 86.7385 303.9 86.5295C303.632 86.4996 303.378 86.4847 303.124 86.4847Z" fill="#91B3FA"/>
<path d="M303.004 111.326C295.808 111.326 288.941 107.161 285.866 100.159C284.791 97.7109 284.283 95.1581 284.283 92.6501C284.283 85.4546 288.448 78.5874 295.45 75.5121C300.018 73.4968 305.109 73.3923 309.751 75.1986C314.409 77.005 318.081 80.5281 320.097 85.0963C320.589 86.2309 320.978 87.4102 321.246 88.6045C321.261 88.6941 321.291 88.7986 321.306 88.8881C321.306 88.918 321.321 88.9628 321.321 88.9926C321.321 89.2315 321.157 89.4405 320.918 89.4853C320.649 89.545 320.38 89.3659 320.321 89.0971C320.067 87.873 319.679 86.6638 319.171 85.5143C317.38 81.4388 314.17 78.2441 310.125 76.4526C309.886 76.3481 309.632 76.2436 309.393 76.1541C304.989 74.4373 300.182 74.5418 295.853 76.4526C289.239 79.3637 285.283 85.8726 285.283 92.6651C285.283 95.0387 285.761 97.4571 286.791 99.7711C290.717 108.698 301.197 112.759 310.125 108.833C313.065 107.534 315.588 105.474 317.425 102.876C317.589 102.652 317.902 102.593 318.126 102.757C318.261 102.861 318.335 103.011 318.335 103.175C318.335 103.279 318.305 103.369 318.246 103.458C316.305 106.205 313.633 108.385 310.528 109.758C308.064 110.818 305.512 111.326 303.004 111.326Z" fill="#91B3FA"/>
<defs>
<linearGradient id="paint0_linear" x1="463.84" y1="535.431" x2="100.612" y2="84.325" gradientUnits="userSpaceOnUse">
<stop stop-color="#DAE3FE"/>
<stop offset="1" stop-color="#E9EFFD"/>
</linearGradient>
<linearGradient id="paint1_linear" x1="221.708" y1="299.291" x2="221.708" y2="480.128" gradientUnits="userSpaceOnUse">
<stop stop-color="#09005D"/>
<stop offset="1" stop-color="#1A0F91"/>
</linearGradient>
<linearGradient id="paint2_linear" x1="209.172" y1="8.92302" x2="212.186" y2="319.36" gradientUnits="userSpaceOnUse">
<stop stop-color="#09005D"/>
<stop offset="1" stop-color="#1A0F91"/>
</linearGradient>
<linearGradient id="paint3_linear" x1="232.589" y1="247.93" x2="219.529" y2="404.655" gradientUnits="userSpaceOnUse">
<stop stop-color="#09005D"/>
<stop offset="1" stop-color="#1A0F91"/>
</linearGradient>
<linearGradient id="paint4_linear" x1="197.217" y1="261.889" x2="328.826" y2="169.461" gradientUnits="userSpaceOnUse">
<stop stop-color="#FF928E"/>
<stop offset="1" stop-color="#FE7062"/>
</linearGradient>
<linearGradient id="paint5_linear" x1="358.341" y1="308.98" x2="393.282" y2="219.282" gradientUnits="userSpaceOnUse">
<stop stop-color="#09005D"/>
<stop offset="1" stop-color="#1A0F91"/>
</linearGradient>
<linearGradient id="paint6_linear" x1="325.601" y1="219.659" x2="357.138" y2="290.869" gradientUnits="userSpaceOnUse">
<stop stop-color="#FEBBBA"/>
<stop offset="1" stop-color="#FF928E"/>
</linearGradient>
<linearGradient id="paint7_linear" x1="326.163" y1="219.411" x2="357.7" y2="290.62" gradientUnits="userSpaceOnUse">
<stop stop-color="#FEBBBA"/>
<stop offset="1" stop-color="#FF928E"/>
</linearGradient>
<linearGradient id="paint8_linear" x1="404.818" y1="363.437" x2="406.987" y2="416.936" gradientUnits="userSpaceOnUse">
<stop stop-color="#4F52FF"/>
<stop offset="1" stop-color="#4042E2"/>
</linearGradient>
<linearGradient id="paint9_linear" x1="361.303" y1="447.341" x2="375.121" y2="285.842" gradientUnits="userSpaceOnUse">
<stop stop-color="#FEBBBA"/>
<stop offset="1" stop-color="#FF928E"/>
</linearGradient>
<linearGradient id="paint10_linear" x1="367.794" y1="359.187" x2="364.54" y2="418.107" gradientUnits="userSpaceOnUse">
<stop stop-color="#4F52FF"/>
<stop offset="1" stop-color="#4042E2"/>
</linearGradient>
<linearGradient id="paint11_linear" x1="389.098" y1="449.743" x2="402.92" y2="288.201" gradientUnits="userSpaceOnUse">
<stop stop-color="#FEBBBA"/>
<stop offset="1" stop-color="#FF928E"/>
</linearGradient>
<linearGradient id="paint12_linear" x1="383.937" y1="256.145" x2="342.211" y2="314.454" gradientUnits="userSpaceOnUse">
<stop stop-color="#FF928E"/>
<stop offset="1" stop-color="#FE7062"/>
</linearGradient>
<linearGradient id="paint13_linear" x1="407.007" y1="284.789" x2="332.673" y2="385.028" gradientUnits="userSpaceOnUse">
<stop stop-color="#4F52FF"/>
<stop offset="1" stop-color="#4042E2"/>
</linearGradient>
<linearGradient id="paint14_linear" x1="359.787" y1="288.152" x2="362.383" y2="269.163" gradientUnits="userSpaceOnUse">
<stop stop-color="#FEBBBA"/>
<stop offset="1" stop-color="#FF928E"/>
</linearGradient>
<linearGradient id="paint15_linear" x1="346.066" y1="243.751" x2="343.626" y2="303.822" gradientUnits="userSpaceOnUse">
<stop stop-color="#FEBBBA"/>
<stop offset="1" stop-color="#FF928E"/>
</linearGradient>
<linearGradient id="paint16_linear" x1="318.795" y1="243.231" x2="316.522" y2="299.193" gradientUnits="userSpaceOnUse">
<stop stop-color="#FEBBBA"/>
<stop offset="1" stop-color="#FF928E"/>
</linearGradient>
<linearGradient id="paint17_linear" x1="356.542" y1="245.763" x2="368.101" y2="269.595" gradientUnits="userSpaceOnUse">
<stop stop-color="#FEBBBA"/>
<stop offset="1" stop-color="#FF928E"/>
</linearGradient>
<linearGradient id="paint18_linear" x1="339.898" y1="302.82" x2="375.151" y2="212.322" gradientUnits="userSpaceOnUse">
<stop stop-color="#09005D"/>
<stop offset="1" stop-color="#1A0F91"/>
</linearGradient>
<linearGradient id="paint19_linear" x1="361.721" y1="243.25" x2="373.28" y2="267.082" gradientUnits="userSpaceOnUse">
<stop stop-color="#FEBBBA"/>
<stop offset="1" stop-color="#FF928E"/>
</linearGradient>
<linearGradient id="paint20_linear" x1="107.258" y1="220.399" x2="108.765" y2="298.26" gradientUnits="userSpaceOnUse">
<stop stop-color="#FF928E"/>
<stop offset="1" stop-color="#FE7062"/>
</linearGradient>
<linearGradient id="paint21_linear" x1="105.653" y1="516.788" x2="101.253" y2="427.092" gradientUnits="userSpaceOnUse">
<stop stop-color="#4F52FF"/>
<stop offset="1" stop-color="#4042E2"/>
</linearGradient>
<linearGradient id="paint22_linear" x1="134.924" y1="215.192" x2="111.635" y2="248.288" gradientUnits="userSpaceOnUse">
<stop stop-color="#09005D"/>
<stop offset="1" stop-color="#1A0F91"/>
</linearGradient>
<linearGradient id="paint23_linear" x1="159.91" y1="177.951" x2="117.714" y2="281.431" gradientUnits="userSpaceOnUse">
<stop stop-color="#FF928E"/>
<stop offset="1" stop-color="#FE7062"/>
</linearGradient>
<linearGradient id="paint24_linear" x1="76.3349" y1="286.786" x2="113.588" y2="376.773" gradientUnits="userSpaceOnUse">
<stop stop-color="#FEBBBA"/>
<stop offset="1" stop-color="#FF928E"/>
</linearGradient>
<linearGradient id="paint25_linear" x1="142.374" y1="286.593" x2="105.122" y2="376.58" gradientUnits="userSpaceOnUse">
<stop stop-color="#FEBBBA"/>
<stop offset="1" stop-color="#FF928E"/>
</linearGradient>
<linearGradient id="paint26_linear" x1="109.426" y1="298.416" x2="107.49" y2="376.842" gradientUnits="userSpaceOnUse">
<stop stop-color="#09005D"/>
<stop offset="1" stop-color="#1A0F91"/>
</linearGradient>
<linearGradient id="paint27_linear" x1="131.783" y1="345.604" x2="152.14" y2="345.761" gradientUnits="userSpaceOnUse">
<stop stop-color="#09005D"/>
<stop offset="1" stop-color="#1A0F91"/>
</linearGradient>
<linearGradient id="paint28_linear" x1="145.22" y1="308.9" x2="123.731" y2="367.104" gradientUnits="userSpaceOnUse">
<stop stop-color="#FEBBBA"/>
<stop offset="1" stop-color="#FF928E"/>
</linearGradient>
<linearGradient id="paint29_linear" x1="82.378" y1="345.506" x2="62.0162" y2="345.099" gradientUnits="userSpaceOnUse">
<stop stop-color="#09005D"/>
<stop offset="1" stop-color="#1A0F91"/>
</linearGradient>
<linearGradient id="paint30_linear" x1="102.169" y1="291.362" x2="80.6691" y2="349.597" gradientUnits="userSpaceOnUse">
<stop stop-color="#FEBBBA"/>
<stop offset="1" stop-color="#FF928E"/>
</linearGradient>
<linearGradient id="paint31_linear" x1="154.329" y1="307.776" x2="98.4664" y2="349.74" gradientUnits="userSpaceOnUse">
<stop stop-color="#4F52FF"/>
<stop offset="1" stop-color="#4042E2"/>
</linearGradient>
<linearGradient id="paint32_linear" x1="103.813" y1="345.414" x2="89.1725" y2="308.08" gradientUnits="userSpaceOnUse">
<stop stop-color="#4F52FF"/>
<stop offset="1" stop-color="#4042E2"/>
</linearGradient>
<linearGradient id="paint33_linear" x1="109.037" y1="294.215" x2="108.541" y2="251.089" gradientUnits="userSpaceOnUse">
<stop stop-color="#FEBBBA"/>
<stop offset="1" stop-color="#FF928E"/>
</linearGradient>
<linearGradient id="paint34_linear" x1="107.601" y1="270.276" x2="115.159" y2="233.485" gradientUnits="userSpaceOnUse">
<stop stop-color="#FEBBBA"/>
<stop offset="1" stop-color="#FF928E"/>
</linearGradient>
<linearGradient id="paint35_linear" x1="135.878" y1="210.154" x2="109.672" y2="247.395" gradientUnits="userSpaceOnUse">
<stop stop-color="#09005D"/>
<stop offset="1" stop-color="#1A0F91"/>
</linearGradient>
<linearGradient id="paint36_linear" x1="102.59" y1="275.163" x2="97.1724" y2="216.556" gradientUnits="userSpaceOnUse">
<stop stop-color="#FEBBBA"/>
<stop offset="1" stop-color="#FF928E"/>
</linearGradient>
<linearGradient id="paint37_linear" x1="396.011" y1="176.95" x2="397.901" y2="176.95" gradientUnits="userSpaceOnUse">
<stop stop-color="#4F52FF"/>
<stop offset="1" stop-color="#4042E2"/>
</linearGradient>
<linearGradient id="paint38_linear" x1="317.07" y1="167.17" x2="395.193" y2="167.17" gradientUnits="userSpaceOnUse">
<stop stop-color="#4F52FF"/>
<stop offset="1" stop-color="#4042E2"/>
</linearGradient>
<linearGradient id="paint39_linear" x1="317.168" y1="140.581" x2="318.271" y2="140.581" gradientUnits="userSpaceOnUse">
<stop stop-color="#4F52FF"/>
<stop offset="1" stop-color="#4042E2"/>
</linearGradient>
<linearGradient id="paint40_linear" x1="333.014" y1="108.736" x2="334.976" y2="108.736" gradientUnits="userSpaceOnUse">
<stop stop-color="#4F52FF"/>
<stop offset="1" stop-color="#4042E2"/>
</linearGradient>
<linearGradient id="paint41_linear" x1="335.993" y1="122.218" x2="410.994" y2="122.218" gradientUnits="userSpaceOnUse">
<stop stop-color="#4F52FF"/>
<stop offset="1" stop-color="#4042E2"/>
</linearGradient>
<linearGradient id="paint42_linear" x1="409.545" y1="149.909" x2="410.706" y2="149.909" gradientUnits="userSpaceOnUse">
<stop stop-color="#4F52FF"/>
<stop offset="1" stop-color="#4042E2"/>
</linearGradient>
<linearGradient id="paint43_linear" x1="323.28" y1="144.351" x2="404.008" y2="144.351" gradientUnits="userSpaceOnUse">
<stop stop-color="#4F52FF"/>
<stop offset="1" stop-color="#4042E2"/>
</linearGradient>
<linearGradient id="paint44_linear" x1="328.722" y1="118.819" x2="330.615" y2="118.819" gradientUnits="userSpaceOnUse">
<stop stop-color="#4F52FF"/>
<stop offset="1" stop-color="#4042E2"/>
</linearGradient>
<linearGradient id="paint45_linear" x1="265.799" y1="111.318" x2="327.838" y2="111.318" gradientUnits="userSpaceOnUse">
<stop stop-color="#4F52FF"/>
<stop offset="1" stop-color="#4042E2"/>
</linearGradient>
<linearGradient id="paint46_linear" x1="265.86" y1="89.7846" x2="266.959" y2="89.7846" gradientUnits="userSpaceOnUse">
<stop stop-color="#4F52FF"/>
<stop offset="1" stop-color="#4042E2"/>
</linearGradient>
<linearGradient id="paint47_linear" x1="278.541" y1="64.1267" x2="280.507" y2="64.1267" gradientUnits="userSpaceOnUse">
<stop stop-color="#4F52FF"/>
<stop offset="1" stop-color="#4042E2"/>
</linearGradient>
<linearGradient id="paint48_linear" x1="281.495" y1="74.6299" x2="341.08" y2="74.6299" gradientUnits="userSpaceOnUse">
<stop stop-color="#4F52FF"/>
<stop offset="1" stop-color="#4042E2"/>
</linearGradient>
<linearGradient id="paint49_linear" x1="339.721" y1="96.9945" x2="340.878" y2="96.9945" gradientUnits="userSpaceOnUse">
<stop stop-color="#4F52FF"/>
<stop offset="1" stop-color="#4042E2"/>
</linearGradient>
<linearGradient id="paint50_linear" x1="270.862" y1="92.6733" x2="335.395" y2="92.6733" gradientUnits="userSpaceOnUse">
<stop stop-color="#4F52FF"/>
<stop offset="1" stop-color="#4042E2"/>
</linearGradient>
</defs>
</svg>
