<svg width="24" height="23" viewBox="0 0 24 23" fill="none" xmlns="http://www.w3.org/2000/svg">
<path d="M22.2763 7.49056C22.3047 7.36404 22.32 7.23449 22.32 7.10182V4.05818C22.32 1.42231 16.57 0 11.16 0C5.74987 0 0 1.42231 0 4.05818C0 4.17189 0.0114087 4.28314 0.0323168 4.39229C0.0125262 4.44654 0 4.50437 0 4.56547V7.10182C0 7.94504 0.589153 8.66383 1.56667 9.25187C1.53742 9.37965 1.52182 9.50868 1.52182 9.63813C1.52182 9.75185 1.53323 9.86309 1.55414 9.97229C1.5343 10.0265 1.52182 10.0844 1.52182 10.1455V12.6818C1.52182 12.9147 1.5676 13.1379 1.65314 13.3517C0.71707 14.0453 0.50729 14.7397 0.50729 15.2182C0.50729 15.3319 0.518699 15.4431 0.539607 15.5523C0.51977 15.6065 0.50729 15.6643 0.50729 15.7255V18.2618C0.50729 20.8977 6.25721 22.32 11.6673 22.32C17.0774 22.32 22.8273 20.8977 22.8273 18.2618V15.2182C22.8273 14.993 22.7823 14.7706 22.695 14.5535C23.4186 14.0215 23.8418 13.3963 23.8418 12.6818V9.63818V9.63813C23.8418 9.07953 23.5618 8.26802 22.2763 7.49056ZM3.78782 2.02855C5.74941 1.37472 8.36763 1.01458 11.16 1.01458C13.9523 1.01458 16.5704 1.37472 18.5321 2.02855C20.2687 2.60742 21.3054 3.36616 21.3054 4.05818C21.3054 4.7502 20.2687 5.50894 18.5321 6.0878C16.5704 6.74164 13.9523 7.10178 11.16 7.10178C8.36763 7.10178 5.74936 6.74164 3.78782 6.0878C2.05123 5.50894 1.01453 4.7502 1.01453 4.05818C1.01453 3.36616 2.05128 2.60742 3.78782 2.02855ZM21.3054 5.82894V7.10182C21.3054 7.68804 20.5593 8.32171 19.2764 8.85378V6.89954C20.094 6.59696 20.7877 6.23947 21.3054 5.82894ZM18.2618 7.22974V9.21723C17.6407 9.4101 16.9598 9.5748 16.2327 9.70961V7.69051C16.9476 7.56436 17.6297 7.41056 18.2618 7.22974ZM15.2182 7.84846V9.87469C14.5674 9.96587 13.8885 10.035 13.1891 10.0804V8.05033C13.8765 8.00558 14.5569 7.9381 15.2182 7.84846ZM12.1745 8.09983V10.1293C11.8395 10.1399 11.5011 10.1454 11.16 10.1454C10.8189 10.1454 10.4805 10.1399 10.1455 10.1293V8.09978C10.484 8.11077 10.8226 8.11631 11.16 8.11631C11.4973 8.11636 11.836 8.11082 12.1745 8.09983ZM9.13089 8.05033V10.0804C8.43152 10.035 7.75254 9.96591 7.10178 9.87474V7.84851C7.76301 7.9381 8.44348 8.00558 9.13089 8.05033ZM6.08725 7.69056V9.70966C5.36016 9.5748 4.67923 9.41015 4.05818 9.21727V7.22974C4.69027 7.41056 5.37241 7.56441 6.08725 7.69056ZM1.01453 7.10182V5.82894C1.53225 6.23947 2.22595 6.59696 3.0436 6.89954V8.85378C1.76061 8.32171 1.01453 7.68804 1.01453 7.10182ZM2.53636 11.4089C3.05408 11.8194 3.74777 12.1769 4.56542 12.4795V14.4337C3.28244 13.9017 2.53636 13.268 2.53636 12.6818V11.4089ZM3.55089 20.0138C2.2679 19.4817 1.52182 18.848 1.52182 18.2618V16.9889C2.03954 17.3995 2.73324 17.757 3.55089 18.0595V20.0138ZM6.59453 20.8697C5.86745 20.7348 5.18652 20.5702 4.56547 20.3773V18.3897C5.19756 18.5705 5.8797 18.7244 6.59453 18.8506V20.8697ZM9.63818 21.2404C8.93881 21.1949 8.25983 21.1258 7.60907 21.0347V19.0085C8.27031 19.0981 8.95077 19.1655 9.63818 19.2103V21.2404ZM12.6818 21.2893C12.3467 21.2999 12.0083 21.3054 11.6672 21.3054C11.3262 21.3054 10.9877 21.2999 10.6527 21.2893V19.2598C10.9912 19.2708 11.3299 19.2764 11.6672 19.2764C12.0046 19.2764 12.3432 19.2708 12.6818 19.2598V21.2893ZM15.7254 21.0347C15.0747 21.1259 14.3957 21.195 13.6964 21.2404V19.2103C14.3838 19.1656 15.0642 19.0981 15.7254 19.0085V21.0347ZM18.7691 20.3772C18.148 20.5701 17.4671 20.7348 16.74 20.8696V18.8505C17.4549 18.7244 18.137 18.5705 18.7691 18.3897V20.3772ZM21.8127 18.2618C21.8127 18.848 21.0666 19.4817 19.7837 20.0138V18.0595C20.6013 17.7569 21.295 17.3995 21.8127 16.9889V18.2618ZM19.0394 17.2478C17.0777 17.9016 14.4596 18.2618 11.6673 18.2618C8.87496 18.2618 6.2567 17.9016 4.29515 17.2478C2.55857 16.6689 1.52187 15.9102 1.52187 15.2182C1.52187 14.8211 1.86567 14.458 2.2314 14.184C3.93036 15.8536 8.41159 16.74 12.6819 16.74C16.0967 16.74 19.6464 16.1731 21.8006 15.0922C21.8081 15.1343 21.8128 15.1763 21.8128 15.2182C21.8127 15.9102 20.776 16.6689 19.0394 17.2478ZM5.58 14.7973V12.8097C6.21209 12.9905 6.89423 13.1443 7.60907 13.2705V15.2897C6.88199 15.1549 6.20105 14.9901 5.58 14.7973ZM8.62365 15.4547V13.4284C9.28488 13.518 9.96535 13.5855 10.6527 13.6303V15.6604C9.95334 15.615 9.27436 15.5459 8.62365 15.4547ZM11.6672 15.7093V13.6797C12.0058 13.6907 12.3444 13.6963 12.6818 13.6963C13.0192 13.6963 13.3578 13.6907 13.6963 13.6797V15.7093C13.3613 15.7199 13.0229 15.7254 12.6818 15.7254C12.3407 15.7254 12.0023 15.7199 11.6672 15.7093ZM14.7109 15.6604V13.6302C15.3983 13.5855 16.0788 13.518 16.74 13.4284V15.4547C16.0892 15.5459 15.4103 15.615 14.7109 15.6604ZM17.7545 15.2897V13.2705C18.4694 13.1443 19.1516 12.9905 19.7836 12.8097V14.7973C19.1625 14.9901 18.4816 15.1549 17.7545 15.2897ZM22.8273 12.6818C22.8273 13.268 22.0812 13.9017 20.7982 14.4338V12.4795C21.6159 12.1769 22.3096 11.8194 22.8273 11.4089V12.6818ZM20.054 11.6678C18.0924 12.3216 15.4742 12.6817 12.6818 12.6817C9.8895 12.6817 7.27123 12.3216 5.30969 11.6678C3.66255 11.1187 2.64681 10.4079 2.54637 9.74566C4.72468 10.6746 7.99999 11.16 11.16 11.16C15.6071 11.16 20.2829 10.1988 21.8069 8.39268C22.4673 8.80288 22.8273 9.23911 22.8273 9.63813C22.8273 10.3302 21.7905 11.0889 20.054 11.6678Z" fill="#2C2C2C"/>
</svg>
