<svg width="28" height="32" viewBox="0 0 28 32" fill="none" xmlns="http://www.w3.org/2000/svg">
<path d="M24.6659 2.66654V27.1999C24.6659 28.3781 23.7108 29.3332 22.5326 29.3332H3.33255C2.15434 29.3332 1.19922 28.3781 1.19922 27.1999V7.46654H5.99922C7.17743 7.46654 8.13255 6.51141 8.13255 5.3332V0.533203H22.5326C23.7108 0.533203 24.6659 1.48833 24.6659 2.66654Z" fill="#E8EDFC"/>
<path d="M22.5336 0.533203H20.9336C22.1118 0.533203 23.0669 1.48833 23.0669 2.66654V27.1999C23.0669 28.3781 22.1118 29.3332 20.9336 29.3332H22.5336C23.7118 29.3332 24.6669 28.3781 24.6669 27.1999V2.66654C24.6669 1.48833 23.7118 0.533203 22.5336 0.533203Z" fill="#CAD9FC"/>
<path d="M26.7987 4.8013V29.3346C26.7987 30.5128 25.8436 31.468 24.6654 31.468H5.46536C4.28716 31.468 3.33203 30.5128 3.33203 29.3346H22.532C23.7102 29.3346 24.6654 28.3795 24.6654 27.2013V2.66797C25.8436 2.66797 26.7987 3.62309 26.7987 4.8013Z" fill="#A4C2F7"/>
<path d="M21.4659 13.8677V17.0677C21.4659 18.2459 20.5108 19.2011 19.3326 19.2011H16.6659V21.8677C16.6659 23.0459 15.7108 24.0011 14.5326 24.0011H11.3326C10.1543 24.0011 9.19922 23.0459 9.19922 21.8677V17.6011C9.19922 16.4228 10.1543 15.4677 11.3326 15.4677H14.5326C15.7108 15.4677 16.6659 14.5126 16.6659 13.3344V11.7344H19.3326C20.5108 11.7344 21.4659 12.6895 21.4659 13.8677Z" fill="#A4C2F7"/>
<path d="M15.0669 21.8678C15.0669 23.0461 14.1118 24.0012 12.9336 24.0012H14.5336C15.7118 24.0012 16.6669 23.0461 16.6669 21.8678V19.2012H15.0669V21.8678Z" fill="#7FACFA"/>
<path d="M19.3324 11.7344H17.7324C18.9106 11.7344 19.8658 12.6895 19.8658 13.8677V17.0677C19.8658 18.2459 18.9106 19.201 17.7324 19.201H19.3324C20.5106 19.201 21.4658 18.2459 21.4658 17.0677V13.8677C21.4658 12.6895 20.5106 11.7344 19.3324 11.7344Z" fill="#7FACFA"/>
<path d="M16.6651 9.06693V13.3336C16.6651 14.5118 15.71 15.4669 14.5318 15.4669H11.3318C10.1536 15.4669 9.19845 16.4221 9.19845 17.6003V19.2003H6.53177C5.35356 19.2003 4.39844 18.2452 4.39844 17.0669V13.8669C4.39844 12.6887 5.35356 11.7336 6.53177 11.7336H9.19845V9.06693C9.19845 7.88872 10.1536 6.93359 11.3318 6.93359H14.5318C15.71 6.93359 16.6651 7.88872 16.6651 9.06693Z" fill="#A4C2F7"/>
<path d="M14.5336 6.93359H12.9336C14.1118 6.93359 15.0669 7.88872 15.0669 9.06693V13.3336C15.0669 14.5118 14.1118 15.4669 12.9336 15.4669H14.5336C15.7118 15.4669 16.6669 14.5118 16.6669 13.3336V9.06693C16.6669 7.88872 15.7118 6.93359 14.5336 6.93359Z" fill="#7FACFA"/>
<path d="M7.59961 17.6001V19.2001H9.19961V17.6001C9.19961 16.4219 10.1547 15.4668 11.3329 15.4668H9.73294C8.55474 15.4668 7.59961 16.4219 7.59961 17.6001Z" fill="#7FACFA"/>
<path d="M8.13254 0.533203V5.3332C8.13254 6.51141 7.17742 7.46654 5.99921 7.46654H1.19922L8.13254 0.533203Z" fill="#CAD9FC"/>
<path d="M1.19922 27.1999C1.19922 28.3781 2.15434 29.3332 3.33255 29.3332C3.33255 30.5114 4.28768 31.4665 5.46589 31.4665H7.06589C5.88768 31.4665 4.93255 30.5114 4.93255 29.3332C3.75434 29.3332 2.79922 28.3781 2.79922 27.1999V7.46654L9.73255 0.533203H8.13255L1.19922 7.46654V27.1999Z" fill="white"/>
<path d="M0.666016 22.9336H1.73268V27.2003H0.666016V22.9336Z" fill="white"/>
<path d="M1.19935 25.5999C1.4939 25.5999 1.73268 25.3611 1.73268 25.0665C1.73268 24.772 1.4939 24.5332 1.19935 24.5332C0.904798 24.5332 0.666016 24.772 0.666016 25.0665C0.666016 25.3611 0.904798 25.5999 1.19935 25.5999Z" fill="#428DFF"/>
<path d="M2.84842 29.8176C3.08163 31.0805 4.18181 31.9977 5.46602 32H24.666C26.138 31.9982 27.3309 30.8054 27.3327 29.3333V4.8C27.3304 3.51579 26.4131 2.41561 25.1503 2.1824C24.9171 0.919545 23.8169 0.00227661 22.5327 0H8.13268C7.99125 3.0208e-05 7.85561 0.0562403 7.75562 0.156267L0.822282 7.0896C0.722256 7.1896 0.666046 7.32523 0.666016 7.46667V22.9333C0.666016 23.2279 0.904797 23.4667 1.19935 23.4667C1.4939 23.4667 1.73268 23.2279 1.73268 22.9333V8H5.99935C7.47138 7.99824 8.66425 6.80536 8.66602 5.33333V1.06667H22.5327C23.4163 1.06667 24.1327 1.78301 24.1327 2.66667V27.2C24.1327 28.0837 23.4163 28.8 22.5327 28.8H3.33268C2.44903 28.8 1.73268 28.0837 1.73268 27.2C1.73268 26.9054 1.4939 26.6667 1.19935 26.6667C0.904797 26.6667 0.666016 26.9054 0.666016 27.2C0.668292 28.4842 1.58556 29.5844 2.84842 29.8176ZM5.99935 6.93333H2.48682L7.59935 1.8208V5.33333C7.59935 6.21699 6.883 6.93333 5.99935 6.93333ZM25.1994 27.2V3.29813C25.8363 3.52334 26.2632 4.12438 26.266 4.8V29.3333C26.266 30.217 25.5497 30.9333 24.666 30.9333H5.46602C4.7904 30.9305 4.18935 30.5037 3.96415 29.8667H22.5327C24.0047 29.8649 25.1976 28.672 25.1994 27.2Z" fill="#428DFF"/>
<path d="M19.333 3.19948C19.6275 3.19948 19.8663 2.9607 19.8663 2.66615C19.8663 2.37159 19.6275 2.13281 19.333 2.13281H16.1329C15.8384 2.13281 15.5996 2.37159 15.5996 2.66615C15.5996 2.9607 15.8384 3.19948 16.1329 3.19948H19.333Z" fill="#428DFF"/>
<path d="M23.0669 2.66615C23.0669 2.37159 22.8282 2.13281 22.5336 2.13281H21.4669C21.1724 2.13281 20.9336 2.37159 20.9336 2.66615C20.9336 2.9607 21.1724 3.19948 21.4669 3.19948H22.5336C22.8282 3.19948 23.0669 2.9607 23.0669 2.66615Z" fill="#428DFF"/>
<path d="M3.33203 26.6661C3.33203 26.9607 3.57081 27.1995 3.86536 27.1995H4.39869C4.69325 27.1995 4.93203 26.9607 4.93203 26.6661C4.93203 26.3716 4.69325 26.1328 4.39869 26.1328H3.86536C3.57081 26.1328 3.33203 26.3716 3.33203 26.6661Z" fill="#428DFF"/>
<path d="M17.1993 26.1328C16.9048 26.1328 16.666 26.3716 16.666 26.6661C16.666 26.9607 16.9048 27.1995 17.1993 27.1995H21.9993C22.2939 27.1995 22.5327 26.9607 22.5327 26.6661C22.5327 26.3716 22.2939 26.1328 21.9993 26.1328H17.1993Z" fill="#428DFF"/>
<path d="M6.53333 26.1328C6.23878 26.1328 6 26.3716 6 26.6661C6 26.9607 6.23878 27.1995 6.53333 27.1995H14.5333C14.8279 27.1995 15.0667 26.9607 15.0667 26.6661C15.0667 26.3716 14.8279 26.1328 14.5333 26.1328H6.53333Z" fill="#428DFF"/>
<path d="M11.3319 6.39844C9.85987 6.4002 8.667 7.59308 8.66524 9.0651V11.1984H6.5319C5.05987 11.2002 3.867 12.3931 3.86523 13.8651V17.0651C3.867 18.5371 5.05987 19.73 6.5319 19.7318H8.66524V21.8651C8.667 23.3371 9.85987 24.53 11.3319 24.5318H14.5319C16.0039 24.53 17.1968 23.3371 17.1986 21.8651V19.7318H19.3319C20.8039 19.73 21.9968 18.5371 21.9986 17.0651V13.8651C21.9968 12.3931 20.8039 11.2002 19.3319 11.1984H17.1986V9.0651C17.1968 7.59308 16.0039 6.4002 14.5319 6.39844H11.3319ZM19.3319 12.2651C20.2156 12.2651 20.9319 12.9814 20.9319 13.8651V17.0651C20.9319 17.9488 20.2156 18.6651 19.3319 18.6651H12.9319C12.6374 18.6651 12.3986 18.9039 12.3986 19.1984C12.3986 19.493 12.6374 19.7318 12.9319 19.7318H16.1319V21.8651C16.1319 22.7488 15.4156 23.4651 14.5319 23.4651H11.3319C10.4482 23.4651 9.7319 22.7488 9.7319 21.8651V17.5984C9.7319 16.7148 10.4482 15.9984 11.3319 15.9984H14.5319C16.0039 15.9967 17.1968 14.8038 17.1986 13.3318V12.2651H19.3319ZM16.1319 9.0651V13.3318C16.1319 14.2154 15.4156 14.9318 14.5319 14.9318H11.3319C9.85987 14.9335 8.667 16.1264 8.66524 17.5984V18.6651H6.5319C5.64825 18.6651 4.9319 17.9488 4.9319 17.0651V13.8651C4.9319 12.9814 5.64825 12.2651 6.5319 12.2651H12.9319C13.2265 12.2651 13.4652 12.0263 13.4652 11.7318C13.4652 11.4372 13.2265 11.1984 12.9319 11.1984H9.7319V9.0651C9.7319 8.18145 10.4482 7.4651 11.3319 7.4651H14.5319C15.4156 7.4651 16.1319 8.18145 16.1319 9.0651Z" fill="#428DFF"/>
<path d="M11.8654 10.1331C12.1599 10.1331 12.3987 9.89429 12.3987 9.59974C12.3987 9.30519 12.1599 9.06641 11.8654 9.06641C11.5708 9.06641 11.332 9.30519 11.332 9.59974C11.332 9.89429 11.5708 10.1331 11.8654 10.1331Z" fill="#428DFF"/>
<path d="M14.0001 21.8655C14.2947 21.8655 14.5334 21.6267 14.5334 21.3322C14.5334 21.0376 14.2947 20.7988 14.0001 20.7988C13.7056 20.7988 13.4668 21.0376 13.4668 21.3322C13.4668 21.6267 13.7056 21.8655 14.0001 21.8655Z" fill="#428DFF"/>
</svg>
