<svg width="84" height="84" viewBox="0 0 84 84" fill="none" xmlns="http://www.w3.org/2000/svg">
<g clip-path="url(#clip0)">
<path d="M44.637 78.7076C42.8413 78.7076 41.7704 76.9286 42.3241 75.4052L52.8677 46.4097C53.3323 45.1325 54.7448 44.4737 56.022 44.9377C57.2993 45.4023 57.9581 46.8148 57.4935 48.092L46.9499 77.0869C46.5859 78.0866 45.6425 78.7076 44.637 78.7076Z" fill="#3AB4FB"/>
<path d="M70.9959 78.7076C69.9936 78.7076 69.0515 78.0904 68.6855 77.0945L58.0362 48.099C57.5677 46.8231 58.2227 45.4093 59.498 44.9408C60.7734 44.4717 62.1878 45.1267 62.6562 46.402L73.3056 75.3975C73.9054 77.0304 72.675 78.7076 70.9959 78.7076Z" fill="#1D9CFD"/>
<path d="M76.2674 5.25H39.3629C35.0928 5.25 31.6309 8.71198 31.6309 12.9821V41.9789C31.6309 46.249 35.0928 49.7109 39.3629 49.7109H76.2674C80.5375 49.7109 83.9995 46.249 83.9995 41.9789V12.9821C83.9995 8.71198 80.5375 5.25 76.2674 5.25Z" fill="#EFF6FE"/>
<path d="M76.2677 5.25H57.4922V49.7109H76.2677C80.5378 49.7109 83.9998 46.249 83.9998 41.9789V12.9821C83.9998 8.71198 80.5378 5.25 76.2677 5.25Z" fill="#D9E4EF"/>
<path d="M26.3589 20.8911C26.3589 26.8108 21.5601 31.6096 15.6404 31.6096C9.7207 31.6096 4.92188 26.8108 4.92188 20.8911C4.92188 14.9707 9.7207 10.1719 15.6404 10.1719C21.5601 10.1719 26.3589 14.9707 26.3589 20.8911Z" fill="#FFCFBE"/>
<path d="M39.5813 46.8152C38.3656 46.207 37.8734 44.7292 38.481 43.5134L45.071 30.3333C45.6792 29.1176 47.1577 28.6254 48.3728 29.2329C49.5885 29.8411 50.0807 31.319 49.4731 32.5347L42.8831 45.7142C42.2743 46.9318 40.7952 47.4221 39.5813 46.8152Z" fill="#FFB826"/>
<path d="M26.3611 20.8917C26.3611 26.8114 21.5623 31.6102 15.6406 31.6102V10.1719C21.5623 10.1719 26.3611 14.9707 26.3611 20.8917Z" fill="#F9BCAA"/>
<path d="M70.9963 19.3984H44.6367C43.2774 19.3984 42.1758 18.2961 42.1758 16.9375C42.1758 15.5782 43.2774 14.4766 44.6367 14.4766H70.9963C72.3549 14.4766 73.4572 15.5782 73.4572 16.9375C73.4572 18.2961 72.3556 19.3984 70.9963 19.3984Z" fill="#3AB4FB"/>
<path d="M70.9953 29.9414H59.9531C58.5938 29.9414 57.4922 28.8398 57.4922 27.4805C57.4922 26.1212 58.5938 25.0195 59.9531 25.0195H70.9953C72.3546 25.0195 73.4562 26.1212 73.4562 27.4805C73.4562 28.8398 72.3546 29.9414 70.9953 29.9414Z" fill="#1D9CFD"/>
<path d="M70.9953 40.4844H59.9531C58.5938 40.4844 57.4922 39.3821 57.4922 38.0234C57.4922 36.6642 58.5938 35.5625 59.9531 35.5625H70.9953C72.3546 35.5625 73.4562 36.6642 73.4562 38.0234C73.4562 39.3821 72.3546 40.4844 70.9953 40.4844Z" fill="#1D9CFD"/>
<path d="M70.9953 14.4766H57.4922V19.3984H70.9953C72.3546 19.3984 73.4562 18.2961 73.4562 16.9375C73.4562 15.5782 72.3546 14.4766 70.9953 14.4766Z" fill="#1D9CFD"/>
<path d="M23.5481 78.7062H7.73273C6.37344 78.7062 5.27179 77.6045 5.27179 76.2453V62.489C2.21036 61.4591 0 58.5618 0 55.1575V47.2498C0 43.0656 1.62845 39.137 4.58478 36.1884C7.48535 33.2801 11.5164 31.6094 15.6411 31.6094H17.8155C22.1324 31.6094 24.6626 33.1904 28.2085 34.9534C32.1133 36.8953 36.9852 39.3177 40.0921 40.8654C42.9587 42.2901 44.3315 45.6309 43.2997 48.6552C43.2965 48.6648 43.2933 48.6744 43.2901 48.684C42.6691 50.5208 41.2771 52.0005 39.4705 52.744C37.6581 53.4816 35.6272 53.4034 33.8879 52.5338C31.4077 51.293 28.3424 49.7607 26.0097 48.595V76.2453C26.009 77.6045 24.9074 78.7062 23.5481 78.7062Z" fill="#FF7579"/>
<path d="M40.093 40.8654C36.9861 39.3177 32.1142 36.8953 28.2087 34.9534C24.6634 33.1904 22.1333 31.6094 17.8164 31.6094H15.6413C15.6413 31.6094 15.6413 31.6094 15.6406 31.6094V78.7062H23.549C24.9082 78.7062 26.0099 77.6045 26.0099 76.2453V48.595C28.3433 49.7607 31.4086 51.293 33.8887 52.5338C35.6274 53.4034 37.659 53.481 39.4707 52.744C41.2773 52.0005 42.6699 50.5208 43.2909 48.6834C43.2941 48.6738 43.2973 48.6642 43.3005 48.6546C44.3323 45.6309 42.9596 42.2901 40.093 40.8654Z" fill="#FE4A60"/>
</g>
<defs>
<clipPath id="clip0">
<rect width="84" height="84" fill="white"/>
</clipPath>
</defs>
</svg>
