<svg width="84" height="84" viewBox="0 0 84 84" fill="none" xmlns="http://www.w3.org/2000/svg">
<g clip-path="url(#clip0)">
<path d="M81.0167 11.5876C79.2118 11.423 77.6156 12.7527 77.4511 14.5574L77.0163 19.3266C69.6402 7.74276 56.8361 0 42.0001 0C26.04 0 11.9747 9.10908 4.99255 22.7807C4.1683 24.3946 4.80847 26.3711 6.42236 27.1953C8.03657 28.0196 10.0127 27.3796 10.837 25.7655C16.746 14.1952 28.6121 6.5625 42.0001 6.5625C54.2026 6.5625 65.2148 12.9168 71.5237 22.8716L66.8451 19.5302C65.3703 18.477 63.321 18.8186 62.2679 20.2932C61.2148 21.768 61.5564 23.8171 63.031 24.8704L77.2183 35.0031C79.2976 36.4854 82.1656 35.1284 82.393 32.6309L83.9862 15.1533C84.1509 13.3485 82.8214 11.7521 81.0167 11.5876Z" fill="#B1A7E4"/>
<path d="M77.5776 56.8053C75.9635 55.9812 73.9873 56.6212 73.163 58.2351C67.254 69.8055 55.3878 77.4382 41.9998 77.4382C29.7973 77.4382 18.7851 71.0839 12.4763 61.129L17.1549 64.4705C18.6296 65.5236 20.6787 65.182 21.732 63.7074C22.7851 62.2327 22.4436 60.1835 20.969 59.1303L6.78167 48.9976C4.72777 47.5302 1.83666 48.8465 1.60698 51.3698L0.0137661 68.8474C-0.150789 70.652 1.17894 72.2484 2.98346 72.4129C4.79045 72.5772 6.38464 71.2461 6.54903 69.4431L6.9838 64.6739C14.3597 76.2579 27.1638 84.0007 41.9998 84.0007C57.96 84.0007 72.0252 74.8916 79.0074 61.2199C79.8316 59.606 79.1915 57.6296 77.5776 56.8053Z" fill="#B1A7E4"/>
</g>
<defs>
<clipPath id="clip0">
<rect width="84" height="84" fill="white"/>
</clipPath>
</defs>
</svg>
