<svg width="498" height="419" viewBox="0 0 498 419" fill="none" xmlns="http://www.w3.org/2000/svg">
<path d="M313.717 65.2689C313.794 65.0144 315.906 61.426 318.629 57.5068C331.252 39.3104 349.983 21.7756 371.946 22.4373L371.971 22.3101C362.046 21.2157 352.324 23.8625 343.773 28.5707C329.674 36.1546 315.957 50.6354 308.449 61.7569L313.717 65.2689Z" fill="#F7CC7F"/>
<path d="M367.059 32.5157L368.535 22.285L360.951 15.2609C360.086 14.472 360.519 13.0214 361.664 12.8178L371.844 11.0617L376.17 1.67085C376.654 0.601973 378.181 0.551073 378.715 1.59451L383.525 10.7563L393.781 11.9779C394.952 12.1052 395.461 13.5303 394.621 14.3702L387.393 21.776L389.404 31.9304C389.633 33.0756 388.437 33.9918 387.393 33.4828L378.13 28.9019L369.095 33.9409C368.128 34.5262 366.907 33.6864 367.059 32.5157Z" fill="#F7CC7F"/>
<path d="M167.23 13.7852L165.882 18.7988L169.954 22.209L168.019 27.7061L173.466 30.022L171.582 36.3335L176.316 39.0821L175.502 45.4699L173.084 45.1645L173.695 40.38L168.681 37.5042L170.513 31.4217L164.991 29.0804L167.103 22.9979L163.133 19.664L164.38 15.0322L161.326 13.378L162.497 11.2402L167.23 13.7852Z" fill="#9BC1F9"/>
<path d="M52.8338 325.286C58.6872 331.827 58.1528 341.854 51.6122 347.733C45.0717 353.586 35.0191 353.026 29.1657 346.511C23.3123 339.971 23.8468 329.943 30.3873 324.065C36.9278 318.186 46.9804 318.746 52.8338 325.286Z" fill="#F7CC7F"/>
<path d="M36.3418 343.434C39.4721 346.921 44.8419 347.226 48.3285 344.096C51.8151 340.966 52.1205 335.596 48.9902 332.109L36.3418 343.434Z" fill="#EFEFEF"/>
<path d="M454.835 415.227H74.0589C73.0663 415.227 72.252 416.041 72.252 417.034C72.252 418.026 73.0663 418.84 74.0589 418.84H454.835C455.828 418.84 456.642 418.026 456.642 417.034C456.642 416.041 455.828 415.227 454.835 415.227Z" fill="#F9F9F9"/>
<path d="M35.5276 285.485L31.3793 283.118C30.2341 284.95 28.8344 286.579 27.4855 287.826C26.3657 288.869 24.6097 288.844 23.5154 287.775L23.3881 287.648C22.1666 286.477 22.192 284.518 23.4645 283.398C24.7624 282.253 26.0095 280.827 26.9765 279.122C28.4017 276.628 28.4017 274.389 26.6457 273.396C24.9915 272.454 23.1337 273.269 20.207 275.865C15.9823 279.657 11.9867 281.591 7.73667 279.199C3.89378 277.01 2.41771 272.607 4.14828 267.39L0 265.049L2.41771 260.773L6.26059 262.962C7.22768 261.409 8.19476 260.239 9.08549 259.297C10.2053 258.152 12.0122 258.152 13.1574 259.246C14.3281 260.391 14.3536 262.275 13.1574 263.42C12.2667 264.285 11.2996 265.405 10.4343 266.957C8.831 269.808 9.51814 271.411 10.7397 272.098C12.1903 272.913 13.9718 271.895 17.4838 268.993C22.2684 264.845 25.8568 264.107 29.8014 266.321C33.6952 268.535 35.4512 273.167 33.4662 278.69L37.9198 281.209L35.5276 285.485Z" fill="#FAE0B2"/>
<path d="M443.841 110.162L441.092 117.008L429.589 113.801L424.346 123.32L415.337 122.352L414.828 126.908L426.866 128.231L431.854 119.197L443.815 122.531L447.963 112.224L443.841 110.162Z" fill="#466EB6"/>
<path d="M423.938 352.8L426.355 346.82C423.709 345.598 421.266 344.02 419.357 342.442C417.779 341.119 417.499 338.778 418.721 337.098L418.873 336.894C420.222 335.062 422.869 334.731 424.574 336.233C426.33 337.76 428.468 339.159 430.936 340.152C434.525 341.603 437.553 341.195 438.546 338.676C439.513 336.284 438.113 333.968 434.067 330.507C428.239 325.518 424.905 320.53 427.373 314.422C429.613 308.874 435.263 306.1 442.541 307.5L444.959 301.52L451.143 304.014L448.904 309.562C451.143 310.58 452.899 311.648 454.325 312.717C456.03 314.015 456.386 316.433 455.113 318.164C453.79 319.945 451.271 320.301 449.515 318.927C448.217 317.884 446.512 316.815 444.297 315.924C440.2 314.27 438.164 315.517 437.451 317.273C436.612 319.36 438.291 321.574 442.821 325.748C449.26 331.423 450.889 336.105 448.598 341.755C446.333 347.354 440.455 350.561 432.692 348.881L430.097 355.294L423.938 352.8Z" fill="#96D9C9"/>
<path d="M87.9794 145.816C88.5901 146.631 88.5392 147.75 87.8775 148.514C86.5542 149.99 84.391 151.771 81.6679 153.095C77.6977 155.029 73.1423 155.614 68.8413 154.138C66.1691 153.222 63.5987 151.339 61.69 148.768L59.3486 149.914C58.5597 150.295 57.5926 149.965 57.2108 149.176L57.1854 149.125C56.8036 148.336 57.1345 147.369 57.9234 146.987L59.8576 146.045C59.4758 145.409 59.2213 145.027 59.0432 144.671C58.7378 144.06 58.4579 143.322 58.2034 142.482L56.2183 143.449C55.4294 143.831 54.4623 143.5 54.0805 142.711C53.6988 141.922 54.0296 140.955 54.8186 140.574L57.2363 139.403C56.5491 136.324 56.6764 133.193 57.5926 130.521C59.1704 125.966 62.6061 122.479 66.7799 120.469C69.1976 119.298 71.2335 118.814 72.9132 118.636C74.0839 118.509 75.1273 119.323 75.28 120.494V120.519C75.4582 121.716 74.6183 122.81 73.3968 122.963C72.0225 123.141 70.4446 123.573 68.6377 124.464C65.9909 125.762 63.7514 127.874 62.6316 130.954C62.0208 132.735 61.8426 134.848 62.4534 136.858L75.9926 130.267C76.7815 129.885 77.7486 130.216 78.1304 131.005C78.5121 131.794 78.1813 132.761 77.3923 133.142L63.2424 140.039C63.4969 140.726 63.7768 141.413 63.9804 141.846C64.2349 142.381 64.5149 142.94 64.922 143.628L79.0975 136.731C79.9118 136.324 80.9044 136.68 81.2861 137.494C81.6933 138.309 81.337 139.301 80.5226 139.683L66.958 146.3C68.2305 147.827 69.8084 148.921 71.4117 149.481C74.5929 150.524 77.4178 150.194 80.4208 148.743C82.2532 147.852 83.7547 146.732 84.8491 145.664C85.7398 144.696 87.2159 144.824 87.9794 145.816Z" fill="#86B1F2"/>
<path d="M44.2071 188.621L37.2084 189.309L34.8162 178.162L24.4328 177.958L21.277 169.891L17.2051 171.494L21.4297 182.259L31.2532 182.463L33.7473 194.068L44.2834 192.999L44.2071 188.621Z" fill="#50BFA5"/>
<path d="M378.232 107.083L382.635 108.534C382.635 108.534 389.608 106.269 390.295 104.844C390.982 103.419 391.186 99.983 392.178 99.8812C393.171 99.7794 395.079 100.11 395.538 102.477C395.868 104.182 393.349 109.145 393.756 109.679C394.011 110.01 396.505 110.926 398.337 111.537C399.559 111.944 400.424 113.013 400.602 114.311C400.729 115.176 400.246 116.016 399.431 116.347L398.159 116.831L398.566 118.129C398.871 119.096 398.337 120.139 397.37 120.47L396.403 120.801L396.708 121.59C397.115 122.608 396.556 123.778 395.487 124.084L394.621 124.338L394.647 124.567C394.799 125.509 394.189 126.425 393.273 126.68L392.433 126.909L380.726 123.04C379.632 122.684 378.614 122.099 377.748 121.31L373.855 119.248C373.447 119.019 373.244 118.536 373.396 118.078L377.01 107.694C377.188 107.185 377.723 106.931 378.232 107.083Z" fill="#FAE0B2"/>
<path d="M110.069 121.055C109.967 120.775 107.625 116.754 104.597 112.402C90.4978 92.0936 69.6037 72.5229 45.0704 73.261L45.0449 73.1083C56.1409 71.8867 66.9824 74.8388 76.526 80.1069C92.2539 88.5816 107.574 104.742 115.973 117.161L110.069 121.055Z" fill="#F7CC7F"/>
<path d="M50.5172 84.4827L48.863 73.0558L57.3377 65.2174C58.3047 64.3266 57.8212 62.7233 56.5233 62.4943L45.1473 60.5346L40.3119 50.0494C39.752 48.8533 38.0723 48.8024 37.4616 49.9731L32.0663 60.2038L20.614 61.5781C19.316 61.7308 18.7561 63.3086 19.6723 64.2503L27.7398 72.5214L25.5003 83.8464C25.2458 85.1444 26.5691 86.1623 27.7653 85.577L38.1232 80.4616L48.2013 86.086C49.3211 86.7222 50.6953 85.7806 50.5172 84.4827Z" fill="#F7CC7F"/>
<path d="M433.965 282.634L434.754 279.936C438.953 279.147 442.567 276.323 443.763 272.251C444.145 270.953 444.399 269.858 444.603 268.382L438.978 266.754L439.971 263.343L445.061 264.819C445.264 263.114 445.544 260.9 446.181 258.788C448.064 252.4 453.714 249.499 459.771 251.255C461.501 251.764 462.85 252.4 463.843 253.062C464.733 253.672 464.988 254.869 464.377 255.785C463.792 256.701 462.57 256.955 461.629 256.396C460.865 255.912 459.873 255.479 458.625 255.123C454.35 253.901 451.754 256.319 450.634 260.162C449.947 262.478 449.769 264.31 449.591 266.143L457.455 268.408L456.462 271.818L449.031 269.68C448.598 271.793 448.089 273.879 447.02 275.686C445.723 277.85 443.839 279.402 441.523 280.445L441.498 280.547L455.877 284.695C456.946 285.001 457.557 286.095 457.251 287.164L457.2 287.317C456.895 288.36 455.775 288.971 454.706 288.666L433.965 282.634Z" fill="#F7CC7F"/>
<path d="M2.03628 123.321L4.70848 118.791L2.49437 114.032C2.23987 113.498 2.72341 112.887 3.30875 113.014L8.42412 114.16L12.267 110.597C12.6996 110.189 13.4122 110.469 13.4631 111.055L13.9467 116.272L18.5276 118.842C19.062 119.122 19.0111 119.886 18.4512 120.14L13.6413 122.227L12.6233 127.368C12.496 127.953 11.758 128.157 11.3763 127.699L7.96602 123.78L2.74886 124.416C2.16352 124.492 1.73088 123.83 2.03628 123.321Z" fill="#466EB6"/>
<path d="M496.011 195.902L489.572 195.393L488.707 201.322L482.37 201.093L480.818 206.667L476.059 207.252L476.364 209.67L482.752 208.881L484.202 203.587L490.794 203.842L491.659 197.988L497.487 198.472L496.011 195.902Z" fill="#F48C7F"/>
<path d="M152.546 51.8311L152.164 45.3923L146.158 45.3669L145.496 39.0554L139.77 38.3174L138.498 33.6855L136.131 34.3218L137.836 40.5315L143.257 41.2441L143.969 47.8101L149.874 47.8355L150.204 53.6635L152.546 51.8311Z" fill="#F48C7F"/>
<path d="M13.4621 241.482L18.323 243.34L22.1149 239.649L27.4085 242.118L30.2334 236.926L36.3412 239.446L39.5479 235.018L45.8085 236.468L45.274 238.835L40.5659 237.741L37.2065 242.449L31.3277 240.006L28.4519 245.274L22.6239 242.551L18.9083 246.164L14.4037 244.459L12.4696 247.31L10.4336 245.961L13.4621 241.482Z" fill="#F7CC7F"/>
<path d="M306.056 37.1484L305.726 41.0422L299.389 41.2458L298.218 46.8956L293.51 47.8118L293.968 50.2041L300.279 48.9825L301.374 43.6126L307.991 43.409L308.449 37.5302L306.056 37.1484Z" fill="#50BFA5"/>
<path d="M434.779 37.7852C442.108 44.8093 442.337 56.4397 435.313 63.7437C428.289 71.0732 416.659 71.3022 409.355 64.2782C402.025 57.2541 401.796 45.6236 408.82 38.3196C415.819 30.9902 427.449 30.7611 434.779 37.7852Z" fill="#FFF3D9"/>
<path d="M434.474 53.1299L426.661 55.5222L424.218 63.3097C424.014 63.946 423.174 64.0732 422.818 63.5388L418.11 56.8456L409.941 56.9219C409.279 56.9219 408.897 56.1839 409.304 55.6494L414.216 49.1089L411.62 41.3468C411.417 40.7105 412.002 40.1252 412.638 40.3288L420.375 42.9755L426.941 38.1147C427.475 37.7329 428.213 38.1147 428.213 38.7764L428.086 46.9457L434.754 51.6793C435.238 52.1119 435.085 52.9263 434.474 53.1299Z" fill="#FED333"/>
<path d="M486.825 132.432L491.126 132.178C491.585 132.152 491.839 131.541 491.534 131.16L488.785 127.571L489.956 122.99C490.083 122.507 489.65 122.074 489.218 122.252L485.197 124.059L481.608 121.489C481.227 121.209 480.692 121.54 480.743 122.049L480.997 126.757L477.613 129.735C477.256 130.065 477.358 130.702 477.816 130.803L481.99 131.898L483.466 136.301C483.619 136.784 484.23 136.835 484.459 136.402L486.825 132.432Z" fill="#F47458"/>
<path d="M158.807 212.037C158.807 212.037 166.518 197.175 167.714 191.729C168.91 186.282 172.931 158.822 172.702 157.041C172.269 153.656 167.841 151.467 168.656 149.966C169.47 148.464 173.669 148.006 175.094 148.133C176.52 148.261 179.395 149.101 180.642 150.119C181.864 151.137 179.268 184.043 178.479 191.118C177.69 198.193 168.096 220.028 168.096 220.028L158.807 212.037Z" fill="#F7A491"/>
<path d="M182.015 149.508C181.837 149.61 181.2 149.813 181.048 149.94L179.852 150.322C179.852 150.322 182.906 150.246 184.712 152.18C184.712 152.155 183.873 150.628 182.015 149.508Z" fill="#F47257"/>
<path d="M327.969 155.462C329.165 154.546 329.776 152.255 330.03 150.779L330.641 148.845C330.183 148.641 321.097 146.911 318.349 146.707C318.043 147.572 317.865 148.285 317.941 148.768C318.247 151.033 320.461 165.794 320.461 165.794L328.325 166.303C328.299 166.303 326.976 157.574 327.969 155.462Z" fill="#F7A491"/>
<path d="M328.148 149.277C328.148 149.277 326.519 150.015 324.712 152.179C324.712 152.179 320.385 149.125 320.589 148.234C320.843 147.038 325.297 149.481 325.297 149.481L328.148 149.277Z" fill="#F47458"/>
<path d="M366.499 365.066C366.499 365.066 377.086 372.701 378.74 374.966C381.132 378.249 360.824 384.383 363.038 380.54C363.547 379.649 365.023 376.697 365.074 376.391C365.404 374.839 361.104 370.614 361.104 370.614L366.499 365.066Z" fill="#F7A491"/>
<path d="M357.541 386.952L364.718 376.798C364.718 376.798 369.197 375.754 373.803 370.588C373.803 370.588 377.951 372.166 380.496 375.601C380.496 375.601 375.686 380.793 368.281 386.621C368.281 386.621 363.878 390.515 357.821 392.551C351.738 394.587 357.541 386.952 357.541 386.952Z" fill="#F7CC7F"/>
<path d="M452.875 176.889C452.875 176.889 450.152 181.394 449.847 181.114C449.617 180.91 451.246 178.518 452.417 175.642C452.722 174.904 453.002 174.166 453.282 173.505C453.969 171.723 453.13 170.807 452.112 172.563C451.755 173.174 451.195 174.217 450.89 175.006C450.559 175.871 449.999 176.559 449.617 177.22C448.854 178.569 448.32 179.562 448.294 179.511C448.243 179.434 447.912 179.587 448.218 178.798C448.574 177.831 449.745 175.973 450.177 174.523C450.406 173.708 450.992 172.029 450.992 172.029C450.992 172.029 451.424 169.331 451.272 169.255C450.483 168.847 449.694 170.629 449.516 171.774C449.032 172.461 448.472 174.243 448.472 174.243C448.472 174.243 446.538 177.602 446.055 177.347C445.851 177.246 446.818 175.032 447.429 172.716C447.989 170.578 448.218 168.313 447.836 168.16C447.174 167.88 446.284 170.196 446.284 170.196C446.284 170.196 445.749 171.85 445.546 172.385C445.291 173.021 444.4 174.853 444.4 174.853C444.4 174.853 440.888 181.038 440.481 180.732C440.074 180.452 439.387 179.282 439.463 178.824C439.539 178.365 440.125 177.602 440.201 177.144C440.277 176.686 440.023 176.024 439.463 175.897C438.929 175.77 437.707 177.831 437.707 177.831C437.707 177.831 436.715 179.511 436.689 180.885C436.587 185.568 437.351 185.39 437.325 185.975C437.3 186.687 431.879 194.5 431.879 194.5C431.879 194.5 431.854 194.551 431.777 194.628L438.216 199.31C440.354 195.824 442.034 193.075 442.517 192.235C442.517 192.235 445.749 189.487 447.709 187.68C449.668 185.873 450.788 183.277 451.272 182.692C451.348 182.616 452.824 180.529 454.02 177.5C455.013 174.879 452.875 176.889 452.875 176.889Z" fill="#F8A492"/>
<path d="M382.684 286.68L381.005 294.951L338.937 333.202L369.043 363.665L360.925 371.962C360.925 371.962 316.465 339.31 314.861 335.034C312.393 328.443 346.75 284.797 346.75 284.797L382.684 286.68Z" fill="#B75742"/>
<path d="M413.657 387.945C413.657 387.945 424.244 395.58 425.898 397.845C428.291 401.128 407.982 407.262 410.196 403.419C410.705 402.528 412.181 399.576 412.232 399.27C412.563 397.718 408.262 393.493 408.262 393.493L413.657 387.945Z" fill="#F7A491"/>
<path d="M404.673 409.856L411.85 399.701C411.85 399.701 416.635 398.836 421.216 393.67C421.216 393.67 425.059 395.07 427.604 398.48C427.604 398.48 422.794 403.672 415.388 409.5C415.388 409.5 410.985 413.393 404.928 415.429C398.896 417.491 404.673 409.856 404.673 409.856Z" fill="#F7CC7F"/>
<path d="M381.234 290.498L381.896 344.884L415.311 386.799L407.447 395.528C407.447 395.528 366.066 361.12 361.536 351.246C358.737 345.113 348.48 287.215 348.48 287.215L381.234 290.498Z" fill="#F47458"/>
<path d="M347.311 286.223C350.721 278.512 350.339 223.159 363.649 210.18C368.332 210.969 371.666 211.427 372.455 211.63C373.142 217.331 373.905 238.251 374.389 257.44C374.694 270.215 374.389 283.602 375.941 290.677C376.934 295.054 344.18 293.273 347.311 286.223Z" fill="#FAE0B2"/>
<path d="M290.94 241.941C283.152 242.399 279.869 243.621 277.477 243.163C275.085 242.704 268.697 240.439 268.824 238.022C277.375 236.317 292.289 238.963 292.289 238.963C291.271 243.951 290.94 241.941 290.94 241.941Z" fill="#F7A491"/>
<path d="M357.974 211.937C357.974 211.937 354.513 228.912 350.492 231.813C346.471 234.74 326.06 244.996 324.813 244.919C318.654 244.563 289.133 243.367 289.133 243.367L290.049 233.9L323.312 231.202C323.312 231.202 347.387 215.423 350.644 212.929C352.909 211.504 357.974 211.937 357.974 211.937Z" fill="#466EB6"/>
<path d="M345.963 289.914C342.96 289.914 341.866 289.507 339.88 288.896C339.88 288.896 338.583 266.679 344.945 233.747C347.337 221.328 347.414 213.795 352.325 211.886C356.754 210.155 362.174 209.926 363.65 210.181C350.62 247.083 350.569 275.484 348.711 283.73C347.795 287.853 346.981 289.94 345.963 289.914Z" fill="#466EB6"/>
<path d="M365.023 204.605L363.649 210.179C363.649 210.179 363.343 215.04 365.583 215.472C368.306 216.007 372.327 211.935 372.327 211.935L374.668 196.207L365.023 204.605Z" fill="#F7A491"/>
<path d="M365.023 204.605L363.649 210.179C363.649 210.179 363.343 215.04 365.583 215.472C368.306 216.007 372.327 211.935 372.327 211.935L374.668 196.207L365.023 204.605Z" fill="#F7A491"/>
<path d="M374.669 196.285L365.024 204.607L364.006 208.781C367.696 207.89 372.939 203.818 374.669 196.285Z" fill="#F47458"/>
<path d="M364.998 181.803C362.657 181.803 360.57 183.406 359.756 185.747C359.069 187.682 358.203 190.532 357.644 193.815C356.626 199.872 360.061 205.394 363.064 205.827C366.067 206.26 373.193 204.275 374.771 195.724C375.458 192.059 376.349 187.249 373.32 184.704C370.954 182.744 367.671 181.828 364.998 181.803Z" fill="#F7A491"/>
<path d="M373.803 202.264C373.803 202.264 384.365 192.847 384.823 185.493C385.281 178.138 378.486 174.193 372.684 173.989C370.062 173.887 368.281 174.015 365.583 174.346C359.755 175.084 355.989 177.654 357.312 182.413C359.093 188.801 371.157 183.406 373.625 185.391C375.661 187.019 372.353 190.964 374.338 192.466C376.196 193.891 375.254 193.407 374.643 196.08C374.032 198.828 373.803 202.264 373.803 202.264Z" fill="#13375B"/>
<path d="M377.874 193.739C377.62 195.495 376.525 196.793 375.456 196.64C374.387 196.488 373.726 194.935 374.006 193.154C374.26 191.398 375.355 190.1 376.423 190.252C377.467 190.431 378.129 191.983 377.874 193.739Z" fill="#F7A491"/>
<path d="M329.775 146.3C328.833 144.646 327.408 146.351 328.324 148.489C328.375 148.591 328.324 148.769 328.324 148.744C328.095 149.303 325.881 151.059 325.881 151.059C325.881 151.059 327.637 155.971 328.629 154.699C329.622 153.401 330.36 149.202 330.36 149.202L329.775 146.3Z" fill="#F7A491"/>
<path d="M441.092 196.665L433.89 189.539C433.89 189.539 420.223 209.161 413.301 212.545C406.557 215.854 384.136 214.658 383.347 214.48C380.649 213.869 372.378 211.604 372.378 211.604C372.378 211.604 365.456 271.105 374.465 291.795C377.417 298.54 395.741 294.06 395.741 294.06C395.741 294.06 390.091 269.273 389.786 266.04C389.506 262.936 387.928 238.351 388.182 238.122C388.844 237.461 413.861 232.014 420.707 226.797C427.986 221.3 441.092 196.665 441.092 196.665Z" fill="#466EB6"/>
<path d="M91.8757 250.67C104.219 263.522 115.035 252.146 114.5 252.324C114.933 252.146 117.631 252.146 119.387 252.095C126.742 251.815 133.435 246.547 136.336 239.574C147.33 238.123 154.532 227.969 151.3 219.189C156.161 213.132 154.66 203.486 150.053 197.302C148.984 187.173 135.751 185.443 126.614 189.005C121.983 190.812 118.063 194.706 116.027 199.414C107.247 199.211 99.7396 205.675 97.78 214.659C84.1645 218.425 79.3036 237.538 91.8757 250.67Z" fill="#FF3B3B"/>
<path d="M171.124 375.221C169.851 382.168 167.637 388.276 167.357 388.989C167.205 389.345 165.83 390.592 165.678 390.949C166.416 399.423 171.811 404.437 176.876 408.025C175.781 403.75 173.338 398.863 173.643 397.922C174.152 396.42 176.112 389.523 180.286 380.845C176.061 380.362 174.56 377.791 171.124 375.221Z" fill="#F7A491"/>
<path d="M155.703 274.516L126.436 294.494C126.436 294.494 140.687 303.757 145.574 308.414C150.46 313.072 176.622 334.195 177.029 335.264C177.335 336.053 174.612 346.08 168.326 378.146C171.1 380.997 177.233 383.771 180.847 384.687C188.456 367.585 197.033 331.981 196.066 328.061C194.589 321.979 155.703 274.516 155.703 274.516Z" fill="#355389"/>
<path d="M81.5931 314.727C82.4584 315.567 88.1591 326.688 90.3478 332.643C93.529 330.633 95.4632 328.266 99.0006 326.917C96.2012 322.871 90.7295 313.098 90.2714 310.782C89.2026 305.26 87.9555 304.445 87.9555 304.445C87.9555 304.445 69.4792 310.706 68.2321 312.462C67.036 314.192 78.1575 311.368 81.5931 314.727Z" fill="#F7A491"/>
<path d="M90.5001 311.977C91.9253 311.977 90.3729 305.488 90.042 304.012C89.6603 302.332 88.6932 301.823 88.4642 301.772C87.8025 301.619 67.2647 308.567 63.8035 311.061C63.5745 311.239 63.1418 311.774 63.0909 311.875C61.1822 315.413 78.1316 316.1 80.5493 314.548C82.7126 313.173 84.0614 311.977 90.5001 311.977Z" fill="#3C8F7C"/>
<path d="M161.02 280.751C161.02 280.751 136.232 270.978 135.901 272.021C133.331 280.292 125.34 277.62 120.606 292.177C118.621 298.285 117.069 314.369 115.72 326.305C114.804 334.5 113.506 341.091 113.506 341.091C113.506 341.091 107.754 332.591 96.9636 320.426C96.1237 319.485 87.3945 327.781 87.3945 327.781C104.598 361.909 117.145 366.719 119.894 365.803C132.338 361.604 148.804 304.393 148.779 304.419C150.815 300.499 161.02 280.751 161.02 280.751Z" fill="#466EB6"/>
<path d="M122.77 222.955C122.77 222.955 93.1723 222.93 86.8353 222.548C81.1092 222.217 58.3573 222.803 57.4665 222.701C56.5758 222.599 50.6969 212.648 49.7299 213.717C48.7628 214.786 53.0129 218.654 51.6895 219.647C50.3661 220.639 36.267 218.4 36.4452 219.443C36.8015 221.403 45.0217 221.148 45.0217 222.09C45.0217 223.032 36.3943 221.556 35.809 223.133C35.2236 224.711 44.1055 223.77 44.4364 224.482C44.7926 225.169 36.2161 226.467 37.0814 227.918C37.565 228.707 44.6908 226.595 44.6399 227.663C44.6145 228.732 39.3973 231.201 40.0336 232.041C40.6698 232.906 44.1055 229.394 47.134 229.369C50.1625 229.318 52.3003 227.74 57.1357 229.063C59.5025 229.725 77.6735 231.939 92.9941 233.237C108.722 234.586 121.599 235.018 121.599 235.018L122.77 222.955Z" fill="#F7A491"/>
<path d="M166.644 249.269C167.026 244.51 166.11 235.476 165.881 233.898C167.306 228.961 170.386 218.424 171.48 216.363C171.48 216.363 166.339 206.463 161.046 206.54C161.046 206.54 155.65 218.679 151.502 220.868C151.451 220.842 150.026 221.504 149.415 221.504C145.394 221.478 131.346 221.046 128.725 220.995L130.201 240.922C135.749 255.606 134.731 268.611 133.764 273.141C133.229 275.661 157.635 283.219 161.376 280.801C161.504 280.674 165.856 258.864 166.644 249.269Z" fill="#50BFA5"/>
<path d="M135.852 221.709C133.256 220.462 114.5 221.098 114.5 221.098C114.5 221.098 111.879 234.153 113.991 237.309C113.991 237.309 130.762 239.803 130.279 241.178L135.852 221.709Z" fill="#50BFA5"/>
<path d="M139.135 212.572C139.135 212.572 141.094 219.443 141.451 222.395C141.807 225.373 146.312 234.586 152.47 233.288C158.629 231.964 152.216 223.337 150.994 220.614C149.798 217.891 146.541 206.922 146.541 206.922L139.135 212.572Z" fill="#F7A491"/>
<path d="M147.889 211.426C147.126 208.932 146.515 206.922 146.515 206.922L139.109 212.572C139.109 212.572 139.466 213.844 139.898 215.498C143.818 216.033 146.515 214.175 147.889 211.426Z" fill="#F47257"/>
<path d="M133.765 192.033C133.765 192.033 130.533 193.891 129.413 197.81C128.293 201.729 129.769 211.807 138.219 214.098C146.643 216.414 150.18 208.372 148.348 202.162C146.515 195.927 142.647 188.088 133.765 192.033Z" fill="#F7A491"/>
<path d="M149.363 199.722C149.236 201.401 148.32 202.699 147.327 202.623C146.36 202.546 145.673 201.121 145.8 199.442C145.928 197.762 146.844 196.464 147.836 196.54C148.803 196.617 149.491 198.042 149.363 199.722Z" fill="#F7A491"/>
<path d="M167.281 389.217C166.746 387.894 161.402 392.119 160.13 392.984C158.704 393.951 158.603 395.045 158.628 395.3C158.73 395.962 172.345 412.733 176.341 415.049C176.723 415.278 177.512 415.278 177.741 415.176C179.955 414.311 176.341 400.593 173.44 397.87C171.582 396.114 169.673 395.198 167.281 389.217Z" fill="#3C8F7C"/>
<path d="M134.731 191.5C134.731 191.5 133.382 202.774 129.768 204.861C126.154 206.948 127.757 211.911 127.757 211.911C127.757 211.911 124.296 200.382 127.121 196.615C129.946 192.849 134.731 191.5 134.731 191.5Z" fill="#FF3B3B"/>
<path d="M131.958 206.439C132.976 207.889 132.976 209.62 132.009 210.307C131.016 210.994 129.413 210.358 128.42 208.907C127.402 207.457 127.402 205.726 128.369 205.039C129.337 204.352 130.94 204.988 131.958 206.439Z" fill="#F7A491"/>
<path d="M284.729 100.057C280.122 100.974 261.748 125.583 261.748 125.583L261.111 127.289C261.111 127.289 294.374 123.598 295.57 122.173C298.802 118.33 288.495 99.294 284.729 100.057ZM261.977 126.118C268.034 118.356 281.878 107.031 284.856 104.638C287.528 107.362 291.549 115.404 292.083 119.017C288.266 119.781 271.673 124.922 261.977 126.118Z" fill="#82C7E6"/>
<path d="M240.169 104.258C231.134 98.3537 228.64 98.4046 225.993 99.9061C223.346 101.408 213.625 115.354 217.977 119.706C222.328 124.058 256.787 127.163 256.787 127.163L257.576 125.05C257.576 125.025 249.229 110.162 240.169 104.258ZM223.983 118.153C221.972 116.143 226.986 107.795 229.251 106.014C229.836 105.683 253.021 120.444 256.253 125.483C243.324 124.083 225.866 119.808 223.983 118.153Z" fill="#82C7E6"/>
<path d="M257.092 133.678H259.026C260.96 133.678 262.513 132.125 262.513 130.191V124.49C262.513 122.556 260.96 121.004 259.026 121.004H257.092C255.158 121.004 253.605 122.556 253.605 124.49V130.191C253.605 132.1 255.158 133.678 257.092 133.678Z" fill="#82C7E6"/>
<path d="M330.59 127.392L172.93 126.908C168.731 126.908 165.525 130.624 166.135 134.772L168.579 150.856L176.468 150.831L181.227 231.786C181.481 236.112 185.07 239.497 189.396 239.497H315.219L320.461 150.525L327.893 150.5L330.59 127.392Z" fill="#B32323"/>
<path d="M173.898 152.764L173.923 150.83C172.422 150.245 170.64 150.423 169.75 150.194L167.637 148.641C167.205 148.438 166.568 148.921 166.568 149.43C166.568 149.888 167.179 150.83 167.459 151.059C167.459 151.059 171.251 154.164 172.574 155.131C173.236 155.589 175.298 156.862 175.298 156.862L176.494 154.597L173.898 152.764Z" fill="#F7A491"/>
<path d="M317.968 239.549H221.387L216.221 129.072H330.973L326.163 231.863C325.959 236.164 322.345 239.549 317.968 239.549Z" fill="#FF3B3B"/>
<path d="M335.707 150.602L211.132 150.932L208.281 126.959L330.312 127.417C334.307 127.443 337.463 130.878 337.107 134.874L335.707 150.602Z" fill="#FF3B3B"/>
<path d="M211.131 150.932L329.955 150.602L214.897 156.888L211.131 150.932Z" fill="#B32323"/>
<path d="M261.189 127.16H257.881V150.828H261.189V127.16Z" fill="#82C7E6"/>
<path d="M271.574 150.705H267.451V239.702H271.574V150.705Z" fill="#82C7E6"/>
<path d="M171.834 80.7174C182.828 84.9929 191.888 87.8687 200.948 90.2609C203.925 91.0499 208.863 93.3149 211.611 91.3044C213.036 90.261 213.647 88.6831 212.807 87.0289C211.28 83.9749 206.521 83.7459 203.518 82.9569C194.356 80.5138 184.126 77.3326 173.971 73.4897C172.063 72.7771 169.848 74.2023 169.289 76.0601C168.652 78.147 169.925 79.9793 171.834 80.7174Z" fill="#DEF0F8"/>
<path d="M242.279 63.819C239.022 38.9547 239.251 38.9038 237.877 36.537C236.477 34.1448 232.608 34.4502 231.845 37.2496C231.082 39.9982 231.26 39.5655 234.772 65.7022C235.052 67.7891 237.622 68.9852 239.48 68.5271C241.694 67.9672 242.559 65.9058 242.279 63.819Z" fill="#DEF0F8"/>
<path d="M282.26 66.9979C284.729 63.6895 286.79 60.1266 288.495 56.36C290.073 52.848 292.974 47.7072 290.251 44.246C289.666 43.508 288.292 43.1517 287.426 43.4571C283.762 44.7296 283.049 49.8704 281.573 53.1025C279.97 56.6145 277.984 59.9739 275.821 63.1551C274.676 64.8347 275.44 67.3033 277.119 68.2959C278.977 69.4411 281.038 68.6522 282.26 66.9979Z" fill="#DEF0F8"/>
<path d="M337.589 85.9077C338.709 84.3807 337.767 82.3956 336.469 81.4285C333.772 79.418 329.038 81.2759 326.086 82.0902C322.676 83.0319 319.367 84.3044 316.135 85.7804C314.277 86.6457 313.768 89.267 314.71 90.9467C315.804 92.9063 317.968 93.1608 319.876 92.3719C332.245 87.2056 334.841 89.6742 337.589 85.9077Z" fill="#DEF0F8"/>
</svg>
