<svg width="90" height="84" viewBox="0 0 90 84" fill="none" xmlns="http://www.w3.org/2000/svg">
<path d="M0 7.74922C0 5.22884 0 2.70846 0 0C29.3041 0 58.5705 0 87.9875 0C87.9875 2.55799 87.9875 5.04075 87.9875 7.74922C58.721 7.74922 29.4545 7.74922 0 7.74922Z" fill="#B1A7E4"/>
<path d="M67.6371 54.0188C65.2296 56.6144 62.8221 59.21 60.4522 61.7304C58.3456 59.5862 56.5399 57.743 54.8848 56.0125C60.565 50.3323 66.3957 44.5016 72.1512 38.7461C77.8315 44.4263 83.6246 50.2194 89.3048 55.8621C87.612 57.5925 85.7688 59.3981 83.775 61.3919C81.5932 59.0596 79.1481 56.5016 76.7029 53.906C76.5149 54.0188 76.3268 54.0941 76.1387 54.2069C76.1387 64.1003 76.1387 73.9937 76.1387 84C73.355 84 70.797 84 68.1638 84C68.1638 74.0314 68.1638 64.1756 68.1638 54.2821C67.9757 54.2069 67.8252 54.1317 67.6371 54.0188Z" fill="#B1A7E4"/>
<path d="M67.9744 31.9382C45.291 31.9382 22.7205 31.9382 0.0371094 31.9382C0.0371094 29.2674 0.0371094 26.747 0.0371094 24.0762C22.6829 24.0762 45.2534 24.0762 67.9744 24.0762C67.9744 26.7094 67.9744 29.2674 67.9744 31.9382Z" fill="#B1A7E4"/>
<path d="M47.9633 48.1504C47.9633 50.8212 47.9633 53.3416 47.9633 56.0125C31.9759 56.0125 16.1012 56.0125 0.0761719 56.0125C0.0761719 53.4168 0.0761719 50.8589 0.0761719 48.1504C15.9508 48.1504 31.8254 48.1504 47.9633 48.1504Z" fill="#B1A7E4"/>
<path d="M27.8379 72.2266C27.8379 74.8974 27.8379 77.4178 27.8379 80.0886C18.584 80.0886 9.40532 80.0886 0.0761719 80.0886C0.0761719 77.493 0.0761719 74.935 0.0761719 72.2266C9.25486 72.2266 18.4335 72.2266 27.8379 72.2266Z" fill="#B1A7E4"/>
</svg>
