<svg width="446" height="272" viewBox="0 0 446 272" fill="none" xmlns="http://www.w3.org/2000/svg">
<g clip-path="url(#clip0)">
<path fill-rule="evenodd" clip-rule="evenodd" d="M243.211 24.2307C243.211 23.9051 242.951 23.6445 242.625 23.6445C242.299 23.6445 242.039 23.9051 242.039 24.2307V25.6637H240.606C240.28 25.6637 240.02 25.9242 240.02 26.2499C240.02 26.5756 240.28 26.8361 240.606 26.8361H242.039V28.2691C242.039 28.5947 242.299 28.8553 242.625 28.8553C242.951 28.8553 243.211 28.5947 243.211 28.2691V26.8361H244.644C244.97 26.8361 245.23 26.5756 245.23 26.2499C245.23 25.9242 244.97 25.6637 244.644 25.6637H243.211V24.2307Z" fill="#9FB2D9"/>
<path fill-rule="evenodd" clip-rule="evenodd" d="M92.6853 189.997H54.5818H53.6048C32.5665 189.997 15.3711 207.192 15.3711 228.231C15.3711 249.269 32.5665 266.464 53.6048 266.464H165.245H184.459H384.03C418.095 266.464 445.973 238.587 445.973 204.522C445.973 170.457 418.095 142.579 384.03 142.579C369.635 142.579 357.846 130.79 357.846 116.395C357.846 102.001 369.635 90.2114 384.03 90.2114H415.555C430.536 90.2114 442.781 77.9662 442.781 62.9854C442.781 48.0045 430.536 35.7593 415.555 35.7593H375.693C369.896 35.7593 365.076 31.0045 365.076 25.1424C365.076 19.3455 369.831 14.5256 375.693 14.5256H382.727C386.766 14.5256 390.022 11.2037 390.022 7.23057C390.022 3.19225 386.701 -0.0644531 382.727 -0.0644531H356.413C356.413 -0.0644531 346.383 -0.0644531 336.678 -0.0644531C326.973 -0.0644531 325.865 11.3991 301.375 11.3991C263.467 11.3991 282.421 11.3991 244.513 11.3991C239.237 11.3991 234.938 15.698 234.938 20.9739C234.938 26.2497 239.237 30.5486 244.513 30.5486H253.697C261.317 30.5486 267.505 36.8014 267.505 44.357C267.505 51.9777 261.252 58.1654 253.697 58.1654H226.08C188.823 58.1654 183.547 67.8704 177.034 87.2804C170.521 106.625 136.651 108.188 136.651 108.188H90.3404C78.8768 108.188 69.4975 117.568 69.4975 129.031C69.4975 140.495 78.8768 149.874 90.3404 149.874H92.7504C103.758 149.874 112.812 158.863 112.812 169.936C112.747 181.008 103.693 189.997 92.6853 189.997ZM403.31 14.6559C399.272 14.6559 396.015 11.3991 396.015 7.36084C395.95 3.25739 399.272 0.000680976 403.31 0.000680976C407.348 0.000680976 410.605 3.25739 410.605 7.2957C410.605 11.334 407.348 14.6559 403.31 14.6559Z" fill="#E1E8F6"/>
<path fill-rule="evenodd" clip-rule="evenodd" d="M352.311 126.881C356.284 121.149 364.556 111.575 380.449 102.065C405.525 87.0192 424.544 67.0882 416.207 55.2989C408 43.705 371.265 66.046 340.717 121.931C345.211 124.341 348.989 125.904 352.311 126.881Z" fill="#B4C5E6"/>
<path fill-rule="evenodd" clip-rule="evenodd" d="M347.425 121.8C348.141 121.735 349.965 121.735 352.375 122.451C352.571 122.516 352.701 122.386 352.766 122.256C352.831 122.06 352.701 121.93 352.571 121.865C350.486 121.214 348.728 121.149 347.816 121.149C348.337 120.237 348.923 119.325 349.444 118.413C350.551 118.413 354.134 118.348 355.436 118.413C355.632 118.413 355.762 118.283 355.762 118.087C355.762 117.892 355.632 117.762 355.436 117.762C354.199 117.696 351.203 117.762 349.77 117.762C350.812 116.068 351.789 114.505 352.831 112.876C353.873 112.876 357.26 113.007 360.908 113.463C361.103 113.463 361.233 113.332 361.299 113.202C361.299 113.007 361.168 112.876 361.038 112.811C357.716 112.355 354.655 112.225 353.287 112.225C354.329 110.662 355.371 109.099 356.348 107.601C357.846 107.601 362.601 107.731 367.877 108.447C368.072 108.447 368.203 108.317 368.268 108.187C368.268 107.991 368.138 107.861 368.007 107.796C363.122 107.145 358.693 106.949 356.804 106.949C358.172 104.995 359.475 103.106 360.843 101.348C362.406 101.283 368.724 101.087 373.544 102.65C373.739 102.716 373.869 102.585 373.935 102.455C374 102.26 373.869 102.129 373.739 102.064C369.31 100.631 363.513 100.631 361.364 100.696C362.992 98.4819 364.62 96.3976 366.249 94.4435C368.333 94.5738 376.8 95.2252 380.709 98.0259C380.839 98.1562 381.034 98.091 381.164 97.9608C381.295 97.8305 381.23 97.6351 381.099 97.5048C377.256 94.7692 369.505 94.0527 366.77 93.8573C368.463 91.773 370.222 89.819 371.85 87.9301C373.348 88.2558 379.797 89.819 385.789 92.8803C385.919 92.9455 386.115 92.8803 386.245 92.7501C386.31 92.6198 386.245 92.4244 386.115 92.2941C380.383 89.4282 374.391 87.865 372.371 87.4091C373.348 86.3018 374.325 85.2596 375.302 84.2826C376.8 84.6083 382.988 85.9761 391.26 90.0144C391.391 90.0796 391.586 90.0144 391.716 89.8842C391.781 89.7539 391.716 89.5585 391.586 89.4282C383.9 85.7156 377.908 84.2175 375.889 83.7616C378.233 81.4167 380.448 79.2022 382.663 77.2481C384.486 77.8343 393.866 81.0259 398.816 84.1524C398.946 84.2175 399.141 84.2175 399.272 84.0221C399.337 83.8918 399.337 83.6964 399.207 83.5662C394.452 80.57 385.724 77.5087 383.249 76.6619C384.551 75.5547 385.789 74.4474 387.027 73.4704C388.59 73.9914 395.885 76.5968 402.528 80.4397C402.659 80.5048 402.854 80.5048 402.984 80.3094C403.05 80.1792 403.05 79.9838 402.854 79.8535C396.601 76.206 389.827 73.7309 387.613 73.0144C390.479 70.7347 393.149 68.7807 395.624 67.1524C397.187 67.5432 404.287 69.3018 409.628 72.3631C409.758 72.4282 409.954 72.4282 410.084 72.2328C410.149 72.1025 410.149 71.9071 409.954 71.7769C405.069 68.911 398.751 67.2175 396.406 66.6313C397.448 65.9799 398.425 65.3286 399.337 64.8075C400.574 64.9378 405.329 65.524 411.387 67.8688C411.582 67.934 411.712 67.8688 411.777 67.6734C411.843 67.478 411.778 67.3478 411.582 67.2826C406.371 65.2635 402.138 64.547 400.184 64.2865C407.804 59.8573 412.559 58.7501 412.624 58.7501C412.885 58.6849 413.015 58.4244 412.95 58.1639C412.885 57.9033 412.624 57.773 412.364 57.8382C412.364 57.8382 410.279 58.3593 406.632 59.9225C407.609 58.6849 409.042 56.9263 409.433 56.7309C409.563 56.6658 409.628 56.4704 409.563 56.275C409.498 56.1447 409.302 56.0796 409.107 56.1447C408.521 56.4704 406.176 59.4665 405.394 60.4435C403.896 61.16 402.268 62.0068 400.379 63.0489L403.505 56.796C403.571 56.6658 403.505 56.4704 403.375 56.3401C403.245 56.275 403.05 56.3401 402.919 56.4704L399.272 63.7654C398.034 64.4819 396.666 65.3286 395.233 66.2405L398.62 58.8152C398.686 58.6849 398.62 58.4895 398.49 58.4244C398.36 58.3593 398.164 58.4244 398.034 58.5547L394.191 66.8918C392.042 68.3248 389.827 69.9531 387.417 71.842L390.348 64.1562C390.413 63.9608 390.348 63.8305 390.153 63.7654C389.958 63.7003 389.827 63.7654 389.762 63.9608L386.44 72.6888C385.333 73.6006 384.226 74.5125 383.118 75.4895L385.594 68.5853C385.659 68.3899 385.594 68.2596 385.398 68.1945C385.203 68.1294 385.072 68.1945 385.007 68.3899L382.141 76.4014C380.057 78.2903 377.908 80.3094 375.693 82.524L377.582 75.7501C377.647 75.5547 377.517 75.4244 377.387 75.3593C377.191 75.2941 377.061 75.4244 376.996 75.5547L374.781 83.4359C373.935 84.3478 373.023 85.2596 372.111 86.2366L373.153 81.0911C373.218 80.8957 373.088 80.7654 372.892 80.7003C372.697 80.6351 372.567 80.7654 372.502 80.9608L371.264 87.1485C369.636 88.9723 367.942 90.9263 366.249 92.9455L367.226 87.2137C367.226 87.0183 367.161 86.888 366.965 86.8229C366.77 86.8229 366.64 86.888 366.574 87.0834L365.402 93.9225C363.904 95.7462 362.406 97.6351 360.908 99.6543L361.559 94.5087C361.559 94.3133 361.429 94.183 361.299 94.183C361.103 94.183 360.973 94.3133 360.973 94.4435L360.191 100.696C358.889 102.455 357.521 104.279 356.218 106.233V101.608C356.218 101.413 356.088 101.283 355.892 101.283C355.697 101.283 355.567 101.413 355.567 101.608L355.502 107.145C354.525 108.513 353.548 110.011 352.636 111.444L352.115 107.535C352.115 107.34 351.919 107.21 351.789 107.275C351.594 107.275 351.463 107.47 351.528 107.601L352.115 112.29C351.203 113.658 350.356 115.091 349.444 116.524L348.988 113.984C348.988 113.788 348.793 113.723 348.597 113.723C348.402 113.723 348.337 113.919 348.337 114.114L348.923 117.371C348.272 118.478 347.62 119.585 346.904 120.693L345.862 118.608C345.797 118.478 345.601 118.413 345.406 118.478C345.276 118.543 345.21 118.739 345.276 118.934L346.513 121.409C345.992 122.321 345.406 123.298 344.885 124.21C345.21 124.34 345.471 124.47 345.732 124.601C346.383 123.558 346.904 122.647 347.425 121.8Z" fill="white"/>
<path fill-rule="evenodd" clip-rule="evenodd" d="M347.751 130.139C351.985 127.468 359.475 123.886 370.809 122.257C389.958 119.522 407.088 111.641 405.786 101.154C404.548 91.0582 377.322 94.9662 343.518 122.323L347.751 130.139Z" fill="#9FB2D9"/>
<path fill-rule="evenodd" clip-rule="evenodd" d="M400.576 102.717C400.966 102.717 401.227 102.392 401.227 102.066C401.227 101.675 400.901 101.415 400.576 101.415C400.576 101.415 398.426 101.415 394.779 101.87L397.905 99.7862C398.101 99.6559 398.166 99.3954 398.035 99.2C397.905 99.0046 397.645 98.9395 397.449 99.0697L392.825 102.196C391.131 102.457 389.177 102.847 387.028 103.369L390.284 100.242C390.48 100.047 390.48 99.7862 390.284 99.5908C390.089 99.3954 389.828 99.3954 389.633 99.5908L385.204 103.825C382.989 104.411 380.579 105.127 378.039 106.039L380.775 103.238C380.97 103.043 380.97 102.782 380.775 102.587C380.579 102.392 380.319 102.392 380.189 102.587L376.15 106.69C373.48 107.667 370.679 108.905 367.813 110.273L370.158 107.277C370.288 107.081 370.288 106.821 370.093 106.69C369.897 106.56 369.637 106.56 369.507 106.756L366.055 111.185C363.319 112.552 360.518 114.181 357.717 116.005L358.694 113.985C358.825 113.79 358.694 113.529 358.499 113.399C358.304 113.269 358.043 113.399 357.913 113.595L356.35 116.916C354.2 118.349 352.051 119.913 349.836 121.606L350.683 119.522C350.748 119.326 350.683 119.066 350.422 118.936C350.227 118.87 349.966 118.936 349.836 119.196L348.338 122.779C347.296 123.625 346.189 124.537 345.146 125.449L345.798 126.621C346.84 125.71 347.947 124.798 348.989 123.886C350.097 123.951 352.702 124.146 353.744 124.733C353.94 124.863 354.2 124.733 354.33 124.537C354.461 124.342 354.33 124.081 354.135 123.951C353.158 123.43 351.269 123.169 349.966 123.039C350.813 122.388 351.66 121.736 352.507 121.085C353.549 121.28 356.154 121.802 357.913 122.779C358.108 122.909 358.369 122.844 358.499 122.583C358.629 122.388 358.564 122.127 358.304 121.997C356.805 121.15 354.721 120.629 353.418 120.369C355.177 119.131 356.871 117.959 358.564 116.851C359.997 117.438 364.622 119.392 366.445 120.89C366.641 121.02 366.901 121.02 367.032 120.825C367.162 120.629 367.162 120.369 366.966 120.238C365.273 118.87 361.3 117.112 359.411 116.265C361.235 115.158 363.058 114.051 364.817 113.139C366.25 113.725 371.005 115.614 374.131 118.089C374.327 118.219 374.587 118.219 374.717 118.024C374.848 117.828 374.848 117.568 374.652 117.438C371.851 115.223 367.748 113.399 365.794 112.618C366.641 112.162 367.553 111.706 368.399 111.315C369.897 111.771 375.043 113.595 379.798 116.982C379.993 117.112 380.254 117.112 380.384 116.916C380.514 116.721 380.514 116.461 380.319 116.33C376.15 113.334 371.721 111.575 369.572 110.794C372.698 109.296 375.694 108.123 378.495 107.146C380.189 108.188 386.637 112.292 389.503 114.962C389.698 115.158 389.959 115.093 390.154 114.962C390.35 114.767 390.284 114.507 390.154 114.311C387.549 111.836 381.947 108.188 379.602 106.756C381.687 106.039 383.706 105.453 385.595 104.997C387.093 106.169 392.629 110.403 393.932 111.51C394.127 111.641 394.388 111.641 394.518 111.445C394.648 111.25 394.648 110.989 394.453 110.859C393.281 109.817 388.591 106.234 386.637 104.736C389.047 104.15 391.261 103.694 393.15 103.434C394.518 104.606 397.775 107.472 398.491 108.189C398.687 108.384 398.947 108.384 399.143 108.189C399.338 107.993 399.338 107.733 399.143 107.537C398.491 106.886 395.821 104.541 394.323 103.238C398.296 102.717 400.576 102.717 400.576 102.717Z" fill="#B4C5E6"/>
<path fill-rule="evenodd" clip-rule="evenodd" d="M251.809 139.321C251.548 135.478 251.418 131.766 251.418 128.183C251.418 124.536 251.613 121.019 251.874 117.632C252.981 104.93 256.108 93.9879 260.667 84.6086C265.617 74.4477 272.391 66.2408 280.338 59.6622C287.698 53.5396 296.165 48.9151 305.154 45.5933C314.793 42.0109 325.215 39.9266 335.702 39.145C339.219 38.8845 342.801 38.7542 346.383 38.8193C350.031 38.8193 353.613 39.0147 357.196 39.3404C357.587 39.4055 357.977 39.6009 358.173 39.8615C358.433 40.122 358.564 40.5128 358.498 40.9688V41.099C358.368 42.4668 355.111 72.4937 340.521 99.5894C325.736 127.011 299.357 151.501 252.851 140.689C252.525 140.624 252.265 140.429 252.069 140.168C251.939 139.973 251.809 139.647 251.809 139.321ZM357 41.6852C355.242 42.3366 348.077 45.2676 338.046 50.9343C341.954 51.6507 350.813 53.2791 354.786 54.5818C356.154 48.1986 356.805 43.509 357 41.6852ZM354.525 55.9496C349.901 54.4515 337.916 52.3672 336.092 52.0416C331.077 54.9075 325.475 58.4898 319.483 62.7235L350.617 70.9304C352.376 65.4592 353.613 60.3787 354.525 55.9496ZM350.292 72.2983L318.05 63.8308C312.514 67.8691 306.652 72.4937 300.79 77.7044C307.173 79.6584 337.721 89.0377 342.931 91.6431C345.928 84.9994 348.337 78.4209 350.292 72.2983ZM342.28 92.8806C337.069 90.2101 303.33 79.9189 299.552 78.7465C294.862 83.0454 290.108 87.735 285.418 92.8155L333.422 108.122C333.487 108.122 333.552 108.187 333.617 108.187C335.701 105.126 337.59 101.934 339.284 98.7427C340.326 96.8538 341.368 94.8998 342.28 92.8806ZM332.77 109.49L284.376 94.053C280.728 98.0914 277.211 102.39 273.759 107.015C281.575 109.685 321.633 122.126 321.763 122.126C321.893 122.191 321.958 122.191 322.023 122.321C326.062 118.413 329.579 114.049 332.77 109.49ZM320.916 123.363C316.682 122.061 279.165 110.337 272.847 108.187C269.916 112.16 266.985 116.394 264.249 120.823C273.694 125.513 305.544 133.72 305.61 133.785C305.805 133.85 305.935 133.98 306.065 134.111C311.602 131.179 316.487 127.532 320.916 123.363ZM304.437 134.957C299.357 133.589 272.131 126.36 263.533 122.061C261.774 124.927 260.081 127.858 258.387 130.919C262.035 132.352 278.318 138.605 288.805 139.647C289.131 139.647 289.326 139.907 289.391 140.168C294.862 138.996 299.813 137.237 304.437 134.957ZM286.33 140.754C275.583 139.061 260.862 133.394 257.736 132.156C256.498 134.501 255.261 136.911 254.088 139.321C266.138 142.057 276.82 142.383 286.33 140.754ZM253.242 137.823C254.349 135.609 255.456 133.394 256.629 131.245C255.196 127.206 254.088 120.237 253.567 116.329C253.502 116.785 253.502 117.306 253.437 117.762C253.111 121.084 252.981 124.601 252.981 128.183C252.916 131.31 253.046 134.501 253.242 137.823ZM253.958 112.681C254.284 112.747 254.544 113.007 254.544 113.333C254.544 113.333 255.652 123.624 257.475 129.551C259.104 126.62 260.732 123.819 262.426 121.019C261.839 119.065 258.778 108.122 257.736 95.8768C256.108 101.022 254.805 106.624 253.958 112.681ZM258.583 93.4668C258.843 93.532 259.039 93.7925 259.039 94.1182C259.82 105.256 262.426 115.612 263.468 119.39C266.138 115.156 268.939 111.118 271.805 107.21C270.958 104.735 266.138 90.0147 265.422 79.0722C264.184 81.0262 263.077 83.1105 262.035 85.2599C260.797 87.8653 259.625 90.6009 258.583 93.4668ZM266.529 77.509C266.724 77.6393 266.855 77.8347 266.855 78.0952C267.246 87.9956 271.479 101.674 272.847 105.907C276.234 101.413 279.751 97.1143 283.334 93.1412C276.951 79.6584 275.974 68.6507 275.843 65.9151C272.391 69.3021 269.265 73.2101 266.529 77.509ZM277.081 64.6776C277.211 64.8078 277.276 65.0032 277.276 65.1335C277.276 65.1986 277.406 76.8576 284.376 91.9036C289.065 86.758 293.82 82.0684 298.51 77.7695C295.644 71.3212 292.908 55.2983 292.518 53.0837C288.61 55.2983 284.832 57.9036 281.38 60.7695C279.882 62.0722 278.449 63.3098 277.081 64.6776ZM293.82 52.4324C293.885 52.4975 293.885 52.5626 293.885 52.6929C293.885 52.758 296.686 69.8232 299.617 76.8576C305.61 71.5167 311.472 66.827 317.138 62.7887C315.054 54.5167 315.119 45.5933 315.119 44.1603C311.928 45.0071 308.801 45.9841 305.74 47.0914C301.636 48.5243 297.598 50.3481 293.82 52.4324ZM316.552 43.7044C316.552 43.7695 316.552 43.8347 316.552 43.8998C316.552 43.8998 316.292 53.1488 318.376 61.8117C324.433 57.4477 330.165 53.8653 335.246 50.9343C334.594 46.3749 334.985 41.555 335.05 40.7734C328.797 41.2293 322.61 42.2063 316.552 43.7044ZM336.483 40.6431C336.483 40.7082 336.483 40.7082 336.483 40.7734C336.483 40.7734 336.027 45.5281 336.613 50.1527C345.862 44.8768 352.767 41.8806 355.567 40.7082C352.506 40.4477 349.51 40.3174 346.449 40.3174C343.127 40.3174 339.805 40.4477 336.483 40.6431Z" fill="#9FB2D9"/>
<path fill-rule="evenodd" clip-rule="evenodd" d="M139.517 229.143C139.517 229.143 125.383 221.848 127.988 204.001C130.594 186.154 119.651 180.487 116.85 175.146C114.05 169.805 120.303 161.273 119.586 153.717C118.87 146.227 110.207 144.208 114.245 133.917C118.283 123.625 114.896 119.717 109.555 108.644C104.214 97.6368 112.161 80.7671 115.873 80.8322C119.651 80.8974 115.027 84.8705 118.349 92.2307C121.67 99.5908 135.609 101.805 139.973 107.928C144.337 114.051 136.651 122.192 141.667 130.464C146.617 138.736 161.467 136.196 165.44 144.208C169.349 152.219 160.034 161.859 162.705 170.261C165.44 178.664 175.471 183.484 179.64 190.192C183.873 196.966 191.755 209.928 178.793 225.43C165.896 240.932 139.517 229.143 139.517 229.143Z" fill="#9FB2D9"/>
<path fill-rule="evenodd" clip-rule="evenodd" d="M114.374 96.1384C114.179 95.6825 114.439 95.1614 114.895 94.966C115.351 94.7706 115.872 95.0312 116.068 95.4871L174.493 247.184L172.278 246.598L114.374 96.1384Z" fill="#B4C5E6"/>
<path fill-rule="evenodd" clip-rule="evenodd" d="M127.793 211.034C127.727 210.318 127.662 209.601 127.662 208.82L166.026 230.379L162.639 221.586C162.639 221.521 162.639 221.521 162.574 221.456L160.816 216.962L128.314 198.724C128.314 198.007 128.314 197.291 128.248 196.575L159.773 214.291L156.712 206.345L126.685 189.475C126.294 188.433 125.839 187.521 125.383 186.609L155.67 203.609L154.172 199.636C154.172 199.571 154.107 199.571 154.107 199.506L147.463 182.18L117.436 165.31C117.632 164.724 117.827 164.138 117.957 163.486L146.421 179.509L143.099 170.847L119.455 157.559C119.586 156.908 119.651 156.191 119.651 155.54L142.057 168.176L139.582 161.663C139.582 161.663 139.582 161.598 139.517 161.598L132.222 142.644L114.635 132.743C114.831 132.157 115.026 131.506 115.222 130.985L131.18 139.973L124.862 123.494C124.862 123.494 124.862 123.429 124.796 123.429L114.31 96.2029C114.114 95.747 114.375 95.2259 114.831 95.0305C115.287 94.8351 115.808 95.0956 116.003 95.5516L125.513 120.303L130.984 101.739C131.57 102 132.091 102.326 132.678 102.586L126.685 123.168L133.85 141.732V141.797L140.494 158.992L150.915 136.586C151.501 136.781 152.088 136.977 152.674 137.107L141.34 161.337L143.881 167.916L157.624 138.605C158.21 138.801 158.796 138.996 159.383 139.257L144.988 169.87L145.183 170C145.639 170.26 145.77 170.781 145.509 171.237C145.444 171.368 145.314 171.498 145.248 171.563L148.961 181.203V181.268L154.953 196.9L165.18 175.211C165.57 175.732 166.026 176.318 166.482 176.839L155.93 199.31L157.494 203.349L168.827 179.314C169.283 179.77 169.739 180.226 170.26 180.682L158.471 205.758L162.444 215.985V216.05L163.551 218.916L178.011 188.107C178.467 188.628 178.858 189.214 179.248 189.735L164.398 221.26L168.566 232.073V232.138C167.85 232.333 167.134 232.529 166.352 232.724L127.793 211.034Z" fill="#B4C5E6"/>
<path fill-rule="evenodd" clip-rule="evenodd" d="M132.939 266.594C129.031 263.598 125.058 262.23 122.974 260.276C118.74 256.368 121.606 246.663 118.545 240.15C115.483 233.636 107.081 234.613 107.407 223.996C107.732 213.445 103.368 211.035 95.0311 202.828C86.6939 194.621 88.3874 176.904 91.7744 175.797C95.1614 174.69 92.3606 179.705 97.6365 185.242C102.977 190.778 116.265 188.303 122.127 192.406C128.054 196.51 123.755 206.28 130.855 212.142C138.02 218.004 150.525 210.904 156.648 216.897C162.771 222.889 157.43 234.548 162.575 241.257C167.721 247.966 178.272 249.008 184.265 253.763C187.652 256.433 192.667 260.472 195.207 266.724H132.939V266.594Z" fill="#C0CDEA"/>
<path fill-rule="evenodd" clip-rule="evenodd" d="M161.207 266.594L152.74 256.758L120.303 251.222C120.303 250.636 120.238 250.05 120.238 249.398L150.981 254.609L145.184 247.9L119.587 243.536C119.456 242.885 119.326 242.299 119.131 241.647L143.361 245.751L138.997 240.735L138.931 240.67L126.361 226.08L107.406 222.823C107.406 222.172 107.407 221.586 107.341 221.065L124.602 223.996L113.594 211.23L113.529 211.164L95.3567 190.061C95.031 189.67 95.0962 189.149 95.4218 188.823C95.8126 188.498 96.3337 188.563 96.6594 188.889L113.203 208.103L112.096 189.605C112.682 189.67 113.269 189.735 113.855 189.866L115.027 210.318L127.468 224.712L127.533 224.778L138.997 238.13L141.211 214.617C141.797 214.617 142.384 214.551 142.97 214.551L140.625 240.019L144.989 245.099L147.92 214.291C148.506 214.291 149.092 214.291 149.679 214.291L146.552 246.467L146.813 246.532C147.269 246.597 147.594 247.053 147.529 247.574C147.529 247.705 147.464 247.835 147.399 247.965L153.847 255.456L153.912 255.521L163.552 266.724H161.207V266.594ZM164.464 266.594L166.548 244.709C167.069 245.099 167.656 245.425 168.242 245.751L166.223 266.594H164.464ZM169.219 266.594L171.108 247.184C171.694 247.444 172.215 247.705 172.801 247.965L170.977 266.594H169.219ZM180.747 266.594L182.115 252.134C182.702 252.46 183.223 252.85 183.809 253.241L182.506 266.594H180.747Z" fill="#E1E8F6"/>
<path fill-rule="evenodd" clip-rule="evenodd" d="M14.9163 272.001H11.399C9.90093 272.001 8.72852 270.764 8.72852 269.331C8.72852 267.833 9.96606 266.66 11.399 266.66H14.9163C16.4143 266.66 17.5868 267.898 17.5868 269.331C17.5868 270.764 16.4143 272.001 14.9163 272.001Z" fill="#9FB2D9"/>
<path fill-rule="evenodd" clip-rule="evenodd" d="M23.5792 272.001H413.928C415.426 272.001 416.598 270.764 416.598 269.331C416.598 267.833 415.361 266.66 413.928 266.66H23.5792C22.0811 266.66 20.9087 267.898 20.9087 269.331C20.8436 270.764 22.0811 272.001 23.5792 272.001Z" fill="#E1E8F6"/>
<path fill-rule="evenodd" clip-rule="evenodd" d="M52.2372 164.139C53.0188 163.357 54.126 162.901 55.2985 162.901C56.4709 162.901 57.5781 163.357 58.3598 164.139C59.1414 164.92 59.5973 166.028 59.5973 167.2C59.5973 168.372 59.1414 169.48 58.3598 170.261C57.5781 171.043 56.4709 171.564 55.2985 171.564C54.126 171.564 53.0188 171.108 52.2372 170.261C51.4555 169.48 50.9996 168.372 50.9996 167.2C50.9345 165.963 51.4555 164.92 52.2372 164.139ZM53.149 159.84C52.5628 160.035 51.9766 160.231 51.4555 160.556C50.9345 160.882 50.4134 161.273 49.9575 161.664C49.8923 161.729 49.7621 161.729 49.6318 161.729L47.6126 160.556C47.4824 160.491 47.3521 160.491 47.2218 160.491C47.0916 160.556 46.9613 160.622 46.8962 160.752L45.4632 163.227C45.3981 163.357 45.3981 163.487 45.3981 163.618C45.4632 163.748 45.5283 163.878 45.6586 163.943L47.6778 165.116C47.808 165.181 47.808 165.311 47.808 165.441C47.7429 165.767 47.6778 166.028 47.6126 166.353C47.5475 166.679 47.5475 166.94 47.5475 167.265C47.5475 167.591 47.5475 167.917 47.6126 168.177C47.6778 168.503 47.6778 168.828 47.808 169.089C47.808 169.219 47.808 169.349 47.6778 169.415L45.6586 170.587C45.5283 170.652 45.4632 170.782 45.3981 170.913C45.3329 171.043 45.3981 171.173 45.4632 171.304L46.8962 173.779C46.9613 173.909 47.0916 173.974 47.2218 174.039C47.3521 174.104 47.4824 174.039 47.6126 173.974L49.6318 172.802C49.7621 172.736 49.8923 172.736 49.9575 172.867C50.4134 173.323 50.9345 173.648 51.4555 173.974C51.9766 174.3 52.5628 174.495 53.149 174.69C53.2793 174.756 53.3444 174.821 53.3444 174.951V177.296C53.3444 177.426 53.4096 177.556 53.4747 177.622C53.5398 177.687 53.6701 177.752 53.8004 177.752H56.6663C56.7965 177.752 56.9268 177.687 56.9919 177.622C57.0571 177.556 57.1222 177.426 57.1222 177.296V174.951C57.1222 174.821 57.1873 174.69 57.3176 174.69C57.9038 174.495 58.49 174.3 59.0111 173.974C59.5322 173.648 60.0532 173.258 60.5092 172.867C60.5743 172.802 60.7697 172.802 60.8349 172.867L62.854 174.039C62.9843 174.104 63.1145 174.104 63.2448 174.104C63.3751 174.039 63.5054 173.974 63.5705 173.844L65.0034 171.369C65.0686 171.238 65.0686 171.108 65.0686 170.978C65.0034 170.848 64.9383 170.717 64.808 170.652L62.7889 169.48C62.6586 169.415 62.6586 169.284 62.6586 169.154C62.7237 168.828 62.7889 168.568 62.854 168.242C62.9191 167.917 62.9191 167.656 62.9191 167.33C62.9191 167.005 62.9191 166.679 62.854 166.418C62.7889 166.093 62.7889 165.832 62.6586 165.507C62.6586 165.376 62.6586 165.246 62.7889 165.181L64.808 164.009C64.9383 163.943 65.0034 163.813 65.0686 163.683C65.1337 163.553 65.0686 163.422 65.0034 163.292L63.5705 160.817C63.5054 160.687 63.3751 160.622 63.2448 160.556C63.1145 160.491 62.9843 160.556 62.854 160.622L60.8349 161.794C60.7046 161.859 60.5743 161.859 60.5092 161.729C60.0532 161.273 59.5322 160.947 59.0111 160.622C58.49 160.296 57.9038 160.1 57.3176 159.905C57.1873 159.84 57.1222 159.775 57.1222 159.645V157.3C57.1222 157.169 57.0571 157.039 56.9919 156.974C56.9268 156.909 56.7965 156.844 56.6663 156.844H53.8004C53.6701 156.844 53.5398 156.909 53.4747 156.974C53.4096 157.039 53.3444 157.169 53.3444 157.3V159.645C53.3444 159.71 53.2793 159.775 53.149 159.84Z" fill="#C0CDEA"/>
<path fill-rule="evenodd" clip-rule="evenodd" d="M21.8196 121.867C22.7315 120.955 23.9039 120.174 25.1414 119.653C26.379 119.131 27.6817 118.871 29.0495 118.871C30.4173 118.871 31.72 119.131 32.9575 119.653C34.1951 120.174 35.3675 120.955 36.2794 121.867C37.1912 122.779 37.9729 123.951 38.4939 125.189C39.015 126.361 39.2755 127.729 39.2755 129.097C39.2755 130.465 39.015 131.767 38.4939 133.005C37.9729 134.243 37.1912 135.415 36.2794 136.327C35.3675 137.239 34.1951 138.02 32.9575 138.541C31.7851 139.062 30.4173 139.323 29.0495 139.323C27.6817 139.323 26.379 139.062 25.1414 138.541C23.9039 138.02 22.7315 137.239 21.8196 136.327C20.9077 135.415 20.1261 134.243 19.605 133.005C19.084 131.833 18.8234 130.465 18.8234 129.097C18.8234 127.729 19.084 126.426 19.605 125.189C20.1261 123.951 20.9077 122.844 21.8196 121.867ZM25.4671 120.564C24.3598 121.02 23.3177 121.737 22.4709 122.584C21.6242 123.43 20.9077 124.472 20.4518 125.58C19.9958 126.687 19.7353 127.859 19.7353 129.097C19.7353 130.335 19.9958 131.572 20.4518 132.614C20.9077 133.722 21.6242 134.764 22.4709 135.61C23.3177 136.457 24.3598 137.174 25.4671 137.63C26.5744 138.085 27.7468 138.346 28.9843 138.346C30.2219 138.346 31.4594 138.085 32.5016 137.63C33.6089 137.174 34.651 136.457 35.4978 135.61C36.3445 134.764 37.061 133.722 37.5169 132.614C37.9729 131.507 38.2334 130.335 38.2334 129.097C38.2334 127.859 37.9729 126.622 37.5169 125.58C37.061 124.472 36.3445 123.43 35.4978 122.584C34.651 121.737 33.6089 121.02 32.5016 120.564C31.3943 120.108 30.2219 119.848 28.9843 119.848C27.8119 119.848 26.5744 120.108 25.4671 120.564ZM24.3598 113.009C23.7085 113.204 23.1223 113.4 22.4709 113.66C21.8196 113.921 21.2334 114.246 20.6472 114.572C20.061 114.898 19.4748 115.289 18.9537 115.679C18.4326 116.07 17.9115 116.526 17.3905 116.982C17.1951 117.177 16.9997 117.243 16.8043 117.243C16.6089 117.243 16.3483 117.243 16.1529 117.112C14.6548 116.266 13.0916 115.419 11.5935 114.507C11.5284 114.442 11.4633 114.442 11.3981 114.442C11.333 114.442 11.2027 114.442 11.1376 114.442C11.0725 114.442 11.0073 114.507 10.8771 114.572C10.8119 114.637 10.7468 114.702 10.6817 114.767C9.57438 116.396 8.4671 118.545 7.49009 120.304C7.42496 120.369 7.42496 120.434 7.42496 120.564C7.42496 120.63 7.42496 120.76 7.42496 120.825C7.42496 120.89 7.49009 120.955 7.55523 121.085C7.62036 121.151 7.68549 121.216 7.75063 121.281C9.11844 122.193 10.8119 123.04 12.2449 123.886C12.4403 124.017 12.6357 124.212 12.7008 124.407C12.7008 124.472 12.766 124.538 12.766 124.603H12.8311L12.7008 124.994C12.6357 125.319 12.5706 125.645 12.5054 125.971C12.4403 126.296 12.3751 126.622 12.3751 126.948C12.31 127.273 12.31 127.599 12.31 127.99C12.31 128.315 12.31 128.641 12.31 129.032C12.31 129.358 12.31 129.748 12.31 130.074C12.31 130.4 12.3751 130.725 12.3751 131.116C12.4403 131.442 12.4403 131.833 12.5054 132.093C12.5706 132.419 12.6357 132.744 12.7008 133.07C12.766 133.331 12.7008 133.591 12.6357 133.787C12.5706 133.982 12.3752 134.177 12.1797 134.308L8.20657 136.587L7.75063 136.848C7.68549 136.913 7.62036 136.978 7.55523 137.043C7.49009 137.108 7.49009 137.174 7.42496 137.304C7.42496 137.369 7.42496 137.499 7.42496 137.564C7.42496 137.63 7.49009 137.695 7.49009 137.825L10.4211 142.971L10.6817 143.361C10.7468 143.426 10.8119 143.492 10.8771 143.557C10.9422 143.622 11.0073 143.622 11.1376 143.687C11.2027 143.687 11.333 143.687 11.3981 143.687C11.4633 143.687 11.5284 143.622 11.6587 143.622C13.0916 142.71 14.72 141.863 16.2181 141.017C16.4135 140.886 16.674 140.886 16.8694 140.886C17.0648 140.886 17.3253 141.017 17.4556 141.147C17.9767 141.603 18.4326 142.059 19.0188 142.449C19.5399 142.84 20.1261 143.231 20.7123 143.557C21.2985 143.882 21.8847 144.208 22.5361 144.469C23.1223 144.729 23.7736 144.99 24.425 145.12C24.6855 145.185 24.8809 145.315 25.0112 145.511C25.1414 145.706 25.2066 145.902 25.2066 146.162V151.373C25.2066 151.438 25.2066 151.568 25.2717 151.633C25.2717 151.699 25.3368 151.764 25.402 151.829C25.4671 151.894 25.5322 151.959 25.5974 151.959C25.6625 151.959 25.7276 152.024 25.8579 152.024H32.2411C32.3062 152.024 32.4365 152.024 32.5016 151.959C32.5667 151.894 32.6319 151.894 32.697 151.829C32.7621 151.764 32.8273 151.699 32.8273 151.633C32.8273 151.568 32.8924 151.503 32.8924 151.373V146.162C32.8924 145.902 32.9575 145.706 33.1529 145.511C33.2832 145.315 33.4786 145.185 33.7391 145.12C34.3905 144.925 34.9767 144.729 35.628 144.469C36.2794 144.208 36.8656 143.882 37.4518 143.557C38.038 143.231 38.6242 142.84 39.1453 142.449C39.6663 142.059 40.1874 141.603 40.7085 141.147C40.9039 140.951 41.0993 140.886 41.3598 140.821C41.6204 140.821 41.8158 140.886 42.0763 141.017L46.5706 143.622C46.6357 143.687 46.7008 143.687 46.8311 143.687C46.8962 143.687 47.0265 143.687 47.0916 143.687C47.1568 143.687 47.2219 143.622 47.3522 143.557C47.4173 143.492 47.4824 143.426 47.5476 143.361C48.5897 141.538 49.697 139.649 50.7391 137.825C50.8043 137.76 50.8043 137.695 50.8043 137.564C50.8043 137.499 50.8043 137.369 50.8043 137.304C50.8043 137.239 50.7391 137.108 50.674 137.043C50.6089 136.978 50.5437 136.913 50.4786 136.848L45.9843 134.243C45.7889 134.112 45.5935 133.917 45.5284 133.722C45.5284 133.656 45.4633 133.591 45.4633 133.526H45.333L45.4633 133.07C45.5284 132.744 45.5935 132.419 45.6587 132.093C45.7238 131.767 45.7889 131.442 45.7889 131.116C45.8541 130.79 45.8541 130.465 45.8541 130.074C45.8541 129.748 45.8541 129.423 45.8541 129.032C45.8541 128.706 45.8541 128.315 45.8541 127.99C45.8541 127.664 45.7889 127.338 45.7889 126.948C45.7238 126.622 45.7238 126.231 45.6587 125.905C45.5935 125.58 45.5284 125.254 45.4633 124.928C45.3981 124.668 45.4633 124.407 45.5284 124.212C45.6587 124.017 45.7889 123.821 45.9843 123.691L50.4786 121.085C50.5437 121.02 50.6089 120.955 50.674 120.89C50.7391 120.825 50.7391 120.76 50.8043 120.63C50.8043 120.564 50.8043 120.434 50.8043 120.369C50.8043 120.304 50.7391 120.239 50.7391 120.108C49.6319 118.48 48.5246 116.331 47.5476 114.572C47.4824 114.507 47.4173 114.442 47.3522 114.377C47.287 114.312 47.2219 114.312 47.0916 114.246C47.0265 114.246 46.8962 114.246 46.8311 114.246C46.766 114.246 46.7008 114.312 46.5706 114.312L42.0763 116.917C41.8809 117.047 41.6204 117.112 41.425 117.047C41.2296 117.047 40.969 116.917 40.8388 116.722C40.3177 116.266 39.8617 115.81 39.2755 115.419C38.7545 115.028 38.1683 114.637 37.582 114.312C36.9958 113.986 36.4096 113.66 35.7583 113.4C35.1721 113.139 34.5207 112.879 33.8694 112.748C33.6089 112.683 33.4135 112.553 33.2832 112.358C33.1529 112.162 33.0878 111.967 33.0878 111.706V106.495C33.0878 106.43 33.0878 106.3 33.0227 106.235C33.0227 106.17 32.9575 106.105 32.8924 106.04C32.8273 105.974 32.7621 105.909 32.697 105.909C32.6319 105.909 32.5667 105.844 32.4365 105.844H26.0533C25.9882 105.844 25.8579 105.844 25.7928 105.909C25.7276 105.974 25.6625 105.974 25.5974 106.04C25.4671 106.17 25.402 106.3 25.402 106.495V111.706C25.402 111.967 25.3368 112.162 25.1414 112.358C24.8158 112.813 24.6204 113.009 24.3598 113.009ZM22.0801 112.813C21.4288 113.074 20.7774 113.4 20.1912 113.79C19.5399 114.181 18.9537 114.572 18.3675 114.963C17.7813 115.419 17.2602 115.875 16.7391 116.396C16.7391 116.396 16.674 116.396 16.674 116.461H16.6089C15.1108 115.614 13.5476 114.702 12.0495 113.856C11.8541 113.725 11.6587 113.725 11.4633 113.66C11.2679 113.66 11.0725 113.66 10.8771 113.725C10.6817 113.79 10.4863 113.856 10.2909 113.986C10.1606 114.116 9.96519 114.246 9.90005 114.442C8.79277 116.2 7.75063 118.154 6.70848 119.978C6.57821 120.174 6.51308 120.369 6.51308 120.564C6.51308 120.76 6.51308 120.955 6.57821 121.216C6.64335 121.411 6.70848 121.607 6.83875 121.802C6.96902 121.932 7.09929 122.128 7.29469 122.193C8.72764 123.105 10.356 123.951 11.7889 124.798L11.8541 124.863V124.928L11.7238 125.319C11.6587 125.515 11.6587 125.71 11.5935 125.971C11.5284 126.361 11.4633 126.687 11.3981 127.013C11.333 127.338 11.333 127.729 11.333 128.055C11.333 128.446 11.2679 128.771 11.2679 129.162C11.2679 129.488 11.2679 129.879 11.333 130.269C11.333 130.66 11.3981 130.986 11.3981 131.312C11.4633 131.637 11.4633 132.028 11.5935 132.354C11.6587 132.744 11.7238 133.07 11.7889 133.396V133.461C11.7889 133.461 11.7889 133.526 11.7238 133.526C10.0303 134.438 8.40197 135.48 6.70848 136.392L6.77362 136.457L6.70848 136.522C6.57821 136.718 6.51308 136.913 6.44795 137.108C6.38281 137.304 6.38281 137.499 6.38281 137.76C6.38281 137.955 6.44795 138.151 6.57821 138.346L10.0303 144.338L10.0955 144.273C10.1606 144.273 10.1606 144.338 10.2257 144.338C10.4211 144.469 10.6165 144.534 10.8119 144.599C11.0073 144.664 11.2027 144.664 11.4633 144.664C11.6587 144.664 11.8541 144.599 12.0495 144.469C13.5476 143.687 15.1108 142.71 16.6089 141.863H16.674C16.674 141.863 16.7391 141.863 16.7391 141.928C17.2602 142.449 17.7813 142.905 18.3675 143.296C18.9537 143.752 19.5399 144.143 20.1912 144.469C20.7774 144.794 21.4288 145.12 22.1453 145.446C22.7966 145.706 23.5131 145.967 24.1644 146.162C24.1644 146.162 24.2296 146.162 24.2296 146.227V146.292V151.503C24.2296 151.699 24.2947 151.894 24.3598 152.089C24.425 152.285 24.5552 152.48 24.6855 152.61C24.8158 152.741 25.0112 152.871 25.2066 152.936C25.402 153.001 25.5974 153.066 25.7928 153.066H32.1759C32.3713 153.066 32.5667 153.001 32.7621 152.936C32.9575 152.871 33.1529 152.741 33.2832 152.61C33.4135 152.48 33.5437 152.285 33.6089 152.089C33.674 151.894 33.7391 151.699 33.7391 151.503V146.292V146.227L33.8043 146.162C34.5207 145.967 35.1721 145.706 35.8234 145.446C36.4748 145.185 37.1261 144.859 37.7123 144.469C38.3637 144.078 38.9499 143.687 39.5361 143.296C40.1223 142.84 40.6434 142.384 41.1644 141.863L41.2296 141.798H41.2947L45.7889 144.403C45.9843 144.534 46.1797 144.599 46.3751 144.599C46.5706 144.599 46.766 144.599 47.0265 144.534C47.2219 144.469 47.4173 144.403 47.6127 144.273C47.743 144.143 47.9384 144.013 48.0035 143.817C49.1759 141.928 50.2832 139.844 51.4556 137.825L51.3905 137.76C51.3905 137.695 51.3905 137.63 51.3905 137.63C51.3905 137.434 51.3905 137.239 51.3253 136.978C51.2602 136.783 51.1951 136.587 51.0648 136.392C50.9345 136.262 50.8043 136.066 50.6089 136.001L46.1146 133.396L46.0495 133.331V133.266L46.1797 132.81C46.2449 132.614 46.2449 132.419 46.31 132.223C46.3752 131.833 46.4403 131.507 46.5054 131.181C46.5706 130.856 46.5706 130.465 46.5706 130.139C46.5706 129.748 46.6357 129.423 46.6357 129.032C46.6357 128.706 46.6357 128.315 46.5706 127.925C46.5706 127.534 46.5054 127.208 46.5054 126.817C46.4403 126.492 46.4403 126.101 46.31 125.775C46.2449 125.384 46.1798 125.059 46.1146 124.733V124.668C46.1146 124.668 46.1146 124.603 46.1797 124.603L50.674 121.997C50.8694 121.867 50.9997 121.737 51.1299 121.607C51.2602 121.411 51.3253 121.216 51.3905 121.02C51.4556 120.825 51.4556 120.63 51.4556 120.369C51.4556 120.174 51.3905 119.978 51.2602 119.783C50.1529 117.764 48.9805 115.81 47.8081 113.79L47.743 113.856C47.6778 113.856 47.6778 113.79 47.6127 113.79C47.4173 113.66 47.2219 113.595 47.0265 113.53C46.8311 113.465 46.6357 113.465 46.3751 113.465C46.1797 113.465 45.9843 113.53 45.7889 113.66L45.4633 113.856L41.2947 116.266H41.2296C41.2296 116.266 41.1644 116.266 41.1644 116.2C40.6434 115.679 40.1223 115.223 39.5361 114.833C38.9499 114.377 38.3637 113.986 37.7775 113.66C37.1912 113.335 36.5399 113.009 35.8234 112.683C35.1721 112.423 34.5207 112.162 33.8043 111.967C33.8043 111.967 33.7391 111.967 33.7391 111.902V111.836V106.626C33.7391 106.43 33.674 106.235 33.6089 106.04C33.5437 105.844 33.4135 105.649 33.2832 105.518C33.1529 105.388 32.9575 105.258 32.7621 105.193C32.5667 105.128 32.3713 105.062 32.1759 105.062H25.7928C25.5974 105.062 25.402 105.128 25.2066 105.193C25.0112 105.258 24.8158 105.388 24.6855 105.518C24.425 105.779 24.2296 106.235 24.2296 106.626V111.836V111.902L24.1644 111.967C23.4479 112.358 22.7315 112.553 22.0801 112.813Z" fill="#C0CDEA"/>
<path fill-rule="evenodd" clip-rule="evenodd" d="M204.001 41.2306C204.782 40.449 205.89 39.993 207.062 39.993C208.235 39.993 209.342 40.449 210.123 41.2306C210.905 42.0122 211.361 43.1195 211.361 44.2919C211.361 45.4643 210.905 46.5716 210.123 47.3532C209.342 48.1348 208.235 48.5907 207.062 48.5907C205.89 48.5907 204.782 48.1348 204.001 47.3532C203.219 46.5716 202.763 45.4643 202.763 44.2919C202.763 43.1195 203.219 42.0122 204.001 41.2306ZM204.913 36.9317C204.326 37.1271 203.74 37.3225 203.219 37.6482C202.698 37.9739 202.177 38.3647 201.721 38.7555C201.656 38.8206 201.526 38.8206 201.395 38.8206L199.376 37.6482C199.246 37.5831 199.116 37.5831 198.985 37.5831C198.855 37.5831 198.725 37.7133 198.66 37.8436L197.227 40.3187C197.162 40.449 197.162 40.5792 197.162 40.7095C197.227 40.8398 197.292 40.97 197.422 41.0352L199.441 42.2076C199.572 42.2727 199.572 42.403 199.572 42.5333C199.507 42.8589 199.441 43.1195 199.376 43.4451C199.311 43.7708 199.311 44.0313 199.311 44.357C199.311 44.6827 199.311 45.0083 199.376 45.2689C199.441 45.5946 199.441 45.9202 199.572 46.1808C199.572 46.311 199.572 46.4413 199.441 46.5064L197.422 47.6788C197.292 47.744 197.227 47.8742 197.162 48.0045C197.097 48.1348 197.162 48.2651 197.227 48.3953L198.66 50.8704C198.725 51.0007 198.855 51.0658 198.985 51.1309C199.116 51.1309 199.246 51.131 199.376 51.0658L201.395 49.8934C201.526 49.8283 201.656 49.8283 201.721 49.9585C202.177 50.4145 202.698 50.7401 203.219 51.0658C203.74 51.3915 204.326 51.5869 204.913 51.7823C205.043 51.8474 205.108 51.9126 205.108 52.0428V54.3877C205.108 54.5179 205.173 54.6482 205.238 54.7133C205.304 54.7785 205.434 54.8436 205.564 54.8436H208.43C208.56 54.8436 208.69 54.7785 208.756 54.7133C208.821 54.6482 208.886 54.5179 208.886 54.3877V52.0428C208.886 51.9126 208.951 51.7823 209.081 51.7823C209.667 51.5869 210.254 51.3915 210.775 51.0658C211.296 50.7401 211.817 50.3493 212.273 49.9585C212.338 49.8934 212.533 49.8934 212.599 49.9585L214.618 51.1309C214.748 51.1961 214.878 51.1961 215.008 51.1961C215.139 51.1309 215.269 51.0658 215.334 50.9355L216.767 48.4605C216.832 48.3302 216.832 48.1999 216.832 48.0696C216.767 47.9394 216.702 47.8091 216.572 47.744L214.553 46.5716C214.422 46.5064 214.422 46.3762 214.422 46.2459C214.487 45.9202 214.553 45.6597 214.618 45.334C214.683 45.0083 214.683 44.7478 214.683 44.4221C214.683 44.0965 214.683 43.7708 214.618 43.5103C214.553 43.1846 214.553 42.8589 214.422 42.5984C214.422 42.4681 214.422 42.3378 214.553 42.2727L216.572 41.1003C216.702 41.0352 216.767 40.9049 216.832 40.7746C216.832 40.6444 216.832 40.5141 216.767 40.3838L215.334 37.9087C215.269 37.7785 215.139 37.7133 215.008 37.6482C214.878 37.5831 214.748 37.6482 214.618 37.7133L212.599 38.8857C212.468 38.9509 212.338 38.9509 212.273 38.8206C211.817 38.3647 211.296 38.039 210.775 37.7133C210.254 37.3877 209.667 37.1923 209.081 36.9968C208.951 36.9317 208.886 36.8666 208.886 36.7363V34.3915C208.886 34.2612 208.821 34.1309 208.756 34.0658C208.69 34.0007 208.56 33.9355 208.43 33.9355H205.564C205.434 33.9355 205.304 34.0007 205.238 34.0658C205.173 34.1309 205.108 34.2612 205.108 34.3915V36.7363C205.173 36.8014 205.043 36.9317 204.913 36.9317Z" fill="#C0CDEA"/>
<path fill-rule="evenodd" clip-rule="evenodd" d="M415.295 123.756C416.077 122.974 417.184 122.518 418.356 122.518C419.529 122.518 420.636 122.974 421.418 123.756C422.199 124.538 422.655 125.645 422.655 126.817C422.655 127.99 422.199 129.097 421.418 129.879C420.636 130.66 419.529 131.116 418.356 131.116C417.184 131.116 416.077 130.66 415.295 129.879C414.513 129.097 414.058 127.99 414.058 126.817C414.058 125.645 414.513 124.538 415.295 123.756ZM416.272 119.457C415.686 119.653 415.1 119.848 414.579 120.174C414.058 120.499 413.536 120.89 413.081 121.281C413.015 121.346 412.885 121.346 412.755 121.346L410.736 120.174C410.605 120.108 410.475 120.108 410.345 120.108C410.215 120.174 410.084 120.239 410.019 120.369L408.586 122.844C408.521 122.974 408.521 123.105 408.521 123.235C408.586 123.365 408.651 123.495 408.782 123.561L410.801 124.733C410.931 124.798 410.931 124.928 410.931 125.059C410.866 125.384 410.801 125.645 410.736 125.971C410.671 126.296 410.671 126.557 410.671 126.882C410.671 127.208 410.671 127.534 410.736 127.794C410.801 128.12 410.801 128.38 410.931 128.706C410.931 128.836 410.931 128.967 410.801 129.032L408.782 130.204C408.651 130.269 408.586 130.4 408.521 130.53C408.456 130.66 408.521 130.79 408.586 130.921L410.019 133.396C410.084 133.526 410.215 133.591 410.345 133.656C410.475 133.721 410.605 133.656 410.736 133.591L412.755 132.419C412.885 132.354 413.015 132.354 413.081 132.484C413.536 132.94 414.058 133.266 414.579 133.591C415.1 133.917 415.686 134.112 416.272 134.308C416.402 134.373 416.467 134.438 416.467 134.568V136.913C416.467 137.043 416.533 137.174 416.598 137.239C416.663 137.304 416.793 137.369 416.923 137.369H419.789C419.92 137.369 420.05 137.304 420.115 137.239C420.18 137.174 420.245 137.043 420.245 136.913V134.568C420.245 134.438 420.31 134.308 420.441 134.308C421.027 134.112 421.613 133.917 422.134 133.591C422.655 133.266 423.176 132.875 423.632 132.484C423.697 132.419 423.893 132.354 423.958 132.484L425.977 133.656C426.107 133.721 426.238 133.721 426.368 133.721C426.498 133.656 426.628 133.591 426.694 133.461L428.126 130.986C428.192 130.856 428.192 130.725 428.192 130.595C428.126 130.465 428.061 130.334 427.931 130.269L425.912 129.097C425.782 129.032 425.782 128.902 425.782 128.771C425.847 128.446 425.912 128.185 425.977 127.859C426.042 127.534 426.042 127.273 426.042 126.948C426.042 126.622 426.042 126.296 425.977 126.036C425.912 125.71 425.912 125.449 425.782 125.124C425.782 124.994 425.782 124.863 425.912 124.798L427.931 123.626C428.061 123.561 428.126 123.43 428.192 123.3C428.257 123.17 428.192 123.039 428.126 122.909L426.694 120.434C426.628 120.304 426.498 120.239 426.368 120.174C426.238 120.108 426.107 120.174 425.977 120.239L423.958 121.411C423.828 121.476 423.697 121.476 423.632 121.346C423.176 120.89 422.72 120.564 422.134 120.239C421.613 119.913 421.027 119.718 420.441 119.522C420.31 119.457 420.245 119.392 420.245 119.262V116.917C420.245 116.787 420.18 116.656 420.115 116.591C420.05 116.526 419.92 116.461 419.789 116.461H416.923C416.793 116.461 416.663 116.526 416.598 116.591C416.533 116.656 416.467 116.787 416.467 116.917V119.262C416.467 119.327 416.337 119.457 416.272 119.457Z" fill="#C0CDEA"/>
<path fill-rule="evenodd" clip-rule="evenodd" d="M431.643 149.353C431.643 148.962 431.318 148.637 430.927 148.637C430.536 148.637 430.21 148.962 430.21 149.353V151.112H428.452C428.061 151.112 427.735 151.437 427.735 151.828C427.735 152.219 428.061 152.545 428.452 152.545H430.21V154.303C430.21 154.694 430.536 155.02 430.927 155.02C431.318 155.02 431.643 154.694 431.643 154.303V152.545H433.402C433.793 152.545 434.118 152.219 434.118 151.828C434.118 151.437 433.793 151.112 433.402 151.112H431.643V149.353Z" fill="#9FB2D9"/>
<path fill-rule="evenodd" clip-rule="evenodd" d="M271.087 140.234H226.796C225.168 140.234 223.865 141.537 223.865 143.165C223.865 144.794 225.168 146.096 226.796 146.096H271.087C272.716 146.096 274.018 144.794 274.018 143.165C274.018 141.537 272.716 140.234 271.087 140.234Z" fill="#00000F"/>
<path fill-rule="evenodd" clip-rule="evenodd" d="M269.654 119.393C262.815 119.393 255.976 119.393 249.137 119.393C248.942 119.393 248.812 119.523 248.812 119.718L245.164 145.772C245.164 145.967 245.229 146.098 245.425 146.098C261.317 146.098 257.605 146.098 273.432 146.098C273.628 146.098 273.693 145.967 273.693 145.772L270.045 119.718C269.98 119.523 269.785 119.393 269.654 119.393Z" fill="#3B405F"/>
<path fill-rule="evenodd" clip-rule="evenodd" d="M281.9 140.234H237.609C235.98 140.234 234.678 141.537 234.678 143.165C234.678 144.794 235.98 146.096 237.609 146.096H281.9C283.528 146.096 284.831 144.794 284.831 143.165C284.831 141.537 283.528 140.234 281.9 140.234Z" fill="#3B405F"/>
<path fill-rule="evenodd" clip-rule="evenodd" d="M304.242 61.9434H206.02C205.173 61.9434 204.521 62.5947 204.521 63.4414V129.097C204.521 129.943 205.173 130.595 206.02 130.595H304.242C305.089 130.595 305.74 129.943 305.74 129.097V63.4414C305.74 62.5947 305.023 61.9434 304.242 61.9434Z" fill="#00000F"/>
<path fill-rule="evenodd" clip-rule="evenodd" d="M308.996 61.9434H210.773C209.927 61.9434 209.275 62.5947 209.275 63.4414V129.097C209.275 129.943 209.927 130.595 210.773 130.595H308.996C309.842 130.595 310.494 129.943 310.494 129.097V63.4414C310.559 62.5947 309.842 61.9434 308.996 61.9434Z" fill="#3B405F"/>
<path fill-rule="evenodd" clip-rule="evenodd" d="M308.215 62.9199H211.622C211.1 62.9199 210.645 63.3759 210.645 63.8969V123.104C210.645 123.43 210.905 123.755 211.296 123.755H308.606C308.932 123.755 309.258 123.495 309.258 123.104V63.8969C309.192 63.3759 308.736 62.9199 308.215 62.9199Z" fill="#101537"/>
<path d="M306.327 65.7207H213.445V120.889H306.327V65.7207Z" fill="#5EB9BD"/>
<path fill-rule="evenodd" clip-rule="evenodd" d="M251.287 133.331L250.31 140.235H245.881L247.249 130.66H270.241H271.544L271.869 133.07C271.413 133.07 271.023 133.07 270.567 133.07C264.249 133.07 257.931 133.07 251.678 133.07C251.482 133.005 251.352 133.2 251.287 133.331Z" fill="#101537"/>
<path d="M306.652 65.7207H213.445V68.9123H306.652V65.7207Z" fill="white"/>
<path d="M306.652 117.764H213.445V120.955H306.652V117.764Z" fill="white"/>
<path d="M237.414 66.4375H214.031V68.2613H237.414V66.4375Z" fill="#E4E1E8"/>
<path fill-rule="evenodd" clip-rule="evenodd" d="M236.307 67.7406C236.502 67.7406 236.698 67.5452 236.698 67.3498C236.698 67.1544 236.502 66.959 236.307 66.959C236.111 66.959 235.916 67.1544 235.916 67.3498C235.916 67.5452 236.111 67.7406 236.307 67.7406Z" fill="#D64C47"/>
<path fill-rule="evenodd" clip-rule="evenodd" d="M235.135 67.7406C235.33 67.7406 235.526 67.5452 235.526 67.3498C235.526 67.1544 235.33 66.959 235.135 66.959C234.94 66.959 234.744 67.1544 234.744 67.3498C234.744 67.5452 234.874 67.7406 235.135 67.7406Z" fill="#D64C47"/>
<path fill-rule="evenodd" clip-rule="evenodd" d="M233.897 67.7406C234.092 67.7406 234.287 67.5452 234.287 67.3498C234.287 67.1544 234.092 66.959 233.897 66.959C233.701 66.959 233.506 67.1544 233.506 67.3498C233.506 67.5452 233.701 67.7406 233.897 67.7406Z" fill="#D64C47"/>
<path d="M261.969 66.4375H238.586V68.2613H261.969V66.4375Z" fill="#E4E1E8"/>
<path fill-rule="evenodd" clip-rule="evenodd" d="M260.862 67.7406C261.057 67.7406 261.252 67.5452 261.252 67.3498C261.252 67.1544 261.057 66.959 260.862 66.959C260.666 66.959 260.471 67.1544 260.471 67.3498C260.471 67.5452 260.601 67.7406 260.862 67.7406Z" fill="#D64C47"/>
<path fill-rule="evenodd" clip-rule="evenodd" d="M259.625 67.7406C259.821 67.7406 260.016 67.5452 260.016 67.3498C260.016 67.1544 259.821 66.959 259.625 66.959C259.43 66.959 259.234 67.1544 259.234 67.3498C259.234 67.5452 259.43 67.7406 259.625 67.7406Z" fill="#D64C47"/>
<path fill-rule="evenodd" clip-rule="evenodd" d="M258.387 67.7406C258.582 67.7406 258.778 67.5452 258.778 67.3498C258.778 67.1544 258.582 66.959 258.387 66.959C258.192 66.959 257.996 67.1544 257.996 67.3498C257.996 67.5452 258.192 67.7406 258.387 67.7406Z" fill="#D64C47"/>
<path d="M230.705 93.1413H238.911V95.6164H227.578V77.5742H230.705V93.1413Z" fill="white"/>
<path d="M240.41 88.7785C240.41 87.4759 240.671 86.3034 241.192 85.1962C241.713 84.154 242.429 83.3073 243.406 82.7862C244.383 82.2651 245.425 81.9395 246.663 81.9395C248.487 81.9395 249.92 82.5257 251.092 83.6981C252.199 84.8705 252.851 86.4337 252.916 88.3226V89.0391C252.916 90.3417 252.655 91.5142 252.134 92.5563C251.613 93.5985 250.897 94.3801 249.92 94.9663C248.943 95.5525 247.901 95.813 246.663 95.813C244.774 95.813 243.276 95.1617 242.104 93.9241C240.996 92.6866 240.41 90.9931 240.41 88.9088V88.7785ZM243.471 89.0391C243.471 90.4069 243.732 91.5142 244.318 92.2958C244.904 93.0774 245.686 93.4682 246.728 93.4682C247.77 93.4682 248.552 93.0774 249.073 92.2958C249.659 91.5142 249.92 90.3418 249.92 88.7785C249.92 87.4107 249.659 86.3686 249.073 85.5218C248.487 84.7402 247.705 84.3494 246.728 84.3494C245.751 84.3494 244.97 84.7402 244.383 85.5218C243.732 86.3034 243.471 87.4758 243.471 89.0391Z" fill="white"/>
<path d="M254.934 88.8437C254.934 86.7594 255.455 85.0659 256.432 83.8283C257.409 82.5908 258.711 81.9395 260.34 81.9395C261.838 81.9395 263.075 82.4605 263.922 83.5678L264.052 82.2H266.788V95.2268C266.788 96.9854 266.267 98.3532 265.16 99.3954C264.052 100.438 262.554 100.893 260.731 100.893C259.754 100.893 258.777 100.698 257.865 100.307C256.953 99.9165 256.236 99.3303 255.715 98.6789L257.148 96.8552C258.06 97.9624 259.232 98.4835 260.6 98.4835C261.577 98.4835 262.359 98.223 262.945 97.7019C263.531 97.1808 263.792 96.3341 263.792 95.2919V94.4452C262.945 95.4222 261.773 95.8781 260.34 95.8781C258.777 95.8781 257.474 95.2268 256.497 93.9893C255.455 92.7517 254.934 90.9931 254.934 88.8437ZM257.93 89.1042C257.93 90.472 258.19 91.5142 258.777 92.2958C259.298 93.0774 260.079 93.4682 261.056 93.4682C262.294 93.4682 263.206 92.9471 263.792 91.905V85.9778C263.206 84.9356 262.359 84.4797 261.121 84.4797C260.144 84.4797 259.363 84.8705 258.777 85.6521C258.19 86.3686 257.93 87.541 257.93 89.1042Z" fill="white"/>
<path d="M276.168 78.7475C276.168 78.2916 276.298 77.9007 276.624 77.5751C276.95 77.2494 277.34 77.1191 277.861 77.1191C278.383 77.1191 278.838 77.2494 279.099 77.5751C279.36 77.9007 279.555 78.2916 279.555 78.7475C279.555 79.2034 279.425 79.5942 279.099 79.8548C278.773 80.1153 278.383 80.3107 277.861 80.3107C277.34 80.3107 276.884 80.1804 276.624 79.8548C276.363 79.5291 276.168 79.2034 276.168 78.7475ZM279.425 95.6172H276.429V82.1996H279.425V95.6172Z" fill="white"/>
<path d="M285.482 82.2L285.548 83.7632C286.525 82.5908 287.827 81.9395 289.456 81.9395C292.256 81.9395 293.689 83.5678 293.754 86.7594V95.6176H290.758V86.9548C290.758 86.108 290.563 85.4567 290.237 85.0659C289.846 84.6751 289.26 84.4797 288.413 84.4797C287.176 84.4797 286.264 85.0008 285.678 86.108V95.6827H282.682V82.2651H285.482V82.2Z" fill="white"/>
<path d="M258.387 111.576H247.314V115.289H258.387V111.576Z" fill="#695DDB"/>
<path d="M272.456 111.576H261.383V115.289H272.456V111.576Z" fill="#695DDB"/>
<path d="M250.766 113.855C250.766 113.985 250.701 114.05 250.636 114.115C250.571 114.18 250.44 114.18 250.31 114.18C250.18 114.18 250.05 114.18 249.984 114.115V113.855C250.05 113.92 250.115 113.92 250.18 113.92C250.245 113.92 250.31 113.92 250.31 113.92C250.375 113.92 250.375 113.92 250.44 113.92L250.505 113.855V113.789C250.505 113.789 250.505 113.724 250.44 113.724C250.44 113.724 250.375 113.659 250.31 113.659C250.245 113.594 250.18 113.594 250.18 113.594C250.115 113.594 250.115 113.529 250.115 113.464C250.115 113.399 250.115 113.399 250.115 113.333C250.115 113.203 250.18 113.138 250.245 113.073C250.31 113.008 250.44 113.008 250.505 113.008C250.571 113.008 250.636 113.008 250.701 113.008C250.766 113.008 250.831 113.073 250.896 113.073L250.831 113.268C250.766 113.268 250.701 113.203 250.701 113.203C250.636 113.203 250.636 113.203 250.571 113.203C250.505 113.203 250.505 113.203 250.44 113.203L250.375 113.268V113.333C250.375 113.333 250.375 113.333 250.44 113.399C250.44 113.399 250.505 113.464 250.571 113.464C250.701 113.529 250.766 113.594 250.766 113.594C250.766 113.594 250.766 113.789 250.766 113.855Z" fill="white"/>
<path d="M250.896 113.074C250.896 113.009 250.962 112.943 251.027 112.943C251.092 112.943 251.157 113.009 251.157 113.074C251.157 113.139 251.157 113.139 251.092 113.139C251.092 113.139 251.027 113.139 250.962 113.139C250.962 113.204 250.896 113.139 250.896 113.074ZM251.157 114.181H250.896V113.269H251.157V114.181Z" fill="white"/>
<path d="M252.198 113.27V113.4L252.068 113.465C252.068 113.53 252.133 113.53 252.133 113.595C252.133 113.66 252.068 113.791 252.003 113.791C251.938 113.791 251.873 113.856 251.742 113.856H251.677H251.612L251.547 113.921C251.547 113.986 251.612 113.986 251.677 113.986H251.808C251.873 113.986 252.003 113.986 252.003 114.051C252.068 114.116 252.068 114.181 252.068 114.247C252.068 114.377 252.003 114.442 251.938 114.507C251.873 114.572 251.742 114.572 251.547 114.572C251.417 114.572 251.352 114.572 251.287 114.507C251.221 114.442 251.156 114.377 251.156 114.312C251.156 114.247 251.156 114.181 251.221 114.181C251.287 114.116 251.287 114.116 251.352 114.116C251.352 114.116 251.287 114.116 251.287 114.051C251.287 113.986 251.287 113.986 251.287 113.986C251.287 113.921 251.287 113.921 251.287 113.921L251.352 113.856C251.287 113.856 251.287 113.791 251.221 113.791C251.221 113.725 251.156 113.725 251.156 113.66C251.156 113.595 251.156 113.465 251.221 113.465C251.287 113.4 251.352 113.4 251.482 113.4H251.547C251.612 113.4 251.612 113.4 251.612 113.4H252.198V113.27ZM251.482 114.312C251.482 114.377 251.482 114.377 251.547 114.377C251.547 114.377 251.612 114.377 251.677 114.377C251.742 114.377 251.808 114.377 251.873 114.312C251.938 114.312 251.938 114.247 251.938 114.247C251.938 114.181 251.938 114.181 251.873 114.181C251.808 114.181 251.808 114.181 251.742 114.181H251.612C251.547 114.181 251.547 114.181 251.482 114.181C251.547 114.247 251.482 114.247 251.482 114.312ZM251.612 113.595C251.612 113.66 251.612 113.66 251.612 113.725C251.612 113.725 251.677 113.791 251.742 113.791C251.808 113.791 251.808 113.791 251.873 113.725C251.873 113.725 251.873 113.66 251.873 113.595C251.873 113.465 251.808 113.465 251.742 113.465C251.612 113.4 251.612 113.465 251.612 113.595Z" fill="white"/>
<path d="M253.176 114.182H252.915V113.661C252.915 113.596 252.915 113.531 252.85 113.531C252.85 113.531 252.785 113.466 252.72 113.466C252.654 113.466 252.589 113.466 252.589 113.531C252.589 113.596 252.524 113.661 252.524 113.726V114.117H252.264V113.205H252.459V113.335C252.459 113.27 252.524 113.27 252.589 113.27C252.654 113.27 252.72 113.205 252.72 113.205C252.85 113.205 252.915 113.205 252.98 113.27C253.045 113.335 253.045 113.4 253.045 113.531V114.182H253.176Z" fill="white"/>
<path d="M254.479 114.181V114.051C254.479 114.116 254.414 114.116 254.349 114.116C254.284 114.116 254.219 114.181 254.154 114.181C254.024 114.181 253.958 114.181 253.893 114.116C253.828 114.051 253.828 113.986 253.828 113.856V113.27H254.089V113.791C254.089 113.856 254.089 113.921 254.154 113.921C254.154 113.921 254.219 113.986 254.284 113.986C254.349 113.986 254.414 113.986 254.414 113.921C254.414 113.856 254.479 113.791 254.479 113.725V113.335H254.74V114.247H254.479V114.181Z" fill="white"/>
<path d="M255.39 114.181C255.26 114.181 255.195 114.116 255.13 114.051C255.13 114.116 255.13 114.181 255.13 114.181V114.572H254.869V113.27H255.065L255.13 113.4C255.195 113.335 255.26 113.27 255.39 113.27C255.52 113.27 255.586 113.335 255.651 113.4C255.716 113.465 255.716 113.595 255.716 113.725C255.716 113.791 255.716 113.921 255.651 113.986C255.651 114.051 255.586 114.116 255.52 114.116C255.52 114.181 255.455 114.181 255.39 114.181ZM255.325 113.465C255.26 113.465 255.195 113.465 255.195 113.53C255.195 113.595 255.13 113.595 255.13 113.725C255.13 113.791 255.13 113.921 255.195 113.921C255.195 113.986 255.26 113.986 255.325 113.986C255.455 113.986 255.52 113.921 255.52 113.725C255.52 113.66 255.52 113.595 255.455 113.53C255.39 113.465 255.39 113.465 255.325 113.465Z" fill="white"/>
<path d="M265.03 113.855C265.03 113.985 264.965 114.05 264.899 114.115C264.834 114.18 264.704 114.18 264.574 114.18C264.443 114.18 264.313 114.18 264.248 114.115V113.855C264.313 113.92 264.378 113.92 264.443 113.92C264.509 113.92 264.574 113.92 264.574 113.92C264.639 113.92 264.639 113.92 264.704 113.92L264.769 113.855V113.789C264.769 113.789 264.769 113.724 264.704 113.724C264.704 113.724 264.639 113.659 264.574 113.659C264.509 113.594 264.443 113.594 264.443 113.594C264.378 113.594 264.378 113.529 264.378 113.464C264.378 113.399 264.378 113.399 264.378 113.333C264.378 113.203 264.443 113.138 264.509 113.073C264.574 113.008 264.704 113.008 264.769 113.008C264.834 113.008 264.899 113.008 264.965 113.008C265.03 113.008 265.095 113.073 265.16 113.073L265.095 113.268C265.03 113.268 264.965 113.203 264.965 113.203C264.899 113.203 264.899 113.203 264.834 113.203C264.769 113.203 264.769 113.203 264.704 113.203L264.639 113.268V113.333C264.639 113.333 264.639 113.333 264.704 113.399C264.704 113.399 264.769 113.464 264.834 113.464C264.965 113.529 265.03 113.594 265.03 113.594C265.03 113.594 265.03 113.789 265.03 113.855Z" fill="white"/>
<path d="M265.225 113.074C265.225 113.009 265.29 112.943 265.355 112.943C265.42 112.943 265.485 113.009 265.485 113.074C265.485 113.139 265.485 113.139 265.42 113.139C265.42 113.139 265.355 113.139 265.29 113.139C265.29 113.204 265.225 113.139 265.225 113.074ZM265.485 114.181H265.225V113.269H265.485V114.181Z" fill="white"/>
<path d="M266.528 113.27V113.4L266.398 113.465C266.398 113.53 266.463 113.53 266.463 113.595C266.463 113.66 266.398 113.791 266.333 113.791C266.268 113.791 266.203 113.856 266.073 113.856H266.007H265.942L265.877 113.921C265.877 113.986 265.942 113.986 266.007 113.986H266.138C266.203 113.986 266.333 113.986 266.333 114.051C266.398 114.116 266.398 114.181 266.398 114.247C266.398 114.377 266.333 114.442 266.268 114.507C266.203 114.572 266.073 114.572 265.877 114.572C265.747 114.572 265.682 114.572 265.617 114.507C265.551 114.442 265.486 114.377 265.486 114.312C265.486 114.247 265.486 114.181 265.551 114.181C265.617 114.116 265.617 114.116 265.682 114.116C265.682 114.116 265.617 114.116 265.617 114.051C265.617 113.986 265.617 113.986 265.617 113.986C265.617 113.921 265.617 113.921 265.617 113.921L265.682 113.856C265.617 113.856 265.617 113.791 265.551 113.791C265.551 113.725 265.486 113.725 265.486 113.66C265.486 113.595 265.486 113.465 265.551 113.465C265.617 113.4 265.682 113.4 265.812 113.4H265.877C265.942 113.4 265.942 113.4 265.942 113.4H266.528V113.27ZM265.812 114.312C265.812 114.377 265.812 114.377 265.877 114.377C265.877 114.377 265.942 114.377 266.007 114.377C266.073 114.377 266.138 114.377 266.203 114.312C266.268 114.312 266.268 114.247 266.268 114.247C266.268 114.181 266.268 114.181 266.203 114.181C266.138 114.181 266.138 114.181 266.073 114.181H265.942C265.877 114.181 265.877 114.181 265.812 114.181C265.877 114.247 265.812 114.247 265.812 114.312ZM265.942 113.595C265.942 113.66 265.942 113.66 265.942 113.725C265.942 113.725 266.007 113.791 266.073 113.791C266.138 113.791 266.138 113.791 266.203 113.725C266.203 113.725 266.203 113.66 266.203 113.595C266.203 113.465 266.138 113.465 266.073 113.465C265.942 113.4 265.942 113.465 265.942 113.595Z" fill="white"/>
<path d="M267.506 114.182H267.245V113.661C267.245 113.596 267.245 113.531 267.18 113.531C267.18 113.531 267.115 113.466 267.05 113.466C266.985 113.466 266.919 113.466 266.919 113.531C266.919 113.596 266.854 113.661 266.854 113.726V114.117H266.594V113.205H266.789V113.335C266.789 113.27 266.854 113.27 266.919 113.27C266.985 113.27 267.05 113.205 267.05 113.205C267.18 113.205 267.245 113.205 267.31 113.27C267.375 113.335 267.375 113.4 267.375 113.531V114.182H267.506Z" fill="white"/>
<path d="M268.156 113.074C268.156 113.009 268.221 112.943 268.287 112.943C268.352 112.943 268.417 113.009 268.417 113.074C268.417 113.139 268.417 113.139 268.352 113.139C268.352 113.139 268.287 113.139 268.221 113.139C268.221 113.204 268.156 113.139 268.156 113.074ZM268.417 114.181H268.156V113.269H268.417V114.181Z" fill="white"/>
<path d="M269.459 114.182H269.198V113.661C269.198 113.596 269.198 113.531 269.133 113.531C269.133 113.531 269.068 113.466 269.003 113.466C268.938 113.466 268.873 113.466 268.873 113.531C268.873 113.596 268.807 113.661 268.807 113.726V114.117H268.547V113.205H268.742V113.335C268.742 113.27 268.807 113.27 268.873 113.27C268.938 113.27 269.003 113.205 269.003 113.205C269.133 113.205 269.198 113.205 269.263 113.27C269.328 113.335 269.328 113.4 269.328 113.531V114.182H269.459Z" fill="white"/>
<path fill-rule="evenodd" clip-rule="evenodd" d="M220.609 105.648H299.161C299.421 105.648 299.682 105.844 299.682 106.17C299.682 106.43 299.486 106.691 299.161 106.691H220.609C220.348 106.691 220.088 106.495 220.088 106.17C220.153 105.844 220.348 105.648 220.609 105.648Z" fill="white"/>
<path fill-rule="evenodd" clip-rule="evenodd" d="M226.796 107.994H293.038C293.298 107.994 293.559 108.19 293.559 108.515C293.559 108.776 293.364 109.036 293.038 109.036H226.796C226.536 109.036 226.275 108.841 226.275 108.515C226.275 108.255 226.471 107.994 226.796 107.994Z" fill="white"/>
<path fill-rule="evenodd" clip-rule="evenodd" d="M259.233 137.303H316.812C320.003 137.303 322.674 139.908 322.674 143.165C322.674 146.356 320.068 149.027 316.812 149.027H259.233C256.042 149.027 253.371 146.422 253.371 143.165C253.371 139.908 255.976 137.303 259.233 137.303Z" fill="#101537"/>
<path fill-rule="evenodd" clip-rule="evenodd" d="M248.225 137.303H274.93C278.122 137.303 280.792 139.908 280.792 143.165C280.792 146.356 278.187 149.027 274.93 149.027H248.225C245.034 149.027 242.363 146.422 242.363 143.165C242.363 139.908 245.034 137.303 248.225 137.303Z" fill="#070725"/>
<path fill-rule="evenodd" clip-rule="evenodd" d="M218.46 146.877H397.058C398.881 146.877 400.314 148.375 400.314 150.134V165.44C400.314 167.264 398.816 168.697 397.058 168.697H218.46C216.636 168.697 215.203 167.199 215.203 165.44V150.134C215.203 148.31 216.701 146.877 218.46 146.877Z" fill="#101537"/>
<path fill-rule="evenodd" clip-rule="evenodd" d="M218.395 146.877H397.188C398.946 146.877 400.379 148.375 400.379 150.134V156.126C400.379 157.95 398.946 159.383 397.188 159.383H218.395C216.636 159.383 215.203 157.885 215.203 156.126V150.134C215.203 148.31 216.636 146.877 218.395 146.877Z" fill="#00000F"/>
<path fill-rule="evenodd" clip-rule="evenodd" d="M169.414 147.139H218.851C220.74 147.139 222.238 148.637 222.238 150.526V263.077C222.238 264.966 220.74 266.464 218.851 266.464H169.414C167.525 266.464 166.027 264.966 166.027 263.077V150.526C166.027 148.637 167.525 147.139 169.414 147.139Z" fill="#00000F"/>
<path fill-rule="evenodd" clip-rule="evenodd" d="M218.2 147.139H262.426C264.12 147.139 265.487 148.506 265.487 150.2V263.468C265.487 265.162 264.12 266.529 262.426 266.529H218.2C216.506 266.529 215.139 265.162 215.139 263.468V150.2C215.204 148.506 216.572 147.139 218.2 147.139Z" fill="#101537"/>
<path fill-rule="evenodd" clip-rule="evenodd" d="M216.31 143.166H408C408.586 143.166 409.107 143.687 409.107 144.273V149.484C409.107 150.07 408.586 150.591 408 150.591H216.31C215.724 150.591 215.203 150.07 215.203 149.484V144.273C215.203 143.622 215.724 143.166 216.31 143.166Z" fill="#D58750"/>
<path fill-rule="evenodd" clip-rule="evenodd" d="M161.338 143.166H216.05C216.637 143.166 217.158 143.687 217.158 144.273V149.484C217.158 150.07 216.637 150.591 216.05 150.591H161.338C160.752 150.591 160.23 150.07 160.23 149.484V144.273C160.23 143.622 160.752 143.166 161.338 143.166Z" fill="#B56B41"/>
<path fill-rule="evenodd" clip-rule="evenodd" d="M221.456 154.369H259.169C260.537 154.369 261.709 155.542 261.709 156.909V186.155C261.709 187.522 260.537 188.695 259.169 188.695H221.456C220.088 188.695 218.916 187.522 218.916 186.155V156.909C218.916 155.476 220.088 154.369 221.456 154.369Z" fill="white"/>
<path fill-rule="evenodd" clip-rule="evenodd" d="M261.709 186.479H224.518C223.541 186.479 222.694 185.893 222.238 185.046C222.042 184.72 221.977 184.33 221.977 183.939V154.694C221.977 154.563 221.977 154.433 221.977 154.303H221.456C220.088 154.303 218.916 155.475 218.916 156.843V186.088C218.916 187.456 220.088 188.628 221.456 188.628H222.173H259.169C260.472 188.628 261.514 187.717 261.709 186.479Z" fill="#E4E1E8"/>
<path fill-rule="evenodd" clip-rule="evenodd" d="M231.227 156.387H249.399C249.92 156.387 250.376 156.843 250.376 157.364V157.689C250.376 158.21 249.92 158.666 249.399 158.666H231.227C230.706 158.666 230.25 158.21 230.25 157.689V157.364C230.25 156.778 230.706 156.387 231.227 156.387Z" fill="#070725"/>
<path fill-rule="evenodd" clip-rule="evenodd" d="M221.456 190.453H259.169C260.537 190.453 261.709 191.626 261.709 192.993V222.239C261.709 223.606 260.537 224.779 259.169 224.779H221.456C220.088 224.779 218.916 223.606 218.916 222.239V192.993C218.916 191.626 220.088 190.453 221.456 190.453Z" fill="white"/>
<path fill-rule="evenodd" clip-rule="evenodd" d="M261.709 222.629H224.518C223.541 222.629 222.694 222.043 222.238 221.196C222.042 220.871 221.977 220.48 221.977 220.089V190.844C221.977 190.714 221.977 190.583 221.977 190.453H221.456C220.088 190.453 218.916 191.626 218.916 192.993V222.239C218.916 223.606 220.088 224.779 221.456 224.779H222.173H259.169C260.472 224.779 261.514 223.802 261.709 222.629Z" fill="#E4E1E8"/>
<path fill-rule="evenodd" clip-rule="evenodd" d="M231.227 192.473H249.399C249.92 192.473 250.376 192.929 250.376 193.45V193.775C250.376 194.296 249.92 194.752 249.399 194.752H231.227C230.706 194.752 230.25 194.296 230.25 193.775V193.45C230.25 192.929 230.706 192.473 231.227 192.473Z" fill="#070725"/>
<path fill-rule="evenodd" clip-rule="evenodd" d="M221.456 226.602H259.169C260.537 226.602 261.709 227.774 261.709 229.142V258.387C261.709 259.755 260.537 260.927 259.169 260.927H221.456C220.088 260.927 218.916 259.755 218.916 258.387V229.142C218.916 227.709 220.088 226.602 221.456 226.602Z" fill="white"/>
<path fill-rule="evenodd" clip-rule="evenodd" d="M261.709 258.713H224.518C223.541 258.713 222.694 258.127 222.238 257.28C222.042 256.955 221.977 256.564 221.977 256.173V226.928C221.977 226.798 221.977 226.667 221.977 226.537H221.456C220.088 226.537 218.916 227.71 218.916 229.077V258.323C218.916 259.69 220.088 260.863 221.456 260.863H222.173H259.169C260.472 260.863 261.514 259.951 261.709 258.713Z" fill="#E4E1E8"/>
<path fill-rule="evenodd" clip-rule="evenodd" d="M231.227 228.621H249.399C249.92 228.621 250.376 229.077 250.376 229.598V229.924C250.376 230.445 249.92 230.901 249.399 230.901H231.227C230.706 230.901 230.25 230.445 230.25 229.924V229.598C230.25 229.012 230.706 228.621 231.227 228.621Z" fill="#070725"/>
<path fill-rule="evenodd" clip-rule="evenodd" d="M370.352 147.139H363.513C363.318 147.139 363.188 147.269 363.188 147.464V267.637C363.188 267.832 363.318 267.962 363.513 267.962H370.352C370.548 267.962 370.678 267.832 370.678 267.637V147.464C370.678 147.269 370.548 147.139 370.352 147.139Z" fill="#AEABBA"/>
<path fill-rule="evenodd" clip-rule="evenodd" d="M370.287 147.139H368.138C367.291 147.139 366.64 147.855 366.64 148.637V266.399C366.64 267.246 367.356 267.897 368.138 267.897H370.287C371.134 267.897 371.785 267.181 371.785 266.399V148.637C371.785 147.79 371.134 147.139 370.287 147.139Z" fill="white"/>
<path fill-rule="evenodd" clip-rule="evenodd" d="M402.268 147.139H395.429C395.234 147.139 395.104 147.269 395.104 147.464V267.637C395.104 267.832 395.234 267.962 395.429 267.962H402.268C402.464 267.962 402.594 267.832 402.594 267.637V147.464C402.594 147.269 402.464 147.139 402.268 147.139Z" fill="#AEABBA"/>
<path fill-rule="evenodd" clip-rule="evenodd" d="M402.203 147.139H400.054C399.207 147.139 398.556 147.855 398.556 148.637V266.399C398.556 267.246 399.272 267.897 400.054 267.897H402.203C403.05 267.897 403.701 267.181 403.701 266.399V148.637C403.766 147.79 403.05 147.139 402.203 147.139Z" fill="white"/>
<path fill-rule="evenodd" clip-rule="evenodd" d="M296.686 143.166H408C408.586 143.166 409.107 143.687 409.107 144.273V149.484C409.107 150.07 408.586 150.591 408 150.591H303.981C301.961 147.856 299.421 145.381 296.686 143.166Z" fill="#B56B41"/>
<path fill-rule="evenodd" clip-rule="evenodd" d="M337.134 110.86L338.502 113.204C338.502 113.204 339.023 116.07 338.241 117.959C337.459 119.913 347.49 121.997 347.49 121.997L355.306 115.679L357 113.53C357 113.53 353.352 109.557 353.092 107.798C352.961 106.105 337.134 110.86 337.134 110.86Z" fill="#ED7862"/>
<path fill-rule="evenodd" clip-rule="evenodd" d="M319.678 133.199C319.678 133.199 314.402 137.433 312.578 137.759C310.755 138.084 302.743 134.372 301.115 133.916C299.486 133.46 295.904 133.46 293.364 133.46C290.823 133.46 288.153 134.437 286.785 137.238C286.785 137.238 290.693 137.238 292.191 137.238C293.624 137.238 298.574 141.211 303.264 144.467C308.019 147.724 311.797 150.395 314.923 150.069C318.05 149.743 328.797 141.667 328.797 141.667L319.678 133.199Z" fill="#F5AC83"/>
<path fill-rule="evenodd" clip-rule="evenodd" d="M303.265 144.533C308.02 147.789 311.798 150.46 314.924 150.134C318.05 149.808 328.798 141.732 328.798 141.732L319.679 133.199C319.679 133.199 318.441 134.176 317.008 135.218C320.851 141.341 319.093 143.946 314.598 145.77C311.016 147.203 301.832 142.188 296.035 139.387C298.119 140.82 300.725 142.774 303.265 144.533Z" fill="#ED7862"/>
<path fill-rule="evenodd" clip-rule="evenodd" d="M362.797 182.962C362.797 182.962 335.506 182.701 332.184 183.027C328.797 183.288 325.54 186.87 326.126 192.341C326.713 197.813 334.333 240.54 334.333 240.54C334.333 240.54 334.854 240.931 335.441 241.062C336.027 241.192 340.912 241.973 340.912 241.973L341.238 238L338.372 196.445L363.513 191.885L362.797 182.962Z" fill="#070725"/>
<path fill-rule="evenodd" clip-rule="evenodd" d="M341.172 238C341.172 238 341.758 238.13 342.019 238.912C342.279 239.628 342.8 244.383 342.735 245.034C342.67 245.686 340.977 246.989 338.111 248.226C335.245 249.464 324.302 252.655 324.302 252.655L324.172 252.264C324.172 252.264 323.651 252.069 323.455 251.352C323.26 250.701 323.325 249.203 323.911 248.356C324.498 247.51 328.08 245.1 328.666 244.579C329.318 244.057 332.509 239.628 332.77 239.303C333.03 238.977 334.724 237.935 336.743 239.042C338.762 240.084 341.042 239.693 341.172 238Z" fill="#D64C47"/>
<path fill-rule="evenodd" clip-rule="evenodd" d="M324.172 252.199C324.172 252.199 335.114 248.161 337.524 247.314C339.934 246.467 342.735 244.188 342.735 244.188C342.735 244.188 343.126 244.383 343.191 244.709C343.256 245.034 343.321 246.142 343.386 246.402C343.386 246.663 343.321 247.705 342.149 248.226C340.976 248.747 325.67 254.088 325.018 254.348C324.302 254.609 324.041 252.72 324.041 252.72C324.041 252.72 323.911 252.329 324.172 252.199Z" fill="white"/>
<path fill-rule="evenodd" clip-rule="evenodd" d="M379.666 166.027C379.666 166.027 306.781 174.43 302.808 175.276C298.834 176.123 295.447 180.878 297.011 187.326C298.509 193.774 314.857 245.751 314.857 245.751C314.857 245.751 315.509 246.142 316.29 246.207C317.007 246.273 322.999 246.468 322.999 246.468L325.344 244.058L312.317 197.683L365.597 195.012C380.382 192.602 382.467 174.43 379.666 166.027Z" fill="#181D3B"/>
<path fill-rule="evenodd" clip-rule="evenodd" d="M328.405 171.563C328.405 171.563 334.202 175.862 337.719 174.494C341.237 173.061 358.041 144.011 358.041 144.011L349.965 114.896C349.965 114.896 344.558 115.092 338.175 116.525L336.938 117.632C336.938 117.632 332.183 118.414 329.512 121.475C326.842 124.471 317.984 132.352 317.658 133.004C317.332 133.655 325.344 142.513 327.428 143.881C327.428 143.881 328.405 144.207 328.991 143.621L329.968 142.839C329.968 142.839 332.118 154.042 332.118 157.364C332.118 160.686 332.118 160.686 332.118 160.686C332.118 160.686 331.011 169.283 330.099 170.065C329.252 170.912 328.405 171.563 328.405 171.563Z" fill="#D64C47"/>
<path fill-rule="evenodd" clip-rule="evenodd" d="M354.459 177.101C355.827 177.101 356.935 175.993 356.935 174.625C356.935 173.258 355.827 172.15 354.459 172.15H332.9C329.969 172.15 327.299 170.978 325.345 169.024C323.912 167.591 322.869 165.767 322.479 163.748C321.046 164.334 319.482 165.051 317.984 165.897C318.766 168.373 320.134 170.652 321.892 172.411C324.693 175.212 328.601 176.97 332.9 176.97H354.459V177.101Z" fill="white"/>
<path d="M360.778 196.445H354.59V247.38H360.778V196.445Z" fill="#070725"/>
<path d="M352.375 179.379H346.317V193.187H352.375V179.379Z" fill="#00000F"/>
<path d="M394.126 179.379H388.068V193.187H394.126V179.379Z" fill="#00000F"/>
<path fill-rule="evenodd" clip-rule="evenodd" d="M354.59 209.08H360.778C362.732 209.08 364.36 207.452 364.36 205.498V198.854C364.36 196.9 362.732 195.271 360.778 195.271H354.59C352.636 195.271 351.008 196.9 351.008 198.854V205.498C351.008 207.452 352.571 209.08 354.59 209.08Z" fill="#3B405F"/>
<path fill-rule="evenodd" clip-rule="evenodd" d="M349.64 204.587H365.663C366.249 204.587 366.705 204.132 366.705 203.545V195.208C366.705 194.622 366.249 194.166 365.663 194.166H349.64C349.054 194.166 348.598 194.622 348.598 195.208V203.545C348.598 204.132 349.054 204.587 349.64 204.587Z" fill="#070725"/>
<path fill-rule="evenodd" clip-rule="evenodd" d="M310.103 190.258H360.321C362.21 190.258 363.773 191.821 363.773 193.71V197.618C363.773 199.507 362.21 201.07 360.321 201.07H310.103C308.214 201.07 306.65 199.507 306.65 197.618V193.71C306.65 191.821 308.214 190.258 310.103 190.258Z" fill="#F18A00"/>
<path fill-rule="evenodd" clip-rule="evenodd" d="M346.644 190.258H396.862C398.751 190.258 400.314 191.821 400.314 193.71V197.618C400.314 199.507 398.751 201.07 396.862 201.07H346.644C344.755 201.07 343.191 199.507 343.191 197.618V193.71C343.191 191.821 344.755 190.258 346.644 190.258Z" fill="#FCC100"/>
<path fill-rule="evenodd" clip-rule="evenodd" d="M354.59 244.123H360.778C362.732 244.123 364.36 245.751 364.36 247.705V254.349C364.36 256.303 362.732 257.931 360.778 257.931H354.59C352.636 257.931 351.008 256.303 351.008 254.349V247.705C351.008 245.751 352.571 244.123 354.59 244.123Z" fill="#3B405F"/>
<path fill-rule="evenodd" clip-rule="evenodd" d="M350.096 250.701H365.207C366.054 250.701 366.705 251.353 366.705 252.199V264.249C366.705 265.096 366.054 265.747 365.207 265.747H350.096C349.249 265.747 348.598 265.096 348.598 264.249V252.199C348.598 251.353 349.249 250.701 350.096 250.701Z" fill="#070725"/>
<path fill-rule="evenodd" clip-rule="evenodd" d="M374.13 262.034C374.13 264.509 372.111 266.463 369.701 266.463H345.732C343.257 266.463 341.303 264.444 341.303 262.034C341.303 259.559 343.322 257.605 345.732 257.605H369.701C372.111 257.54 374.13 259.559 374.13 262.034Z" fill="#707386"/>
<path fill-rule="evenodd" clip-rule="evenodd" d="M397.448 266.464C397.448 268.939 395.429 270.893 393.019 270.893H332.053C329.578 270.893 327.624 268.874 327.624 266.464C327.624 263.989 329.643 262.035 332.053 262.035H393.019C395.429 262.035 397.448 263.989 397.448 266.464Z" fill="#101537"/>
<path fill-rule="evenodd" clip-rule="evenodd" d="M359.28 266.464C359.28 268.939 357.261 270.893 354.851 270.893H322.349C319.874 270.893 317.92 268.874 317.92 266.464C317.92 263.989 319.939 262.035 322.349 262.035H354.851C357.261 262.035 359.28 263.989 359.28 266.464Z" fill="#00000F"/>
<path fill-rule="evenodd" clip-rule="evenodd" d="M345.406 160.752C346.774 160.752 347.881 161.859 347.881 163.227C347.881 164.595 346.774 165.702 345.406 165.702H323.847C320.916 165.702 318.245 166.94 316.291 168.829C314.337 170.783 313.165 173.453 313.165 176.384V195.794C313.165 197.162 312.058 198.269 310.69 198.269C309.322 198.269 308.215 197.162 308.215 195.794V176.384C308.215 172.085 309.973 168.177 312.774 165.376C315.575 162.576 319.483 160.817 323.782 160.817H345.406V160.752Z" fill="white"/>
<path fill-rule="evenodd" clip-rule="evenodd" d="M393.214 134.698C393.214 119.978 381.165 107.928 366.444 107.928H362.862C348.142 107.928 336.092 119.978 336.092 134.698C336.092 144.989 336.092 164.269 336.092 174.56C336.092 178.338 339.218 181.464 342.996 181.464H386.375C390.153 181.464 393.28 178.338 393.28 174.56C393.214 164.269 393.214 144.924 393.214 134.698Z" fill="#F18A00"/>
<path fill-rule="evenodd" clip-rule="evenodd" d="M400.379 134.698C400.379 119.978 388.33 107.928 373.609 107.928H370.027C355.307 107.928 343.257 119.978 343.257 134.698C343.257 144.989 343.257 164.269 343.257 174.56C343.257 178.338 346.383 181.464 350.161 181.464H393.54C397.318 181.464 400.445 178.338 400.445 174.56C400.379 164.269 400.379 144.924 400.379 134.698Z" fill="#FCC100"/>
<path fill-rule="evenodd" clip-rule="evenodd" d="M324.694 242.234C324.694 242.234 325.606 242.234 326.192 243.016C326.778 243.798 328.862 249.204 328.993 249.985C329.123 250.767 326.843 252.851 322.675 255.131C318.506 257.476 302.353 264.575 302.353 264.575L302.027 264.119C302.027 264.119 301.18 263.989 300.659 263.273C300.138 262.556 299.878 260.798 300.529 259.56C301.245 258.388 306.065 254.414 306.912 253.633C307.759 252.851 311.537 246.598 311.862 246.142C312.188 245.686 314.533 243.928 317.985 244.644C321.502 245.426 324.889 244.254 324.694 242.234Z" fill="#D64C47"/>
<path fill-rule="evenodd" clip-rule="evenodd" d="M302.092 264.185C302.092 264.185 318.05 256.108 321.502 254.415C325.019 252.721 328.797 249.139 328.797 249.139C328.797 249.139 329.448 249.204 329.644 249.595C329.839 249.92 330.295 251.223 330.36 251.484C330.49 251.744 330.621 253.047 328.927 253.959C327.234 254.936 304.893 265.943 303.851 266.399C302.808 266.855 301.897 264.771 301.897 264.771C301.897 264.771 301.701 264.38 302.092 264.185Z" fill="white"/>
<path fill-rule="evenodd" clip-rule="evenodd" d="M332.51 78.0324L335.115 77.4462C341.303 76.0132 347.556 79.8561 348.989 86.0439L351.855 98.4194C353.287 104.607 349.445 110.86 343.257 112.293L340.651 112.879C334.464 114.312 328.211 110.469 326.778 104.281L323.912 91.9059C322.414 85.7182 326.322 79.4653 332.51 78.0324Z" fill="#F5AC83"/>
<path fill-rule="evenodd" clip-rule="evenodd" d="M349.249 87.4757L351.789 98.4183C353.222 104.606 349.379 110.859 343.191 112.292L340.586 112.878C338.045 113.464 335.44 113.139 333.226 112.162C333.551 112.292 335.701 113.139 336.222 111.51C336.743 109.752 333.747 104.215 333.747 104.215C333.747 104.215 333.551 103.824 333.812 103.499C334.072 103.173 335.766 100.112 335.049 96.3991C334.333 92.6865 339.088 90.0811 339.088 90.0811L327.95 93.0773V95.3569C327.95 95.3569 326.712 92.8167 323.977 92.5562L323.846 91.9049C323.195 88.9738 323.651 86.0428 325.019 83.6328C328.731 84.0888 340.846 85.652 349.249 87.4757Z" fill="#ED7862"/>
<path fill-rule="evenodd" clip-rule="evenodd" d="M328.731 98.8089C328.731 98.8089 327.754 98.6786 327.363 97.3108C327.037 95.8778 326.907 95.4219 326.907 95.4219C326.907 95.4219 325.865 93.9889 325.213 91.2533C325.213 91.2533 318.635 90.3414 317.332 84.2188C316.03 78.1614 321.696 71.7131 322.543 71.0617C323.39 70.4104 326.907 69.238 331.271 71.192C331.271 71.192 331.987 71.6479 333.486 71.0617C334.918 70.4755 342.995 68.1958 346.903 68.0656C350.811 67.9353 353.351 71.9736 355.175 76.8587C355.175 76.8587 355.371 74.9046 357.39 74.4487C359.344 74.0579 358.302 77.7054 356.869 79.0081C356.869 79.0081 360.191 80.7016 360.842 84.284C361.493 87.8663 360.256 103.694 357.259 106.82C354.263 109.947 346.708 111.315 344.298 111.901C341.888 112.487 337.133 109.947 335.179 103.368C335.179 103.368 336.156 100.046 335.374 97.3759C334.593 94.6403 333.876 92.6863 332.834 92.2954C331.792 91.9698 329.317 94.5751 329.122 95.7476C328.926 96.92 329.382 98.5483 329.382 98.5483C329.382 98.5483 329.122 98.874 328.731 98.8089Z" fill="#101537"/>
<path fill-rule="evenodd" clip-rule="evenodd" d="M328.731 98.8096C328.731 98.8096 327.754 98.6794 327.363 97.3115C327.037 95.8786 326.907 95.4227 326.907 95.4227C326.907 95.4227 325.865 93.9897 325.213 91.2541C325.213 91.2541 318.635 90.3422 317.332 84.2196C316.03 78.1621 321.696 71.7138 322.543 71.0625C322.543 71.0625 316.355 77.8364 323.194 81.2886C330.033 84.7407 340.129 86.9552 346.773 86.5644C353.417 86.1736 358.106 74.6449 358.106 74.6449C358.888 75.3614 357.976 78.0319 356.804 79.0089C356.804 79.0089 360.125 80.7023 360.777 84.2847C361.428 87.8671 360.191 103.695 357.194 106.821C354.198 109.948 346.643 111.315 344.233 111.902C341.823 112.488 337.068 109.948 335.114 103.369C335.114 103.369 336.091 100.047 335.309 97.3767C334.528 94.641 333.811 92.687 332.769 92.2962C331.727 91.9705 329.252 94.5759 329.056 95.7483C328.861 96.9207 329.317 98.5491 329.317 98.5491C329.317 98.5491 329.122 98.8748 328.731 98.8096Z" fill="#070725"/>
<path fill-rule="evenodd" clip-rule="evenodd" d="M419.854 199.832C419.854 199.441 419.529 199.115 419.138 199.115C418.747 199.115 418.421 199.441 418.421 199.832V201.59H416.663C416.272 201.59 415.946 201.916 415.946 202.307C415.946 202.698 416.272 203.023 416.663 203.023H418.421V204.782C418.421 205.173 418.747 205.498 419.138 205.498C419.529 205.498 419.854 205.173 419.854 204.782V203.023H421.613C422.004 203.023 422.329 202.698 422.329 202.307C422.329 201.916 422.004 201.59 421.613 201.59H419.854V199.832Z" fill="#9FB2D9"/>
<path fill-rule="evenodd" clip-rule="evenodd" d="M375.237 45.7907C375.237 45.3999 374.911 45.0742 374.521 45.0742C374.13 45.0742 373.804 45.3999 373.804 45.7907V47.5493H372.046C371.655 47.5493 371.329 47.875 371.329 48.2658C371.329 48.6566 371.655 48.9823 372.046 48.9823H373.804V50.7409C373.804 51.1317 374.13 51.4574 374.521 51.4574C374.911 51.4574 375.237 51.1317 375.237 50.7409V48.9823H376.996C377.387 48.9823 377.712 48.6566 377.712 48.2658C377.712 47.875 377.387 47.5493 376.996 47.5493H375.237V45.7907Z" fill="#9FB2D9"/>
<path fill-rule="evenodd" clip-rule="evenodd" d="M291.019 17.9782C291.019 17.5874 290.694 17.2617 290.303 17.2617C289.912 17.2617 289.586 17.5874 289.586 17.9782V19.7368H287.828C287.437 19.7368 287.111 20.0625 287.111 20.4533C287.111 20.8441 287.437 21.1698 287.828 21.1698H289.586V22.9284C289.586 23.3192 289.912 23.6449 290.303 23.6449C290.694 23.6449 291.019 23.3192 291.019 22.9284V21.1698H292.778C293.169 21.1698 293.494 20.8441 293.494 20.4533C293.494 20.0625 293.169 19.7368 292.778 19.7368H291.019V17.9782Z" fill="#9FB2D9"/>
<path fill-rule="evenodd" clip-rule="evenodd" d="M83.1112 166.158C83.1112 165.767 82.7855 165.441 82.3947 165.441C82.0039 165.441 81.6782 165.767 81.6782 166.158V167.916H79.9196C79.5288 167.916 79.2031 168.242 79.2031 168.633C79.2031 169.024 79.5288 169.349 79.9196 169.349H81.6782V171.108C81.6782 171.499 82.0039 171.825 82.3947 171.825C82.7855 171.825 83.1112 171.499 83.1112 171.108V169.349H84.8698C85.2606 169.349 85.5863 169.024 85.5863 168.633C85.5863 168.242 85.2606 167.916 84.8698 167.916H83.1112V166.158Z" fill="#9FB2D9"/>
<path fill-rule="evenodd" clip-rule="evenodd" d="M155.541 70.2165C155.541 69.8257 155.215 69.5 154.824 69.5C154.434 69.5 154.108 69.8257 154.108 70.2165V71.9751H152.349C151.958 71.9751 151.633 72.3008 151.633 72.6916C151.633 73.0824 151.958 73.408 152.349 73.408H154.108V75.1667C154.108 75.5575 154.434 75.8831 154.824 75.8831C155.215 75.8831 155.541 75.5575 155.541 75.1667V73.408H157.299C157.69 73.408 158.016 73.0824 158.016 72.6916C158.016 72.3008 157.69 71.9751 157.299 71.9751H155.541V70.2165Z" fill="#9FB2D9"/>
<path fill-rule="evenodd" clip-rule="evenodd" d="M70.4745 236.892C70.4745 236.501 70.1488 236.176 69.758 236.176C69.3672 236.176 69.0415 236.501 69.0415 236.892V238.651H67.2829C66.8921 238.651 66.5664 238.977 66.5664 239.367C66.5664 239.758 66.8921 240.084 67.2829 240.084H69.0415V241.842C69.0415 242.233 69.3672 242.559 69.758 242.559C70.1488 242.559 70.4745 242.233 70.4745 241.842V240.084H72.2331C72.6239 240.084 72.9495 239.758 72.9495 239.367C72.9495 238.977 72.6239 238.651 72.2331 238.651H70.4745V236.892Z" fill="#9FB2D9"/>
<path fill-rule="evenodd" clip-rule="evenodd" d="M3.97318 183.027C3.97318 182.636 3.64751 182.311 3.25671 182.311C2.8659 182.311 2.54023 182.636 2.54023 183.027V184.786H0.716475C0.325671 184.786 0 185.111 0 185.502C0 185.893 0.325671 186.219 0.716475 186.219H2.4751V187.977C2.4751 188.368 2.80077 188.694 3.19157 188.694C3.58238 188.694 3.90805 188.368 3.90805 187.977V186.219H5.66667C6.05747 186.219 6.38314 185.893 6.38314 185.502C6.38314 185.111 6.05747 184.786 5.66667 184.786H3.97318V183.027Z" fill="#9FB2D9"/>
<path fill-rule="evenodd" clip-rule="evenodd" d="M184.2 180.16C194.751 174.558 197.422 186.738 193.318 196.834C189.215 206.93 168.177 240.865 167.135 254.347C166.679 259.558 165.767 258.972 164.92 255.324C160.751 237.087 169.74 187.846 184.2 180.16Z" fill="#294D3C"/>
<path fill-rule="evenodd" clip-rule="evenodd" d="M161.923 133.915C149.808 123.037 142.317 138.279 144.402 152.934C146.486 167.654 163.095 219.436 160.099 237.608C158.927 244.643 160.425 244.187 162.704 239.627C174.168 216.896 178.532 148.896 161.923 133.915Z" fill="#4A9075"/>
<path fill-rule="evenodd" clip-rule="evenodd" d="M159.773 242.625C160.033 243.276 160.62 242.951 161.401 241.843C173.972 199.897 154.367 137.238 154.301 137.043C154.171 136.717 153.846 136.522 153.455 136.587C153.129 136.717 152.934 137.043 152.999 137.433C153.129 137.629 172.995 201.2 159.773 242.625Z" fill="#1B7154"/>
<path fill-rule="evenodd" clip-rule="evenodd" d="M135.544 168.763C123.82 163.682 121.996 176.905 127.207 187.326C132.418 197.748 157.69 232.203 159.969 246.468C160.881 252.004 161.858 251.288 162.445 247.315C165.31 227.514 151.632 175.797 135.544 168.763Z" fill="#A6C86B"/>
<path fill-rule="evenodd" clip-rule="evenodd" d="M161.012 250.309C161.403 250.765 161.729 250.374 161.989 249.332C160.947 214.941 130.725 173.125 130.594 172.995C130.399 172.735 130.138 172.735 129.878 172.865C129.617 173.06 129.617 173.321 129.748 173.581C129.878 173.712 160.556 216.114 161.012 250.309Z" fill="#5F9850"/>
<path fill-rule="evenodd" clip-rule="evenodd" d="M152.022 242.689H174.493L180.356 247.965L175.601 266.463H163.225H150.915L146.16 247.965L152.022 242.689Z" fill="#3B405F"/>
<path fill-rule="evenodd" clip-rule="evenodd" d="M146.16 235.785H180.421C181.463 235.785 182.31 236.632 182.31 237.674V246.141C182.31 247.184 181.463 248.03 180.421 248.03H146.16C145.118 248.03 144.271 247.184 144.271 246.141V237.674C144.271 236.632 145.118 235.785 146.16 235.785Z" fill="#3B405F"/>
<path fill-rule="evenodd" clip-rule="evenodd" d="M180.356 247.965L179.379 251.808H147.137L146.16 247.965H180.356Z" fill="#101537"/>
</g>
<defs>
<clipPath id="clip0">
<rect width="445.973" height="272" fill="white"/>
</clipPath>
</defs>
</svg>
