<svg width="14" height="14" viewBox="0 0 14 14" fill="none" xmlns="http://www.w3.org/2000/svg">
<path fill-rule="evenodd" clip-rule="evenodd" d="M6.80016 13.3942C3.21056 13.3942 0.300781 10.465 0.300781 6.8514C0.300781 3.23781 3.21056 0.308594 6.80016 0.308594C10.3898 0.308594 13.2995 3.23781 13.2995 6.8514C13.2995 10.465 10.3898 13.3942 6.80016 13.3942ZM11.9997 6.8514C11.9997 5.46319 11.4519 4.13184 10.4768 3.15023C9.50167 2.16862 8.17916 1.61716 6.80016 1.61716C5.42117 1.61716 4.09865 2.16862 3.12356 3.15023C2.14846 4.13184 1.60066 5.46319 1.60066 6.8514C1.60066 8.23961 2.14846 9.57096 3.12356 10.5526C4.09865 11.5342 5.42117 12.0856 6.80016 12.0856C8.17916 12.0856 9.50167 11.5342 10.4768 10.5526C11.4519 9.57096 11.9997 8.23961 11.9997 6.8514ZM9.39992 6.19712C9.57229 6.19712 9.73761 6.26605 9.85949 6.38876C9.98138 6.51146 10.0499 6.67788 10.0499 6.8514C10.0499 7.02493 9.98138 7.19135 9.85949 7.31405C9.73761 7.43675 9.57229 7.50568 9.39992 7.50568H7.4501C6.73517 7.50568 6.15023 6.91683 6.15023 6.19712V3.58C6.15023 3.40647 6.2187 3.24005 6.34059 3.11735C6.46248 2.99465 6.62779 2.92572 6.80016 2.92572C6.97254 2.92572 7.13785 2.99465 7.25974 3.11735C7.38163 3.24005 7.4501 3.40647 7.4501 3.58V6.19712H9.39992Z" fill="#2C2C2C"/>
</svg>
