<svg width="24" height="20" viewBox="0 0 24 20" fill="none" xmlns="http://www.w3.org/2000/svg">
<path d="M24 2.38505C23.1169 2.77664 22.1679 3.0413 21.1719 3.16036C22.1887 2.55098 22.9693 1.58602 23.3369 0.436266C22.3704 1.00981 21.3129 1.41392 20.2103 1.63111C19.312 0.674203 18.0324 0.0761719 16.6162 0.0761719C13.8968 0.0761719 11.6921 2.2808 11.6921 4.99992C11.6921 5.38589 11.7357 5.76164 11.8196 6.12211C7.72744 5.9167 4.09931 3.95648 1.67072 0.977484C1.24697 1.7047 1.00416 2.55061 1.00416 3.45286C1.00416 5.16117 1.8735 6.6682 3.19462 7.55123C2.4127 7.52675 1.64798 7.31556 0.964313 6.9353C0.964031 6.95592 0.964031 6.97655 0.964031 6.99727C0.964031 9.38292 2.66128 11.373 4.91372 11.8254C4.18864 12.0226 3.42809 12.0514 2.69016 11.9098C3.31669 13.866 5.13516 15.2895 7.28972 15.3293C5.60456 16.6499 3.48141 17.4371 1.17459 17.4371C0.777094 17.4371 0.385219 17.4137 0 17.3683C2.17903 18.7653 4.76719 19.5805 7.54781 19.5805C16.6047 19.5805 21.5573 12.0776 21.5573 5.57095C21.5573 5.35739 21.5526 5.14505 21.543 4.93392C22.507 4.23706 23.339 3.37394 24 2.38505Z" fill="#55ACEE"/>
</svg>
