<svg width="18" height="20" viewBox="0 0 18 20" fill="none" xmlns="http://www.w3.org/2000/svg">
<path d="M16.9629 15.8969C16.5208 14.8496 15.8792 13.8984 15.0739 13.0961C14.271 12.2915 13.3199 11.65 12.2731 11.207C12.2637 11.2023 12.2544 11.2 12.245 11.1953C13.7051 10.1406 14.6544 8.42266 14.6544 6.48438C14.6544 3.27344 12.0528 0.671875 8.84186 0.671875C5.63092 0.671875 3.02936 3.27344 3.02936 6.48438C3.02936 8.42266 3.97857 10.1406 5.43873 11.1977C5.42936 11.2023 5.41998 11.2047 5.41061 11.2094C4.36061 11.6523 3.41842 12.2875 2.60982 13.0984C1.80524 13.9013 1.16374 14.8524 0.720762 15.8992C0.285579 16.924 0.0508756 18.0228 0.0293555 19.1359C0.0287299 19.161 0.0331175 19.1858 0.0422598 19.2091C0.0514021 19.2324 0.065114 19.2537 0.0825877 19.2716C0.100061 19.2895 0.120943 19.3037 0.144003 19.3134C0.167062 19.3231 0.191833 19.3281 0.216855 19.3281H1.62311C1.72623 19.3281 1.80826 19.2461 1.81061 19.1453C1.85748 17.3359 2.58404 15.6414 3.86842 14.357C5.19732 13.0281 6.96217 12.2969 8.84186 12.2969C10.7215 12.2969 12.4864 13.0281 13.8153 14.357C15.0997 15.6414 15.8262 17.3359 15.8731 19.1453C15.8755 19.2484 15.9575 19.3281 16.0606 19.3281H17.4669C17.4919 19.3281 17.5167 19.3231 17.5397 19.3134C17.5628 19.3037 17.5837 19.2895 17.6011 19.2716C17.6186 19.2537 17.6323 19.2324 17.6415 19.2091C17.6506 19.1858 17.655 19.161 17.6544 19.1359C17.6309 18.0156 17.3989 16.9258 16.9629 15.8969ZM8.84186 10.5156C7.76607 10.5156 6.75357 10.0961 5.99186 9.33438C5.23014 8.57266 4.81061 7.56016 4.81061 6.48438C4.81061 5.40859 5.23014 4.39609 5.99186 3.63437C6.75357 2.87266 7.76607 2.45312 8.84186 2.45312C9.91764 2.45312 10.9301 2.87266 11.6919 3.63437C12.4536 4.39609 12.8731 5.40859 12.8731 6.48438C12.8731 7.56016 12.4536 8.57266 11.6919 9.33438C10.9301 10.0961 9.91764 10.5156 8.84186 10.5156Z" fill="white"/>
</svg>
