<svg width="34" height="30" viewBox="0 0 34 30" fill="none" xmlns="http://www.w3.org/2000/svg">
<path d="M34 6.31805V29.7754H0V0.224609H8.45949L16.7563 2.20418L34 6.31805Z" fill="#EEEFFF"/>
<path d="M33.9996 6.31699V29.7743H16.7559V2.20312L33.9996 6.31699Z" fill="#DFE1F7"/>
<path d="M33.9995 0.224609V6.31811H11.1889L8.45898 0.224609H33.9995Z" fill="#555C7C"/>
<path d="M16.7559 0.224609H33.9996V6.31811H16.7559V0.224609Z" fill="#373B5B"/>
<path d="M28.3672 2.2168H30.3594V4.20898H28.3672V2.2168Z" fill="#FF6E91"/>
<path d="M24.3828 2.2168H26.375V4.20898H24.3828V2.2168Z" fill="#33C1B0"/>
<path d="M20.3984 2.2168H22.3906V4.20898H20.3984V2.2168Z" fill="#64C8FF"/>
<path d="M13.3304 20.6408C13.3304 21.6817 12.4835 22.5286 11.4425 22.5286C10.4016 22.5286 9.55468 21.6817 9.55468 20.6408V12.8984H7.5625V20.6408C7.5625 22.7802 9.30307 24.5208 11.4425 24.5208C13.582 24.5208 15.3226 22.7802 15.3226 20.6408V12.8984H13.3304V20.6408Z" fill="#7BE6FF"/>
<path d="M26.749 13.9527L25.0914 12.8477L22.3794 16.9157L19.6673 12.8477L18.0098 13.9527L21.1823 18.7114L18.0098 23.4701L19.6673 24.5752L22.3794 20.5071L25.0914 24.5752L26.749 23.4701L23.5765 18.7114L26.749 13.9527Z" fill="#64C8FF"/>
</svg>
