<svg width="38" height="38" viewBox="0 0 38 38" fill="none" xmlns="http://www.w3.org/2000/svg">
<path d="M19.0003 34.8327C10.2556 34.8327 3.16699 27.7441 3.16699 18.9993C3.16699 10.2546 10.2556 3.16602 19.0003 3.16602C27.7451 3.16602 34.8337 10.2546 34.8337 18.9993C34.8242 27.7393 27.7403 34.8232 19.0003 34.8327ZM6.33366 19.2717C6.36965 22.6191 7.72928 25.8162 10.1154 28.1641C12.5015 30.5121 15.7201 31.82 19.0677 31.802C22.4152 31.784 25.6196 30.4416 27.9803 28.0681C30.3411 25.6946 31.6663 22.4831 31.6663 19.1355C31.6663 15.7879 30.3411 12.5764 27.9803 10.2029C25.6196 7.82946 22.4152 6.48703 19.0677 6.46903C15.7201 6.45104 12.5015 7.75895 10.1154 10.1069C7.72928 12.4549 6.36965 15.6519 6.33366 18.9993V19.2717ZM15.8337 26.1243V11.8743L25.3337 18.9993L15.8337 26.1243Z" fill="#B1A7E4"/>
</svg>
