<svg width="28" height="32" viewBox="0 0 28 32" fill="none" xmlns="http://www.w3.org/2000/svg">
<path d="M25.6407 17.4851L25.6407 17.4851L25.6346 17.4886L4.1599 29.9489C4.15983 29.9489 4.15975 29.949 4.15968 29.949C4.15962 29.949 4.15957 29.9491 4.15951 29.9491C2.97296 30.6365 1.5 29.7853 1.5 28.4617V3.54067C1.5 2.2192 2.97059 1.36657 4.15939 2.05655L4.15951 2.05662L25.6346 14.5171L25.6346 14.5171L25.6407 14.5206C25.9021 14.6699 26.1194 14.8856 26.2706 15.1459C26.4217 15.4062 26.5013 15.7019 26.5013 16.0029C26.5013 16.3039 26.4217 16.5995 26.2706 16.8598C26.1194 17.1201 25.9021 17.3359 25.6407 17.4851Z" stroke="white" stroke-width="2"/>
</svg>
