<svg width="84" height="84" viewBox="0 0 84 84" fill="none" xmlns="http://www.w3.org/2000/svg">
<path d="M25.1974 25.9216H20.5587L33.2052 61.6703L40.2851 41.4384L34.796 25.9216H29.9017V22.5152H51.5752V25.9216H46.4998L59.1461 61.6703L63.692 48.6795C69.6553 32.0357 58.8044 26.8511 58.8044 23.1367C58.8044 19.4222 61.8156 16.4112 65.5299 16.4112C65.7309 16.4112 65.926 16.4221 66.1172 16.4399C59.8237 10.4988 51.3375 6.85547 41.9995 6.85547C29.7981 6.85547 19.0505 13.0749 12.75 22.5152H25.1971V25.9216H25.1974Z" fill="#00769D"/>
<path d="M6.85742 41.9988C6.85742 55.4531 14.4195 67.1395 25.5241 73.0448L9.66503 28.2148C7.85846 32.4472 6.85742 37.106 6.85742 41.9988Z" fill="#00769D"/>
<path d="M72.5838 24.6836C73.0864 27.6434 72.9343 30.97 72.1629 34.3095H72.3027L71.7713 35.8279C71.4564 36.9243 71.06 38.0458 70.6096 39.1477L58.5176 73.0238C69.5988 67.1114 77.1416 55.4376 77.1416 42.0004C77.1416 35.7039 75.4841 29.795 72.5838 24.6836Z" fill="#00769D"/>
<path d="M31.1621 75.4378C34.5762 76.5437 38.2178 77.1436 42.0004 77.1436C45.6083 77.1436 49.0887 76.599 52.3653 75.589L42.0858 46.5312L31.1621 75.4378Z" fill="#00769D"/>
<path d="M71.6984 12.3014C63.7657 4.36874 53.2184 0 41.9998 0C30.7812 0 20.2342 4.36874 12.3015 12.3014C4.36874 20.2342 0 30.7812 0 42C0 53.2186 4.36874 63.7656 12.3015 71.6983C20.2342 79.6311 30.7814 83.9998 42 83.9998C53.2186 83.9998 63.7657 79.6311 71.6985 71.6983C79.6313 63.7656 84 53.2184 84 42C83.9998 30.7812 79.6311 20.2342 71.6984 12.3014ZM41.9998 81.037C20.4747 81.037 2.96278 63.5251 2.96278 42C2.96278 20.4749 20.4747 2.96278 41.9998 2.96278C63.5249 2.96278 81.0368 20.4749 81.0368 42C81.0368 63.5251 63.5251 81.037 41.9998 81.037Z" fill="#00769D"/>
</svg>
