<svg width="30" height="24" viewBox="0 0 30 24" fill="none" xmlns="http://www.w3.org/2000/svg">
<path d="M26.3359 0.667969H3.66927C2.11094 0.667969 0.850104 1.94297 0.850104 3.5013L0.835938 20.5013C0.835938 22.0596 2.11094 23.3346 3.66927 23.3346H26.3359C27.8943 23.3346 29.1693 22.0596 29.1693 20.5013V3.5013C29.1693 1.94297 27.8943 0.667969 26.3359 0.667969ZM25.7693 6.6888L15.7534 12.9505C15.3001 13.2338 14.7051 13.2338 14.2518 12.9505L4.23594 6.6888C4.09388 6.60906 3.96949 6.50132 3.87028 6.37211C3.77107 6.2429 3.69911 6.0949 3.65875 5.93708C3.6184 5.77925 3.61048 5.61488 3.63549 5.4539C3.6605 5.29293 3.71791 5.1387 3.80425 5.00056C3.89059 4.86242 4.00406 4.74323 4.1378 4.65021C4.27154 4.55719 4.42276 4.49228 4.58231 4.45939C4.74186 4.42651 4.90642 4.42634 5.06604 4.4589C5.22566 4.49145 5.37701 4.55606 5.51094 4.6488L15.0026 10.5846L24.4943 4.6488C24.6282 4.55606 24.7796 4.49145 24.9392 4.4589C25.0988 4.42634 25.2634 4.42651 25.4229 4.45939C25.5825 4.49228 25.7337 4.55719 25.8674 4.65021C26.0011 4.74323 26.1146 4.86242 26.201 5.00056C26.2873 5.1387 26.3447 5.29293 26.3697 5.4539C26.3947 5.61488 26.3868 5.77925 26.3465 5.93708C26.3061 6.0949 26.2341 6.2429 26.1349 6.37211C26.0357 6.50132 25.9113 6.60906 25.7693 6.6888Z" fill="#757575"/>
</svg>
